<svg width="188" height="188" viewBox="0 0 188 188" fill="none" xmlns="http://www.w3.org/2000/svg">
<path d="M115.502 67.1251V77.8659M115.502 77.8659C116.927 77.8654 118.294 77.2995 119.301 76.2926C120.309 75.2856 120.875 73.9201 120.875 72.4963M115.502 77.8659C114.077 77.8659 112.71 77.3001 111.702 76.2932C110.695 75.2862 110.128 73.9204 110.128 72.4963M104.531 72.4963H110.128M110.128 72.4963C110.128 71.0722 110.695 69.7064 111.702 68.6994C112.71 67.6924 114.077 67.1267 115.502 67.1267C116.927 67.1271 118.294 67.693 119.301 68.7C120.309 69.7069 120.875 71.0724 120.875 72.4963M120.875 72.4963H126.473M126.473 72.4963C126.566 77.508 122.742 82.2485 117.821 83.2226C113.384 84.2176 108.455 82.141 106.128 78.2221C103.644 74.2358 104.108 68.6737 107.295 65.2025C109.403 62.7937 112.609 61.481 115.783 61.5324C117.235 61.5498 118.667 61.8707 119.987 62.4744C123.838 64.1947 126.545 68.2548 126.473 72.4963ZM163.636 109.202V132.071M163.636 109.202C162.134 109.202 160.646 109.498 159.258 110.073C157.869 110.648 156.608 111.49 155.546 112.552C154.483 113.613 153.641 114.874 153.066 116.261C152.491 117.648 152.195 119.135 152.195 120.637C152.195 123.669 153.401 126.577 155.546 128.721C157.692 130.865 160.602 132.069 163.636 132.069C166.671 132.069 169.581 130.865 171.726 128.721C173.872 126.577 175.077 123.669 175.077 120.637M163.636 109.202C165.139 109.202 166.627 109.498 168.015 110.073C169.403 110.648 170.664 111.49 171.727 112.552C172.789 113.613 173.632 114.874 174.207 116.261C174.782 117.648 175.077 119.135 175.077 120.637M140.278 120.637H152.197M175.077 120.637H186.995M67.3586 109.202V132.071M67.3586 109.202C65.856 109.202 64.3681 109.498 62.9799 110.073C61.5917 110.648 60.3304 111.49 59.268 112.552C58.2056 113.613 57.3629 114.874 56.788 116.261C56.2131 117.648 55.9174 119.135 55.9176 120.637C55.9176 123.669 57.123 126.577 59.2686 128.721C61.4142 130.865 64.3242 132.069 67.3586 132.069C70.3929 132.069 73.303 130.865 75.4486 128.721C77.5942 126.577 78.7996 123.669 78.7996 120.637M67.3586 109.202C68.8612 109.202 70.349 109.498 71.7372 110.073C73.1254 110.648 74.3867 111.49 75.4491 112.552C76.5116 113.613 77.3543 114.874 77.9291 116.261C78.504 117.648 78.7998 119.135 78.7996 120.637M44 120.637H55.9192M78.7996 120.637H90.7171M163.636 12.9155V35.7836M140.278 24.348H152.197M175.077 24.348H186.995M175.077 24.348C175.077 27.38 173.872 30.2879 171.726 32.4319C169.581 34.5759 166.671 35.7804 163.636 35.7804C160.602 35.7804 157.692 34.5759 155.546 32.4319C153.401 30.2879 152.195 27.38 152.195 24.348C152.195 22.8465 152.491 21.3597 153.066 19.9724C153.641 18.5852 154.483 17.3247 155.546 16.2629C156.608 15.2012 157.869 14.3589 159.258 13.7843C160.646 13.2096 162.134 12.9139 163.636 12.9139C165.139 12.9139 166.627 13.2096 168.015 13.7843C169.403 14.3589 170.664 15.2012 171.727 16.2629C172.789 17.3247 173.632 18.5852 174.207 19.9724C174.782 21.3597 175.077 22.8465 175.077 24.348ZM67.3586 12.9155V35.7836M44 24.348H55.9192M78.7996 24.348H90.7171M78.7996 24.348C78.7996 27.38 77.5942 30.2879 75.4486 32.4319C73.303 34.5759 70.3929 35.7804 67.3586 35.7804C64.3242 35.7804 61.4142 34.5759 59.2686 32.4319C57.123 30.2879 55.9176 27.38 55.9176 24.348C55.9174 22.8465 56.2131 21.3597 56.788 19.9724C57.3629 18.5852 58.2056 17.3247 59.268 16.2629C60.3304 15.2012 61.5917 14.3589 62.9799 13.7843C64.3681 13.2096 65.856 12.9139 67.3586 12.9139C68.8612 12.9139 70.349 13.2096 71.7372 13.7843C73.1254 14.3589 74.3867 15.2012 75.4491 16.2629C76.5116 17.3247 77.3543 18.5852 77.9291 19.9724C78.504 21.3597 78.7998 22.8465 78.7996 24.348ZM164.235 97.2918C157.476 97.181 150.652 99.9766 146.163 105.105C139.376 112.497 138.389 124.339 143.676 132.827C148.635 141.171 159.126 145.591 168.575 143.474C179.054 141.401 187.195 131.305 186.996 120.637C187.15 111.605 181.388 102.961 173.187 99.2962C170.368 97.9915 167.306 97.3431 164.233 97.2918H164.235ZM67.9571 97.2902C61.1984 97.1794 54.3739 99.975 49.8858 105.104C43.0982 112.496 42.1114 124.337 47.3986 132.825C52.3569 141.17 62.848 145.589 72.2976 143.473C82.7758 141.399 90.9177 131.304 90.7188 120.635C90.8728 111.603 85.1106 102.96 76.9093 99.2945C74.09 97.9899 71.0284 97.3415 67.9555 97.2902H67.9571ZM164.235 1.00317C157.476 0.892438 150.652 3.68797 146.163 8.81686C139.376 16.2085 138.387 28.0486 143.676 36.5379C148.635 44.8828 159.126 49.3023 168.575 47.1856C179.054 45.1122 187.195 35.0166 186.996 24.348C187.15 15.3162 181.388 6.67287 173.187 3.00754C170.368 1.70285 167.306 1.05452 164.233 1.00317H164.235ZM67.9571 1.00317C61.1984 0.892438 54.3739 3.68797 49.8858 8.81686C43.0982 16.2085 42.1114 28.0502 47.3986 36.5379C52.3569 44.8828 62.848 49.3023 72.2976 47.1856C82.7758 45.1122 90.9177 35.0166 90.7188 24.348C90.8728 15.3162 85.1106 6.67287 76.9093 3.00754C74.09 1.70285 71.0284 1.05452 67.9555 1.00317H67.9571Z" stroke="#1B1D2D" stroke-opacity="0.2"/>
</svg>
