<svg id="Layer_1" data-name="Layer 1" xmlns="http://www.w3.org/2000/svg" viewBox="0 0 40.24 33.53"><defs><style>.cls-1{fill:#dadefe;}</style></defs><title>briefcase</title><path class="cls-1" d="M35.83,5.23H26.77V2.83a2.66,2.66,0,0,0-2.6-2.6H15.83a2.66,2.66,0,0,0-2.6,2.6v2.4H4.17A4.23,4.23,0,0,0-.1,9.5v3h0a1,1,0,0,0,0,.56V29.5a4.23,4.23,0,0,0,4.27,4.27H35.83A4.23,4.23,0,0,0,40.1,29.5V9.5A4.23,4.23,0,0,0,35.83,5.23ZM0,13.05ZM24.9,5.23H15.1V2.83a.75.75,0,0,1,.2-.53.75.75,0,0,1,.53-.2h8.34a.75.75,0,0,1,.53.2.75.75,0,0,1,.2.53ZM20,18.67ZM1.77,14.21l17.86,6.22,0-.1h0l0,.1h.48a.15.15,0,0,0,.11-.05.17.17,0,0,0,0-.11v0l18-6.25V29.5a2.46,2.46,0,0,1-2.4,2.4H4.17a2.46,2.46,0,0,1-2.4-2.4Zm36.46-2.1L20,18.56,1.77,12.11V9.5a2.46,2.46,0,0,1,2.4-2.4H35.83a2.46,2.46,0,0,1,2.4,2.4Z" transform="translate(0.14 -0.23)"/></svg>