<svg width="648" height="485" viewBox="0 0 648 485" fill="none" xmlns="http://www.w3.org/2000/svg">
<path d="M596.677 482.961C627.955 436.369 644.615 381.502 644.524 325.385C644.524 168.963 517.724 42.1625 361.302 42.1625C204.88 42.1625 78.08 168.966 78.08 325.388C77.9894 381.824 94.8387 436.988 126.447 483.742L596.677 482.961Z" fill="#FAFAFF"/>
<path d="M314.308 216.52C301.225 217.245 303.397 216.52 281.603 214.338C259.809 212.156 256.895 231.782 248.898 235.414C240.901 239.046 234.376 244.864 224.556 256.807C216.109 267.102 220.255 289.103 221.564 294.981C212.557 313.051 203.902 334.56 200.935 355.33C199.274 366.945 195.131 382.079 190.302 397.179C195.026 370.394 202.058 330.284 203.48 320.802C204.754 312.305 208.76 291.891 213.335 273.926V273.905C216.059 263.181 218.967 253.336 221.631 247.42C246.698 239.251 255.089 213.244 255.089 213.244C274.711 211.79 274.711 199.432 281.255 200.161C287.798 200.89 292.869 196.525 298.695 194.346C304.52 192.168 309.606 195.071 320.517 194.346C331.428 193.621 329.238 191.439 334.905 192.115C340.572 192.791 347.041 196.891 347.041 196.891C339.776 179.448 304.889 177.994 286.15 180.169C267.412 182.344 269.256 193.994 253.284 199.077C237.311 204.159 214.025 224.514 208.211 237.596C204.117 246.804 208.32 261.044 211.171 268.675C210.9 269.689 210.636 270.713 210.393 271.751C198.035 324.078 192.224 348.062 192.224 348.062C192.224 348.062 188.87 363.721 184.259 380.668C184.023 377.444 183.664 373.322 183.136 368.046C180.958 346.245 191.858 271.389 194.047 258.306C194.797 253.794 197.021 245.473 199.612 236.512C199.612 236.512 217.305 208.886 227.477 202.822C237.649 196.757 242.739 179.092 250.732 169.645C258.081 160.962 258.679 162.708 266.064 159.663C269.048 161.923 273.261 164.521 277.26 164.918C284.528 165.647 285.475 160.557 292.268 164.918C299.061 169.279 294.696 171.468 303.414 172.172C312.133 172.876 326.673 177.262 326.673 177.262C326.673 177.262 318.679 167.086 315.058 161.997C311.436 156.908 312.879 155.457 306.336 153.279C299.793 151.1 305.29 141.199 284.003 143.244C277.077 143.29 266.588 143.121 259.746 141.921C248.782 139.999 238.008 149.664 227.47 151.424C216.932 153.184 214.025 166.358 206.507 176.009C198.989 185.66 202.396 188.887 190.961 199.063C179.525 209.238 189.665 221.8 189.665 221.8C187.905 226.963 191.2 236.396 193.4 241.707C187.328 267.647 180.539 305.153 176.723 327.053C175.013 287.146 173.556 238.441 175.062 212.438C178.325 207.735 184.868 198.82 190.957 193.642C199.499 186.378 197.673 185.646 204.219 173.999C210.766 162.352 212.941 151.473 224.556 142.959C236.171 134.445 234.731 121.668 242.725 118.033C250.718 114.397 264.899 100.962 264.899 100.962C271.801 100.61 286.115 95.035 286.115 95.035C290.979 96.0205 307.05 87.8724 307.05 87.8724C288.882 79.8792 274.345 89.326 254.723 89.326C235.101 89.326 220.565 103.891 211.118 108.234C201.671 112.577 194.403 123.495 192.949 128.581C192.404 130.496 191.341 132.101 189.577 133.896C190.478 125.206 188.092 117.177 188.588 102.138C189.317 80.0517 188.588 83.5221 188.588 69.7144C188.588 55.9066 181.7 50.8981 181.7 50.8981C176.262 48.7863 162.426 58.8139 157.337 68.9893C152.248 79.1647 147.165 96.6047 143.857 113.879C140.548 131.154 153.712 132.942 147.89 146.025C146.398 149.382 145.426 153.212 144.824 157.055C141.593 146.655 136.124 141.217 129.69 133.449C121.661 123.78 121.728 124.949 111.211 110.05C100.695 95.1511 81.0302 92.2439 66.3742 84.673C51.7183 77.1022 38.977 84.673 38.977 84.673C38.977 84.673 58.5007 93.6834 65.7653 103.89C73.03 114.098 70.8548 116.245 78.1229 132.235C85.3911 148.224 93.3843 147.496 99.1988 163.482C105.013 179.469 115.914 187.465 121.725 195.462C125.142 200.164 125.294 206.63 126.015 214.236C123.903 212.156 120.764 210.013 115.182 207.088C99.9203 199.094 98.4667 178.578 76.2997 175.389C54.1328 172.201 37.4213 174.386 30.8958 183.105C24.3703 191.823 20.7204 188.919 12.7272 196.916C4.73398 204.912 0 220.294 0 220.294C0 220.294 7.97913 208.161 18.8796 208.161C29.7801 208.161 48.6772 208.89 55.9454 208.89C63.2135 208.89 69.7531 211.797 79.2 212.522C88.6468 213.247 90.1497 214.335 94.8485 221.786C99.5473 229.237 114.087 234.327 114.087 234.327L129.626 255.047C136.954 280.058 158.322 353.665 161.325 371.682C163.303 383.561 163.56 391.98 164.44 397.425L164.404 398.129H163.676C155.13 373.653 132.104 312.999 123.552 290.494C123.552 290.494 128.095 288.445 129.366 280.639C129.611 279.37 129.718 278.079 129.686 276.788C129.686 276.623 129.686 276.464 129.686 276.295C129.691 271.357 128.002 266.567 124.903 262.723C122.045 258.852 118.18 256.539 113.834 256.124C113.556 256.092 113.278 256.064 113.003 256.05C105.013 255.765 105.027 249.359 94.1164 248.198C83.2054 247.036 69.4012 235.411 60.6794 243.407C51.9576 251.404 46.8716 245.586 42.5108 254.318C38.1499 263.051 32.814 255.536 28.5763 267.281C24.3386 279.026 10.5344 282.662 16.3489 296.47C16.3489 296.47 23.251 284.478 34.1515 283.025C45.052 281.571 42.8733 275.032 50.87 276.485C58.8667 277.939 71.2173 277.46 76.3033 271.523C81.3892 265.585 88.6222 278.428 100.638 267.299C102.476 268.089 104.257 269.002 105.971 270.034C108.818 272.367 112.035 275.876 114.935 279.347L157.464 398.136H128.085C127.31 398.136 126.544 398.308 125.843 398.639C125.142 398.97 124.522 399.452 124.03 400.051C123.537 400.649 123.182 401.349 122.992 402.101C122.802 402.852 122.78 403.637 122.929 404.398L138.116 482.084H215.222L231.557 404.472C231.717 403.707 231.705 402.915 231.522 402.155C231.338 401.396 230.987 400.686 230.494 400.079C230.001 399.472 229.379 398.983 228.674 398.647C227.968 398.311 227.196 398.136 226.414 398.136H196.018C202.97 365.854 214.043 319.647 218.386 308.081C222.067 298.262 227.129 288.445 231.761 280.311C231.761 280.311 239.099 273.557 251.573 269.58C264.047 265.602 275.436 248.849 275.436 248.849C294.33 248.849 286.348 237.938 298.691 237.938C311.035 237.938 308.141 229.966 326.31 227.783C344.479 225.601 352.834 241.957 352.834 241.957C352.834 215.067 327.398 215.792 314.308 216.52ZM180.873 392.505L180.768 392.857C180.75 392.751 180.725 392.642 180.704 392.533L180.873 392.505ZM164.2 223.665C165.983 226.37 168.003 228.911 170.237 231.257C169.371 253.924 169.332 282.645 169.329 295.14C165.017 274.824 160.716 258.989 157.386 247.934C161.645 242.584 163.81 232.539 164.2 223.655V223.665ZM156.978 325.895C152.1 312.727 144.275 288.097 138.119 269.58C138.119 269.58 139.929 255.628 138.855 243.217C144.187 247.128 150.1 249.035 153.064 249.806C156.714 264.888 169.329 342.173 169.329 342.173V360.416C164.426 348.019 162.8 341.621 156.978 325.895Z" fill="#DCEFFD"/>
<path d="M154.997 248.88C154.829 248.879 154.667 248.819 154.538 248.711C154.41 248.603 154.323 248.454 154.293 248.289C154.043 246.881 128.282 107.776 66.1388 85.3487C65.9591 85.2838 65.8126 85.1502 65.7314 84.9773C65.6502 84.8043 65.641 84.6062 65.7059 84.4265C65.7708 84.2468 65.9044 84.1003 66.0773 84.0191C66.2503 83.9379 66.4484 83.9287 66.6281 83.9936C84.8002 90.5543 111.434 111.634 135.082 174.724C149.189 212.385 155.644 247.68 155.708 248.032C155.724 248.125 155.723 248.221 155.702 248.314C155.682 248.407 155.644 248.494 155.589 248.572C155.535 248.65 155.466 248.716 155.386 248.767C155.306 248.818 155.217 248.853 155.124 248.87L154.997 248.88Z" fill="#F5FAFF"/>
<path d="M133.119 255.835C132.977 255.837 132.838 255.796 132.72 255.718C132.602 255.639 132.51 255.527 132.457 255.395C132.26 254.934 112.416 208.9 73.8964 196.18C53.88 189.574 32.255 192.988 9.61639 206.341C9.53481 206.39 9.44456 206.421 9.3508 206.434C9.25703 206.447 9.16158 206.442 9.06991 206.418C8.97823 206.395 8.89212 206.353 8.81649 206.296C8.74086 206.239 8.67719 206.168 8.62912 206.086C8.58105 206.005 8.54952 205.914 8.53633 205.821C8.52314 205.727 8.52854 205.631 8.55224 205.54C8.57593 205.448 8.61745 205.362 8.67443 205.286C8.7314 205.211 8.80272 205.147 8.8843 205.099C31.8995 191.527 53.9363 188.064 74.3504 194.814C113.496 207.742 133.583 254.368 133.78 254.836C133.831 254.945 133.853 255.065 133.844 255.186C133.834 255.306 133.794 255.421 133.728 255.522C133.661 255.622 133.57 255.704 133.462 255.758C133.355 255.813 133.236 255.84 133.115 255.835H133.119Z" fill="#F5FAFF"/>
<path d="M170.04 218.516L168.632 218.27C168.737 217.664 179.451 157.305 207.834 126.491C236.217 95.6757 291.356 86.7709 291.912 86.6829L292.131 88.1083C291.585 88.1928 236.956 96.9991 208.894 127.469C180.831 157.939 170.145 217.928 170.04 218.516Z" fill="#F5FAFF"/>
<path d="M163.81 189.915C163.634 189.916 163.464 189.85 163.333 189.732C163.203 189.613 163.122 189.45 163.106 189.275C157.123 135.599 175.545 57.48 175.731 56.6951C175.776 56.5084 175.892 56.3469 176.056 56.2463C176.219 56.1456 176.416 56.114 176.602 56.1583C176.789 56.2027 176.951 56.3193 177.051 56.4827C177.152 56.6461 177.184 56.8427 177.139 57.0294C176.953 57.8108 158.576 135.691 164.542 189.113C164.563 189.303 164.508 189.494 164.388 189.643C164.269 189.793 164.095 189.89 163.905 189.912L163.81 189.915Z" fill="#F5FAFF"/>
<path d="M195.417 237.195C195.324 237.197 195.232 237.179 195.146 237.142C195.058 237.107 194.978 237.054 194.911 236.988C194.843 236.921 194.789 236.842 194.752 236.755C194.715 236.668 194.696 236.574 194.695 236.479C194.695 236.384 194.713 236.29 194.748 236.203C195.452 234.443 212.41 192.967 222.448 184.217C225.679 181.401 228.822 176.723 232.152 171.771C239.191 161.283 247.199 149.389 260.109 147.799C278.763 145.507 303.137 156.281 315.952 168.033C316.092 168.162 316.175 168.341 316.183 168.531C316.191 168.721 316.123 168.907 315.994 169.047C315.865 169.187 315.686 169.27 315.496 169.278C315.306 169.286 315.121 169.218 314.981 169.089C302.401 157.559 278.506 146.982 260.285 149.221C248.026 150.734 240.222 162.335 233.349 172.57C229.966 177.603 226.77 182.355 223.398 185.294C213.614 193.822 196.258 236.329 196.086 236.741C196.034 236.876 195.943 236.992 195.823 237.074C195.703 237.155 195.562 237.197 195.417 237.195Z" fill="#F5FAFF"/>
<path d="M17.4578 288.913C17.3115 288.913 17.1688 288.868 17.0495 288.783C16.8924 288.674 16.7848 288.507 16.7505 288.319C16.7162 288.131 16.7579 287.937 16.8665 287.78C17.1129 287.428 42.1836 252.048 95.0774 251.672C95.2688 251.672 95.4523 251.748 95.5876 251.883C95.723 252.018 95.799 252.202 95.799 252.393C95.799 252.584 95.723 252.768 95.5876 252.903C95.4523 253.039 95.2688 253.115 95.0774 253.115C67.8492 253.308 48.3571 262.942 36.802 270.988C24.2719 279.713 18.1019 288.512 18.0421 288.586C17.9796 288.685 17.8934 288.766 17.7914 288.824C17.6894 288.881 17.5747 288.912 17.4578 288.913Z" fill="#F5FAFF"/>
<path d="M223.437 286.108C223.344 286.108 223.252 286.09 223.166 286.055C222.989 285.983 222.848 285.845 222.774 285.669C222.699 285.494 222.697 285.296 222.768 285.119C222.852 284.908 231.423 264.061 250.83 251.932C256.567 248.345 260.833 244.372 264.962 240.525C274.887 231.279 284.26 222.546 311.879 220.188C311.974 220.178 312.07 220.187 312.161 220.215C312.252 220.243 312.336 220.289 312.409 220.351C312.482 220.412 312.541 220.488 312.584 220.573C312.627 220.658 312.652 220.751 312.657 220.846C312.667 220.941 312.658 221.037 312.63 221.128C312.602 221.219 312.556 221.303 312.495 221.376C312.433 221.449 312.357 221.508 312.272 221.551C312.187 221.593 312.094 221.618 311.999 221.624C284.88 223.94 275.683 232.51 265.944 241.581C261.766 245.452 257.447 249.496 251.594 253.153C232.588 265.029 224.186 285.45 224.105 285.658C224.051 285.791 223.959 285.904 223.839 285.984C223.72 286.065 223.58 286.108 223.437 286.108V286.108Z" fill="#F5FAFF"/>
<path d="M221.621 245.005L220.396 244.245C221.019 243.238 235.847 219.477 248.867 209.879C266.078 197.208 292.296 180.771 321.119 184.618L320.929 186.047C292.634 182.263 266.726 198.5 249.722 211.037C236.924 220.473 221.772 244.759 221.621 245.005Z" fill="#E6EFF2"/>
<path d="M489.123 11.3827H377.172C374.456 11.3827 371.852 12.4613 369.931 14.3813C368.01 16.3014 366.931 18.9056 366.93 21.6215V68.8099C366.93 71.5263 368.009 74.1315 369.93 76.0523C371.85 77.9731 374.456 79.0522 377.172 79.0522H387.552V104.549L414.674 79.0522H489.123C491.839 79.0522 494.444 77.9731 496.365 76.0523C498.286 74.1315 499.365 71.5263 499.365 68.8099V21.6215C499.364 18.9056 498.284 16.3014 496.364 14.3813C494.443 12.4613 491.838 11.3827 489.123 11.3827V11.3827Z" fill="#DCEFFD"/>
<path d="M482.315 29.773H383.979C382.052 29.773 380.491 31.3339 380.491 33.2593C380.491 35.1847 382.052 36.7455 383.979 36.7455H482.315C484.242 36.7455 485.803 35.1847 485.803 33.2593C485.803 31.3339 484.242 29.773 482.315 29.773Z" fill="#4250E8"/>
<path d="M482.315 48.5506H383.996C383.071 48.5506 382.184 48.1832 381.53 47.529C380.876 46.8749 380.508 45.9877 380.508 45.0626C380.513 44.1406 380.882 43.2579 381.536 42.6076C382.19 41.9573 383.074 41.5922 383.996 41.5922H482.333C482.791 41.5922 483.244 41.6824 483.668 41.8577C484.091 42.033 484.475 42.2899 484.799 42.6138C485.123 42.9377 485.38 43.3222 485.555 43.7454C485.731 44.1686 485.821 44.6222 485.821 45.0802V45.0802C485.819 45.5383 485.726 45.9914 485.549 46.4137C485.371 46.836 485.112 47.2192 484.787 47.5415C484.461 47.8637 484.075 48.1187 483.651 48.2919C483.227 48.465 482.773 48.553 482.315 48.5506V48.5506Z" fill="#4250E8"/>
<path d="M447.048 60.3485H383.996C383.072 60.3485 382.185 59.9815 381.531 59.3282C380.877 58.6748 380.509 57.7885 380.508 56.864C380.508 55.939 380.876 55.0518 381.53 54.3976C382.184 53.7435 383.071 53.376 383.996 53.376H447.066C447.991 53.376 448.878 53.7435 449.532 54.3976C450.186 55.0518 450.554 55.939 450.554 56.864C450.553 57.3233 450.462 57.7779 450.285 58.2018C450.109 58.6258 449.85 59.0107 449.525 59.3344C449.199 59.6581 448.812 59.9144 448.387 60.0884C447.962 60.2625 447.507 60.3509 447.048 60.3485V60.3485Z" fill="#4250E8"/>
<path d="M370.956 26.468C378.265 26.468 384.19 20.543 384.19 13.234C384.19 5.92507 378.265 0 370.956 0C363.647 0 357.722 5.92507 357.722 13.234C357.722 20.543 363.647 26.468 370.956 26.468Z" fill="#4250E8"/>
<path d="M369.467 19.6397C369.141 19.6394 368.827 19.5133 368.591 19.2878L362.829 13.878C362.581 13.6446 362.435 13.3222 362.425 12.9816C362.414 12.641 362.54 12.3102 362.773 12.0619C363.006 11.8136 363.329 11.6681 363.669 11.6576C364.01 11.647 364.341 11.7722 364.589 12.0055L369.365 16.4931L377.225 7.27861C377.333 7.14661 377.467 7.03755 377.618 6.95781C377.769 6.87807 377.934 6.82925 378.104 6.8142C378.275 6.79915 378.446 6.81818 378.609 6.87017C378.771 6.92216 378.922 7.00607 379.052 7.11699C379.182 7.22792 379.288 7.36362 379.365 7.51617C379.442 7.66872 379.487 7.83506 379.499 8.00546C379.511 8.17585 379.489 8.34688 379.434 8.50853C379.378 8.67019 379.292 8.81923 379.178 8.94693L370.446 19.1857C370.333 19.3176 370.195 19.4254 370.039 19.5028C369.884 19.5802 369.715 19.6256 369.541 19.6362L369.467 19.6397Z" fill="#F5FAFF"/>
<path d="M629.561 117.216H504.965C501.942 117.216 499.043 118.417 496.906 120.554C494.769 122.692 493.568 125.59 493.568 128.613V181.134C493.569 184.156 494.77 187.054 496.907 189.19C499.044 191.327 501.943 192.527 504.965 192.527H516.516V220.906L546.705 192.527H629.565C631.061 192.527 632.543 192.233 633.926 191.661C635.309 191.088 636.565 190.249 637.623 189.191C638.682 188.133 639.521 186.877 640.094 185.494C640.667 184.112 640.962 182.63 640.962 181.134V128.613C640.962 127.116 640.667 125.634 640.094 124.251C639.521 122.868 638.681 121.611 637.622 120.553C636.564 119.495 635.307 118.655 633.924 118.083C632.541 117.51 631.058 117.216 629.561 117.216V117.216Z" fill="#DCEFFD"/>
<path d="M621.984 137.687H512.539C510.395 137.687 508.657 139.424 508.657 141.567C508.657 143.71 510.395 145.447 512.539 145.447H621.984C624.128 145.447 625.866 143.71 625.866 141.567C625.866 139.424 624.128 137.687 621.984 137.687Z" fill="#4250E8"/>
<path d="M621.987 158.579H512.525C511.498 158.579 510.513 158.172 509.787 157.446C509.061 156.719 508.653 155.735 508.653 154.708C508.653 153.681 509.061 152.696 509.787 151.97C510.513 151.244 511.498 150.836 512.525 150.836H621.987C623.014 150.836 623.999 151.244 624.725 151.97C625.451 152.696 625.859 153.681 625.859 154.708V154.708C625.859 155.735 625.451 156.719 624.725 157.446C623.999 158.172 623.014 158.579 621.987 158.579V158.579Z" fill="#4250E8"/>
<path d="M582.732 163.954H512.539C510.395 163.954 508.657 165.691 508.657 167.834C508.657 169.978 510.395 171.715 512.539 171.715H582.732C584.876 171.715 586.614 169.978 586.614 167.834C586.614 165.691 584.876 163.954 582.732 163.954Z" fill="#4250E8"/>
<path d="M512.605 121.649C513.908 113.619 508.455 106.053 500.425 104.749C492.395 103.446 484.829 108.899 483.526 116.929C482.222 124.959 487.675 132.525 495.705 133.828C503.735 135.132 511.301 129.679 512.605 121.649Z" fill="#FF9E3E"/>
<path d="M506.96 125.53L500.466 119.451L506.545 112.957C506.806 112.677 506.944 112.305 506.931 111.922C506.917 111.54 506.752 111.179 506.472 110.918C506.192 110.657 505.82 110.518 505.438 110.531C505.055 110.545 504.694 110.71 504.433 110.99L498.358 117.48L491.864 111.405C491.584 111.144 491.212 111.004 490.829 111.017C490.446 111.031 490.084 111.195 489.823 111.475C489.561 111.755 489.422 112.128 489.435 112.511C489.448 112.894 489.613 113.255 489.893 113.517L496.387 119.595L490.308 126.089C490.179 126.228 490.078 126.391 490.012 126.568C489.946 126.746 489.915 126.935 489.922 127.124C489.929 127.313 489.973 127.5 490.051 127.672C490.13 127.844 490.242 128 490.38 128.129C490.519 128.258 490.682 128.359 490.859 128.425C491.037 128.491 491.226 128.522 491.415 128.515C491.605 128.509 491.791 128.465 491.963 128.386C492.136 128.307 492.291 128.195 492.42 128.057L498.499 121.563L504.992 127.641C505.272 127.903 505.645 128.042 506.028 128.029C506.411 128.016 506.772 127.851 507.034 127.571C507.295 127.291 507.435 126.919 507.421 126.536C507.408 126.153 507.243 125.791 506.963 125.53H506.96Z" fill="#F5FAFF"/>
<path d="M605.329 406.232L604.854 383.498C619.636 390.794 637.622 368.381 637.622 368.381C615.694 367.631 607.617 375.128 604.769 379.542L604.224 353.436C616.923 360.289 632.61 340.744 632.61 340.744C612.784 340.065 606.212 347.288 604.171 350.913L603.903 338.242C612.953 340.495 620.094 325.891 620.094 325.891C609.236 327.957 605.29 332.273 603.854 335.148L603.692 327.458C605.276 327.025 610.834 324.617 611.787 312.091C611.787 312.091 605.955 315.797 603.551 320.591L603.059 297.076C602.921 290.448 602.154 290.448 602.003 297.076L601.457 323.076C599.968 320.848 597.343 318.282 592.764 315.684C592.764 315.684 594.358 328.06 601.316 329.763L601.147 337.883C598.332 334.715 592.063 330.734 578.312 331.196C578.312 331.196 590.511 346.394 601.045 342.701L600.584 364.798C597.205 361.127 589.835 356.664 574.071 357.202C574.071 357.202 588.181 374.78 600.468 370.722L600.085 389.049C596.107 384.755 587.459 379.545 569.027 380.183C569.027 380.183 585.548 400.762 599.94 396.049L599.704 407.242C594.105 405.482 582.085 404.915 564.092 420.511C564.092 420.511 588.899 425.91 599.539 415.186L598.796 450.604H606.279L605.452 411.24C620.122 417.681 637.64 395.866 637.64 395.866C617 395.159 608.616 401.762 605.329 406.232Z" fill="#93B3EF"/>
<path d="M591.581 431.637H613.403C614.116 431.637 614.8 431.92 615.304 432.425C615.809 432.929 616.092 433.613 616.092 434.326V475.109C616.092 476.955 615.358 478.726 614.053 480.031C612.747 481.337 610.976 482.07 609.13 482.07H595.847C594 482.07 592.229 481.337 590.924 480.031C589.618 478.726 588.885 476.955 588.885 475.109V434.326C588.885 433.972 588.955 433.622 589.09 433.295C589.226 432.969 589.424 432.672 589.675 432.422C589.925 432.172 590.223 431.974 590.55 431.84C590.877 431.705 591.227 431.636 591.581 431.637V431.637Z" fill="#4250E8"/>
<path d="M616.096 472.782H588.889V473.912H616.096V472.782Z" fill="#F5FAFF"/>
<path d="M616.096 470.73H588.889V471.86H616.096V470.73Z" fill="#F5FAFF"/>
<path d="M616.096 468.625H588.889V469.755H616.096V468.625Z" fill="#F5FAFF"/>
<path d="M604.291 352.381C604.215 352.385 604.14 352.366 604.077 352.324C604.014 352.283 603.965 352.223 603.939 352.152C603.92 352.108 603.911 352.061 603.911 352.013C603.911 351.966 603.92 351.919 603.939 351.875C603.958 351.831 603.985 351.792 604.02 351.759C604.054 351.726 604.095 351.7 604.14 351.684L630.65 341.234C630.694 341.216 630.741 341.208 630.789 341.209C630.836 341.21 630.883 341.22 630.926 341.239C630.97 341.258 631.009 341.285 631.042 341.319C631.075 341.353 631.101 341.394 631.118 341.438C631.135 341.482 631.144 341.529 631.143 341.577C631.142 341.624 631.132 341.671 631.113 341.714C631.094 341.758 631.067 341.797 631.032 341.83C630.998 341.863 630.958 341.889 630.914 341.906L604.407 352.356C604.37 352.371 604.331 352.379 604.291 352.381V352.381Z" fill="#F5FAFF"/>
<path d="M601.344 340.889C601.297 340.888 601.251 340.878 601.207 340.861L580.198 332.192C580.154 332.174 580.115 332.147 580.081 332.114C580.048 332.08 580.021 332.041 580.003 331.997C579.985 331.953 579.976 331.907 579.976 331.859C579.976 331.812 579.985 331.765 580.003 331.722C580.021 331.678 580.047 331.638 580.081 331.605C580.114 331.571 580.154 331.545 580.197 331.527C580.241 331.509 580.288 331.499 580.335 331.499C580.382 331.499 580.429 331.508 580.473 331.526L601.482 340.195C601.526 340.212 601.567 340.238 601.602 340.271C601.636 340.305 601.663 340.345 601.682 340.389C601.7 340.433 601.709 340.48 601.709 340.528C601.708 340.576 601.698 340.623 601.679 340.667C601.652 340.734 601.606 340.791 601.546 340.83C601.486 340.87 601.416 340.89 601.344 340.889Z" fill="#F5FAFF"/>
<path d="M600.848 368.219C600.802 368.218 600.757 368.209 600.715 368.191L576.626 358.385C576.582 358.368 576.541 358.342 576.507 358.309C576.473 358.276 576.446 358.237 576.427 358.193C576.409 358.149 576.4 358.102 576.4 358.055C576.4 358.007 576.41 357.96 576.429 357.917C576.445 357.872 576.471 357.831 576.504 357.796C576.537 357.761 576.577 357.734 576.621 357.715C576.665 357.696 576.713 357.686 576.761 357.687C576.809 357.687 576.856 357.697 576.9 357.716L600.986 367.515C601.079 367.533 601.161 367.588 601.214 367.667C601.268 367.746 601.287 367.842 601.269 367.936C601.251 368.029 601.196 368.111 601.117 368.164C601.038 368.218 600.942 368.237 600.848 368.219Z" fill="#F5FAFF"/>
<path d="M604.988 381.999C604.942 382.008 604.894 382.008 604.848 381.998C604.802 381.989 604.758 381.971 604.719 381.944C604.64 381.891 604.585 381.809 604.567 381.715C604.549 381.622 604.569 381.525 604.622 381.446C604.675 381.368 604.757 381.313 604.85 381.295L634.666 368.976C634.709 368.958 634.756 368.948 634.804 368.948C634.851 368.948 634.898 368.957 634.942 368.975C634.985 368.993 635.025 369.019 635.059 369.053C635.092 369.086 635.119 369.126 635.137 369.17C635.156 369.213 635.165 369.26 635.165 369.307C635.165 369.355 635.156 369.402 635.138 369.445C635.12 369.489 635.094 369.529 635.06 369.563C635.027 369.596 634.987 369.623 634.944 369.641L605.125 381.96C605.083 381.983 605.036 381.997 604.988 381.999V381.999Z" fill="#F5FAFF"/>
<path d="M600.848 393.132C600.804 393.131 600.759 393.121 600.718 393.103L572.522 381.974C572.478 381.957 572.438 381.931 572.403 381.898C572.369 381.865 572.342 381.826 572.323 381.782C572.304 381.739 572.294 381.692 572.293 381.645C572.292 381.597 572.301 381.55 572.318 381.506C572.335 381.462 572.361 381.422 572.394 381.387C572.427 381.353 572.466 381.326 572.51 381.307C572.553 381.288 572.6 381.278 572.647 381.277C572.695 381.276 572.742 381.285 572.786 381.302L600.982 392.435C601.076 392.452 601.158 392.506 601.212 392.585C601.265 392.664 601.285 392.76 601.267 392.853C601.25 392.947 601.196 393.029 601.117 393.083C601.038 393.136 600.942 393.156 600.848 393.139V393.132Z" fill="#F5FAFF"/>
<path d="M604.987 409.428C604.894 409.445 604.797 409.425 604.719 409.372C604.64 409.318 604.586 409.236 604.568 409.143C604.551 409.049 604.571 408.953 604.624 408.874C604.678 408.795 604.76 408.741 604.853 408.724L634.669 396.799C634.713 396.781 634.76 396.773 634.807 396.773C634.854 396.774 634.901 396.784 634.944 396.802C634.988 396.821 635.027 396.848 635.06 396.882C635.093 396.916 635.119 396.956 635.137 397C635.154 397.044 635.163 397.09 635.163 397.138C635.162 397.185 635.152 397.232 635.133 397.275C635.115 397.319 635.088 397.358 635.054 397.391C635.02 397.424 634.98 397.45 634.936 397.468L605.121 409.399C605.079 409.417 605.033 409.427 604.987 409.428Z" fill="#F5FAFF"/>
<path d="M567.489 419.899C567.395 419.912 567.301 419.887 567.225 419.83C567.15 419.774 567.1 419.689 567.087 419.596C567.074 419.503 567.099 419.408 567.156 419.333C567.212 419.257 567.297 419.208 567.39 419.195L599.725 410.314C599.819 410.289 599.918 410.302 600.002 410.35C600.086 410.399 600.147 410.478 600.172 410.571C600.198 410.665 600.185 410.764 600.137 410.848C600.088 410.932 600.009 410.993 599.916 411.018L567.584 419.895C567.552 419.901 567.52 419.903 567.489 419.899V419.899Z" fill="#F5FAFF"/>
<path d="M603.995 336.986C603.915 336.993 603.834 336.973 603.767 336.928C603.699 336.883 603.65 336.817 603.626 336.739C603.602 336.662 603.605 336.579 603.635 336.504C603.665 336.429 603.72 336.367 603.791 336.327L618.366 326.472C618.445 326.419 618.543 326.399 618.637 326.417C618.731 326.435 618.814 326.49 618.868 326.569C618.921 326.648 618.941 326.746 618.923 326.84C618.905 326.934 618.85 327.017 618.771 327.071L604.196 336.926C604.137 336.966 604.067 336.986 603.995 336.986V336.986Z" fill="#F5FAFF"/>
<path d="M601.626 327.936C601.57 327.937 601.515 327.924 601.464 327.899C601.414 327.874 601.371 327.837 601.338 327.792L593.394 317.325C593.364 317.287 593.342 317.244 593.329 317.198C593.316 317.152 593.313 317.103 593.32 317.056C593.326 317.009 593.343 316.963 593.367 316.922C593.392 316.881 593.425 316.845 593.464 316.818C593.501 316.788 593.544 316.767 593.59 316.754C593.636 316.742 593.684 316.739 593.731 316.746C593.778 316.752 593.823 316.768 593.864 316.793C593.904 316.817 593.94 316.85 593.967 316.888L601.911 327.359C601.941 327.396 601.963 327.439 601.975 327.485C601.988 327.53 601.991 327.578 601.985 327.625C601.979 327.672 601.963 327.717 601.939 327.758C601.915 327.799 601.883 327.834 601.845 327.862C601.782 327.911 601.705 327.937 601.626 327.936Z" fill="#F5FAFF"/>
<path d="M603.626 325.568C603.56 325.571 603.494 325.555 603.437 325.523C603.379 325.49 603.332 325.442 603.3 325.384C603.269 325.326 603.254 325.26 603.258 325.195C603.262 325.129 603.284 325.065 603.323 325.011L610.69 313.699C610.715 313.658 610.748 313.623 610.787 313.596C610.826 313.568 610.87 313.549 610.917 313.539C610.964 313.529 611.012 313.529 611.059 313.538C611.106 313.548 611.15 313.566 611.189 313.594C611.23 313.619 611.265 313.652 611.293 313.691C611.32 313.73 611.34 313.774 611.35 313.821C611.359 313.868 611.36 313.916 611.35 313.963C611.341 314.01 611.322 314.054 611.295 314.093L603.928 325.406C603.896 325.456 603.851 325.498 603.798 325.526C603.745 325.554 603.686 325.569 603.626 325.568Z" fill="#F5FAFF"/>
<path d="M498.707 285.337V289.593H491.4V306.593H498.757C498.872 308.601 499.751 310.489 501.212 311.872C502.674 313.254 504.608 314.026 506.62 314.03H512.416C513.456 314.03 514.485 313.826 515.445 313.429C516.405 313.031 517.277 312.448 518.012 311.713C518.747 310.979 519.33 310.106 519.727 309.146C520.125 308.186 520.329 307.157 520.329 306.118V285.351L498.707 285.337ZM493.044 291.236H498.707V304.963H493.044V291.236Z" fill="#72C4F4"/>
<path d="M286.812 232.989H336.791C338.85 232.989 340.842 233.719 342.413 235.049C343.984 236.379 345.032 238.223 345.372 240.254L365.853 362.587H302.738L276.506 247.173C274.866 239.955 279.927 232.989 286.812 232.989Z" fill="#BBE0F8"/>
<path d="M306.705 347.161C306.566 347.161 306.431 347.114 306.322 347.027C306.213 346.941 306.136 346.821 306.103 346.685L281.466 242.056C281.441 241.975 281.433 241.89 281.443 241.807C281.452 241.723 281.479 241.642 281.521 241.569C281.563 241.496 281.62 241.433 281.687 241.383C281.755 241.332 281.832 241.296 281.914 241.277C281.996 241.258 282.081 241.256 282.164 241.27C282.247 241.285 282.326 241.317 282.396 241.364C282.466 241.41 282.526 241.471 282.572 241.541C282.617 241.612 282.648 241.691 282.662 241.774L307.3 346.404C307.337 346.563 307.31 346.729 307.224 346.868C307.138 347.006 307.001 347.105 306.843 347.143C306.797 347.154 306.751 347.16 306.705 347.161V347.161Z" fill="#4250E8"/>
<path d="M345.238 369.482C330.808 369.482 318.045 359.997 313.677 345.999C302.615 310.517 285.911 240.131 310.2 240.131C317.757 240.131 323.642 239.955 328.221 239.68C332.807 239.411 337.335 240.811 340.97 243.62C344.604 246.43 347.099 250.46 347.994 254.966L370.918 369.482H345.238Z" fill="#72C4F4"/>
<path d="M355.09 386.75H349.93V476.773H355.09V386.75Z" fill="#4250E8"/>
<path d="M359.676 364.671H346.073V394.895H359.676V364.671Z" fill="#BBE0F8"/>
<path d="M396.228 371.517H308.549C306.777 371.512 305.079 370.806 303.826 369.553C302.573 368.3 301.866 366.602 301.862 364.829V364.829C301.862 363.27 302.481 361.774 303.584 360.671C304.687 359.568 306.183 358.948 307.743 358.948H396.246L396.228 371.517Z" fill="#4250E8"/>
<path d="M316.94 470.994H388.076C389.308 470.994 390.528 471.236 391.666 471.708C392.804 472.179 393.838 472.87 394.709 473.741C395.58 474.612 396.271 475.646 396.742 476.784C397.214 477.922 397.456 479.142 397.456 480.374V482.581H307.56V480.374C307.56 479.142 307.803 477.922 308.274 476.784C308.745 475.646 309.436 474.612 310.307 473.741C311.178 472.87 312.212 472.179 313.35 471.708C314.488 471.236 315.708 470.994 316.94 470.994Z" fill="#BBE0F8"/>
<path d="M368.598 191.619C368.598 191.619 352.76 181.32 340.93 203.181C329.101 225.042 315.075 223.292 309.095 232.218C301.186 244.02 309.07 258.838 355.994 260.045C396.738 261.09 403.38 191.619 368.598 191.619Z" fill="black"/>
<path d="M375.127 282.476L433.945 304.235V312.175L388.157 306.544C384.563 306.098 381.255 304.354 378.857 301.64C376.458 298.926 375.134 295.429 375.134 291.807L375.127 282.476Z" fill="url(#paint0_linear_181_126)"/>
<path d="M330.396 303.538L328.964 328.957H377.912L380.636 303.538H330.396Z" fill="url(#paint1_linear_181_126)"/>
<path d="M396.394 428.405L395.444 439.932C395.444 439.932 387.285 442.396 390.347 447.362C393.409 452.329 396.904 454.12 396.683 459.935C396.461 465.749 397.57 472.366 401.536 475.513C401.536 475.513 399.488 480.44 405.844 482.552L416.182 429.004L396.394 428.405Z" fill="url(#paint2_linear_181_126)"/>
<path d="M396.84 355.629L386.225 433.924H417.902C417.902 433.924 457.323 342.346 429.496 322.248H400.124L396.84 355.629Z" fill="#050542"/>
<path d="M350.208 236.488C350.208 236.488 314.828 234.964 306.916 266.715L326.69 274.761V305.885C326.689 306.187 326.748 306.487 326.864 306.766C326.979 307.045 327.148 307.299 327.362 307.513C327.575 307.727 327.829 307.896 328.108 308.012C328.387 308.128 328.686 308.187 328.988 308.187L381.431 308.222C381.967 308.222 382.486 308.036 382.899 307.695C383.312 307.353 383.593 306.879 383.694 306.353L388.925 265.402C390.333 254.325 383.828 243.661 373.234 240.134C367.55 238.24 360.063 236.804 350.208 236.488Z" fill="#F54552"/>
<path d="M326.443 275.556C326.411 275.559 326.38 275.559 326.348 275.556C326.303 275.543 326.262 275.522 326.225 275.493C326.189 275.465 326.158 275.429 326.136 275.388C326.113 275.348 326.099 275.303 326.094 275.257C326.088 275.211 326.092 275.164 326.105 275.12L331.247 256.729C331.273 256.639 331.333 256.563 331.414 256.517C331.496 256.471 331.592 256.459 331.682 256.485C331.772 256.51 331.849 256.57 331.894 256.651C331.94 256.733 331.952 256.829 331.927 256.919L326.784 275.299C326.764 275.373 326.719 275.439 326.657 275.485C326.595 275.532 326.52 275.557 326.443 275.556Z" fill="#1F191A"/>
<path d="M310.01 267.968L302.45 292.292L304.871 292.94C308.606 293.942 312.583 293.482 315.991 291.654C319.398 289.827 321.981 286.768 323.212 283.102L326.098 274.518L310.01 267.968Z" fill="url(#paint3_linear_181_126)"/>
<path d="M368.961 277.365C365.952 276.693 359.018 280.624 359.018 280.624L351.504 281.899L308.324 287.794C299.81 288.956 299.638 301.274 308.127 302.605C321.956 304.769 348.843 291.662 353.01 289.582C357.382 293.749 363.323 289.058 363.323 289.058L365.206 289.483L365.811 290.363C366.004 290.654 366.265 290.892 366.573 291.057C366.88 291.222 367.223 291.308 367.571 291.308C367.92 291.308 368.263 291.222 368.57 291.057C368.877 290.892 369.138 290.654 369.331 290.363C369.46 290.169 369.577 289.966 369.683 289.758C372.259 289.55 371.76 286.977 371.76 286.977C374.445 286.608 373.65 284.288 373.65 284.288C377.887 282.877 371.971 278.034 368.961 277.365Z" fill="url(#paint4_linear_181_126)"/>
<path d="M373.65 284.644C373.575 284.645 373.502 284.621 373.442 284.578L368.936 281.381C368.858 281.326 368.805 281.242 368.79 281.147C368.774 281.053 368.796 280.956 368.852 280.878C368.907 280.8 368.991 280.747 369.086 280.731C369.18 280.716 369.277 280.738 369.355 280.793L373.857 283.993C373.897 284.02 373.93 284.054 373.956 284.093C373.982 284.133 374 284.178 374.008 284.224C374.016 284.271 374.015 284.319 374.004 284.365C373.993 284.411 373.973 284.455 373.945 284.493C373.912 284.541 373.868 284.579 373.816 284.606C373.765 284.632 373.708 284.646 373.65 284.644V284.644Z" fill="#1F191A"/>
<path d="M371.76 287.334C371.671 287.334 371.586 287.302 371.52 287.242L367.053 283.275C366.982 283.211 366.938 283.122 366.932 283.026C366.926 282.93 366.958 282.836 367.022 282.764C367.085 282.692 367.175 282.649 367.27 282.643C367.366 282.637 367.46 282.669 367.532 282.733L371.999 286.703C372.059 286.75 372.103 286.814 372.123 286.886C372.144 286.959 372.14 287.037 372.114 287.107C372.087 287.178 372.038 287.238 371.974 287.279C371.91 287.32 371.835 287.339 371.76 287.334V287.334Z" fill="#1F191A"/>
<path d="M369.683 290.114C369.637 290.114 369.591 290.106 369.548 290.088C369.505 290.07 369.466 290.045 369.433 290.012L365.311 286.006C365.242 285.939 365.203 285.848 365.202 285.752C365.2 285.657 365.237 285.564 365.304 285.496C365.371 285.427 365.462 285.388 365.558 285.386C365.653 285.385 365.746 285.422 365.814 285.489L369.933 289.495C369.967 289.527 369.995 289.567 370.014 289.611C370.033 289.655 370.042 289.702 370.042 289.75C370.042 289.798 370.033 289.845 370.014 289.889C369.995 289.933 369.967 289.972 369.933 290.005C369.901 290.039 369.862 290.066 369.819 290.085C369.776 290.103 369.73 290.113 369.683 290.114Z" fill="#1F191A"/>
<path d="M357.434 246.026C352.675 245.171 349.824 239.849 351.341 234.657L357.268 222.634L367.827 224.7L367.102 237.498C366.722 242.893 362.192 246.885 357.434 246.026Z" fill="url(#paint5_linear_181_126)"/>
<path d="M364.315 215.148C366.427 214.197 368.085 212.332 369.306 210.526C366.219 212.093 361.608 213.483 355.379 213.12L355.118 214.176C355.009 214.176 354.904 214.131 354.791 214.124C353.91 214.073 353.04 214.344 352.344 214.887C351.647 215.43 351.172 216.207 351.005 217.073C350.839 217.94 350.993 218.838 351.439 219.6C351.884 220.362 352.592 220.936 353.429 221.216L353.116 222.518C352.499 225.085 352.928 227.792 354.308 230.043C355.687 232.293 357.905 233.904 360.472 234.52C363.039 235.136 365.745 234.707 367.996 233.328C370.247 231.948 371.858 229.731 372.474 227.164L374.79 217.52C375.365 215.125 375.027 212.602 373.843 210.442C370.622 214.201 364.315 215.148 364.315 215.148Z" fill="url(#paint6_linear_181_126)"/>
<path d="M452.103 432.693L458.896 445.567L482.432 445.18C482.432 445.18 489.211 446.036 484.896 449.886L453.923 466.214C453.923 466.214 447.133 470.744 443.364 458.805L434.174 442.132L452.103 432.693Z" fill="url(#paint7_linear_181_126)"/>
<path d="M325.648 322.248H404.38C404.38 322.248 423.809 326.926 459.076 437.476L433.903 447.936L380.869 361.408C380.869 361.408 304.851 382.773 325.648 322.248Z" fill="#050542"/>
<path d="M421.253 427.86C421.156 427.86 421.061 427.835 420.976 427.787C420.892 427.74 420.821 427.672 420.771 427.589L395.542 386.409C395.464 386.281 395.44 386.127 395.475 385.982C395.51 385.836 395.602 385.71 395.73 385.633C395.858 385.555 396.011 385.531 396.157 385.566C396.302 385.601 396.428 385.693 396.506 385.821L421.731 426.998C421.784 427.083 421.812 427.181 421.815 427.281C421.817 427.382 421.792 427.481 421.743 427.568C421.695 427.656 421.624 427.729 421.538 427.78C421.451 427.832 421.353 427.859 421.253 427.86V427.86Z" fill="#BBE0F8"/>
<path d="M435.955 374.016C435.842 374.016 435.732 373.982 435.639 373.92C435.546 373.857 435.473 373.768 435.43 373.664C430.191 361.005 424.014 348.755 416.949 337.017C416.883 336.889 416.869 336.741 416.908 336.603C416.947 336.465 417.037 336.348 417.16 336.273C417.283 336.199 417.429 336.174 417.57 336.204C417.71 336.234 417.834 336.315 417.916 336.433C425.012 348.227 431.218 360.534 436.483 373.252C436.536 373.392 436.532 373.547 436.472 373.684C436.412 373.82 436.301 373.928 436.162 373.984C436.096 374.007 436.025 374.017 435.955 374.016V374.016Z" fill="#BBE0F8"/>
<path d="M257.996 328.39L223.437 481.226H229.607L271.445 328.39H257.996Z" fill="#BBE0F8"/>
<path d="M271.445 328.39L268.295 339.9H255.395L257.996 328.39H271.445Z" fill="#72C4F4"/>
<path d="M289.955 328.39L255.395 481.226H261.565L303.404 328.39H289.955Z" fill="#BBE0F8"/>
<path d="M303.404 328.39L300.254 339.9H287.354L289.955 328.39H303.404Z" fill="#72C4F4"/>
<path d="M527.266 330.129L561.826 482.961H555.656L513.817 330.129H527.266Z" fill="#BBE0F8"/>
<path d="M513.817 330.129L516.968 341.635H529.867L527.266 330.129H513.817Z" fill="#72C4F4"/>
<path d="M495.308 330.129L529.867 482.961H523.697L481.859 330.129H495.308Z" fill="#BBE0F8"/>
<path d="M481.859 330.129L485.009 341.635H497.912L495.308 330.129H481.859Z" fill="#72C4F4"/>
<path d="M540.663 322.079H246.541V334.698H540.663V322.079Z" fill="#BBE0F8"/>
<path d="M540.663 322.079H246.541V328.39H540.663V322.079Z" fill="#72C4F4"/>
<path d="M549.177 313.759H238.026V324.033H549.177V313.759Z" fill="#BBE0F8"/>
<path d="M468.656 291.62H388.119C387.123 291.62 386.138 291.405 385.233 290.989C384.328 290.573 383.524 289.966 382.875 289.21C382.226 288.454 381.749 287.567 381.474 286.61C381.2 285.652 381.136 284.647 381.287 283.662L388.45 237.121C388.7 235.49 389.526 234.002 390.779 232.927C392.031 231.852 393.627 231.261 395.278 231.261H475.815C476.811 231.261 477.796 231.477 478.701 231.893C479.606 232.309 480.411 232.916 481.059 233.672C481.708 234.429 482.185 235.316 482.459 236.274C482.732 237.232 482.795 238.238 482.643 239.223L475.484 285.763C475.233 287.394 474.406 288.881 473.154 289.955C471.902 291.03 470.306 291.62 468.656 291.62V291.62Z" fill="#BBE0F8"/>
<path d="M421.489 265.796L428.739 310.102H417.051C416.099 310.102 415.186 310.48 414.513 311.152C413.84 311.825 413.461 312.737 413.46 313.688V314.801H446.338C446.852 314.801 447.36 314.69 447.828 314.477C448.296 314.263 448.712 313.952 449.049 313.563C449.386 313.175 449.635 312.718 449.78 312.225C449.925 311.732 449.962 311.213 449.889 310.704L443.283 264.705C443.16 263.851 442.733 263.069 442.081 262.504C441.429 261.939 440.594 261.628 439.731 261.629H425.03C424.509 261.629 423.995 261.742 423.523 261.96C423.051 262.178 422.632 262.497 422.295 262.893C421.958 263.29 421.711 263.755 421.572 264.256C421.433 264.757 421.405 265.283 421.489 265.796V265.796Z" fill="#72C4F4"/>
<path d="M385.796 282.296H385.711C385.565 282.274 385.433 282.194 385.345 282.075C385.258 281.955 385.221 281.806 385.243 281.659L391.74 239.5C391.752 239.428 391.777 239.359 391.815 239.296C391.853 239.233 391.903 239.179 391.962 239.136C392.021 239.092 392.087 239.061 392.159 239.044C392.23 239.026 392.303 239.023 392.376 239.034C392.448 239.045 392.518 239.07 392.58 239.108C392.643 239.146 392.697 239.196 392.741 239.255C392.784 239.314 392.815 239.381 392.833 239.452C392.85 239.523 392.853 239.597 392.842 239.669L386.355 281.821C386.336 281.955 386.268 282.077 386.165 282.164C386.062 282.252 385.931 282.299 385.796 282.296V282.296Z" fill="#007CF4"/>
<path d="M646.608 484.404H75.9968C75.6269 484.386 75.2781 484.226 75.0228 483.957C74.7674 483.689 74.625 483.333 74.625 482.963C74.625 482.592 74.7674 482.236 75.0228 481.968C75.2781 481.699 75.6269 481.54 75.9968 481.521H646.608C646.978 481.54 647.327 481.699 647.582 481.968C647.838 482.236 647.98 482.592 647.98 482.963C647.98 483.333 647.838 483.689 647.582 483.957C647.327 484.226 646.978 484.386 646.608 484.404Z" fill="#161D8A"/>
<defs>
<linearGradient id="paint0_linear_181_126" x1="450.322" y1="307.878" x2="368.855" y2="292.039" gradientUnits="userSpaceOnUse">
<stop offset="0.16" stop-color="#FFACAC"/>
<stop offset="0.3" stop-color="#FFA6A5"/>
<stop offset="0.49" stop-color="#FD9492"/>
<stop offset="0.72" stop-color="#FB7672"/>
<stop offset="0.81" stop-color="#FA6964"/>
</linearGradient>
<linearGradient id="paint1_linear_181_126" x1="354.936" y1="337.063" x2="354.665" y2="296.005" gradientUnits="userSpaceOnUse">
<stop offset="0.34" stop-color="#FFACAA"/>
<stop offset="0.45" stop-color="#FFA7A4"/>
<stop offset="0.6" stop-color="#FE9795"/>
<stop offset="0.75" stop-color="#FC7E7B"/>
<stop offset="0.85" stop-color="#FB6B67"/>
</linearGradient>
<linearGradient id="paint2_linear_181_126" x1="393.884" y1="493.034" x2="405.559" y2="420.655" gradientUnits="userSpaceOnUse">
<stop offset="0.3" stop-color="#FFACAC"/>
<stop offset="0.39" stop-color="#FFA6A5"/>
<stop offset="0.52" stop-color="#FD9492"/>
<stop offset="0.68" stop-color="#FB7672"/>
<stop offset="0.74" stop-color="#FA6964"/>
</linearGradient>
<linearGradient id="paint3_linear_181_126" x1="310.07" y1="296.759" x2="317.845" y2="271.913" gradientUnits="userSpaceOnUse">
<stop offset="0.26" stop-color="#FFACAC"/>
<stop offset="0.71" stop-color="#FC807D"/>
<stop offset="1" stop-color="#FA6964"/>
</linearGradient>
<linearGradient id="paint4_linear_181_126" x1="81079.3" y1="28003.3" x2="70293.9" y2="20092.4" gradientUnits="userSpaceOnUse">
<stop offset="0.3" stop-color="#FFACAC"/>
<stop offset="0.39" stop-color="#FFA6A5"/>
<stop offset="0.52" stop-color="#FD9492"/>
<stop offset="0.68" stop-color="#FB7672"/>
<stop offset="0.74" stop-color="#FA6964"/>
</linearGradient>
<linearGradient id="paint5_linear_181_126" x1="356.403" y1="251.772" x2="361.458" y2="223.736" gradientUnits="userSpaceOnUse">
<stop offset="0.04" stop-color="#FFACAC"/>
<stop offset="0.2" stop-color="#FFA6A5"/>
<stop offset="0.42" stop-color="#FD9492"/>
<stop offset="0.69" stop-color="#FB7672"/>
<stop offset="0.8" stop-color="#FA6964"/>
</linearGradient>
<linearGradient id="paint6_linear_181_126" x1="360.657" y1="247.966" x2="363.553" y2="209.493" gradientUnits="userSpaceOnUse">
<stop offset="0.04" stop-color="#FFACAC"/>
<stop offset="0.22" stop-color="#FFA6A5"/>
<stop offset="0.48" stop-color="#FD9492"/>
<stop offset="0.78" stop-color="#FB7672"/>
<stop offset="0.9" stop-color="#FA6964"/>
</linearGradient>
<linearGradient id="paint7_linear_181_126" x1="-9803.9" y1="71891.4" x2="-10942.5" y2="67172" gradientUnits="userSpaceOnUse">
<stop offset="0.3" stop-color="#FFACAC"/>
<stop offset="0.39" stop-color="#FFA6A5"/>
<stop offset="0.52" stop-color="#FD9492"/>
<stop offset="0.68" stop-color="#FB7672"/>
<stop offset="0.74" stop-color="#FA6964"/>
</linearGradient>
</defs>
</svg>
