<svg width="50" height="50" viewBox="0 0 50 50" fill="none" xmlns="http://www.w3.org/2000/svg">
<rect width="50" height="50" rx="25" fill="#7289DA"/>
<g clip-path="url(#clip0_67_104)">
<path d="M32.6361 17.8755C31.212 17.2092 29.6893 16.7249 28.0973 16.4492C27.9018 16.8027 27.6734 17.2781 27.5159 17.6563C25.8236 17.4018 24.1469 17.4018 22.4857 17.6563C22.3283 17.2781 22.0947 16.8027 21.8974 16.4492C20.3037 16.7249 18.7793 17.211 17.3552 17.879C14.4828 22.2196 13.7041 26.4524 14.0934 30.6251C15.9986 32.0478 17.8449 32.9121 19.66 33.4776C20.1082 32.8608 20.5079 32.2051 20.8522 31.5141C20.1964 31.2649 19.5683 30.9574 18.9748 30.6004C19.1323 30.4837 19.2863 30.3618 19.4351 30.2363C23.055 31.9294 26.9882 31.9294 30.5648 30.2363C30.7154 30.3618 30.8694 30.4837 31.0251 30.6004C30.4299 30.9591 29.8 31.2666 29.1442 31.5159C29.4885 32.2051 29.8865 32.8626 30.3364 33.4794C32.1533 32.9138 34.0014 32.0496 35.9065 30.6251C36.3633 25.7879 35.1261 21.594 32.6361 17.8755ZM21.3454 28.0589C20.2587 28.0589 19.3676 27.0445 19.3676 25.8091C19.3676 24.5737 20.2397 23.5575 21.3454 23.5575C22.4511 23.5575 23.3423 24.5719 23.3232 25.8091C23.325 27.0445 22.4511 28.0589 21.3454 28.0589ZM28.6545 28.0589C27.5678 28.0589 26.6767 27.0445 26.6767 25.8091C26.6767 24.5737 27.5488 23.5575 28.6545 23.5575C29.7602 23.5575 30.6514 24.5719 30.6323 25.8091C30.6323 27.0445 29.7602 28.0589 28.6545 28.0589Z" fill="white"/>
</g>
<defs>
<clipPath id="clip0_67_104">
<rect width="22" height="22" fill="white" transform="translate(14 14)"/>
</clipPath>
</defs>
</svg>
