<svg width="1113" height="645" viewBox="0 0 1113 645" fill="none" xmlns="http://www.w3.org/2000/svg">
<path opacity="0.2" d="M648.297 645C821.264 645 961.481 641.112 961.481 636.316C961.481 631.521 821.264 627.633 648.297 627.633C475.331 627.633 335.113 631.521 335.113 636.316C335.113 641.112 475.331 645 648.297 645Z" fill="#0B2252"/>
<path d="M522.05 31.4899C520.083 29.5169 517.745 27.952 515.172 26.8854C512.598 25.8187 509.838 25.2712 507.052 25.2743H485.953C484.386 18.112 480.418 11.7006 474.706 7.10348C468.995 2.50641 461.883 0 454.552 0C447.22 0 440.108 2.50641 434.397 7.10348C428.685 11.7006 424.717 18.112 423.15 25.2743H417.483C414.697 25.2733 411.938 25.8214 409.364 26.8871C406.79 27.9528 404.451 29.5154 402.481 31.4854C400.511 33.4555 398.948 35.7945 397.882 38.3687C396.817 40.9429 396.269 43.7018 396.27 46.4879V46.4879C396.267 49.2746 396.813 52.0345 397.878 54.6096C398.943 57.1847 400.506 59.5244 402.476 61.4949C404.447 63.4653 406.786 65.0278 409.361 66.0928C411.937 67.1579 414.696 67.7045 417.483 67.7015H507.052C509.841 67.7065 512.603 67.1614 515.181 66.0975C517.759 65.0336 520.101 63.4717 522.075 61.5012C524.048 59.5307 525.613 57.1904 526.681 54.6142C527.748 52.0381 528.297 49.2766 528.296 46.4879V46.4879C528.296 43.6996 527.743 40.9391 526.671 38.3651C525.599 35.7911 524.029 33.4545 522.05 31.4899V31.4899Z" fill="#E9F3FC"/>
<path d="M1112.02 318.997V439.118C1002.84 420.182 856.029 402.922 684.332 402.922C305.314 402.922 8.04978 487.151 8.04978 487.151C-14.0398 439.994 10.4339 304.174 67.9581 272.35C125.482 240.525 175.458 304.143 220.879 281.437C266.299 258.73 223.804 57.9516 293.553 45.0331C363.303 32.1145 407.23 161.315 492.496 161.315C577.762 161.315 564.858 32.145 664.528 26.973C764.197 21.801 761.569 159.228 821.554 159.228C881.538 159.228 857.202 104.119 951.204 102.504C1045.21 100.889 1071.14 296.983 1111.4 318.669L1112.02 318.997Z" fill="url(#paint0_linear_267_596)"/>
<path d="M260.176 437.297C249.238 436.939 237.386 433.131 237.645 415.612C237.904 398.092 250.647 395.327 251.942 382.195C253.237 369.064 253.321 356.815 260.176 356.686C267.032 356.556 262.69 362.17 265.889 368.256C269.088 374.342 275.273 382.134 274.07 393.514C272.866 404.894 280.971 409.244 280.544 418.552C280.118 427.86 274.298 437.701 260.176 437.297Z" fill="#DAEEFF"/>
<path d="M264.204 392.486C264.16 392.442 264.107 392.407 264.05 392.383C263.992 392.359 263.931 392.347 263.868 392.347C263.806 392.347 263.744 392.359 263.687 392.383C263.629 392.407 263.577 392.442 263.533 392.486C263.446 392.576 263.397 392.696 263.397 392.821C263.397 392.947 263.446 393.067 263.533 393.157C263.533 393.157 266.382 396.021 266.093 405.725C265.841 414.104 261.522 427.098 260.113 431.021C258.826 427.974 257.158 424.592 255.749 421.751C254.804 419.839 253.981 418.179 253.54 417.135C251.91 413.327 254.385 405.298 254.408 405.222C254.444 405.101 254.432 404.97 254.374 404.858C254.315 404.746 254.216 404.66 254.096 404.62C254.036 404.601 253.974 404.595 253.911 404.6C253.849 404.606 253.789 404.623 253.734 404.652C253.678 404.682 253.629 404.721 253.589 404.769C253.55 404.817 253.52 404.873 253.502 404.933C253.395 405.275 250.897 413.372 252.656 417.508C253.113 418.582 253.943 420.25 254.896 422.178C257.455 427.35 261.332 435.165 261.271 438.173C261.187 442.393 260.677 448.441 260.669 448.502C260.659 448.628 260.698 448.754 260.78 448.851C260.861 448.948 260.977 449.009 261.103 449.02H261.149C261.268 449.019 261.381 448.974 261.468 448.894C261.556 448.813 261.61 448.704 261.621 448.586C261.621 448.525 262.139 442.439 262.223 438.196C262.223 436.833 261.606 434.715 260.654 432.316C261.286 430.587 266.748 415.277 267.045 405.725C267.365 395.556 264.333 392.601 264.204 392.486Z" fill="#6AC1FF"/>
<path d="M1070.8 391.945C1061.48 391.663 1051.38 388.396 1051.6 373.428C1051.83 358.461 1062.69 356.137 1063.79 344.948C1064.9 333.758 1064.96 323.331 1070.8 323.224C1076.64 323.117 1072.95 327.893 1075.67 333.088C1078.4 338.283 1083.67 344.917 1082.65 354.614C1081.63 364.31 1088.53 368.028 1088.17 375.942C1087.82 383.856 1082.82 392.303 1070.8 391.945Z" fill="#DAEEFF"/>
<path d="M1074.25 353.738C1074.21 353.701 1074.17 353.671 1074.12 353.65C1074.07 353.63 1074.02 353.62 1073.96 353.62C1073.91 353.62 1073.86 353.63 1073.81 353.65C1073.76 353.671 1073.72 353.701 1073.68 353.738C1073.64 353.776 1073.61 353.82 1073.59 353.869C1073.57 353.918 1073.56 353.971 1073.56 354.024C1073.56 354.077 1073.57 354.129 1073.59 354.178C1073.61 354.227 1073.64 354.272 1073.68 354.309C1073.68 354.309 1076.11 356.747 1075.86 365.027C1075.65 372.179 1071.94 383.247 1070.77 386.591C1069.66 383.985 1068.25 381.106 1067.04 378.692C1066.24 377.054 1065.52 375.645 1065.15 374.754C1063.78 371.501 1065.92 364.661 1065.92 364.592C1065.93 364.542 1065.94 364.489 1065.93 364.436C1065.93 364.383 1065.91 364.331 1065.89 364.285C1065.86 364.238 1065.83 364.196 1065.79 364.163C1065.75 364.129 1065.7 364.104 1065.65 364.09C1065.6 364.073 1065.54 364.067 1065.49 364.071C1065.44 364.076 1065.39 364.091 1065.34 364.116C1065.29 364.141 1065.25 364.175 1065.21 364.216C1065.18 364.257 1065.15 364.305 1065.14 364.356C1065.05 364.646 1062.92 371.547 1064.42 375.073C1064.81 375.988 1065.51 377.404 1066.34 379.05C1068.51 383.46 1071.82 390.125 1071.77 392.715C1071.69 396.31 1071.26 401.467 1071.26 401.52C1071.25 401.574 1071.26 401.628 1071.27 401.679C1071.29 401.731 1071.31 401.778 1071.35 401.82C1071.38 401.861 1071.43 401.895 1071.47 401.919C1071.52 401.943 1071.58 401.958 1071.63 401.962V401.962C1071.73 401.962 1071.83 401.924 1071.9 401.854C1071.98 401.785 1072.03 401.69 1072.03 401.589C1072.03 401.535 1072.47 396.356 1072.54 392.73C1072.39 390.994 1071.94 389.298 1071.21 387.718C1071.75 386.248 1076.42 373.192 1076.66 365.049C1076.94 356.358 1074.36 353.845 1074.25 353.738Z" fill="#6AC1FF"/>
<path d="M343.117 364.356C336.711 364.158 329.756 361.911 329.909 351.621C330.061 341.33 337.526 339.73 338.287 332.029C339.049 324.329 339.087 317.161 343.109 317.085C347.131 317.009 344.587 320.299 346.461 323.872C348.334 327.444 351.96 332.007 351.259 338.679C350.559 345.352 355.304 347.903 355.068 353.365C354.832 358.826 351.404 364.577 343.117 364.356Z" fill="#DAEEFF"/>
<path d="M345.485 338.077C345.432 338.025 345.361 337.996 345.287 337.996C345.213 337.996 345.142 338.025 345.089 338.077C345.063 338.102 345.041 338.132 345.027 338.166C345.013 338.199 345.005 338.235 345.005 338.272C345.005 338.308 345.013 338.344 345.027 338.377C345.041 338.411 345.063 338.441 345.089 338.466C345.089 338.466 346.757 340.149 346.612 345.839C346.468 350.76 343.916 358.377 343.109 360.67C342.347 358.88 341.38 356.907 340.549 355.239C339.993 354.111 339.513 353.144 339.254 352.527C338.302 350.295 339.75 345.588 339.765 345.542C339.782 345.506 339.791 345.466 339.791 345.426C339.791 345.386 339.783 345.346 339.767 345.31C339.751 345.273 339.727 345.24 339.697 345.213C339.667 345.187 339.632 345.167 339.594 345.155C339.555 345.143 339.515 345.139 339.475 345.144C339.435 345.149 339.397 345.162 339.363 345.183C339.329 345.203 339.299 345.231 339.276 345.264C339.254 345.297 339.239 345.335 339.232 345.375C339.171 345.58 337.708 350.326 338.736 352.748C339.003 353.38 339.498 354.355 340.054 355.49C341.578 358.537 343.825 363.107 343.787 364.882C343.741 367.357 343.436 370.907 343.436 370.976C343.433 371.012 343.437 371.049 343.449 371.084C343.46 371.119 343.479 371.151 343.503 371.179C343.527 371.207 343.556 371.229 343.589 371.245C343.622 371.261 343.658 371.271 343.695 371.273V371.273C343.765 371.275 343.832 371.25 343.883 371.203C343.935 371.156 343.965 371.091 343.969 371.021C343.969 370.983 344.274 367.418 344.32 364.928C344.217 363.733 343.908 362.566 343.406 361.477C343.771 360.464 346.986 351.491 347.153 345.885C347.336 339.875 345.561 338.146 345.485 338.077Z" fill="#6AC1FF"/>
<path d="M970.886 467.834C959.689 467.499 947.532 463.569 947.798 445.577C948.065 427.585 961.128 424.782 962.461 411.3C963.794 397.818 963.855 385.318 970.886 385.181C977.916 385.044 973.468 390.803 976.743 397.049C980.018 403.295 986.364 411.27 985.122 422.947C983.88 434.624 992.198 439.08 991.764 448.609C991.33 458.138 985.373 468.276 970.886 467.834Z" fill="#DAEEFF"/>
<path d="M975.031 421.903C974.937 421.815 974.812 421.767 974.683 421.77C974.553 421.774 974.431 421.829 974.342 421.922C974.253 422.016 974.205 422.142 974.209 422.271C974.212 422.4 974.267 422.523 974.361 422.612C974.361 422.612 977.278 425.544 976.981 435.5C976.73 444.1 972.266 457.407 970.888 461.398C969.562 458.26 967.841 454.809 966.409 451.9C965.441 449.934 964.596 448.236 964.124 447.162C962.463 443.254 964.992 435.035 965.022 434.974C965.061 434.85 965.048 434.716 964.988 434.601C964.927 434.486 964.823 434.4 964.699 434.361C964.575 434.323 964.44 434.335 964.325 434.396C964.21 434.457 964.124 434.561 964.086 434.685C963.979 435.035 961.42 443.33 963.225 447.565C963.689 448.67 964.543 450.376 965.51 452.357C968.138 457.688 972.106 465.671 972.045 468.787C971.962 473.105 971.436 479.313 971.428 479.374C971.42 479.503 971.462 479.63 971.546 479.729C971.63 479.827 971.749 479.888 971.878 479.9H971.916C972.038 479.9 972.155 479.855 972.245 479.774C972.336 479.692 972.392 479.579 972.403 479.458C972.403 479.39 972.937 473.159 973.02 468.794C973.02 467.4 972.396 465.229 971.421 462.769C972.061 460.994 977.674 445.303 977.964 435.515C978.269 425.049 975.161 422.025 975.031 421.903Z" fill="#6AC1FF"/>
<path d="M361.55 482.581C355.19 484.241 331.082 483.266 335.652 471.376C340.771 458.153 354.429 469.708 360.294 477.043C358.544 467.147 357.711 457.111 357.803 447.062C353.469 441.852 344.313 408.779 362.373 410.417C385.986 412.565 365.07 443.871 359.623 447.428C359.623 455.045 360.141 470.173 363.592 483.289C364.354 474.956 372.641 451.244 383.686 459.608C399.682 471.734 369.046 486.374 364.399 486.123C365.673 490.637 367.636 494.928 370.219 498.843C371.993 501.38 373.959 504.32 375.992 507.519L376.107 507.641C377.135 498.866 385.323 476.327 396.14 484.508C411.1 495.835 385.369 509.34 378.095 510.878C382.85 518.525 387.107 526.471 390.838 534.667C391.341 526.745 406.887 510.543 413.065 519.806C416.515 524.97 398.288 541.804 392.278 538.033C395.705 546.412 397.762 554.235 397.054 559.94C396.787 562.042 396.406 564.51 395.957 567.222C400.215 562.507 415.601 546.724 420.179 558.942C423.988 569.073 411.29 574.938 405.95 574.938C401.776 574.938 397.351 570.992 395.614 569.263C395.37 570.726 395.116 572.221 394.852 573.75C392.704 586.219 390.13 601.225 390.891 610.251C394.525 603.205 410.749 573.856 420.187 592.732C425.031 602.405 411.298 610.517 405.958 612.292C401.586 613.755 393.771 612.445 391.074 611.927C391.2 612.861 391.404 613.783 391.684 614.684C395.165 625.112 402.18 635.707 402.256 635.814C402.344 635.95 402.394 636.107 402.399 636.269C402.405 636.431 402.367 636.592 402.289 636.734C402.211 636.876 402.096 636.994 401.956 637.076C401.816 637.159 401.657 637.201 401.494 637.2C401.345 637.201 401.197 637.166 401.064 637.097C400.931 637.028 400.818 636.927 400.733 636.804C397.264 631.424 394.247 625.765 391.714 619.886C387.525 619.353 371.422 617.16 366.791 614.075C361.459 610.517 351.9 598.84 359.677 594.506C371.704 587.826 384.326 605.589 389.848 614.829C387.791 607.973 389.612 594.141 391.752 581.184C387.449 582.471 373.471 579.973 368.566 576.72C363.234 573.163 354.032 563.947 359.677 558.935C373.814 546.366 388.759 572.988 392.049 579.379C392.392 577.36 392.735 575.372 393.062 573.453C393.954 568.281 394.791 563.406 395.256 559.742C395.919 554.41 393.946 546.793 390.419 538.262C387.616 539.153 378.118 541.781 367.682 540.288C355.228 538.506 348.914 528.809 353.446 524.292C361.17 516.576 383.975 532.564 389.871 536.929C385.834 527.768 381.108 518.927 375.733 510.482C368.474 512.166 339.568 511.549 343.483 500.07C347.398 488.591 362.19 496.315 370.904 503.04C370.188 501.982 369.472 500.93 368.749 499.902C365.473 495.164 363.173 489.055 361.55 482.581Z" fill="url(#paint1_linear_267_596)"/>
<path d="M361.55 482.581C355.19 484.241 331.082 483.266 335.652 471.376C340.771 458.153 354.429 469.708 360.294 477.043C358.544 467.147 357.711 457.111 357.803 447.062C353.469 441.852 344.313 408.779 362.373 410.417C385.986 412.565 365.07 443.871 359.623 447.428C359.623 455.045 360.141 470.173 363.592 483.289C364.354 474.956 372.641 451.244 383.686 459.608C399.682 471.734 369.046 486.374 364.399 486.123C365.673 490.637 367.636 494.928 370.219 498.843C371.993 501.38 373.959 504.32 375.992 507.519L376.107 507.641C377.135 498.866 385.323 476.327 396.14 484.508C411.1 495.835 385.369 509.34 378.095 510.878C382.85 518.525 387.107 526.471 390.838 534.667C391.341 526.745 406.887 510.543 413.065 519.806C416.515 524.97 398.288 541.804 392.278 538.033C395.705 546.412 397.762 554.235 397.054 559.94C396.787 562.042 396.406 564.51 395.957 567.222C400.215 562.507 415.601 546.724 420.179 558.942C423.988 569.073 411.29 574.938 405.95 574.938C401.776 574.938 397.351 570.992 395.614 569.263C395.37 570.726 395.116 572.221 394.852 573.75C392.704 586.219 390.13 601.225 390.891 610.251C394.525 603.205 410.749 573.856 420.187 592.732C425.031 602.405 411.298 610.517 405.958 612.292C401.586 613.755 393.771 612.445 391.074 611.927C391.2 612.861 391.404 613.783 391.684 614.684C395.165 625.112 402.18 635.707 402.256 635.814C402.344 635.95 402.394 636.107 402.399 636.269C402.405 636.431 402.367 636.592 402.289 636.734C402.211 636.876 402.096 636.994 401.956 637.076C401.816 637.159 401.657 637.201 401.494 637.2C401.345 637.201 401.197 637.166 401.064 637.097C400.931 637.028 400.818 636.927 400.733 636.804C397.264 631.424 394.247 625.765 391.714 619.886C387.525 619.353 371.422 617.16 366.791 614.075C361.459 610.517 351.9 598.84 359.677 594.506C371.704 587.826 384.326 605.589 389.848 614.829C387.791 607.973 389.612 594.141 391.752 581.184C387.449 582.471 373.471 579.973 368.566 576.72C363.234 573.163 354.032 563.947 359.677 558.935C373.814 546.366 388.759 572.988 392.049 579.379C392.392 577.36 392.735 575.372 393.062 573.453C393.954 568.281 394.791 563.406 395.256 559.742C395.919 554.41 393.946 546.793 390.419 538.262C387.616 539.153 378.118 541.781 367.682 540.288C355.228 538.506 348.914 528.809 353.446 524.292C361.17 516.576 383.975 532.564 389.871 536.929C385.834 527.768 381.108 518.927 375.733 510.482C368.474 512.166 339.568 511.549 343.483 500.07C347.398 488.591 362.19 496.315 370.904 503.04C370.188 501.982 369.472 500.93 368.749 499.902C365.473 495.164 363.173 489.055 361.55 482.581Z" fill="url(#paint2_linear_267_596)"/>
<path d="M413.072 592.739C428.009 586.767 431.657 609.619 432.442 617.114C435.732 606.191 437.126 592.892 435.641 582.075C433.356 582.022 424.566 581.603 418.411 578.526C411.297 574.969 406.909 560.725 413.079 558.965C423.446 556.002 432.564 573.963 435.336 580.087C435.093 578.709 434.803 577.368 434.46 576.096C431.99 566.399 430.44 556.491 429.829 546.504C427.026 546.45 419.165 546.176 414.862 544.736C409.53 542.954 400.488 529.022 407.747 526.943C417.749 524.086 426.592 538.437 429.692 544.196C429.09 533.197 429.547 522.616 431.414 515.403C430.652 512.234 429.129 505.501 429.129 500.268C429.129 493.154 437.385 479.146 445.124 486.032C459.285 498.623 438.063 513.339 432.975 516.561C431.254 523.668 430.873 533.92 431.452 544.554C434.628 536.556 447.448 507.755 462.872 521.611C468.783 526.943 455.758 539.397 446.876 542.939C441.995 544.909 436.838 546.109 431.589 546.496C432.198 556.322 433.728 566.069 436.159 575.608C436.571 577.157 436.904 578.726 437.157 580.308C440.531 573.506 456.2 544.569 473.544 557.167C480.734 562.4 466.429 574.953 459.315 578.495C453.221 581.542 440.775 581.71 437.37 581.694C438.848 592.48 437.515 605.688 434.323 616.733C439.556 608.834 454.829 588.55 466.445 601.598C473.3 609.352 455.499 615.918 450.449 617.594C445.993 619.117 436.456 619.521 433.44 619.627C430.903 627.245 427.468 633.605 423.454 636.949C423.295 637.086 423.092 637.162 422.882 637.162C422.699 637.162 422.52 637.106 422.37 637.001C422.219 636.896 422.105 636.747 422.043 636.574C421.98 636.402 421.973 636.214 422.021 636.037C422.069 635.86 422.17 635.703 422.311 635.585C426.12 632.394 429.426 626.346 431.848 619.033C429.563 618.074 422.799 615.164 418.434 612.254C413.072 608.743 404.815 596.037 413.072 592.739Z" fill="#34C4FF"/>
<path d="M374.837 637.208H455.768C456.004 637.208 456.231 637.114 456.398 636.947C456.565 636.78 456.659 636.553 456.659 636.317C456.659 636.08 456.565 635.854 456.398 635.686C456.231 635.519 456.004 635.425 455.768 635.425H374.837C374.72 635.425 374.604 635.448 374.495 635.493C374.387 635.538 374.289 635.604 374.206 635.686C374.124 635.769 374.058 635.867 374.013 635.975C373.968 636.084 373.945 636.199 373.945 636.317C373.945 636.434 373.968 636.549 374.013 636.658C374.058 636.766 374.124 636.864 374.206 636.947C374.289 637.029 374.387 637.095 374.495 637.14C374.604 637.185 374.72 637.208 374.837 637.208V637.208Z" fill="#14336A"/>
<path d="M346.371 637.208H365.048C365.284 637.208 365.511 637.114 365.678 636.947C365.845 636.78 365.939 636.553 365.939 636.317C365.939 636.08 365.845 635.854 365.678 635.686C365.511 635.519 365.284 635.425 365.048 635.425H346.371C346.134 635.425 345.908 635.519 345.741 635.686C345.573 635.854 345.479 636.08 345.479 636.317C345.479 636.553 345.573 636.78 345.741 636.947C345.908 637.114 346.134 637.208 346.371 637.208Z" fill="#14336A"/>
<path d="M621.857 105.597H955.188C956.64 105.597 958.033 105.02 959.06 103.992C960.087 102.965 960.664 101.572 960.664 100.12V39.3279C960.662 37.8768 960.084 36.4857 959.057 35.4603C958.031 34.4348 956.639 33.8589 955.188 33.8589H621.857C621.138 33.8579 620.426 33.9986 619.761 34.273C619.097 34.5474 618.493 34.9501 617.984 35.458C617.476 35.966 617.072 36.5692 616.797 37.2333C616.522 37.8973 616.38 38.6091 616.38 39.3279V100.105C616.379 100.824 616.52 101.537 616.795 102.202C617.07 102.867 617.473 103.471 617.982 103.979C618.49 104.488 619.095 104.892 619.76 105.166C620.424 105.441 621.137 105.582 621.857 105.581V105.597Z" fill="white"/>
<path d="M955.188 106.792H621.857C620.978 106.793 620.107 106.621 619.294 106.285C618.481 105.949 617.743 105.456 617.121 104.834C616.499 104.212 616.006 103.473 615.67 102.66C615.334 101.848 615.161 100.977 615.162 100.097V39.3279C615.162 38.449 615.335 37.5788 615.672 36.7669C616.009 35.955 616.502 35.2174 617.124 34.5962C617.745 33.9751 618.484 33.4827 619.296 33.147C620.108 32.8114 620.979 32.6391 621.857 32.6401H955.188C956.067 32.6391 956.938 32.8114 957.75 33.147C958.562 33.4827 959.301 33.9751 959.922 34.5962C960.544 35.2174 961.038 35.955 961.374 36.7669C961.711 37.5788 961.884 38.449 961.884 39.3279V100.105C961.885 100.984 961.712 101.855 961.376 102.668C961.04 103.481 960.547 104.219 959.925 104.841C959.303 105.463 958.565 105.956 957.752 106.292C956.939 106.629 956.068 106.801 955.188 106.8V106.792ZM621.857 35.07C621.298 35.068 620.744 35.1765 620.227 35.3893C619.71 35.6021 619.241 35.9149 618.845 36.3099C618.449 36.7049 618.135 37.1742 617.922 37.6908C617.708 38.2075 617.599 38.7612 617.6 39.3203V100.097C617.599 100.656 617.708 101.211 617.922 101.728C618.135 102.245 618.449 102.714 618.844 103.11C619.24 103.506 619.71 103.819 620.227 104.033C620.744 104.247 621.298 104.356 621.857 104.355H955.188C955.748 104.356 956.302 104.247 956.819 104.033C957.336 103.819 957.806 103.506 958.202 103.11C958.597 102.714 958.911 102.245 959.124 101.728C959.338 101.211 959.447 100.656 959.446 100.097V39.3279C959.446 38.7691 959.336 38.2158 959.122 37.6996C958.908 37.1835 958.594 36.7146 958.199 36.3198C957.803 35.925 957.334 35.6121 956.817 35.399C956.301 35.1858 955.747 35.0766 955.188 35.0776L621.857 35.07Z" fill="#E3ECF5"/>
<path d="M904.519 91.8326H942.498C943.327 91.8305 944.121 91.4998 944.707 90.9129C945.292 90.3261 945.621 89.5309 945.621 88.702V50.7537C945.622 50.3429 945.542 49.936 945.385 49.5562C945.229 49.1764 944.999 48.8312 944.709 48.5404C944.419 48.2496 944.074 48.0189 943.695 47.8615C943.315 47.7041 942.909 47.623 942.498 47.623H904.519C903.689 47.623 902.893 47.9529 902.306 48.54C901.718 49.1271 901.389 49.9234 901.389 50.7537V88.7324C901.389 89.5627 901.718 90.359 902.306 90.9461C902.893 91.5332 903.689 91.863 904.519 91.863V91.8326Z" fill="#E3ECF5"/>
<path d="M660.469 65.3936H873.214C874.542 65.3936 875.815 64.8664 876.753 63.9279C877.692 62.9893 878.219 61.7165 878.219 60.3892V60.3892C878.219 59.0619 877.692 57.789 876.753 56.8505C875.815 55.912 874.542 55.3848 873.214 55.3848H660.469C659.812 55.3838 659.161 55.5125 658.553 55.7637C657.946 56.0148 657.393 56.3834 656.929 56.8483C656.464 57.3132 656.095 57.8653 655.844 58.4729C655.593 59.0805 655.464 59.7317 655.465 60.3892V60.3892C655.457 61.335 655.722 62.2632 656.227 63.0628C656.678 63.7795 657.304 64.3695 658.046 64.7772C658.789 65.185 659.623 65.3971 660.469 65.3936V65.3936Z" fill="#E3ECF5"/>
<path d="M660.469 84.0399H873.214C873.982 84.0411 874.74 83.8643 875.429 83.5233C876.117 83.1824 876.717 82.6865 877.182 82.0747C877.859 81.2039 878.224 80.1309 878.218 79.0279V79.0279C878.227 78.0795 877.963 77.1487 877.456 76.3467C877.004 75.6356 876.379 75.05 875.64 74.644C874.901 74.2379 874.072 74.0245 873.229 74.0234H660.484C659.157 74.0234 657.884 74.5507 656.945 75.4892C656.007 76.4277 655.479 77.7006 655.479 79.0279V79.0279C655.479 80.3551 656.007 81.628 656.945 82.5665C657.884 83.505 659.157 84.0323 660.484 84.0323L660.469 84.0399Z" fill="#E3ECF5"/>
<path d="M741.804 204.672H408.465C407.012 204.672 405.619 204.095 404.592 203.068C403.565 202.04 402.988 200.647 402.988 199.195V138.426C402.988 136.973 403.565 135.58 404.592 134.553C405.619 133.526 407.012 132.949 408.465 132.949H741.804C742.523 132.949 743.234 133.091 743.898 133.366C744.562 133.642 745.166 134.045 745.674 134.554C746.182 135.062 746.584 135.666 746.859 136.331C747.133 136.995 747.274 137.707 747.273 138.426V199.195C747.274 199.914 747.133 200.626 746.859 201.29C746.584 201.955 746.182 202.558 745.674 203.067C745.166 203.576 744.562 203.979 743.898 204.255C743.234 204.53 742.523 204.672 741.804 204.672V204.672Z" fill="white"/>
<path d="M741.803 205.89H408.464C406.689 205.888 404.987 205.182 403.732 203.927C402.477 202.672 401.771 200.97 401.769 199.195V138.426C401.768 137.546 401.94 136.675 402.276 135.862C402.612 135.05 403.105 134.311 403.727 133.689C404.349 133.067 405.088 132.574 405.901 132.238C406.713 131.902 407.584 131.729 408.464 131.73H741.803C742.682 131.728 743.553 131.9 744.366 132.236C745.179 132.572 745.917 133.065 746.539 133.688C747.16 134.31 747.653 135.049 747.988 135.862C748.323 136.675 748.493 137.546 748.49 138.426V199.195C748.491 200.074 748.319 200.944 747.984 201.757C747.648 202.569 747.155 203.307 746.534 203.929C745.913 204.551 745.176 205.044 744.364 205.381C743.552 205.717 742.682 205.89 741.803 205.89V205.89ZM408.464 134.168C407.335 134.17 406.253 134.619 405.455 135.417C404.657 136.215 404.208 137.297 404.206 138.426V199.195C404.208 200.324 404.657 201.405 405.455 202.204C406.253 203.002 407.335 203.451 408.464 203.453H741.803C742.361 203.453 742.915 203.343 743.431 203.129C743.947 202.915 744.416 202.601 744.811 202.205C745.205 201.81 745.518 201.34 745.732 200.824C745.945 200.307 746.054 199.754 746.053 199.195V138.426C746.055 137.867 745.946 137.313 745.734 136.796C745.521 136.279 745.208 135.809 744.813 135.413C744.418 135.018 743.949 134.704 743.432 134.49C742.915 134.276 742.362 134.167 741.803 134.168H408.464Z" fill="#E3ECF5"/>
<path d="M459.142 190.763H421.163C420.752 190.764 420.345 190.684 419.965 190.528C419.586 190.371 419.24 190.141 418.95 189.851C418.659 189.561 418.428 189.216 418.271 188.837C418.113 188.458 418.032 188.051 418.032 187.64V149.661C418.031 149.25 418.112 148.842 418.269 148.462C418.425 148.082 418.656 147.736 418.947 147.445C419.238 147.155 419.583 146.924 419.964 146.767C420.344 146.61 420.751 146.53 421.163 146.531H459.142C459.881 146.538 460.594 146.808 461.153 147.292C461.501 147.588 461.78 147.956 461.972 148.37C462.164 148.784 462.264 149.235 462.265 149.692V187.671C462.265 188.499 461.936 189.293 461.35 189.879C460.764 190.465 459.97 190.794 459.142 190.794V190.763Z" fill="#E3ECF5"/>
<path d="M703.192 164.324H490.439C489.113 164.324 487.841 163.798 486.903 162.861C485.965 161.924 485.437 160.653 485.435 159.327V159.327C485.435 158 485.962 156.727 486.9 155.789C487.839 154.85 489.112 154.323 490.439 154.323H703.192C703.848 154.323 704.499 154.452 705.106 154.704C705.712 154.955 706.264 155.324 706.728 155.789C707.192 156.254 707.56 156.806 707.81 157.413C708.061 158.02 708.189 158.67 708.188 159.327V159.327C708.191 159.984 708.063 160.635 707.812 161.242C707.562 161.849 707.194 162.401 706.729 162.865C706.265 163.329 705.713 163.697 705.106 163.948C704.499 164.198 703.848 164.326 703.192 164.324V164.324Z" fill="#E3ECF5"/>
<path d="M635.202 182.971H490.477C489.151 182.971 487.879 182.445 486.941 181.508C486.003 180.571 485.475 179.3 485.473 177.974C485.471 177.316 485.599 176.665 485.85 176.057C486.1 175.449 486.469 174.896 486.934 174.431C487.399 173.966 487.952 173.597 488.56 173.347C489.168 173.096 489.819 172.968 490.477 172.97H635.202C635.859 172.968 636.511 173.096 637.119 173.347C637.727 173.597 638.28 173.966 638.745 174.431C639.21 174.896 639.578 175.449 639.829 176.057C640.08 176.665 640.208 177.316 640.206 177.974V177.974C640.206 178.631 640.077 179.281 639.825 179.888C639.573 180.495 639.205 181.046 638.74 181.51C638.275 181.974 637.723 182.342 637.116 182.593C636.509 182.843 635.858 182.972 635.202 182.971Z" fill="#E3ECF5"/>
<path d="M503.464 236.359C503.464 236.359 493.113 227.614 492.343 228.178C491.574 228.742 492.762 233.7 492.762 233.7C492.762 233.7 485.77 228.452 482.761 231.415C479.752 234.378 488.71 253.939 497.523 256.323L503.464 236.359Z" fill="#FFAA9D"/>
<path d="M855.121 226.274C855.121 226.274 865.48 217.529 866.25 218.093C867.019 218.657 865.831 223.615 865.831 223.615C865.831 223.615 872.823 218.367 875.832 221.33C878.841 224.293 869.883 243.854 861.07 246.231L855.121 226.274Z" fill="#FFAA9D"/>
<path d="M607.376 605.437V621.235H661.472L663.445 603L607.376 605.437Z" fill="url(#paint3_linear_267_596)"/>
<path d="M607.376 621.272L597.268 632.698C596.912 633.092 596.678 633.581 596.594 634.106C596.511 634.63 596.583 635.168 596.8 635.653C597.017 636.137 597.371 636.548 597.818 636.835C598.265 637.122 598.786 637.273 599.317 637.268H657.649C658.16 637.263 658.651 637.074 659.033 636.735C659.415 636.397 659.662 635.931 659.728 635.425L661.473 621.295L607.376 621.272Z" fill="#0B2252"/>
<path d="M756.459 605.368L758.012 621.234H703.916L701.212 602.969L756.459 605.368Z" fill="url(#paint4_linear_267_596)"/>
<path d="M758.012 621.272L768.12 632.698C768.48 633.09 768.717 633.579 768.803 634.104C768.888 634.629 768.818 635.168 768.601 635.654C768.384 636.14 768.029 636.551 767.581 636.838C767.133 637.125 766.611 637.275 766.079 637.268H707.747C707.235 637.265 706.742 637.077 706.358 636.738C705.974 636.399 705.727 635.933 705.66 635.425L703.916 621.295L758.012 621.272Z" fill="#0B2252"/>
<path d="M634.546 329.584C634.546 329.584 613.835 400.164 609.996 453.872C606.157 507.58 606.332 607.219 606.332 607.219H664.131C664.131 607.219 677.643 471.14 683.006 470.653C688.368 470.165 699.108 607.219 699.108 607.219H759.588C759.588 607.219 745.969 372.918 724.374 329.584H634.546Z" fill="#14336D"/>
<path d="M868.247 243.344L855.069 224.111C832.119 237.265 799.731 237.943 760.252 227.157C731.352 219.251 711.175 210.628 678.863 210.628C646.551 210.628 614.788 233.48 598.708 237.882C559.229 248.676 526.841 248.005 503.899 234.835L490.736 254.069C490.736 254.069 544.582 299.482 624.195 287.279C622.23 314 617.82 354.85 619.176 361.165C622.367 375.957 733.317 376.627 738.688 359.786C740.264 354.843 732.822 303.024 731.71 276.082C813.015 289.93 868.247 243.344 868.247 243.344Z" fill="url(#paint5_linear_267_596)"/>
<path d="M708.173 185.576L708.424 202.234L705.934 202.158C705.934 202.158 703.938 215.937 694.211 213.766C691.415 213.142 687.843 210.773 686.815 211.245C685.596 211.809 685.07 215.579 684.789 216.668C683.73 220.843 669.128 216.623 671.497 212.35C673.782 208.29 677.095 202.744 676.387 201.206C673.911 195.836 673.211 182.506 686.632 178.05C697.319 174.455 708.059 179.84 708.173 185.576Z" fill="#FFAA9D"/>
<path d="M671.497 212.312C673.782 208.252 677.095 202.707 676.387 201.168C676.387 201.168 682.024 209.836 687.226 211.146C687.08 211.124 686.93 211.14 686.792 211.192C685.573 211.756 685.048 215.526 684.766 216.615C683.73 220.805 669.128 216.585 671.497 212.312Z" fill="#FF9F91"/>
<path d="M685.652 193.711C679.375 192.637 683.275 206.614 676.366 206.149C669.458 205.685 664.636 190.572 669.709 178.926C674.782 167.279 684.448 167.919 693.589 169.511C702.729 171.103 714.056 175.255 714.048 182.209C714.048 198.967 694.244 184.905 692.926 189.933C691.913 193.825 690.359 205.075 694.388 205.334C698.418 205.593 702.531 202.288 705.715 203.125C707.551 203.613 712.57 225.558 699.408 226.289C686.352 227.013 683.047 215.496 685.804 206.081C688.447 197.131 688.714 194.236 685.652 193.711Z" fill="#14336A"/>
<path d="M958.288 292.215C957.778 292.217 957.282 292.057 956.871 291.756C956.46 291.456 956.155 291.032 956.002 290.547C949.909 270.994 941.842 259.941 932.039 257.694C925.504 256.171 919.943 259.058 914.07 262.089C908.198 265.121 902.173 268.229 895.028 266.941C880.7 264.374 869.891 245.728 861.871 209.943C861.733 209.328 861.846 208.683 862.184 208.151C862.522 207.619 863.057 207.243 863.672 207.105C864.287 206.968 864.932 207.081 865.464 207.419C865.996 207.756 866.372 208.292 866.509 208.907C873.928 242.148 883.808 260.101 895.866 262.226C901.472 263.224 906.53 260.604 911.93 257.831C918.024 254.693 924.879 251.144 933.136 253.025C944.706 255.668 953.938 267.802 960.557 289.092C960.745 289.689 960.691 290.336 960.406 290.893C960.121 291.45 959.628 291.873 959.034 292.07C958.795 292.16 958.543 292.209 958.288 292.215V292.215Z" fill="#34C4FF"/>
<path d="M877.975 203.095C876.155 207.549 872.763 211.181 868.442 213.3C864.122 215.419 859.174 215.879 854.537 214.592C849.9 213.305 845.897 210.361 843.287 206.318C840.677 202.275 839.642 197.415 840.378 192.66C840.606 191.189 873.215 180.967 875.249 183.58C877.384 186.303 878.76 189.543 879.239 192.97C879.718 196.398 879.282 199.891 877.975 203.095V203.095Z" fill="#28AEE5"/>
<path d="M868.036 189.978L870.713 189.256C871.323 189.092 871.683 188.465 871.519 187.856L865.691 166.241C865.527 165.632 864.9 165.271 864.29 165.435L861.613 166.157C861.004 166.322 860.643 166.949 860.808 167.558L866.636 189.173C866.8 189.782 867.427 190.143 868.036 189.978Z" fill="#14336A"/>
<path d="M842.534 193.321L845.224 192.6C845.836 192.436 846.199 191.807 846.035 191.194L840.214 169.479C840.05 168.867 839.421 168.504 838.809 168.668L836.12 169.389C835.508 169.553 835.144 170.182 835.308 170.794L841.129 192.509C841.293 193.122 841.922 193.485 842.534 193.321Z" fill="#14336A"/>
<path d="M836.322 189.389L880.107 178.104C880.553 177.989 881.028 178.056 881.425 178.29C881.822 178.525 882.11 178.908 882.225 179.354L884.84 189.499C885.298 191.278 885.031 193.167 884.098 194.749C883.164 196.332 881.639 197.478 879.86 197.937L846.117 206.634C844.337 207.092 842.449 206.825 840.866 205.891C839.284 204.957 838.137 203.433 837.679 201.654L835.064 191.509C834.949 191.063 835.016 190.588 835.25 190.191C835.485 189.794 835.868 189.506 836.314 189.391L836.322 189.389Z" fill="#34C4FF"/>
<path d="M481.878 382.5C481.351 382.501 480.839 382.327 480.423 382.005C461.959 367.761 453.1 353.967 454.098 341.017C455.111 327.909 465.608 319.347 475.754 311.06C486.265 302.49 496.183 294.393 496.723 281.703C497.028 274.444 494.065 269.653 490.927 264.58C487.53 259.096 484.026 253.429 484.727 244.776C485.976 229.473 499.732 215.359 525.623 202.813C526.19 202.538 526.844 202.5 527.44 202.708C528.035 202.915 528.524 203.35 528.799 203.918C529.074 204.485 529.112 205.139 528.905 205.735C528.697 206.33 528.262 206.819 527.694 207.094C503.426 218.847 490.569 231.659 489.464 245.179C488.886 252.286 491.841 257.054 494.964 262.112C498.186 267.315 501.819 273.21 501.469 281.917C500.844 296.739 489.617 305.903 478.762 314.761C468.952 322.759 459.72 330.323 458.836 341.421C457.975 352.672 466.217 365.072 483.333 378.28C483.83 378.667 484.155 379.235 484.235 379.86C484.314 380.486 484.144 381.117 483.759 381.617C483.534 381.898 483.247 382.123 482.921 382.276C482.595 382.43 482.238 382.506 481.878 382.5V382.5Z" fill="#34C4FF"/>
<path d="M541.016 220.919C537.403 221.744 533.626 221.479 530.164 220.156C526.702 218.834 523.71 216.515 521.566 213.491C519.423 210.468 518.225 206.876 518.123 203.172C518.022 199.467 519.022 195.816 520.996 192.679C522.971 189.543 525.831 187.063 529.216 185.553C532.6 184.043 536.357 183.571 540.01 184.197C543.662 184.823 547.048 186.519 549.737 189.069C552.425 191.619 554.297 194.91 555.115 198.525C556.208 203.364 555.338 208.438 552.695 212.636C550.052 216.834 545.852 219.813 541.016 220.919V220.919Z" fill="#28AEE6"/>
<path d="M561.81 221.376C557.819 222.29 552.22 212.647 549.311 199.85C546.401 187.053 547.262 175.94 551.253 175.034C555.244 174.127 560.843 183.763 563.753 196.56C566.662 209.356 565.794 220.439 561.81 221.376Z" fill="#34C4FF"/>
<path d="M535.533 204.824L534.726 201.275C533.454 195.601 534.478 189.654 537.575 184.732C540.671 179.81 545.589 176.313 551.255 175.003L561.812 221.376C556.133 222.652 550.181 221.626 545.256 218.524C540.331 215.423 536.835 210.497 535.533 204.824V204.824Z" fill="#34C4FF"/>
<path d="M560.729 216.615C557.56 217.331 553.112 209.668 550.827 199.484C548.542 189.3 549.197 180.442 552.35 179.741C555.504 179.04 559.967 186.688 562.253 196.864C564.538 207.04 563.905 215.892 560.729 216.615Z" fill="#74D7FF"/>
<path d="M555.589 192.934C555.048 193.056 554.286 191.753 553.89 190.016C553.494 188.28 553.616 186.779 554.157 186.657C554.698 186.535 555.459 187.838 555.848 189.575C556.236 191.311 556.13 192.812 555.589 192.934Z" fill="#14336A"/>
<path d="M559.383 209.592C558.842 209.714 558.08 208.404 557.684 206.675C557.288 204.946 557.41 203.43 557.951 203.308C558.492 203.186 559.253 204.489 559.642 206.226C560.03 207.962 559.924 209.47 559.383 209.592Z" fill="#14336A"/>
<defs>
<linearGradient id="paint0_linear_267_596" x1="556.023" y1="60.9985" x2="556.023" y2="344.102" gradientUnits="userSpaceOnUse">
<stop stop-color="#E9F3FC"/>
<stop offset="1" stop-color="white"/>
</linearGradient>
<linearGradient id="paint1_linear_267_596" x1="375.01" y1="504.533" x2="395.287" y2="616.489" gradientUnits="userSpaceOnUse">
<stop stop-color="#3162DF"/>
<stop offset="0.96" stop-color="#173DB8"/>
</linearGradient>
<linearGradient id="paint2_linear_267_596" x1="375.01" y1="504.533" x2="395.287" y2="616.489" gradientUnits="userSpaceOnUse">
<stop stop-color="#4250E8"/>
<stop offset="0.96" stop-color="#1F2CB7"/>
</linearGradient>
<linearGradient id="paint3_linear_267_596" x1="607.376" y1="612.117" x2="663.438" y2="612.117" gradientUnits="userSpaceOnUse">
<stop stop-color="#FFAA9D"/>
<stop offset="0.97" stop-color="#FF9F91"/>
</linearGradient>
<linearGradient id="paint4_linear_267_596" x1="445.508" y1="19416" x2="-3790.68" y2="19416" gradientUnits="userSpaceOnUse">
<stop stop-color="#FFAA9D"/>
<stop offset="0.97" stop-color="#FF9F91"/>
</linearGradient>
<linearGradient id="paint5_linear_267_596" x1="545082" y1="117071" x2="550677" y2="144609" gradientUnits="userSpaceOnUse">
<stop stop-color="#4250E8"/>
<stop offset="0.96" stop-color="#212EBC"/>
</linearGradient>
</defs>
</svg>
