<svg width="670" height="410" viewBox="0 0 670 410" fill="none" xmlns="http://www.w3.org/2000/svg">
<path opacity="0.2" d="M377.223 409.828C474.18 409.828 552.78 407.488 552.78 404.602C552.78 401.716 474.18 399.377 377.223 399.377C280.266 399.377 201.667 401.716 201.667 404.602C201.667 407.488 280.266 409.828 377.223 409.828Z" fill="#0B2252"/>
<path d="M483.672 20.1702C484.935 18.9052 486.436 17.9025 488.088 17.2197C489.74 16.5368 491.511 16.1874 493.298 16.1915H506.811C507.813 11.6034 510.354 7.49605 514.012 4.55092C517.67 1.6058 522.226 0 526.922 0C531.618 0 536.173 1.6058 539.831 4.55092C543.489 7.49605 546.031 11.6034 547.033 16.1915H550.668C554.266 16.1964 557.716 17.6286 560.26 20.174C562.803 22.7194 564.233 26.17 564.236 29.7685V29.7685C564.236 33.3717 562.804 36.8274 560.256 39.3753C557.708 41.9232 554.253 43.3546 550.65 43.3546H493.28C489.68 43.3498 486.229 41.9162 483.685 39.3688C481.141 36.8215 479.712 33.3686 479.712 29.7685C479.709 27.9868 480.057 26.2221 480.737 24.5752C481.416 22.9283 482.414 21.4314 483.672 20.1702Z" fill="#E9F3FC"/>
<path d="M318.495 40.6366C317.311 39.4493 315.904 38.5077 314.356 37.8658C312.807 37.2239 311.146 36.8944 309.47 36.8963H296.773C295.83 32.5862 293.442 28.728 290.005 25.9617C286.568 23.1953 282.288 21.687 277.876 21.687C273.464 21.687 269.185 23.1953 265.748 25.9617C262.311 28.728 259.923 32.5862 258.98 36.8963H255.574C252.189 36.8975 248.943 38.2429 246.549 40.6366C244.155 43.0304 242.81 46.2767 242.809 49.662V49.662C242.807 51.3389 243.136 52.9997 243.777 54.5493C244.418 56.0989 245.358 57.5069 246.544 58.6927C247.729 59.8784 249.137 60.8187 250.687 61.4596C252.237 62.1005 253.897 62.4294 255.574 62.4276H309.474C311.151 62.4282 312.811 62.0984 314.36 61.4571C315.909 60.8158 317.317 59.8755 318.502 58.69C319.688 57.5045 320.628 56.097 321.269 54.5479C321.911 52.9988 322.24 51.3385 322.24 49.662C322.241 47.985 321.911 46.3244 321.268 44.7755C320.626 43.2266 319.683 41.82 318.495 40.6366V40.6366Z" fill="#E9F3FC"/>
<path d="M669.181 213.649V285.934C603.478 274.539 515.131 264.152 411.809 264.152C183.728 264.152 4.8441 314.839 4.8441 314.839C-8.44868 286.461 6.27882 204.729 40.8951 185.578C75.5113 166.428 105.585 204.711 132.918 191.047C160.25 177.383 134.678 56.5604 176.651 48.7864C218.624 41.0125 245.058 118.761 296.369 118.761C347.679 118.761 339.914 41.0308 399.892 37.9185C459.87 34.8061 458.288 117.506 494.385 117.506C530.482 117.506 515.837 84.3424 572.405 83.3706C628.972 82.3989 644.58 200.402 668.805 213.452L669.181 213.649Z" fill="url(#paint0_linear_302_306)"/>
<path d="M515.514 123.693H253.848C244.347 123.693 236.646 131.395 236.646 140.896V295.977C236.646 305.478 244.347 313.18 253.848 313.18H515.514C525.015 313.18 532.717 305.478 532.717 295.977V140.896C532.717 131.395 525.015 123.693 515.514 123.693Z" fill="white"/>
<path d="M518.947 314.83H250.401C246.314 314.825 242.397 313.199 239.508 310.309C236.619 307.419 234.994 303.501 234.99 299.415V137.459C234.994 133.372 236.619 129.454 239.508 126.564C242.397 123.674 246.314 122.048 250.401 122.043H518.947C523.034 122.048 526.952 123.674 529.842 126.564C532.732 129.454 534.357 133.372 534.362 137.459V299.415C534.357 303.502 532.732 307.42 529.842 310.31C526.952 313.2 523.034 314.825 518.947 314.83V314.83ZM250.401 125.344C247.19 125.349 244.111 126.627 241.841 128.898C239.571 131.169 238.294 134.247 238.291 137.459V299.415C238.294 302.626 239.571 305.705 241.841 307.976C244.111 310.247 247.19 311.525 250.401 311.53H518.947C522.157 311.524 525.234 310.245 527.503 307.974C529.773 305.703 531.049 302.625 531.053 299.415V137.459C531.049 134.247 529.772 131.169 527.502 128.898C525.232 126.627 522.153 125.349 518.942 125.344H250.401Z" fill="#E3ECF5"/>
<path d="M358.896 179.399C365.378 172.496 374.275 169.046 385.587 169.049C396.05 169.049 404.429 172 410.724 177.9C417.019 183.801 420.167 191.345 420.167 200.53C420.167 206.089 419.025 210.601 416.743 214.066C414.46 217.531 409.782 222.621 402.707 229.334C397.564 234.224 394.217 238.349 392.664 241.71C391.112 245.072 390.334 250.077 390.331 256.727H376.319C376.319 249.225 377.211 243.177 378.996 238.584C380.78 233.991 384.753 228.731 390.913 222.803L397.331 216.587C399.139 214.945 400.716 213.065 402.02 211C404.118 207.85 405.254 204.158 405.288 200.374C405.382 195.494 403.716 190.743 400.594 186.99C397.459 183.21 392.275 181.32 385.042 181.32C376.094 181.32 369.908 184.573 366.482 191.079C364.551 194.7 363.452 199.921 363.187 206.741H349.179C349.179 195.407 352.418 186.293 358.896 179.399ZM376.016 269.79H391.679V286.159H376.016V269.79Z" fill="#34C4FF"/>
<path d="M506.229 149.284H219.316C218.879 149.284 218.459 149.111 218.149 148.801C217.84 148.492 217.666 148.072 217.666 147.634C217.666 147.197 217.84 146.777 218.149 146.467C218.459 146.158 218.879 145.984 219.316 145.984H506.229C506.667 145.984 507.087 146.158 507.396 146.467C507.706 146.777 507.88 147.197 507.88 147.634C507.88 148.072 507.706 148.492 507.396 148.801C507.087 149.111 506.667 149.284 506.229 149.284V149.284Z" fill="#E3ECF5"/>
<path d="M255.589 136.944C255.884 135.128 254.65 133.416 252.834 133.121C251.017 132.826 249.305 134.06 249.01 135.876C248.716 137.693 249.949 139.405 251.766 139.7C253.583 139.995 255.294 138.761 255.589 136.944Z" fill="#E3ECF5"/>
<path d="M268.957 137.15C269.38 135.359 268.27 133.564 266.479 133.142C264.688 132.719 262.893 133.828 262.471 135.619C262.048 137.411 263.157 139.205 264.948 139.628C266.74 140.051 268.534 138.941 268.957 137.15Z" fill="#E3ECF5"/>
<path d="M282.496 136.943C282.791 135.127 281.558 133.415 279.741 133.12C277.924 132.825 276.213 134.059 275.918 135.875C275.623 137.692 276.856 139.404 278.673 139.699C280.49 139.994 282.201 138.76 282.496 136.943Z" fill="#E3ECF5"/>
<path d="M156.565 284.839C149.983 284.623 142.851 282.331 143.006 271.789C143.162 261.246 150.831 259.582 151.61 251.68C152.389 243.778 152.44 236.407 156.565 236.329C160.69 236.251 158.078 239.629 160.003 243.292C161.928 246.954 165.65 251.643 164.926 258.491C164.202 265.34 169.079 267.957 168.822 273.558C168.565 279.159 165.063 285.082 156.565 284.839Z" fill="#DAEEFF"/>
<path d="M158.988 257.873C158.961 257.846 158.93 257.825 158.895 257.81C158.861 257.796 158.823 257.789 158.786 257.789C158.748 257.789 158.711 257.796 158.677 257.81C158.642 257.825 158.611 257.846 158.584 257.873C158.532 257.926 158.502 257.999 158.502 258.074C158.502 258.15 158.532 258.222 158.584 258.276C158.584 258.276 160.299 259.999 160.124 265.839C159.973 270.881 157.374 278.701 156.526 281.062C155.752 279.228 154.748 277.193 153.9 275.483C153.331 274.333 152.836 273.333 152.57 272.705C151.589 270.414 153.079 265.582 153.093 265.537C153.115 265.464 153.107 265.385 153.072 265.317C153.037 265.25 152.977 265.199 152.905 265.174C152.869 265.163 152.832 265.159 152.794 265.162C152.757 265.166 152.72 265.176 152.687 265.194C152.654 265.211 152.624 265.235 152.6 265.264C152.576 265.293 152.558 265.326 152.547 265.362C152.483 265.569 150.98 270.441 152.039 272.93C152.314 273.576 152.813 274.58 153.386 275.74C154.926 278.852 157.26 283.555 157.223 285.366C157.172 287.905 156.865 291.545 156.861 291.581C156.854 291.657 156.878 291.732 156.927 291.791C156.976 291.849 157.046 291.886 157.122 291.893H157.15C157.221 291.892 157.289 291.865 157.342 291.817C157.394 291.769 157.427 291.703 157.434 291.632C157.434 291.595 157.745 287.933 157.796 285.379C157.796 284.559 157.425 283.285 156.852 281.841C157.232 280.8 160.519 271.587 160.697 265.839C160.89 259.72 159.066 257.941 158.988 257.873Z" fill="#6AC1FF"/>
<path d="M644.372 257.547C638.766 257.377 632.683 255.411 632.821 246.404C632.958 237.397 639.49 235.999 640.155 229.265C640.819 222.532 640.856 216.257 644.372 216.193C647.887 216.129 645.664 219.003 647.305 222.129C648.946 225.255 652.118 229.247 651.504 235.082C650.89 240.917 655.043 243.154 654.827 247.917C654.612 252.679 651.605 257.762 644.372 257.547Z" fill="#DAEEFF"/>
<path d="M646.454 234.555C646.432 234.533 646.405 234.515 646.376 234.503C646.346 234.49 646.314 234.484 646.283 234.484C646.251 234.484 646.219 234.49 646.19 234.503C646.16 234.515 646.133 234.533 646.111 234.555C646.088 234.578 646.07 234.605 646.058 234.634C646.046 234.664 646.039 234.695 646.039 234.727C646.039 234.759 646.046 234.791 646.058 234.82C646.07 234.85 646.088 234.877 646.111 234.899C646.111 234.899 647.573 236.366 647.426 241.348C647.298 245.653 645.066 252.313 644.36 254.325C643.695 252.757 642.842 251.025 642.118 249.572C641.632 248.586 641.202 247.738 640.982 247.202C640.152 245.245 641.44 241.128 641.44 241.087C641.45 241.057 641.453 241.025 641.451 240.993C641.448 240.961 641.439 240.93 641.424 240.902C641.409 240.874 641.388 240.849 641.364 240.829C641.339 240.809 641.31 240.794 641.279 240.785C641.249 240.775 641.216 240.771 641.184 240.774C641.152 240.776 641.121 240.786 641.092 240.8C641.064 240.815 641.038 240.836 641.018 240.861C640.997 240.886 640.982 240.914 640.972 240.945C640.917 241.119 639.638 245.272 640.541 247.394C640.775 247.944 641.197 248.797 641.692 249.787C643.003 252.441 644.992 256.452 644.96 258.01C644.914 260.174 644.653 263.277 644.653 263.309C644.65 263.341 644.653 263.374 644.663 263.405C644.673 263.436 644.688 263.465 644.709 263.489C644.73 263.514 644.756 263.534 644.785 263.549C644.814 263.564 644.845 263.573 644.878 263.575V263.575C644.939 263.575 644.998 263.552 645.043 263.51C645.088 263.469 645.116 263.412 645.121 263.35C645.121 263.318 645.386 260.201 645.428 258.019C645.338 256.975 645.066 255.954 644.626 255.003C644.951 254.119 647.761 246.262 647.903 241.362C648.073 236.132 646.519 234.62 646.454 234.555Z" fill="#6AC1FF"/>
<path d="M206.483 240.945C202.628 240.826 198.443 239.474 198.535 233.281C198.626 227.089 203.118 226.126 203.577 221.492C204.035 216.858 204.058 212.544 206.478 212.499C208.898 212.453 207.368 214.433 208.495 216.583C209.623 218.732 211.805 221.478 211.383 225.493C210.961 229.509 213.817 231.044 213.675 234.331C213.533 237.617 211.47 241.078 206.483 240.945Z" fill="#DAEEFF"/>
<path d="M207.9 225.131C207.868 225.1 207.826 225.082 207.781 225.082C207.736 225.082 207.694 225.1 207.662 225.131C207.646 225.146 207.633 225.164 207.624 225.184C207.616 225.204 207.611 225.226 207.611 225.248C207.611 225.27 207.616 225.291 207.624 225.311C207.633 225.332 207.646 225.35 207.662 225.365C207.662 225.365 208.666 226.378 208.579 229.802C208.491 232.763 206.956 237.347 206.47 238.726C206.012 237.649 205.43 236.462 204.93 235.458C204.595 234.78 204.307 234.198 204.151 233.826C203.578 232.483 204.449 229.651 204.458 229.623C204.468 229.601 204.473 229.577 204.474 229.553C204.474 229.529 204.469 229.505 204.459 229.483C204.449 229.461 204.435 229.441 204.417 229.425C204.399 229.409 204.378 229.397 204.355 229.39C204.332 229.383 204.308 229.38 204.284 229.383C204.26 229.386 204.237 229.394 204.216 229.407C204.195 229.419 204.178 229.436 204.164 229.456C204.15 229.476 204.141 229.498 204.137 229.522C204.1 229.646 203.22 232.502 203.839 233.959C203.999 234.34 204.297 234.926 204.632 235.609C205.549 237.443 206.901 240.193 206.878 241.261C206.851 242.751 206.667 244.887 206.667 244.928C206.665 244.95 206.668 244.972 206.675 244.993C206.682 245.014 206.693 245.034 206.707 245.05C206.722 245.067 206.739 245.081 206.759 245.09C206.779 245.1 206.801 245.106 206.823 245.107V245.107C206.865 245.108 206.905 245.093 206.936 245.065C206.967 245.036 206.986 244.997 206.988 244.956C206.988 244.933 207.171 242.787 207.199 241.289C207.137 240.57 206.951 239.867 206.649 239.212C206.869 238.602 208.803 233.203 208.904 229.829C209.014 226.213 207.946 225.172 207.9 225.131Z" fill="#6AC1FF"/>
<path d="M584.243 303.215C577.504 303.013 570.189 300.648 570.349 289.821C570.51 278.994 578.371 277.308 579.173 269.194C579.975 261.081 580.012 253.559 584.243 253.477C588.473 253.394 585.796 256.86 587.767 260.618C589.738 264.377 593.557 269.176 592.809 276.203C592.062 283.23 597.068 285.911 596.806 291.645C596.545 297.38 592.961 303.481 584.243 303.215Z" fill="#DAEEFF"/>
<path d="M586.745 275.575C586.689 275.521 586.613 275.493 586.536 275.495C586.458 275.497 586.384 275.53 586.331 275.586C586.277 275.643 586.248 275.718 586.25 275.796C586.253 275.874 586.286 275.948 586.342 276.001C586.342 276.001 588.098 277.766 587.919 283.757C587.768 288.932 585.082 296.94 584.252 299.341C583.454 297.453 582.418 295.377 581.557 293.626C580.975 292.443 580.466 291.421 580.182 290.775C579.182 288.423 580.704 283.477 580.722 283.441C580.746 283.366 580.738 283.285 580.701 283.216C580.665 283.147 580.602 283.095 580.528 283.072C580.453 283.048 580.372 283.056 580.303 283.093C580.234 283.129 580.182 283.192 580.159 283.266C580.095 283.477 578.554 288.469 579.641 291.017C579.92 291.682 580.434 292.709 581.016 293.901C582.597 297.109 584.985 301.913 584.949 303.788C584.898 306.387 584.582 310.122 584.577 310.159C584.572 310.237 584.598 310.313 584.648 310.372C584.699 310.431 584.77 310.468 584.848 310.475H584.871C584.944 310.476 585.015 310.449 585.069 310.399C585.123 310.35 585.157 310.282 585.164 310.209C585.164 310.168 585.485 306.419 585.535 303.792C585.535 302.953 585.16 301.647 584.573 300.167C584.958 299.099 588.336 289.656 588.51 283.766C588.694 277.468 586.823 275.648 586.745 275.575Z" fill="#6AC1FF"/>
<path d="M217.566 312.089C213.738 313.088 199.231 312.501 201.981 305.346C205.061 297.389 213.28 304.342 216.809 308.756C215.757 302.801 215.255 296.762 215.311 290.715C212.702 287.58 207.193 267.677 218.061 268.663C232.27 269.955 219.683 288.794 216.406 290.935C216.406 295.519 216.718 304.622 218.794 312.515C219.253 307.5 224.24 293.231 230.886 298.264C240.512 305.562 222.076 314.371 219.28 314.22C220.047 316.937 221.228 319.519 222.782 321.875C223.85 323.401 225.033 325.171 226.256 327.096L226.325 327.169C226.944 321.889 231.872 308.326 238.38 313.248C247.383 320.064 231.899 328.191 227.522 329.117C230.383 333.719 232.945 338.5 235.19 343.432C235.493 338.665 244.848 328.916 248.565 334.489C250.642 337.597 239.673 347.727 236.056 345.458C238.119 350.5 239.357 355.208 238.93 358.641C238.77 359.906 238.541 361.391 238.27 363.023C240.833 360.186 250.092 350.688 252.847 358.04C255.139 364.137 247.497 367.666 244.284 367.666C241.772 367.666 239.109 365.292 238.064 364.251C237.917 365.131 237.765 366.031 237.606 366.951C236.313 374.455 234.764 383.485 235.222 388.916C237.409 384.676 247.172 367.015 252.851 378.374C255.766 384.195 247.502 389.077 244.289 390.145C241.658 391.025 236.955 390.237 235.332 389.925C235.408 390.487 235.531 391.042 235.699 391.584C237.794 397.859 242.015 404.235 242.061 404.299C242.114 404.381 242.144 404.476 242.147 404.574C242.151 404.671 242.128 404.768 242.081 404.853C242.034 404.939 241.965 405.01 241.88 405.059C241.796 405.109 241.7 405.134 241.603 405.134C241.513 405.134 241.424 405.113 241.344 405.072C241.264 405.03 241.195 404.969 241.144 404.895C239.057 401.658 237.242 398.253 235.717 394.715C233.196 394.394 223.506 393.074 220.719 391.217C217.511 389.077 211.758 382.05 216.438 379.442C223.676 375.422 231.271 386.111 234.594 391.671C233.357 387.546 234.452 379.222 235.74 371.425C233.15 372.2 224.739 370.696 221.787 368.739C218.579 366.598 213.042 361.052 216.438 358.036C224.946 350.473 233.939 366.493 235.919 370.339C236.125 369.124 236.332 367.928 236.529 366.772C237.065 363.66 237.569 360.727 237.849 358.522C238.248 355.313 237.06 350.729 234.938 345.596C233.251 346.132 227.535 347.713 221.256 346.815C213.761 345.742 209.961 339.907 212.689 337.189C217.337 332.546 231.06 342.167 234.608 344.794C232.179 339.281 229.335 333.961 226.101 328.879C221.732 329.892 204.337 329.521 206.693 322.613C209.049 315.705 217.951 320.353 223.195 324.401C222.764 323.763 222.333 323.131 221.897 322.512C219.926 319.661 218.542 315.985 217.566 312.089Z" fill="url(#paint1_linear_302_306)"/>
<path d="M248.575 378.379C257.563 374.785 259.759 388.536 260.231 393.047C262.211 386.473 263.05 378.47 262.156 371.961C260.781 371.929 255.491 371.677 251.788 369.825C247.507 367.685 244.866 359.113 248.579 358.054C254.818 356.271 260.304 367.08 261.973 370.765C261.826 369.935 261.652 369.129 261.446 368.363C259.959 362.528 259.026 356.566 258.659 350.555C256.972 350.523 252.242 350.358 249.652 349.492C246.443 348.419 241.002 340.036 245.371 338.784C251.389 337.066 256.711 345.701 258.576 349.167C258.214 342.548 258.489 336.181 259.612 331.84C259.154 329.933 258.237 325.881 258.237 322.732C258.237 318.451 263.206 310.022 267.863 314.165C276.384 321.742 263.614 330.598 260.552 332.537C259.516 336.813 259.287 342.983 259.635 349.382C261.547 344.569 269.261 327.238 278.543 335.576C282.1 338.784 274.262 346.279 268.917 348.41C265.98 349.596 262.876 350.318 259.718 350.551C260.084 356.464 261.005 362.329 262.468 368.07C262.716 369.002 262.916 369.946 263.068 370.898C265.099 366.805 274.528 349.391 284.965 356.973C289.292 360.122 280.684 367.676 276.402 369.807C272.735 371.641 265.246 371.741 263.197 371.732C264.086 378.223 263.284 386.171 261.363 392.817C264.512 388.064 273.703 375.858 280.693 383.709C284.818 388.376 274.106 392.327 271.067 393.335C268.385 394.252 262.647 394.495 260.831 394.559C259.305 399.143 257.238 402.97 254.822 404.982C254.727 405.065 254.605 405.111 254.478 405.111C254.368 405.111 254.26 405.077 254.17 405.014C254.079 404.951 254.011 404.861 253.973 404.757C253.936 404.653 253.931 404.541 253.96 404.434C253.989 404.328 254.05 404.233 254.135 404.162C256.427 402.241 258.416 398.602 259.873 394.202C258.498 393.624 254.428 391.873 251.802 390.122C248.575 388.009 243.606 380.363 248.575 378.379Z" fill="#34C4FF"/>
<path d="M225.565 405.138H274.267C274.409 405.138 274.545 405.082 274.646 404.981C274.746 404.881 274.803 404.744 274.803 404.602C274.803 404.46 274.746 404.323 274.646 404.223C274.545 404.122 274.409 404.066 274.267 404.066H225.565C225.494 404.066 225.424 404.08 225.359 404.107C225.294 404.133 225.235 404.173 225.185 404.223C225.136 404.273 225.096 404.332 225.069 404.397C225.042 404.462 225.028 404.532 225.028 404.602C225.028 404.672 225.042 404.742 225.069 404.807C225.096 404.872 225.136 404.931 225.185 404.981C225.235 405.031 225.294 405.071 225.359 405.097C225.424 405.124 225.494 405.138 225.565 405.138V405.138Z" fill="#14336A"/>
<path d="M208.437 405.138H219.676C219.818 405.138 219.955 405.082 220.055 404.981C220.156 404.881 220.212 404.744 220.212 404.602C220.212 404.46 220.156 404.323 220.055 404.223C219.955 404.122 219.818 404.066 219.676 404.066H208.437C208.294 404.066 208.158 404.122 208.057 404.223C207.957 404.323 207.9 404.46 207.9 404.602C207.9 404.744 207.957 404.881 208.057 404.981C208.158 405.082 208.294 405.138 208.437 405.138Z" fill="#14336A"/>
<path d="M498.535 400.953H507.116V318.598H511.296V351.142H517.791V318.598H521.971V355.309H511.296V400.953H519.881C520.419 400.979 520.927 401.21 521.299 401.6C521.671 401.989 521.878 402.507 521.878 403.046C521.878 403.584 521.671 404.102 521.299 404.492C520.927 404.882 520.419 405.113 519.881 405.138H498.535C497.997 405.113 497.489 404.882 497.117 404.492C496.746 404.102 496.538 403.584 496.538 403.046C496.538 402.507 496.746 401.989 497.117 401.6C497.489 401.21 497.997 400.979 498.535 400.953V400.953Z" fill="#34C4FF"/>
<path d="M514.019 300.735C532.249 300.735 547.022 304.168 547.022 308.408V312.557C547.022 316.792 532.244 320.23 514.019 320.23C495.795 320.23 481.017 316.792 481.017 312.557V308.408C481.012 304.168 495.79 300.735 514.019 300.735Z" fill="#34C4FF"/>
<path opacity="0.1" d="M470.994 200.188C477.228 189.92 473.957 176.543 463.688 170.31C453.42 164.076 440.043 167.347 433.81 177.615C427.577 187.884 430.847 201.261 441.116 207.494C451.384 213.727 464.761 210.456 470.994 200.188Z" fill="white"/>
<path opacity="0.17" d="M466.082 182.236C465.689 182.238 465.305 182.113 464.988 181.881C464.671 181.648 464.438 181.319 464.322 180.944C463.554 178.487 461.842 176.437 459.562 175.242C457.283 174.047 454.623 173.806 452.166 174.572C451.699 174.718 451.193 174.673 450.76 174.446C450.327 174.219 450.001 173.829 449.855 173.362C449.71 172.895 449.755 172.39 449.982 171.957C450.209 171.523 450.599 171.198 451.066 171.052C454.456 169.993 458.128 170.325 461.274 171.974C464.421 173.622 466.783 176.453 467.842 179.844C467.985 180.308 467.938 180.81 467.711 181.24C467.484 181.67 467.096 181.992 466.632 182.136C466.454 182.196 466.269 182.23 466.082 182.236V182.236Z" fill="#50C6A1"/>
<path d="M444.638 164.071C439.723 165.607 435.374 168.566 432.141 172.573C428.907 176.58 426.935 181.456 426.472 186.584C426.01 191.712 427.079 196.863 429.543 201.384C432.008 205.904 435.757 209.593 440.318 211.983C444.879 214.373 450.046 215.357 455.166 214.811C460.286 214.264 465.129 212.212 469.082 208.913C473.036 205.614 475.923 201.217 477.377 196.278C478.832 191.339 478.79 186.079 477.256 181.164C475.197 174.572 470.603 169.068 464.486 165.863C458.37 162.657 451.23 162.013 444.638 164.071V164.071ZM458.889 209.689C454.784 210.968 450.392 211.002 446.267 209.786C442.143 208.571 438.472 206.16 435.717 202.859C432.962 199.558 431.248 195.514 430.79 191.239C430.333 186.963 431.153 182.648 433.146 178.839C435.14 175.029 438.218 171.896 441.992 169.836C445.765 167.775 450.065 166.878 454.348 167.26C458.63 167.642 462.704 169.285 466.053 171.98C469.403 174.676 471.878 178.304 473.167 182.406C474.02 185.134 474.328 188.003 474.073 190.849C473.817 193.695 473.003 196.463 471.677 198.995C470.351 201.527 468.539 203.772 466.345 205.603C464.15 207.434 461.617 208.814 458.889 209.666V209.689Z" fill="#D0DAED"/>
<path d="M462.083 212.244L457.756 213.596L463.911 233.298L468.238 231.946L462.083 212.244Z" fill="#D0DAED"/>
<path d="M477.112 268.012C476.456 268.217 475.766 268.291 475.081 268.229C474.396 268.167 473.73 267.971 473.12 267.652C472.511 267.333 471.971 266.897 471.53 266.369C471.09 265.84 470.758 265.231 470.553 264.574L461.092 234.289C460.98 233.941 460.939 233.573 460.97 233.208C461.002 232.843 461.106 232.488 461.277 232.164C461.448 231.84 461.682 231.553 461.965 231.321C462.248 231.088 462.575 230.915 462.926 230.81L467.62 229.344C467.968 229.231 468.336 229.19 468.701 229.222C469.066 229.253 469.421 229.358 469.745 229.528C470.069 229.699 470.356 229.933 470.588 230.216C470.821 230.499 470.994 230.826 471.099 231.177L480.559 261.462C480.971 262.787 480.839 264.222 480.192 265.45C479.546 266.679 478.438 267.6 477.112 268.012V268.012Z" fill="#34C4FF"/>
<path d="M478.943 254.71C478.943 254.71 469.193 248.701 466.255 245.593C463.317 242.485 462.07 241.073 462.827 240.413C463.583 239.753 471.811 243.374 472.608 242.765C473.406 242.155 472.709 240.638 473.603 239.95C474.497 239.263 479.805 244.736 481.061 244.319C482.317 243.901 480.405 253.743 478.943 254.71Z" fill="#FFAA9D"/>
<path d="M440.076 366.63L432.93 373.547L414.824 356.789L420.783 347.099L440.076 366.63Z" fill="#FFAA9D"/>
<path d="M433.972 372.53C433.972 372.53 428.99 378.777 428.05 378.787C427.111 378.796 406.209 356.18 406.346 355.451C406.484 354.722 415.61 355.506 415.61 355.506L433.972 372.53Z" fill="url(#paint2_linear_302_306)"/>
<path d="M419.674 346.086C419.674 346.086 440.608 367.969 441.414 367.969C442.221 367.969 542.11 291.27 542.11 291.27L499.765 272.477C499.765 272.477 445.998 287.268 419.674 346.086Z" fill="url(#paint3_linear_302_306)"/>
<path d="M514.493 352.646L518.036 361.937L495.503 371.984L488.943 362.693L514.493 352.646Z" fill="#FFAA9D"/>
<path d="M496.467 272.49C496.467 272.49 461.113 279.865 458.051 291.838C454.989 303.811 457.771 316.892 467.516 332.202C477.261 347.512 487.171 364.169 489.211 364.71C489.211 364.71 515.389 354.222 515.98 352.916C516.571 351.61 501.312 315.568 501.312 315.568C501.312 315.568 532.394 313.501 539.641 295.179L496.467 272.49Z" fill="url(#paint4_linear_302_306)"/>
<path d="M493.997 272.38C493.676 274.461 532.294 298.649 539.128 297.485C545.963 296.321 554.805 268.103 552.362 247.037C549.918 225.97 531.043 210.17 522.439 210.903C513.835 211.637 509.229 219.709 508.06 232.538C506.341 251.359 494.355 270.056 493.997 272.38Z" fill="url(#paint5_linear_302_306)"/>
<path d="M526.301 214.144C530.853 213.75 546.516 222.935 550.178 250.034C553.84 277.133 538.875 279.407 526.301 277.656C513.728 275.905 482.082 260.375 477.43 254.829C477.43 254.829 476.431 246.12 479.795 243.008C479.795 243.008 510.318 246.111 518.243 248.508C526.168 250.905 509.057 215.643 526.301 214.144Z" fill="url(#paint6_linear_302_306)"/>
<path d="M517.514 360.575C517.514 360.575 521.291 367.616 520.934 368.482C520.576 369.348 491.552 379.662 490.938 379.249C490.324 378.837 494.632 370.756 494.632 370.756L517.514 360.575Z" fill="url(#paint7_linear_302_306)"/>
<path d="M500.724 196.542L500.582 206.228L502.026 206.182C502.026 206.182 503.186 214.194 508.846 212.929C510.474 212.567 512.55 211.192 513.146 211.467C513.856 211.793 514.164 213.988 514.324 214.621C514.938 217.045 523.432 214.593 522.052 212.109C520.746 209.748 518.798 206.526 519.21 205.627C520.65 202.506 521.044 194.755 513.251 192.16C507.036 190.098 500.802 193.228 500.724 196.542Z" fill="#FFAA9D"/>
<path d="M522.053 212.109C520.746 209.748 518.798 206.526 519.211 205.627C519.211 205.627 515.933 210.669 512.908 211.43C512.993 211.419 513.08 211.429 513.16 211.458C513.871 211.783 514.178 213.979 514.338 214.611C514.939 217.045 523.432 214.593 522.053 212.109Z" fill="#FF9F91"/>
<path d="M513.825 201.291C517.492 200.668 515.2 208.795 519.225 208.524C523.249 208.254 526.045 199.467 523.098 192.692C520.151 185.917 514.536 186.275 509.191 187.219C503.846 188.163 497.273 190.561 497.273 194.603C497.273 204.335 508.792 196.171 509.553 199.095C510.144 201.36 511.047 207.901 508.701 208.052C506.354 208.203 503.97 206.269 502.118 206.764C501.05 207.053 498.112 219.809 505.785 220.236C513.376 220.657 515.297 213.96 513.697 208.487C512.198 203.285 512.047 201.598 513.825 201.291Z" fill="#14336A"/>
<defs>
<linearGradient id="paint0_linear_302_306" x1="334.597" y1="58.3939" x2="334.597" y2="228.757" gradientUnits="userSpaceOnUse">
<stop stop-color="#E9F3FC"/>
<stop offset="1" stop-color="white"/>
</linearGradient>
<linearGradient id="paint1_linear_302_306" x1="225.665" y1="325.299" x2="237.867" y2="392.67" gradientUnits="userSpaceOnUse">
<stop stop-color="#4250E8"/>
<stop offset="0.96" stop-color="#1F2CB7"/>
</linearGradient>
<linearGradient id="paint2_linear_302_306" x1="422.229" y1="364.3" x2="417.72" y2="369.883" gradientUnits="userSpaceOnUse">
<stop stop-color="#14336D"/>
<stop offset="0.97" stop-color="#0E2253"/>
</linearGradient>
<linearGradient id="paint3_linear_302_306" x1="158712" y1="88318.6" x2="165396" y2="81415" gradientUnits="userSpaceOnUse">
<stop stop-color="#14336D"/>
<stop offset="0.97" stop-color="#0E2253"/>
</linearGradient>
<linearGradient id="paint4_linear_302_306" x1="115126" y1="80429" x2="125295" y2="83740.2" gradientUnits="userSpaceOnUse">
<stop stop-color="#14336D"/>
<stop offset="0.97" stop-color="#0E2253"/>
</linearGradient>
<linearGradient id="paint5_linear_302_306" x1="83943.5" y1="58085.9" x2="90065.3" y2="65864.7" gradientUnits="userSpaceOnUse">
<stop stop-color="#4250E8"/>
<stop offset="0.96" stop-color="#101B93"/>
</linearGradient>
<linearGradient id="paint6_linear_302_306" x1="106434" y1="46442.6" x2="110436" y2="56132" gradientUnits="userSpaceOnUse">
<stop stop-color="#4250E8"/>
<stop offset="0.96" stop-color="#212EBC"/>
</linearGradient>
<linearGradient id="paint7_linear_302_306" x1="42340.8" y1="18672" x2="42439.8" y2="18970.9" gradientUnits="userSpaceOnUse">
<stop stop-color="#14336D"/>
<stop offset="0.97" stop-color="#0E2253"/>
</linearGradient>
</defs>
</svg>
