<svg width="1054" height="645" viewBox="0 0 1054 645" fill="none" xmlns="http://www.w3.org/2000/svg">
<path opacity="0.2" d="M547.138 645C725.414 645 869.935 641.318 869.935 636.776C869.935 632.235 725.414 628.553 547.138 628.553C368.861 628.553 224.34 632.235 224.34 636.776C224.34 641.318 368.861 645 547.138 645Z" fill="#0B2252"/>
<path d="M761.19 31.7629C763.173 29.7744 765.53 28.1975 768.125 27.123C770.72 26.0484 773.501 25.4973 776.31 25.5013H797.576C799.149 18.2766 803.147 11.8075 808.904 7.16852C814.662 2.52957 821.834 0 829.227 0C836.621 0 843.793 2.52957 849.551 7.16852C855.308 11.8075 859.306 18.2766 860.879 25.5013H866.592C872.258 25.5013 877.693 27.7499 881.703 31.7533C885.713 35.7568 887.97 41.1879 887.98 46.8542V46.8542C887.977 52.525 885.722 57.9627 881.712 61.972C877.701 65.9814 872.263 68.2344 866.592 68.2359H776.31C773.503 68.2359 770.724 67.6826 768.132 66.6078C765.539 65.5329 763.184 63.9575 761.201 61.9716C759.218 59.9857 757.646 57.6284 756.574 55.0344C755.503 52.4404 754.953 49.6607 754.957 46.8542C754.953 41.1967 757.195 35.769 761.19 31.7629Z" fill="#E9F3FC"/>
<path d="M501.226 63.9711C499.363 62.1027 497.149 60.6208 494.712 59.6106C492.274 58.6004 489.661 58.0818 487.023 58.0846H467.038C465.559 51.2978 461.802 45.2211 456.393 40.8637C450.983 36.5063 444.246 34.1304 437.3 34.1304C430.353 34.1304 423.616 36.5063 418.207 40.8637C412.797 45.2211 409.041 51.2978 407.562 58.0846H402.2C396.872 58.0846 391.761 60.2009 387.993 63.9682C384.225 67.7354 382.107 72.8451 382.105 78.1736C382.109 83.5021 384.227 88.6115 387.994 92.3794C391.762 96.1472 396.872 98.2653 402.2 98.2684H487.035C492.363 98.2669 497.473 96.1491 501.24 92.3807C505.007 88.6124 507.124 83.5021 507.124 78.1736C507.125 75.5344 506.604 72.921 505.592 70.4836C504.58 68.0462 503.096 65.833 501.226 63.9711Z" fill="#E9F3FC"/>
<path d="M1053.13 336.255V450.019C949.706 432.129 810.687 415.739 648.082 415.739C289.123 415.739 7.61163 495.507 7.61163 495.507C-13.2796 450.839 9.86811 322.22 64.3526 292.135C118.837 262.051 166.165 322.22 209.177 300.711C252.189 279.202 211.941 89.0578 278.002 76.8232C344.064 64.5886 385.656 186.923 466.392 186.923C547.129 186.923 534.901 64.577 629.315 59.6947C723.729 54.8124 721.23 184.926 778.023 184.926C834.816 184.926 811.79 132.739 900.814 131.204C989.838 129.669 1014.4 315.392 1052.53 335.926C1052.73 336.053 1052.93 336.157 1053.13 336.255Z" fill="url(#paint0_linear_302_146)"/>
<path d="M223.337 458.705C212.989 458.393 201.764 454.757 201.984 438.137C202.203 421.516 214.299 418.931 215.528 406.494C216.757 394.058 216.821 382.487 223.313 382.365C229.806 382.244 225.703 387.559 228.727 393.33C231.751 399.101 237.614 406.471 236.477 417.251C235.34 428.032 243.016 432.152 242.612 440.959C242.208 449.766 236.725 459.109 223.337 458.705Z" fill="#DAEEFF"/>
<path d="M227.17 416.265C227.086 416.181 226.972 416.134 226.853 416.134C226.734 416.134 226.62 416.181 226.535 416.265C226.451 416.349 226.404 416.463 226.404 416.582C226.404 416.701 226.451 416.815 226.535 416.899C226.535 416.899 229.23 419.612 228.959 428.805C228.723 436.752 224.602 449.05 223.298 452.761C222.074 449.875 220.493 446.672 219.166 443.983C218.265 442.171 217.486 440.601 217.065 439.608C215.53 435.996 217.867 428.401 217.896 428.326C217.932 428.21 217.921 428.084 217.865 427.976C217.809 427.868 217.712 427.786 217.596 427.749C217.539 427.729 217.478 427.721 217.418 427.726C217.358 427.73 217.299 427.746 217.245 427.774C217.191 427.801 217.143 427.839 217.104 427.885C217.066 427.932 217.037 427.985 217.019 428.043C216.921 428.366 214.555 436.03 216.222 439.955C216.655 440.965 217.44 442.546 218.346 444.375C220.77 449.269 224.435 456.673 224.377 459.553C224.296 463.547 223.8 469.277 223.8 469.335C223.79 469.455 223.829 469.574 223.906 469.666C223.984 469.758 224.095 469.815 224.215 469.826H224.25C224.364 469.826 224.473 469.783 224.557 469.706C224.64 469.629 224.691 469.523 224.7 469.41C224.7 469.352 225.191 463.593 225.277 459.599C225.277 458.312 224.7 456.31 223.794 454.03C224.371 452.397 229.565 437.9 229.842 428.851C230.16 419.173 227.291 416.38 227.17 416.265Z" fill="#6AC1FF"/>
<path d="M930.5 416.42C921.682 416.149 912.108 413.056 912.316 398.882C912.524 384.709 922.813 382.51 923.858 371.908C924.902 361.307 924.96 351.439 930.495 351.335C936.029 351.231 932.532 355.761 935.111 360.678C937.691 365.595 942.683 371.88 941.719 381.067C940.756 390.255 947.288 393.763 946.948 401.266C946.607 408.768 941.916 416.79 930.5 416.42Z" fill="#DAEEFF"/>
<path d="M933.766 380.236C933.694 380.165 933.597 380.125 933.495 380.125C933.394 380.125 933.296 380.165 933.224 380.236C933.154 380.31 933.115 380.408 933.115 380.51C933.115 380.612 933.154 380.71 933.224 380.784C933.224 380.784 935.532 383.093 935.29 390.93C935.088 397.705 931.579 408.191 930.465 411.353C929.421 408.883 928.076 406.16 926.939 403.851C926.172 402.299 925.514 400.966 925.15 400.117C923.84 397.041 925.837 390.566 925.854 390.497C925.869 390.449 925.875 390.399 925.871 390.349C925.867 390.299 925.853 390.25 925.83 390.206C925.807 390.161 925.775 390.122 925.737 390.09C925.698 390.057 925.654 390.033 925.606 390.018C925.558 390.003 925.507 389.997 925.456 390.002C925.405 390.006 925.356 390.021 925.311 390.044C925.266 390.068 925.226 390.1 925.194 390.139C925.161 390.178 925.137 390.223 925.121 390.272C925.035 390.549 923.021 397.082 924.446 400.423C924.81 401.283 925.479 402.633 926.253 404.192C928.319 408.364 931.446 414.678 931.394 417.13C931.325 420.535 930.915 425.423 930.91 425.469C930.902 425.571 930.934 425.672 931 425.75C931.066 425.828 931.16 425.876 931.262 425.885H931.296C931.393 425.884 931.486 425.846 931.556 425.78C931.627 425.714 931.67 425.624 931.677 425.527C931.677 425.481 932.099 420.57 932.168 417.142C932.168 416.04 931.672 414.331 930.898 412.392C931.406 410.996 935.832 398.64 936.058 390.924C936.317 382.741 933.87 380.334 933.766 380.236Z" fill="#6AC1FF"/>
<path d="M311.106 377.714C305.04 377.529 298.456 375.406 298.6 365.653C298.744 355.899 305.82 354.393 306.541 347.099C307.262 339.804 307.297 333.023 311.106 332.948C314.915 332.873 312.508 335.995 314.28 339.371C316.052 342.747 319.474 347.081 318.828 353.401C318.181 359.72 322.659 362.138 322.423 367.303C322.186 372.468 318.96 377.951 311.106 377.714Z" fill="#DAEEFF"/>
<path d="M313.326 352.829C313.302 352.805 313.273 352.785 313.242 352.772C313.21 352.759 313.176 352.752 313.142 352.752C313.107 352.752 313.073 352.759 313.042 352.772C313.01 352.785 312.981 352.805 312.957 352.829C312.907 352.879 312.879 352.947 312.879 353.017C312.879 353.087 312.907 353.155 312.957 353.204C312.957 353.204 314.538 354.791 314.382 360.182C314.244 364.845 311.826 372.053 311.058 374.228C310.343 372.532 309.419 370.662 308.635 369.081C308.109 368.019 307.653 367.101 307.405 366.518C306.505 364.4 307.878 359.945 307.89 359.899C307.906 359.864 307.915 359.827 307.915 359.789C307.916 359.751 307.908 359.713 307.893 359.679C307.878 359.644 307.855 359.613 307.827 359.587C307.798 359.562 307.765 359.543 307.729 359.532C307.692 359.521 307.654 359.517 307.616 359.522C307.579 359.527 307.542 359.54 307.51 359.56C307.478 359.58 307.45 359.606 307.429 359.638C307.408 359.67 307.394 359.706 307.388 359.743C307.324 359.933 305.939 364.429 306.921 366.726C307.174 367.303 307.63 368.244 308.161 369.317C309.587 372.203 311.734 376.531 311.699 378.216C311.653 380.559 311.37 383.924 311.37 383.987C311.367 384.022 311.371 384.057 311.381 384.09C311.392 384.123 311.409 384.153 311.431 384.18C311.454 384.206 311.482 384.228 311.513 384.243C311.544 384.259 311.578 384.268 311.612 384.27V384.27C311.678 384.269 311.741 384.243 311.789 384.199C311.837 384.154 311.866 384.093 311.872 384.028C311.872 383.993 312.161 380.617 312.207 378.257C312.106 377.126 311.812 376.021 311.335 374.99C311.687 374.032 314.729 365.531 314.885 360.228C315.11 354.532 313.424 352.893 313.326 352.829Z" fill="#DAEEFF"/>
<path d="M909.847 596.269C899.24 595.952 887.732 592.23 887.981 575.188C888.229 558.146 900.602 555.497 901.866 542.754C903.13 530.012 903.187 518.141 909.847 518.014C916.507 517.887 912.294 523.335 915.393 529.25C918.492 535.165 924.5 542.72 923.34 553.766C922.18 564.811 930.04 569.042 929.624 578.073C929.209 587.105 923.57 596.679 909.847 596.269Z" fill="#DAEEFF"/>
<path d="M913.77 552.761C913.68 552.677 913.561 552.632 913.438 552.636C913.315 552.64 913.199 552.692 913.115 552.782C913.031 552.871 912.986 552.991 912.989 553.113C912.993 553.236 913.046 553.353 913.135 553.437C913.135 553.437 915.899 556.213 915.617 565.637C915.374 573.785 911.15 586.412 909.846 590.192C908.587 587.226 906.96 583.954 905.604 581.201C904.686 579.337 903.873 577.739 903.457 576.717C901.882 573.012 904.277 565.227 904.305 565.175C904.323 565.117 904.33 565.056 904.324 564.996C904.318 564.935 904.3 564.877 904.272 564.823C904.244 564.769 904.205 564.722 904.158 564.683C904.111 564.645 904.058 564.616 904 564.598C903.883 564.563 903.758 564.575 903.65 564.631C903.543 564.687 903.461 564.783 903.422 564.898C903.319 565.233 900.901 573.087 902.609 577.104C903.053 578.148 903.855 579.764 904.785 581.64C907.266 586.661 911.029 594.25 910.965 597.222C910.884 601.313 910.388 607.188 910.388 607.252C910.383 607.312 910.389 607.373 910.407 607.431C910.426 607.489 910.455 607.542 910.495 607.588C910.534 607.635 910.582 607.673 910.636 607.7C910.69 607.727 910.749 607.744 910.809 607.748H910.85C910.966 607.747 911.078 607.703 911.163 607.624C911.249 607.545 911.301 607.437 911.311 607.321C911.311 607.263 911.814 601.36 911.889 597.233C911.889 595.912 911.312 593.857 910.371 591.526C910.977 589.846 916.298 574.986 916.569 565.712C916.84 555.745 913.891 552.877 913.77 552.761Z" fill="#6AC1FF"/>
<path d="M368.496 515.538C375.947 518.02 370.349 528.5 370.349 535.904C370.349 543.308 374.048 563.68 366.644 567.379C359.24 571.079 348.125 578.489 348.125 585.899C348.125 593.309 346.278 602.56 338.891 606.265C331.504 609.97 324.082 609.97 324.082 615.498C324.082 621.027 327.782 622.903 325.929 628.46C324.077 634.018 320.377 635.864 322.23 637.694H274.082C274.082 637.694 264.848 622.88 266.672 613.623C268.496 604.366 277.787 604.389 279.634 596.962C281.481 589.534 290.743 587.728 290.743 580.295C290.743 572.862 294.448 561.781 300.006 558.076C305.563 554.371 316.667 558.077 320.372 550.672C324.077 543.268 320.372 535.858 325.923 532.153C331.475 528.448 342.59 534.005 348.142 528.454C353.694 522.902 362.956 513.686 368.496 515.538Z" fill="#34C4FF"/>
<path d="M361.053 553.235C361.019 553.117 360.962 553.007 360.886 552.912C360.809 552.817 360.715 552.737 360.607 552.679C360.5 552.62 360.382 552.584 360.26 552.571C360.139 552.559 360.016 552.57 359.899 552.606C359.812 552.606 351.358 555.047 345.367 554.96C349.546 539.171 358.502 535.887 358.6 535.852C358.829 535.775 359.018 535.61 359.126 535.394C359.234 535.178 359.252 534.928 359.177 534.698C359.096 534.472 358.931 534.286 358.716 534.178C358.501 534.071 358.253 534.05 358.023 534.121C357.55 534.283 346.354 538.236 342.597 558.936C341.72 563.738 338.632 568.274 334.42 572.637C330.847 569.088 329.739 557.8 329.618 553.523C329.612 553.282 329.512 553.053 329.34 552.885C329.167 552.717 328.936 552.623 328.695 552.623C328.45 552.63 328.219 552.734 328.05 552.911C327.882 553.088 327.79 553.325 327.794 553.569C327.794 554.233 328.297 569.065 333.15 573.947C328.481 578.512 322.664 582.898 316.939 587.22C310.81 591.837 304.878 596.31 300.33 600.921C299.609 599.08 299.441 593.165 300.018 586.966C300.041 586.722 299.965 586.478 299.809 586.289C299.652 586.099 299.426 585.98 299.182 585.956C298.938 585.94 298.698 586.018 298.51 586.173C298.322 586.329 298.201 586.551 298.172 586.793C297.808 590.723 297.254 599.357 299.032 602.289C296.002 605.59 293.728 608.971 292.655 612.538C292.618 612.655 292.606 612.777 292.618 612.899C292.629 613.021 292.665 613.139 292.723 613.246C292.782 613.354 292.86 613.448 292.956 613.525C293.051 613.602 293.16 613.658 293.278 613.692C293.364 613.72 293.453 613.734 293.543 613.733C293.742 613.733 293.935 613.669 294.094 613.551C294.254 613.432 294.37 613.265 294.426 613.075C296.694 605.52 305.045 598.584 314.486 591.399C319.68 596.223 333.612 597.037 334.229 597.066H334.275C334.51 597.055 334.731 596.956 334.896 596.789C335.06 596.621 335.155 596.398 335.162 596.164C335.168 595.929 335.086 595.701 334.931 595.525C334.776 595.348 334.561 595.237 334.327 595.213C334.183 595.213 320.794 594.434 315.975 590.262L318.053 588.698C330.039 579.666 342.436 570.334 344.444 559.265C344.6 558.417 344.784 557.632 344.963 556.842C345.235 556.842 345.494 556.87 345.771 556.87C351.992 556.87 360.083 554.562 360.459 554.435C360.578 554.398 360.689 554.337 360.785 554.256C360.88 554.175 360.958 554.075 361.014 553.963C361.069 553.85 361.101 553.728 361.108 553.603C361.115 553.478 361.096 553.352 361.053 553.235V553.235Z" fill="#34916F"/>
<path d="M257.569 519.237C247.914 524.068 257.569 545.161 255.717 552.571C253.864 559.981 248.312 565.527 250.165 572.937C252.017 580.347 255.717 585.899 255.717 593.303C255.717 600.707 244.607 608.117 246.483 621.079C248.358 634.041 253.887 637.74 253.887 637.74H294.619C294.619 637.74 298.324 634.035 298.324 626.631C298.324 619.227 289.091 611.817 290.914 608.117C292.738 604.418 300.148 597.008 298.324 584.046C296.501 571.084 290.914 571.084 289.09 563.68C287.267 556.276 290.937 552.571 289.09 547.013C287.244 541.456 277.981 535.904 276.129 532.199C274.276 528.494 268.678 513.686 257.569 519.237Z" fill="#9BD1E7"/>
<path d="M288.713 584.26C288.524 584.103 288.281 584.027 288.037 584.049C287.793 584.07 287.567 584.188 287.409 584.375C285.568 586.58 280.847 591.93 277.806 594.353C277.886 593.066 277.933 591.785 277.933 590.527C277.933 584.756 277.932 578.899 277.655 573.272C277.659 573.235 277.659 573.199 277.655 573.162C277.476 568.365 276.946 563.587 276.068 558.867C274.204 549.524 265.19 536.828 264.809 536.291C264.743 536.181 264.654 536.087 264.55 536.013C264.445 535.94 264.326 535.889 264.201 535.863C264.076 535.837 263.946 535.838 263.821 535.865C263.696 535.891 263.578 535.943 263.474 536.018C263.37 536.092 263.282 536.188 263.217 536.298C263.151 536.407 263.109 536.53 263.093 536.657C263.077 536.784 263.088 536.912 263.124 537.035C263.16 537.158 263.221 537.272 263.303 537.37C263.395 537.497 272.467 550.274 274.268 559.231C274.962 562.874 275.425 566.558 275.653 570.259C272.288 566.797 266.627 563.911 266.333 563.773C266.116 563.683 265.873 563.679 265.654 563.762C265.434 563.844 265.254 564.006 265.149 564.215C265.044 564.425 265.022 564.666 265.087 564.891C265.153 565.116 265.301 565.308 265.502 565.429C265.588 565.475 273.731 569.601 275.832 573.508C276.092 579.049 276.103 584.831 276.103 590.521C276.103 595.415 275.364 600.719 274.718 605.393C274.101 609.843 273.564 613.6 273.783 616.22C270.744 614.596 267.615 613.147 264.411 611.88C264.297 611.835 264.176 611.813 264.054 611.815C263.931 611.816 263.811 611.842 263.698 611.891C263.586 611.939 263.484 612.009 263.399 612.097C263.314 612.185 263.247 612.289 263.202 612.402C263.157 612.516 263.135 612.637 263.136 612.76C263.138 612.882 263.164 613.003 263.213 613.115C263.261 613.227 263.331 613.329 263.419 613.414C263.507 613.499 263.611 613.566 263.724 613.611C266.212 614.604 272.877 617.455 274.424 618.886C276.507 623.099 279.825 631.79 280.12 637.792C280.13 638.03 280.232 638.254 280.404 638.419C280.576 638.583 280.805 638.675 281.043 638.675H281.089C281.211 638.669 281.33 638.639 281.439 638.587C281.549 638.535 281.648 638.462 281.729 638.372C281.811 638.282 281.873 638.177 281.914 638.063C281.955 637.948 281.973 637.827 281.967 637.705C281.661 631.357 278.146 622.181 276.005 617.899C275.105 616.104 275.809 611.032 276.582 605.665C276.969 602.86 277.373 599.83 277.65 596.783C281.372 594.521 288.557 585.956 288.874 585.576C288.952 585.479 289.009 585.368 289.043 585.25C289.077 585.131 289.087 585.006 289.072 584.883C289.057 584.761 289.017 584.642 288.956 584.535C288.894 584.428 288.811 584.334 288.713 584.26V584.26Z" fill="white"/>
<path d="M584.826 351.173H565.176V638.41H584.826V351.173Z" fill="#E0E9F3"/>
<path d="M850.854 351.173H831.203V638.41H850.854V351.173Z" fill="#E0E9F3"/>
<path d="M864.876 323.997H551.145V386.965H864.876V323.997Z" fill="url(#paint1_linear_302_146)"/>
<path d="M584.016 324.003L558.024 386.965H551.145V363.702L567.534 324.003H584.016Z" fill="#14336A"/>
<path d="M618.305 324.003L592.312 386.965H575.824L601.817 324.003H618.305Z" fill="#14336A"/>
<path d="M652.582 324.003L626.589 386.965H610.102L636.1 324.003H652.582Z" fill="#14336A"/>
<path d="M686.871 324.003L660.873 386.965H644.391L670.383 324.003H686.871Z" fill="#14336A"/>
<path d="M721.155 324.003L695.162 386.965H678.68L704.673 324.003H721.155Z" fill="#14336A"/>
<path d="M755.442 324.003L729.449 386.965H712.961L738.954 324.003H755.442Z" fill="#14336A"/>
<path d="M789.719 324.003L763.726 386.965H747.238L773.237 324.003H789.719Z" fill="#14336A"/>
<path d="M824.008 324.003L798.015 386.965H781.527L807.52 324.003H824.008Z" fill="#14336A"/>
<path d="M858.289 324.003L832.297 386.965H815.82L841.813 324.003H858.289Z" fill="#14336A"/>
<path d="M864.877 351.173V386.965H850.098L864.877 351.173Z" fill="#14336A"/>
<path d="M864.876 412.369H551.145V443.856H864.876V412.369Z" fill="url(#paint2_linear_302_146)"/>
<path d="M571.02 412.369L558.024 443.856H551.145V420.587L554.538 412.369H571.02Z" fill="#14336A"/>
<path d="M605.308 412.369L592.312 443.856H575.824L588.821 412.369H605.308Z" fill="#14336A"/>
<path d="M639.586 412.369L626.589 443.856H610.102L623.104 412.369H639.586Z" fill="#14336A"/>
<path d="M673.875 412.369L660.873 443.856H644.391L657.387 412.369H673.875Z" fill="#14336A"/>
<path d="M708.158 412.369L695.162 443.856H678.68L691.676 412.369H708.158Z" fill="#14336A"/>
<path d="M742.445 412.369L729.449 443.856H712.961L725.957 412.369H742.445Z" fill="#14336A"/>
<path d="M776.723 412.369L763.726 443.856H747.238L760.24 412.369H776.723Z" fill="#14336A"/>
<path d="M811.012 412.369L798.015 443.856H781.527L794.524 412.369H811.012Z" fill="#14336A"/>
<path d="M845.293 412.369L832.297 443.856H815.82L828.817 412.369H845.293Z" fill="#14336A"/>
<path d="M864.877 412.369V443.856H850.098L863.094 412.369H864.877Z" fill="#14336A"/>
<path d="M356.917 608.556L353.766 624.617H407.679L411.118 608.556H356.917Z" fill="#FFAA9D"/>
<path d="M353.767 624.617L351.21 637.14C351.172 637.325 351.175 637.516 351.22 637.7C351.264 637.884 351.35 638.055 351.469 638.202C351.589 638.348 351.739 638.466 351.91 638.547C352.081 638.628 352.268 638.67 352.457 638.669H412.891C413.06 638.669 413.227 638.627 413.374 638.545C413.522 638.463 413.647 638.345 413.737 638.202C413.827 638.059 413.879 637.896 413.889 637.727C413.898 637.559 413.865 637.39 413.792 637.238L407.68 624.617H353.767Z" fill="#0B2252"/>
<path d="M438.809 608.556L435.652 624.617H489.571L493.011 608.556H438.809Z" fill="#FFAA9D"/>
<path d="M435.672 624.617L433.115 637.14C433.078 637.325 433.082 637.516 433.127 637.699C433.172 637.882 433.257 638.053 433.377 638.2C433.496 638.346 433.646 638.464 433.817 638.545C433.987 638.626 434.173 638.669 434.362 638.669H494.802C494.969 638.667 495.133 638.623 495.279 638.541C495.425 638.458 495.547 638.341 495.636 638.199C495.724 638.057 495.776 637.895 495.785 637.728C495.795 637.562 495.762 637.395 495.691 637.244L489.585 624.622L435.672 624.617Z" fill="#0B2252"/>
<path d="M351.629 357.7C351.629 357.7 367.58 474.558 362.554 527.046C357.527 579.533 351.946 614.737 351.946 614.737H413.368C413.368 614.737 429.561 548.849 430.681 509.761C430.681 509.761 440.734 561.124 434.588 614.737H494.335C494.335 614.737 510.771 427.443 476.151 356.529L351.629 357.7Z" fill="url(#paint3_linear_302_146)"/>
<path d="M430.059 176.83C430.059 176.83 372.192 186.035 350.741 236.156C329.29 286.278 338.42 303.735 346.298 311.699C354.175 319.663 370.08 327.067 370.08 327.067L430.059 176.83Z" fill="url(#paint4_linear_302_146)"/>
<path d="M488.011 380.167C481.761 388.517 349.333 383.202 346.285 361.873C343.238 340.543 369.398 206.712 397.203 187.962C423.202 170.424 441.329 173.806 458.088 177.799C474.847 181.793 493.407 214.872 486.551 243.52C479.695 272.167 473.422 274.158 474.206 302.8C475.153 337.594 494.44 371.585 488.011 380.167Z" fill="url(#paint5_linear_302_146)"/>
<path d="M481.219 140.547L483.891 159.678L481.005 159.944C481.005 159.944 480.682 176.103 469.175 174.983C465.862 174.666 461.419 172.449 460.305 173.142C458.977 173.962 458.914 178.382 458.752 179.675C458.129 184.626 440.718 181.862 442.83 176.605C444.838 171.613 447.903 164.751 446.87 163.083C443.251 157.26 440.522 142.013 455.347 134.967C467.149 129.351 480.267 134.009 481.219 140.547Z" fill="#FFAA9D"/>
<path d="M442.842 176.605C444.85 171.613 447.914 164.751 446.881 163.083C446.881 163.083 454.609 172.253 460.784 173.015H460.818C460.646 173.014 460.476 173.054 460.322 173.13C458.995 173.95 458.931 178.371 458.77 179.663C458.141 184.626 440.729 181.862 442.842 176.605Z" fill="#FF9F91"/>
<path d="M456.448 153.174C449.078 152.839 455.559 168.364 447.543 168.819C439.527 169.275 431.817 152.574 436.001 138.441C440.185 124.307 451.369 123.673 462.179 124.186C472.988 124.7 486.55 127.868 487.536 135.873C489.914 155.125 465.116 141.805 464.331 147.784C463.725 152.401 463.546 165.576 468.221 165.299C472.895 165.022 477.154 160.607 480.917 161.132C483.099 161.433 492.049 185.948 476.97 188.695C462.052 191.396 456.604 178.613 458.422 167.388C460.176 156.718 460.066 153.336 456.448 153.174Z" fill="#14336A"/>
<path d="M467.204 396.73C467.204 396.73 493.451 402.541 503.492 402.114C513.534 401.687 517.92 401.335 517.741 398.986C517.562 396.637 497.75 389.285 497.41 386.959C497.069 384.634 500.722 383.208 500.341 380.611C499.961 378.014 482.065 378.534 480.622 375.775C479.179 373.016 466.315 392.701 467.204 396.73Z" fill="#FFAA9D"/>
<path d="M486.58 372.353L469.798 399.529C469.798 399.529 401.082 387.536 380.271 326.813C359.461 266.09 375.476 203.25 414.269 192.475C444.924 183.957 438.467 243.78 435.119 265.733C431.772 287.686 428.413 328.729 486.58 372.353Z" fill="url(#paint6_linear_302_146)"/>
<defs>
<linearGradient id="paint0_linear_302_146" x1="526.567" y1="91.9202" x2="526.567" y2="360.031" gradientUnits="userSpaceOnUse">
<stop stop-color="#E9F3FC"/>
<stop offset="1" stop-color="white"/>
</linearGradient>
<linearGradient id="paint1_linear_302_146" x1="708.013" y1="380.709" x2="708.013" y2="317.747" gradientUnits="userSpaceOnUse">
<stop stop-color="#F2C43C"/>
<stop offset="0.76" stop-color="#FFAC00"/>
</linearGradient>
<linearGradient id="paint2_linear_302_146" x1="558965" y1="31505" x2="558965" y2="29787.1" gradientUnits="userSpaceOnUse">
<stop stop-color="#F2C43C"/>
<stop offset="0.76" stop-color="#FFAC00"/>
</linearGradient>
<linearGradient id="paint3_linear_302_146" x1="425.937" y1="619.55" x2="423.409" y2="448.427" gradientUnits="userSpaceOnUse">
<stop stop-color="#14336D"/>
<stop offset="0.97" stop-color="#0E2253"/>
</linearGradient>
<linearGradient id="paint4_linear_302_146" x1="384.537" y1="237.968" x2="403.587" y2="307.452" gradientUnits="userSpaceOnUse">
<stop stop-color="#3162DF"/>
<stop offset="0.96" stop-color="#173DB8"/>
</linearGradient>
<linearGradient id="paint5_linear_302_146" x1="207036" y1="151450" x2="224414" y2="176526" gradientUnits="userSpaceOnUse">
<stop stop-color="#4250E8"/>
<stop offset="0.96" stop-color="#212EBC"/>
</linearGradient>
<linearGradient id="paint6_linear_302_146" x1="414175" y1="-114121" x2="403291" y2="-81847.3" gradientUnits="userSpaceOnUse">
<stop stop-color="#3162DF"/>
<stop offset="0.96" stop-color="#173DB8"/>
</linearGradient>
</defs>
</svg>
