<svg width="634" height="388" viewBox="0 0 634 388" fill="none" xmlns="http://www.w3.org/2000/svg">
<path opacity="0.2" d="M356.902 387.751C448.637 387.751 523.002 385.538 523.002 382.807C523.002 380.077 448.637 377.864 356.902 377.864C265.168 377.864 190.803 380.077 190.803 382.807C190.803 385.538 265.168 387.751 356.902 387.751Z" fill="#0B2252"/>
<path d="M457.619 19.0837C458.814 17.8868 460.234 16.9381 461.797 16.2921C463.36 15.646 465.035 15.3155 466.726 15.3193H479.511C480.46 10.9784 482.864 7.09226 486.325 4.30578C489.786 1.5193 494.096 0 498.539 0C502.982 0 507.292 1.5193 510.753 4.30578C514.214 7.09226 516.618 10.9784 517.567 15.3193H521.006C524.411 15.3239 527.674 16.679 530.081 19.0873C532.488 21.4956 533.841 24.7603 533.843 28.1649V28.1649C533.843 31.5741 532.489 34.8436 530.078 37.2543C527.667 39.6649 524.398 41.0192 520.989 41.0192H466.709C463.303 41.0146 460.038 39.6583 457.631 37.2482C455.224 34.838 453.872 31.5711 453.872 28.1649C453.869 26.4793 454.199 24.8096 454.842 23.2514C455.485 21.6932 456.429 20.2769 457.619 19.0837Z" fill="#E5E5E5" fill-opacity="0.33"/>
<path d="M301.339 38.4477C300.219 37.3243 298.888 36.4334 297.422 35.8261C295.957 35.2187 294.386 34.907 292.8 34.9088H280.787C279.895 30.8309 277.635 27.1805 274.383 24.5632C271.132 21.9458 267.083 20.5188 262.908 20.5188C258.734 20.5188 254.685 21.9458 251.433 24.5632C248.181 27.1805 245.922 30.8309 245.03 34.9088H241.807C238.605 34.91 235.533 36.1828 233.268 38.4477C231.004 40.7125 229.731 43.7839 229.729 46.9868V46.9868C229.728 48.5734 230.039 50.1448 230.645 51.6109C231.252 53.0771 232.141 54.4092 233.263 55.5311C234.385 56.653 235.717 57.5426 237.183 58.1489C238.65 58.7553 240.221 59.0666 241.807 59.0648H292.804C294.39 59.0654 295.961 58.7534 297.427 58.1466C298.892 57.5398 300.224 56.6502 301.346 55.5285C302.467 54.4069 303.357 53.0752 303.964 51.6096C304.571 50.1439 304.883 48.5731 304.882 46.9868C304.883 45.4002 304.571 43.829 303.963 42.3636C303.355 40.8981 302.463 39.5673 301.339 38.4477V38.4477Z" fill="#E5E5E5" fill-opacity="0.33"/>
<path d="M633.134 202.14V270.532C570.97 259.751 487.383 249.923 389.627 249.923C173.831 249.923 4.58316 297.88 4.58316 297.88C-7.99358 271.031 5.9406 193.701 38.6922 175.582C71.4437 157.463 99.8975 193.684 125.758 180.756C151.618 167.828 127.423 53.5138 167.135 46.1586C206.848 38.8033 231.858 112.364 280.404 112.364C328.95 112.364 321.604 38.8207 378.351 35.876C435.098 32.9313 433.602 111.176 467.754 111.176C501.907 111.176 488.05 79.7992 541.571 78.8798C595.092 77.9604 609.858 189.607 632.778 201.954L633.134 202.14Z" fill="url(#paint0_linear_274_458)" fill-opacity="0.4"/>
<path d="M487.745 117.031H240.174C231.185 117.031 223.898 124.318 223.898 133.307V280.034C223.898 289.023 231.185 296.31 240.174 296.31H487.745C496.734 296.31 504.021 289.023 504.021 280.034V133.307C504.021 124.318 496.734 117.031 487.745 117.031Z" fill="#2A2D46"/>
<path d="M490.993 297.871H236.912C233.046 297.866 229.34 296.328 226.606 293.594C223.873 290.86 222.335 287.153 222.332 283.286V130.054C222.335 126.188 223.873 122.481 226.606 119.746C229.34 117.012 233.046 115.474 236.912 115.469H490.993C494.86 115.474 498.567 117.012 501.301 119.746C504.035 122.48 505.573 126.187 505.578 130.054V283.286C505.573 287.153 504.035 290.86 501.301 293.594C498.567 296.328 494.86 297.866 490.993 297.871V297.871ZM236.912 118.592C233.874 118.596 230.962 119.806 228.814 121.954C226.666 124.103 225.458 127.016 225.455 130.054V283.286C225.458 286.325 226.666 289.237 228.814 291.386C230.962 293.535 233.874 294.744 236.912 294.749H490.993C494.03 294.743 496.942 293.533 499.089 291.384C501.235 289.236 502.443 286.324 502.446 283.286V130.054C502.443 127.016 501.235 124.103 499.087 121.954C496.939 119.806 494.027 118.596 490.989 118.592H236.912Z" fill="#6A6C7D"/>
<path d="M339.563 169.736C345.695 163.204 354.113 159.94 364.816 159.943C374.716 159.943 382.644 162.735 388.599 168.317C394.555 173.9 397.533 181.037 397.533 189.728C397.533 194.987 396.453 199.256 394.294 202.535C392.134 205.814 387.708 210.629 381.014 216.981C376.148 221.607 372.981 225.51 371.512 228.69C370.044 231.871 369.308 236.606 369.305 242.898H356.047C356.047 235.8 356.892 230.078 358.58 225.732C360.269 221.387 364.027 216.41 369.856 210.801L375.927 204.92C377.638 203.366 379.131 201.588 380.364 199.634C382.349 196.654 383.424 193.161 383.456 189.581C383.545 184.963 381.969 180.468 379.015 176.917C376.049 173.341 371.144 171.553 364.3 171.553C355.835 171.553 349.982 174.63 346.741 180.786C344.913 184.212 343.874 189.152 343.622 195.605H330.369C330.369 184.881 333.434 176.258 339.563 169.736ZM355.761 255.257H370.58V270.744H355.761V255.257Z" fill="#34C4FF"/>
<path d="M478.96 141.243H207.502C207.088 141.243 206.691 141.078 206.398 140.786C206.105 140.493 205.94 140.096 205.94 139.682C205.94 139.268 206.105 138.87 206.398 138.578C206.691 138.285 207.088 138.12 207.502 138.12H478.96C479.374 138.12 479.771 138.285 480.064 138.578C480.357 138.87 480.521 139.268 480.521 139.682C480.521 140.096 480.357 140.493 480.064 140.786C479.771 141.078 479.374 141.243 478.96 141.243V141.243Z" fill="#6A6C7D"/>
<path d="M241.821 129.567C242.1 127.849 240.933 126.229 239.214 125.95C237.495 125.671 235.876 126.838 235.597 128.557C235.318 130.276 236.485 131.895 238.204 132.174C239.923 132.453 241.542 131.286 241.821 129.567Z" fill="#6A6C7D"/>
<path d="M254.47 129.763C254.87 128.068 253.82 126.37 252.125 125.97C250.431 125.57 248.733 126.619 248.333 128.314C247.933 130.009 248.982 131.707 250.677 132.107C252.372 132.507 254.07 131.457 254.47 129.763Z" fill="#6A6C7D"/>
<path d="M267.279 129.567C267.558 127.848 266.391 126.228 264.672 125.949C262.953 125.67 261.334 126.838 261.055 128.556C260.776 130.275 261.943 131.895 263.662 132.174C265.381 132.453 267 131.285 267.279 129.567Z" fill="#6A6C7D"/>
<path d="M148.131 269.495C141.904 269.291 135.156 267.123 135.303 257.148C135.451 247.174 142.706 245.6 143.443 238.123C144.181 230.646 144.228 223.673 148.131 223.599C152.035 223.525 149.563 226.721 151.384 230.187C153.206 233.652 156.727 238.088 156.042 244.567C155.357 251.047 159.971 253.523 159.728 258.822C159.485 264.122 156.172 269.725 148.131 269.495Z" fill="#94A4AB" fill-opacity="0.3"/>
<path d="M150.423 243.982C150.398 243.957 150.368 243.937 150.336 243.923C150.303 243.909 150.268 243.902 150.232 243.902C150.197 243.902 150.162 243.909 150.129 243.923C150.096 243.937 150.066 243.957 150.041 243.982C149.992 244.033 149.964 244.101 149.964 244.173C149.964 244.244 149.992 244.312 150.041 244.363C150.041 244.363 151.663 245.994 151.499 251.519C151.356 256.29 148.897 263.688 148.094 265.922C147.361 264.187 146.412 262.261 145.609 260.644C145.071 259.555 144.603 258.61 144.352 258.016C143.423 255.847 144.833 251.276 144.846 251.233C144.867 251.164 144.86 251.09 144.826 251.026C144.793 250.962 144.736 250.913 144.668 250.89C144.634 250.88 144.599 250.876 144.563 250.879C144.528 250.882 144.493 250.892 144.462 250.909C144.43 250.925 144.403 250.948 144.38 250.975C144.357 251.003 144.34 251.034 144.33 251.068C144.269 251.263 142.847 255.873 143.848 258.228C144.109 258.84 144.581 259.789 145.124 260.887C146.581 263.831 148.788 268.281 148.753 269.994C148.706 272.397 148.415 275.84 148.411 275.875C148.405 275.946 148.427 276.018 148.474 276.073C148.52 276.128 148.586 276.163 148.658 276.17H148.684C148.751 276.169 148.816 276.143 148.866 276.098C148.915 276.052 148.947 275.989 148.953 275.922C148.953 275.888 149.248 272.423 149.296 270.007C149.296 269.231 148.944 268.025 148.402 266.659C148.762 265.675 151.872 256.958 152.041 251.519C152.223 245.73 150.497 244.047 150.423 243.982Z" fill="#828DF4" fill-opacity="0.9"/>
<path d="M609.661 243.674C604.357 243.513 598.603 241.653 598.733 233.131C598.863 224.609 605.043 223.286 605.672 216.916C606.3 210.545 606.335 204.608 609.661 204.547C612.988 204.486 610.884 207.206 612.437 210.163C613.99 213.121 616.991 216.898 616.409 222.419C615.828 227.94 619.757 230.056 619.554 234.562C619.35 239.068 616.505 243.878 609.661 243.674Z" fill="#94A4AB" fill-opacity="0.3"/>
<path d="M611.631 221.921C611.61 221.899 611.585 221.882 611.557 221.871C611.529 221.859 611.499 221.853 611.469 221.853C611.438 221.853 611.409 221.859 611.381 221.871C611.353 221.882 611.327 221.899 611.306 221.921C611.285 221.942 611.268 221.967 611.256 221.995C611.245 222.023 611.239 222.053 611.239 222.083C611.239 222.114 611.245 222.143 611.256 222.171C611.268 222.199 611.285 222.225 611.306 222.246C611.306 222.246 612.689 223.634 612.551 228.348C612.429 232.42 610.317 238.721 609.649 240.625C609.021 239.142 608.214 237.503 607.529 236.128C607.069 235.196 606.661 234.393 606.453 233.886C605.668 232.034 606.887 228.14 606.887 228.101C606.896 228.072 606.9 228.042 606.897 228.011C606.894 227.981 606.886 227.952 606.872 227.925C606.857 227.899 606.838 227.875 606.815 227.856C606.791 227.837 606.764 227.823 606.735 227.814C606.706 227.805 606.675 227.802 606.645 227.804C606.615 227.807 606.585 227.815 606.558 227.829C606.531 227.844 606.507 227.863 606.487 227.886C606.468 227.91 606.453 227.937 606.444 227.966C606.392 228.131 605.182 232.06 606.037 234.068C606.258 234.589 606.657 235.395 607.125 236.332C608.366 238.843 610.248 242.638 610.217 244.112C610.174 246.159 609.927 249.095 609.927 249.125C609.924 249.156 609.927 249.187 609.936 249.216C609.945 249.245 609.96 249.273 609.98 249.296C610 249.32 610.024 249.339 610.052 249.353C610.079 249.367 610.109 249.375 610.139 249.377V249.377C610.198 249.377 610.253 249.355 610.296 249.316C610.339 249.277 610.365 249.222 610.369 249.165C610.369 249.134 610.621 246.185 610.66 244.121C610.575 243.133 610.318 242.167 609.901 241.267C610.209 240.43 612.867 232.997 613.002 228.361C613.162 223.413 611.692 221.981 611.631 221.921Z" fill="#828DF4" fill-opacity="0.9"/>
<path d="M195.36 227.966C191.713 227.853 187.754 226.574 187.84 220.715C187.927 214.856 192.177 213.945 192.611 209.561C193.044 205.176 193.066 201.095 195.356 201.052C197.646 201.008 196.197 202.882 197.264 204.916C198.331 206.95 200.395 209.548 199.996 213.347C199.597 217.146 202.299 218.598 202.165 221.708C202.03 224.817 200.079 228.092 195.36 227.966Z" fill="#94A4AB" fill-opacity="0.3"/>
<path d="M196.701 213.004C196.671 212.974 196.63 212.958 196.588 212.958C196.546 212.958 196.505 212.974 196.475 213.004C196.46 213.018 196.448 213.035 196.44 213.054C196.432 213.073 196.427 213.094 196.427 213.114C196.427 213.135 196.432 213.156 196.44 213.175C196.448 213.194 196.46 213.211 196.475 213.225C196.475 213.225 197.425 214.183 197.343 217.423C197.26 220.225 195.807 224.561 195.348 225.867C194.914 224.848 194.363 223.724 193.891 222.775C193.574 222.133 193.301 221.582 193.153 221.231C192.611 219.96 193.435 217.28 193.444 217.254C193.453 217.233 193.459 217.211 193.459 217.188C193.459 217.165 193.454 217.142 193.445 217.122C193.436 217.101 193.422 217.082 193.405 217.067C193.388 217.052 193.368 217.04 193.346 217.033C193.325 217.026 193.302 217.024 193.279 217.027C193.256 217.03 193.235 217.037 193.215 217.049C193.196 217.061 193.179 217.077 193.166 217.096C193.153 217.115 193.144 217.136 193.14 217.158C193.106 217.276 192.273 219.977 192.858 221.356C193.01 221.716 193.292 222.272 193.609 222.918C194.476 224.652 195.755 227.255 195.734 228.265C195.708 229.675 195.534 231.695 195.534 231.734C195.532 231.755 195.535 231.776 195.541 231.796C195.548 231.816 195.558 231.835 195.572 231.85C195.586 231.866 195.603 231.879 195.621 231.888C195.64 231.897 195.661 231.903 195.682 231.904V231.904C195.721 231.905 195.76 231.891 195.789 231.864C195.818 231.837 195.836 231.8 195.838 231.761C195.838 231.739 196.011 229.709 196.037 228.291C195.979 227.611 195.803 226.946 195.517 226.326C195.725 225.75 197.555 220.641 197.651 217.449C197.755 214.027 196.744 213.043 196.701 213.004Z" fill="#828DF4" fill-opacity="0.9"/>
<path d="M552.771 286.881C546.396 286.691 539.475 284.453 539.626 274.209C539.778 263.966 547.216 262.37 547.975 254.694C548.734 247.017 548.768 239.901 552.771 239.823C556.774 239.745 554.242 243.023 556.106 246.579C557.971 250.136 561.584 254.676 560.877 261.325C560.17 267.973 564.906 270.51 564.659 275.935C564.411 281.361 561.02 287.133 552.771 286.881Z" fill="#94A4AB" fill-opacity="0.3"/>
<path d="M555.139 260.73C555.085 260.68 555.014 260.652 554.94 260.654C554.867 260.656 554.797 260.688 554.746 260.741C554.696 260.795 554.668 260.866 554.67 260.94C554.672 261.013 554.704 261.083 554.757 261.134C554.757 261.134 556.418 262.803 556.249 268.471C556.106 273.368 553.565 280.944 552.78 283.217C552.025 281.43 551.045 279.465 550.23 277.809C549.679 276.69 549.197 275.723 548.929 275.111C547.983 272.886 549.423 268.207 549.44 268.172C549.462 268.101 549.455 268.025 549.42 267.96C549.386 267.894 549.327 267.845 549.256 267.823C549.185 267.801 549.109 267.808 549.043 267.843C548.978 267.878 548.929 267.937 548.907 268.007C548.846 268.207 547.389 272.93 548.417 275.341C548.681 275.97 549.167 276.941 549.718 278.069C551.214 281.105 553.473 285.65 553.439 287.423C553.391 289.882 553.092 293.417 553.087 293.451C553.083 293.525 553.107 293.597 553.155 293.653C553.202 293.709 553.27 293.744 553.343 293.751H553.365C553.434 293.751 553.501 293.725 553.553 293.679C553.604 293.632 553.636 293.568 553.643 293.499C553.643 293.46 553.946 289.913 553.994 287.428C553.994 286.634 553.638 285.398 553.083 283.997C553.447 282.987 556.644 274.053 556.808 268.48C556.982 262.521 555.213 260.8 555.139 260.73Z" fill="#828DF4" fill-opacity="0.9"/>
<path d="M205.845 295.277C202.224 296.223 188.498 295.668 191.1 288.898C194.015 281.369 201.791 287.948 205.13 292.125C204.134 286.49 203.659 280.776 203.712 275.055C201.244 272.088 196.031 253.258 206.314 254.19C219.758 255.413 207.849 273.238 204.748 275.263C204.748 279.6 205.043 288.213 207.008 295.681C207.441 290.936 212.16 277.436 218.448 282.198C227.555 289.102 210.113 297.437 207.467 297.294C208.193 299.864 209.31 302.307 210.781 304.536C211.791 305.981 212.91 307.655 214.068 309.476L214.133 309.545C214.719 304.549 219.381 291.717 225.539 296.375C234.056 302.823 219.407 310.513 215.265 311.389C217.972 315.742 220.396 320.266 222.52 324.932C222.807 320.422 231.658 311.198 235.175 316.471C237.14 319.412 226.762 328.996 223.34 326.849C225.292 331.62 226.463 336.074 226.059 339.322C225.907 340.519 225.691 341.924 225.435 343.468C227.859 340.783 236.619 331.798 239.226 338.754C241.394 344.522 234.165 347.861 231.125 347.861C228.748 347.861 226.228 345.615 225.24 344.63C225.101 345.463 224.956 346.314 224.806 347.185C223.583 354.284 222.117 362.827 222.551 367.967C224.619 363.955 233.857 347.245 239.23 357.992C241.988 363.5 234.169 368.118 231.129 369.129C228.64 369.962 224.19 369.216 222.655 368.921C222.726 369.453 222.842 369.978 223.002 370.491C224.984 376.428 228.978 382.46 229.021 382.521C229.071 382.598 229.1 382.688 229.103 382.78C229.106 382.873 229.084 382.964 229.04 383.045C228.995 383.126 228.93 383.193 228.85 383.24C228.771 383.287 228.68 383.311 228.588 383.31C228.502 383.311 228.418 383.291 228.343 383.252C228.267 383.212 228.202 383.155 228.154 383.085C226.179 380.022 224.461 376.8 223.019 373.453C220.634 373.149 211.466 371.9 208.829 370.144C205.793 368.118 200.351 361.47 204.779 359.002C211.626 355.199 218.812 365.312 221.957 370.573C220.786 366.67 221.822 358.794 223.041 351.417C220.591 352.15 212.633 350.728 209.84 348.876C206.804 346.851 201.565 341.603 204.779 338.75C212.828 331.594 221.336 346.751 223.21 350.39C223.405 349.24 223.6 348.108 223.787 347.015C224.294 344.071 224.771 341.295 225.036 339.209C225.413 336.173 224.29 331.837 222.282 326.979C220.686 327.487 215.278 328.983 209.337 328.133C202.246 327.118 198.651 321.597 201.231 319.026C205.629 314.633 218.613 323.736 221.97 326.221C219.672 321.005 216.981 315.971 213.921 311.163C209.788 312.122 193.329 311.77 195.559 305.235C197.788 298.699 206.21 303.097 211.171 306.926C210.763 306.323 210.356 305.725 209.944 305.139C208.079 302.442 206.769 298.964 205.845 295.277Z" fill="url(#paint1_linear_274_458)"/>
<path d="M235.184 357.997C243.689 354.597 245.766 367.607 246.213 371.875C248.086 365.656 248.88 358.083 248.034 351.925C246.733 351.895 241.729 351.656 238.224 349.904C234.174 347.879 231.676 339.769 235.189 338.767C241.091 337.08 246.282 347.307 247.861 350.793C247.722 350.008 247.557 349.245 247.362 348.521C245.956 343 245.073 337.359 244.725 331.672C243.129 331.642 238.654 331.486 236.203 330.666C233.168 329.651 228.02 321.719 232.153 320.535C237.847 318.909 242.882 327.08 244.647 330.358C244.305 324.096 244.565 318.072 245.627 313.965C245.194 312.161 244.326 308.327 244.326 305.348C244.326 301.297 249.027 293.322 253.434 297.242C261.496 304.411 249.413 312.79 246.516 314.624C245.536 318.671 245.319 324.508 245.649 330.562C247.457 326.008 254.756 309.611 263.538 317.5C266.904 320.535 259.488 327.626 254.431 329.643C251.652 330.765 248.716 331.448 245.727 331.668C246.074 337.262 246.945 342.812 248.329 348.243C248.564 349.125 248.753 350.018 248.897 350.919C250.818 347.046 259.739 330.571 269.614 337.744C273.708 340.723 265.564 347.87 261.513 349.887C258.044 351.622 250.957 351.717 249.019 351.708C249.86 357.849 249.101 365.369 247.284 371.658C250.263 367.16 258.959 355.612 265.572 363.04C269.475 367.455 259.34 371.194 256.465 372.148C253.928 373.015 248.498 373.245 246.781 373.306C245.337 377.642 243.381 381.264 241.095 383.168C241.005 383.246 240.89 383.289 240.77 383.289C240.666 383.289 240.564 383.257 240.478 383.197C240.393 383.137 240.328 383.053 240.292 382.954C240.256 382.856 240.252 382.75 240.279 382.649C240.307 382.548 240.365 382.458 240.445 382.391C242.613 380.574 244.495 377.131 245.875 372.967C244.574 372.421 240.722 370.764 238.237 369.108C235.184 367.108 230.483 359.875 235.184 357.997Z" fill="#34C4FF"/>
<path d="M213.415 383.315H259.493C259.628 383.315 259.757 383.261 259.852 383.166C259.947 383.071 260.001 382.942 260.001 382.807C260.001 382.673 259.947 382.544 259.852 382.448C259.757 382.353 259.628 382.3 259.493 382.3H213.415C213.348 382.3 213.282 382.313 213.22 382.338C213.159 382.364 213.103 382.401 213.056 382.448C213.009 382.496 212.971 382.551 212.946 382.613C212.92 382.675 212.907 382.741 212.907 382.807C212.907 382.874 212.92 382.94 212.946 383.001C212.971 383.063 213.009 383.119 213.056 383.166C213.103 383.213 213.159 383.251 213.22 383.276C213.282 383.302 213.348 383.315 213.415 383.315V383.315Z" fill="#14336A"/>
<path d="M197.209 383.315H207.842C207.977 383.315 208.106 383.261 208.201 383.166C208.296 383.071 208.35 382.942 208.35 382.807C208.35 382.673 208.296 382.544 208.201 382.448C208.106 382.353 207.977 382.3 207.842 382.3H197.209C197.074 382.3 196.945 382.353 196.85 382.448C196.755 382.544 196.701 382.673 196.701 382.807C196.701 382.942 196.755 383.071 196.85 383.166C196.945 383.261 197.074 383.315 197.209 383.315Z" fill="#14336A"/>
<path d="M471.681 379.355H479.8V301.436H483.755V332.227H489.9V301.436H493.855V336.169H483.755V379.355H491.878C492.387 379.379 492.867 379.598 493.219 379.967C493.571 380.335 493.767 380.825 493.767 381.335C493.767 381.845 493.571 382.335 493.219 382.703C492.867 383.072 492.387 383.291 491.878 383.315H471.681C471.172 383.291 470.692 383.072 470.34 382.703C469.988 382.335 469.792 381.845 469.792 381.335C469.792 380.825 469.988 380.335 470.34 379.967C470.692 379.598 471.172 379.379 471.681 379.355V379.355Z" fill="#34C4FF"/>
<path d="M486.33 284.535C503.578 284.535 517.555 287.783 517.555 291.795V295.72C517.555 299.727 503.574 302.98 486.33 302.98C469.087 302.98 455.105 299.727 455.105 295.72V291.795C455.101 287.783 469.083 284.535 486.33 284.535Z" fill="#34C4FF"/>
<path opacity="0.1" d="M445.623 189.405C451.521 179.69 448.426 167.033 438.711 161.136C428.996 155.238 416.34 158.333 410.442 168.048C404.545 177.763 407.639 190.419 417.354 196.317C427.069 202.214 439.726 199.12 445.623 189.405Z" fill="white"/>
<path opacity="0.17" d="M440.975 172.42C440.603 172.422 440.24 172.304 439.94 172.083C439.64 171.863 439.419 171.552 439.309 171.197C438.583 168.873 436.963 166.933 434.807 165.802C432.65 164.672 430.133 164.444 427.808 165.169C427.366 165.307 426.888 165.264 426.478 165.049C426.068 164.834 425.76 164.466 425.622 164.024C425.484 163.582 425.527 163.104 425.742 162.694C425.957 162.284 426.326 161.976 426.767 161.838C429.975 160.837 433.45 161.15 436.426 162.71C439.403 164.27 441.638 166.948 442.64 170.156C442.775 170.596 442.731 171.071 442.516 171.477C442.302 171.884 441.934 172.189 441.495 172.325C441.327 172.381 441.152 172.414 440.975 172.42V172.42Z" fill="#50C6A1"/>
<path d="M420.687 155.234C416.037 156.686 411.922 159.486 408.863 163.277C405.804 167.068 403.937 171.682 403.5 176.534C403.062 181.386 404.074 186.258 406.405 190.536C408.737 194.813 412.285 198.303 416.6 200.564C420.915 202.826 425.804 203.757 430.648 203.239C435.492 202.722 440.074 200.781 443.815 197.66C447.555 194.539 450.286 190.379 451.663 185.705C453.039 181.032 452.999 176.056 451.548 171.405C449.599 165.169 445.254 159.961 439.466 156.928C433.679 153.896 426.924 153.286 420.687 155.234V155.234ZM434.17 198.393C430.286 199.604 426.131 199.636 422.229 198.486C418.327 197.336 414.853 195.055 412.247 191.932C409.64 188.808 408.018 184.982 407.585 180.937C407.152 176.892 407.928 172.81 409.814 169.206C411.701 165.601 414.613 162.637 418.183 160.687C421.754 158.737 425.822 157.889 429.874 158.251C433.926 158.612 437.78 160.166 440.949 162.716C444.118 165.267 446.46 168.7 447.679 172.581C448.487 175.161 448.778 177.876 448.536 180.569C448.294 183.262 447.524 185.881 446.269 188.276C445.015 190.671 443.3 192.796 441.224 194.528C439.148 196.26 436.751 197.566 434.17 198.372V198.393Z" fill="#6A6C7D"/>
<path d="M437.193 200.812L433.099 202.091L438.922 220.731L443.016 219.452L437.193 200.812Z" fill="#6A6C7D"/>
<path d="M451.412 253.575C450.791 253.769 450.138 253.839 449.49 253.78C448.842 253.722 448.212 253.537 447.635 253.234C447.059 252.932 446.548 252.52 446.131 252.02C445.714 251.52 445.4 250.943 445.206 250.322L436.255 221.669C436.149 221.339 436.11 220.991 436.14 220.646C436.17 220.301 436.268 219.965 436.43 219.658C436.592 219.352 436.813 219.08 437.081 218.86C437.349 218.64 437.658 218.476 437.99 218.377L442.431 216.99C442.761 216.883 443.108 216.844 443.454 216.874C443.799 216.904 444.135 217.003 444.442 217.164C444.748 217.326 445.019 217.547 445.239 217.815C445.459 218.083 445.624 218.392 445.722 218.724L454.674 247.378C455.063 248.632 454.938 249.989 454.326 251.151C453.715 252.314 452.666 253.185 451.412 253.575V253.575Z" fill="#34C4FF"/>
<path d="M453.144 240.989C453.144 240.989 443.92 235.304 441.14 232.363C438.36 229.423 437.18 228.087 437.896 227.463C438.612 226.838 446.396 230.264 447.151 229.688C447.905 229.111 447.246 227.675 448.092 227.025C448.938 226.374 453.96 231.553 455.148 231.158C456.336 230.763 454.528 240.074 453.144 240.989Z" fill="#FFAA9D"/>
<path d="M416.37 346.881L409.609 353.425L392.479 337.57L398.116 328.402L416.37 346.881Z" fill="#FFAA9D"/>
<path d="M410.596 352.462C410.596 352.462 405.881 358.374 404.992 358.382C404.103 358.391 384.328 336.993 384.458 336.304C384.588 335.614 393.222 336.356 393.222 336.356L410.596 352.462Z" fill="url(#paint2_linear_274_458)"/>
<path d="M397.067 327.444C397.067 327.444 416.874 348.148 417.637 348.148C418.4 348.148 512.908 275.58 512.908 275.58L472.844 257.799C472.844 257.799 421.974 271.794 397.067 327.444Z" fill="url(#paint3_linear_274_458)"/>
<path d="M486.779 333.65L490.131 342.44L468.811 351.947L462.605 343.156L486.779 333.65Z" fill="#FFAA9D"/>
<path d="M469.725 257.812C469.725 257.812 436.275 264.789 433.378 276.117C430.481 287.445 433.113 299.822 442.333 314.307C451.553 328.792 460.93 344.552 462.859 345.064C462.859 345.064 487.627 335.141 488.186 333.905C488.746 332.669 474.309 298.569 474.309 298.569C474.309 298.569 503.716 296.613 510.573 279.279L469.725 257.812Z" fill="url(#paint4_linear_274_458)"/>
<path d="M467.387 257.708C467.083 259.677 503.621 282.562 510.087 281.46C516.553 280.359 524.919 253.662 522.607 233.73C520.296 213.798 502.437 198.849 494.297 199.542C486.156 200.236 481.798 207.874 480.692 220.012C479.066 237.819 467.725 255.509 467.387 257.708Z" fill="url(#paint5_linear_274_458)"/>
<path d="M497.951 202.609C502.258 202.236 517.077 210.927 520.542 236.566C524.007 262.205 509.847 264.356 497.951 262.699C486.056 261.043 456.114 246.35 451.712 241.102C451.712 241.102 450.767 232.862 453.95 229.917C453.95 229.917 482.829 232.854 490.327 235.122C497.826 237.39 481.636 204.027 497.951 202.609Z" fill="url(#paint6_linear_274_458)"/>
<path d="M489.638 341.152C489.638 341.152 493.212 347.813 492.873 348.633C492.535 349.453 465.074 359.211 464.493 358.82C463.912 358.43 467.989 350.784 467.989 350.784L489.638 341.152Z" fill="url(#paint7_linear_274_458)"/>
<path d="M473.752 185.955L473.617 195.119L474.983 195.076C474.983 195.076 476.081 202.656 481.436 201.46C482.976 201.117 484.941 199.816 485.504 200.076C486.177 200.384 486.467 202.461 486.619 203.06C487.2 205.354 495.236 203.034 493.931 200.683C492.695 198.45 490.852 195.401 491.242 194.551C492.604 191.598 492.977 184.264 485.604 181.809C479.723 179.858 473.825 182.82 473.752 185.955Z" fill="#FFAA9D"/>
<path d="M493.931 200.683C492.695 198.449 490.852 195.401 491.242 194.551C491.242 194.551 488.142 199.321 485.279 200.041C485.36 200.031 485.441 200.04 485.518 200.067C486.19 200.375 486.481 202.452 486.632 203.051C487.201 205.354 495.237 203.033 493.931 200.683Z" fill="#FF9F91"/>
<path d="M486.148 190.448C489.617 189.858 487.449 197.548 491.256 197.292C495.064 197.036 497.709 188.722 494.921 182.312C492.132 175.903 486.82 176.241 481.763 177.134C476.706 178.028 470.487 180.296 470.487 184.121C470.487 193.328 481.386 185.604 482.106 188.371C482.665 190.513 483.519 196.702 481.299 196.845C479.078 196.988 476.823 195.158 475.071 195.626C474.061 195.9 471.281 207.969 478.541 208.372C485.722 208.771 487.54 202.435 486.026 197.257C484.608 192.335 484.465 190.739 486.148 190.448Z" fill="#14336A"/>
<defs>
<linearGradient id="paint0_linear_274_458" x1="316.573" y1="55.2485" x2="316.573" y2="216.435" gradientUnits="userSpaceOnUse">
<stop stop-color="#260D72" stop-opacity="0.35"/>
<stop offset="1" stop-color="#2A2D46"/>
</linearGradient>
<linearGradient id="paint1_linear_274_458" x1="213.509" y1="307.776" x2="225.053" y2="371.518" gradientUnits="userSpaceOnUse">
<stop stop-color="#4250E8"/>
<stop offset="0.96" stop-color="#1F2CB7"/>
</linearGradient>
<linearGradient id="paint2_linear_274_458" x1="399.485" y1="344.676" x2="395.219" y2="349.958" gradientUnits="userSpaceOnUse">
<stop stop-color="#14336D"/>
<stop offset="0.97" stop-color="#0E2253"/>
</linearGradient>
<linearGradient id="paint3_linear_274_458" x1="150162" y1="83561.1" x2="156487" y2="77029.4" gradientUnits="userSpaceOnUse">
<stop stop-color="#14336D"/>
<stop offset="0.97" stop-color="#0E2253"/>
</linearGradient>
<linearGradient id="paint4_linear_274_458" x1="108924" y1="76096.5" x2="118546" y2="79229.3" gradientUnits="userSpaceOnUse">
<stop stop-color="#14336D"/>
<stop offset="0.97" stop-color="#0E2253"/>
</linearGradient>
<linearGradient id="paint5_linear_274_458" x1="79421.7" y1="54957" x2="85213.8" y2="62316.7" gradientUnits="userSpaceOnUse">
<stop stop-color="#4250E8"/>
<stop offset="0.96" stop-color="#101B93"/>
</linearGradient>
<linearGradient id="paint6_linear_274_458" x1="100700" y1="43940.9" x2="104488" y2="53108.4" gradientUnits="userSpaceOnUse">
<stop stop-color="#4250E8"/>
<stop offset="0.96" stop-color="#212EBC"/>
</linearGradient>
<linearGradient id="paint7_linear_274_458" x1="40060" y1="17666.2" x2="40153.7" y2="17949" gradientUnits="userSpaceOnUse">
<stop stop-color="#14336D"/>
<stop offset="0.97" stop-color="#0E2253"/>
</linearGradient>
</defs>
</svg>
