<svg width="1054" height="645" viewBox="0 0 1054 645" fill="none" xmlns="http://www.w3.org/2000/svg">
<path opacity="0.2" d="M547.136 645C725.412 645 869.933 641.318 869.933 636.776C869.933 632.235 725.412 628.553 547.136 628.553C368.859 628.553 224.338 632.235 224.338 636.776C224.338 641.318 368.859 645 547.136 645Z" fill="#0B2252"/>
<path d="M761.19 31.7629C763.173 29.7744 765.53 28.1975 768.125 27.123C770.72 26.0484 773.501 25.4973 776.31 25.5013H797.576C799.149 18.2766 803.147 11.8075 808.904 7.16852C814.662 2.52957 821.834 0 829.227 0C836.621 0 843.793 2.52957 849.551 7.16852C855.308 11.8075 859.306 18.2766 860.879 25.5013H866.592C872.258 25.5013 877.693 27.7499 881.703 31.7533C885.713 35.7568 887.97 41.1879 887.98 46.8542V46.8542C887.977 52.525 885.722 57.9627 881.712 61.972C877.701 65.9814 872.263 68.2344 866.592 68.2359H776.31C773.503 68.2359 770.724 67.6826 768.132 66.6078C765.539 65.5329 763.184 63.9575 761.201 61.9716C759.218 59.9857 757.646 57.6284 756.574 55.0344C755.503 52.4404 754.953 49.6607 754.957 46.8542C754.953 41.1967 757.195 35.769 761.19 31.7629Z" fill="#1A2192"/>
<path d="M501.227 63.9711C499.364 62.1027 497.15 60.6208 494.713 59.6106C492.275 58.6004 489.662 58.0818 487.024 58.0846H467.039C465.56 51.2978 461.803 45.2211 456.394 40.8637C450.984 36.5063 444.247 34.1304 437.301 34.1304C430.354 34.1304 423.617 36.5063 418.208 40.8637C412.798 45.2211 409.042 51.2978 407.563 58.0846H402.201C396.873 58.0846 391.762 60.2009 387.994 63.9682C384.226 67.7354 382.108 72.8451 382.106 78.1736V78.1736C382.11 83.5021 384.228 88.6115 387.995 92.3794C391.763 96.1472 396.873 98.2653 402.201 98.2684H487.036C492.364 98.2669 497.474 96.1491 501.241 92.3807C505.008 88.6124 507.125 83.5021 507.125 78.1736V78.1736C507.126 75.5344 506.605 72.921 505.593 70.4836C504.581 68.0462 503.097 65.833 501.227 63.9711V63.9711Z" fill="#1A2192"/>
<path d="M1053.13 336.255V450.02C949.706 432.129 810.687 415.74 648.082 415.74C289.123 415.74 7.61163 495.507 7.61163 495.507C-13.2796 450.839 9.86811 322.22 64.3526 292.135C118.837 262.051 166.165 322.22 209.177 300.711C252.189 279.202 211.941 89.0579 278.002 76.8233C344.064 64.5887 385.656 186.923 466.392 186.923C547.129 186.923 534.901 64.5771 629.315 59.6948C723.729 54.8125 721.23 184.927 778.023 184.927C834.816 184.927 811.79 132.739 900.814 131.204C989.838 129.669 1014.4 315.393 1052.53 335.926C1052.73 336.053 1052.93 336.157 1053.13 336.255Z" fill="url(#paint0_linear_218_327)"/>
<path d="M223.338 458.705C212.991 458.393 201.766 454.757 201.986 438.137C202.205 421.516 214.301 418.931 215.53 406.494C216.759 394.057 216.823 382.487 223.315 382.365C229.808 382.244 225.705 387.559 228.729 393.33C231.753 399.101 237.616 406.471 236.479 417.251C235.342 428.032 243.018 432.152 242.614 440.959C242.21 449.765 236.727 459.109 223.338 458.705Z" fill="#34C4FF"/>
<path d="M227.171 416.265C227.087 416.181 226.973 416.134 226.854 416.134C226.735 416.134 226.621 416.181 226.536 416.265C226.452 416.349 226.405 416.463 226.405 416.582C226.405 416.701 226.452 416.815 226.536 416.9C226.536 416.9 229.231 419.612 228.96 428.805C228.724 436.752 224.603 449.05 223.299 452.761C222.075 449.875 220.494 446.672 219.167 443.983C218.266 442.171 217.487 440.601 217.066 439.609C215.531 435.996 217.868 428.401 217.897 428.326C217.933 428.21 217.922 428.084 217.866 427.976C217.81 427.868 217.713 427.786 217.597 427.749C217.54 427.729 217.479 427.721 217.419 427.726C217.359 427.73 217.3 427.746 217.246 427.774C217.192 427.801 217.144 427.839 217.105 427.886C217.067 427.932 217.038 427.986 217.02 428.043C216.922 428.367 214.556 436.031 216.223 439.955C216.656 440.965 217.441 442.546 218.347 444.375C220.771 449.269 224.436 456.674 224.378 459.553C224.297 463.547 223.801 469.278 223.801 469.335C223.791 469.455 223.83 469.574 223.907 469.666C223.985 469.758 224.096 469.816 224.216 469.826H224.251C224.365 469.826 224.474 469.783 224.558 469.706C224.641 469.629 224.692 469.524 224.701 469.41C224.701 469.353 225.192 463.593 225.278 459.6C225.278 458.313 224.701 456.31 223.795 454.03C224.372 452.397 229.566 437.9 229.843 428.851C230.161 419.173 227.292 416.38 227.171 416.265Z" fill="#7480F5"/>
<path d="M930.5 416.421C921.682 416.149 912.108 413.056 912.316 398.882C912.524 384.709 922.813 382.51 923.858 371.909C924.902 361.307 924.96 351.439 930.495 351.335C936.029 351.231 932.532 355.761 935.111 360.678C937.691 365.595 942.683 371.88 941.719 381.067C940.756 390.255 947.288 393.763 946.948 401.266C946.607 408.768 941.916 416.79 930.5 416.421Z" fill="#34C4FF"/>
<path d="M933.766 380.236C933.694 380.165 933.597 380.125 933.495 380.125C933.394 380.125 933.296 380.165 933.224 380.236C933.154 380.31 933.115 380.408 933.115 380.51C933.115 380.612 933.154 380.71 933.224 380.784C933.224 380.784 935.532 383.093 935.29 390.93C935.088 397.705 931.579 408.191 930.465 411.354C929.421 408.884 928.076 406.16 926.939 403.851C926.172 402.299 925.514 400.966 925.15 400.117C923.84 397.041 925.837 390.566 925.854 390.497C925.869 390.449 925.875 390.399 925.871 390.349C925.867 390.299 925.853 390.251 925.83 390.206C925.807 390.162 925.775 390.122 925.737 390.09C925.698 390.058 925.654 390.033 925.606 390.018C925.558 390.003 925.507 389.997 925.456 390.002C925.405 390.006 925.356 390.021 925.311 390.044C925.266 390.068 925.226 390.1 925.194 390.139C925.161 390.178 925.137 390.223 925.121 390.272C925.035 390.549 923.021 397.082 924.446 400.423C924.81 401.283 925.479 402.634 926.253 404.192C928.319 408.364 931.446 414.678 931.394 417.13C931.325 420.535 930.915 425.423 930.91 425.47C930.902 425.571 930.934 425.672 931 425.75C931.066 425.828 931.16 425.876 931.262 425.885H931.296C931.393 425.884 931.486 425.847 931.556 425.78C931.627 425.714 931.67 425.624 931.677 425.527C931.677 425.481 932.099 420.57 932.168 417.142C932.168 416.04 931.672 414.331 930.898 412.392C931.406 410.996 935.832 398.64 936.058 390.924C936.317 382.741 933.87 380.334 933.766 380.236Z" fill="#6AC1FF"/>
<path d="M311.106 377.714C305.04 377.529 298.456 375.406 298.6 365.653C298.744 355.9 305.82 354.393 306.541 347.099C307.262 339.804 307.297 333.023 311.106 332.948C314.915 332.873 312.508 335.995 314.28 339.371C316.052 342.747 319.474 347.081 318.828 353.401C318.181 359.72 322.659 362.138 322.423 367.303C322.186 372.468 318.96 377.951 311.106 377.714Z" fill="#34C4FF"/>
<path d="M313.327 352.829C313.303 352.805 313.274 352.785 313.243 352.772C313.211 352.759 313.177 352.752 313.143 352.752C313.108 352.752 313.074 352.759 313.043 352.772C313.011 352.785 312.982 352.805 312.958 352.829C312.908 352.879 312.88 352.946 312.88 353.017C312.88 353.087 312.908 353.154 312.958 353.204C312.958 353.204 314.539 354.791 314.383 360.181C314.245 364.844 311.827 372.052 311.059 374.228C310.344 372.531 309.42 370.662 308.635 369.08C308.11 368.018 307.654 367.101 307.406 366.518C306.506 364.4 307.879 359.945 307.891 359.899C307.907 359.864 307.916 359.827 307.916 359.789C307.917 359.751 307.909 359.713 307.894 359.678C307.879 359.644 307.856 359.612 307.828 359.587C307.799 359.562 307.766 359.543 307.73 359.532C307.693 359.52 307.655 359.517 307.617 359.522C307.58 359.527 307.543 359.54 307.511 359.56C307.479 359.58 307.451 359.606 307.43 359.638C307.409 359.669 307.395 359.705 307.389 359.743C307.325 359.933 305.94 364.429 306.922 366.726C307.175 367.303 307.631 368.244 308.162 369.317C309.588 372.202 311.735 376.531 311.7 378.216C311.654 380.559 311.371 383.923 311.371 383.987C311.368 384.022 311.372 384.056 311.382 384.089C311.393 384.123 311.41 384.153 311.432 384.18C311.455 384.206 311.483 384.227 311.514 384.243C311.545 384.258 311.579 384.268 311.613 384.27V384.27C311.679 384.269 311.742 384.243 311.79 384.198C311.838 384.154 311.867 384.093 311.873 384.027C311.873 383.993 312.162 380.617 312.208 378.256C312.107 377.125 311.813 376.02 311.336 374.99C311.688 374.032 314.73 365.531 314.886 360.228C315.111 354.532 313.425 352.893 313.327 352.829Z" fill="#7480F5"/>
<path d="M909.845 596.269C899.238 595.952 887.73 592.23 887.979 575.188C888.227 558.146 900.6 555.497 901.864 542.754C903.128 530.012 903.185 518.141 909.845 518.014C916.505 517.887 912.292 523.335 915.391 529.25C918.49 535.165 924.498 542.72 923.338 553.765C922.178 564.811 930.038 569.041 929.622 578.073C929.207 587.105 923.569 596.679 909.845 596.269Z" fill="#34C4FF"/>
<path d="M913.769 552.761C913.679 552.677 913.56 552.632 913.437 552.636C913.314 552.64 913.198 552.692 913.114 552.782C913.03 552.871 912.985 552.991 912.988 553.113C912.992 553.236 913.045 553.353 913.134 553.437C913.134 553.437 915.898 556.213 915.616 565.637C915.373 573.785 911.149 586.412 909.845 590.192C908.587 587.226 906.959 583.954 905.603 581.201C904.685 579.337 903.872 577.739 903.456 576.717C901.881 573.012 904.276 565.227 904.304 565.175C904.322 565.117 904.329 565.056 904.323 564.996C904.317 564.935 904.3 564.877 904.271 564.823C904.243 564.769 904.204 564.722 904.157 564.683C904.11 564.645 904.057 564.616 903.999 564.598C903.882 564.563 903.757 564.575 903.649 564.631C903.542 564.687 903.46 564.783 903.422 564.898C903.318 565.233 900.9 573.087 902.608 577.104C903.052 578.148 903.854 579.764 904.784 581.64C907.265 586.661 911.028 594.25 910.964 597.222C910.884 601.313 910.387 607.188 910.387 607.252C910.382 607.312 910.388 607.373 910.406 607.431C910.425 607.489 910.454 607.542 910.494 607.588C910.533 607.635 910.581 607.673 910.635 607.7C910.689 607.727 910.748 607.744 910.808 607.748H910.849C910.965 607.747 911.077 607.703 911.162 607.624C911.248 607.545 911.3 607.437 911.31 607.321C911.31 607.263 911.813 601.36 911.888 597.233C911.888 595.912 911.311 593.857 910.37 591.526C910.976 589.846 916.297 574.986 916.568 565.712C916.839 555.745 913.89 552.877 913.769 552.761Z" fill="#7480F5"/>
<path d="M368.498 515.538C375.949 518.019 370.351 528.5 370.351 535.904C370.351 543.308 374.05 563.68 366.646 567.379C359.242 571.078 348.127 578.488 348.127 585.898C348.127 593.309 346.28 602.559 338.893 606.264C331.506 609.969 324.084 609.969 324.084 615.498C324.084 621.027 327.784 622.902 325.931 628.46C324.079 634.017 320.379 635.864 322.232 637.694H274.084C274.084 637.694 264.85 622.879 266.674 613.623C268.498 604.366 277.789 604.389 279.636 596.962C281.483 589.534 290.745 587.728 290.745 580.295C290.745 572.862 294.45 561.781 300.008 558.076C305.565 554.371 316.669 558.076 320.374 550.672C324.079 543.268 320.374 535.858 325.925 532.153C331.477 528.448 342.592 534.005 348.144 528.453C353.696 522.902 362.958 513.685 368.498 515.538Z" fill="#34C4FF"/>
<path d="M361.054 553.235C361.02 553.117 360.963 553.007 360.887 552.912C360.81 552.816 360.716 552.737 360.608 552.679C360.501 552.62 360.383 552.584 360.261 552.571C360.14 552.558 360.017 552.57 359.9 552.605C359.813 552.605 351.359 555.047 345.368 554.96C349.547 539.17 358.503 535.887 358.601 535.852C358.83 535.774 359.019 535.61 359.127 535.394C359.235 535.177 359.253 534.928 359.178 534.698C359.097 534.472 358.932 534.286 358.717 534.178C358.502 534.071 358.254 534.05 358.024 534.121C357.551 534.282 346.355 538.236 342.598 558.936C341.721 563.738 338.633 568.274 334.421 572.637C330.848 569.088 329.74 557.799 329.619 553.523C329.613 553.282 329.513 553.053 329.341 552.885C329.168 552.717 328.937 552.623 328.696 552.623C328.451 552.63 328.22 552.734 328.051 552.911C327.883 553.088 327.791 553.325 327.795 553.569C327.795 554.233 328.297 569.064 333.151 573.947C328.482 578.512 322.665 582.898 316.94 587.22C310.811 591.837 304.879 596.31 300.331 600.921C299.61 599.08 299.442 593.164 300.019 586.966C300.042 586.721 299.966 586.478 299.81 586.288C299.653 586.099 299.427 585.98 299.183 585.956C298.939 585.94 298.699 586.017 298.511 586.173C298.323 586.329 298.202 586.551 298.173 586.793C297.809 590.723 297.255 599.357 299.033 602.288C296.003 605.589 293.729 608.971 292.656 612.538C292.619 612.654 292.607 612.777 292.619 612.899C292.63 613.02 292.666 613.138 292.724 613.246C292.783 613.353 292.861 613.448 292.957 613.525C293.052 613.601 293.161 613.658 293.279 613.692C293.364 613.72 293.454 613.733 293.544 613.732C293.743 613.733 293.936 613.669 294.095 613.551C294.255 613.432 294.371 613.265 294.427 613.074C296.695 605.52 305.046 598.583 314.487 591.398C319.681 596.223 333.613 597.037 334.23 597.066H334.276C334.511 597.055 334.732 596.956 334.897 596.789C335.061 596.621 335.156 596.398 335.163 596.163C335.169 595.929 335.087 595.701 334.932 595.524C334.777 595.348 334.562 595.237 334.328 595.213C334.184 595.213 320.795 594.434 315.976 590.261L318.054 588.698C330.04 579.666 342.437 570.334 344.445 559.265C344.601 558.417 344.785 557.632 344.964 556.841C345.235 556.841 345.495 556.87 345.772 556.87C351.993 556.87 360.084 554.562 360.46 554.435C360.579 554.398 360.69 554.337 360.786 554.256C360.881 554.174 360.959 554.075 361.015 553.962C361.07 553.85 361.102 553.728 361.109 553.602C361.116 553.477 361.097 553.352 361.054 553.235V553.235Z" fill="#34916F"/>
<path d="M257.568 519.237C247.913 524.067 257.568 545.161 255.716 552.571C253.863 559.981 248.311 565.527 250.164 572.937C252.016 580.347 255.716 585.898 255.716 593.303C255.716 600.707 244.606 608.117 246.482 621.079C248.357 634.041 253.886 637.74 253.886 637.74H294.618C294.618 637.74 298.323 634.035 298.323 626.631C298.323 619.226 289.09 611.816 290.913 608.117C292.737 604.418 300.147 597.008 298.323 584.046C296.5 571.084 290.913 571.084 289.09 563.68C287.266 556.276 290.936 552.571 289.09 547.013C287.243 541.456 277.98 535.904 276.128 532.199C274.275 528.494 268.677 513.685 257.568 519.237Z" fill="#9BD1E7"/>
<path d="M288.715 584.26C288.526 584.103 288.283 584.027 288.039 584.049C287.795 584.07 287.569 584.188 287.411 584.375C285.57 586.58 280.849 591.93 277.807 594.354C277.888 593.067 277.935 591.785 277.935 590.527C277.935 584.756 277.934 578.899 277.657 573.272C277.66 573.235 277.66 573.199 277.657 573.162C277.478 568.365 276.948 563.587 276.07 558.867C274.206 549.524 265.192 536.828 264.811 536.291C264.745 536.182 264.656 536.087 264.552 536.014C264.447 535.94 264.328 535.889 264.203 535.863C264.078 535.837 263.948 535.838 263.823 535.865C263.698 535.891 263.58 535.944 263.476 536.018C263.372 536.093 263.284 536.188 263.219 536.298C263.153 536.408 263.111 536.53 263.095 536.657C263.079 536.784 263.09 536.913 263.126 537.035C263.162 537.158 263.223 537.272 263.305 537.37C263.397 537.497 272.469 550.274 274.27 559.231C274.964 562.874 275.427 566.558 275.655 570.259C272.29 566.797 266.629 563.911 266.335 563.773C266.118 563.683 265.875 563.68 265.656 563.762C265.436 563.844 265.256 564.006 265.151 564.215C265.046 564.425 265.024 564.666 265.089 564.891C265.154 565.116 265.303 565.309 265.504 565.429C265.59 565.475 273.733 569.601 275.834 573.508C276.094 579.049 276.105 584.831 276.105 590.522C276.105 595.415 275.366 600.719 274.72 605.394C274.102 609.843 273.566 613.6 273.785 616.22C270.746 614.596 267.617 613.147 264.413 611.88C264.299 611.835 264.178 611.813 264.056 611.815C263.933 611.816 263.813 611.842 263.7 611.891C263.588 611.939 263.486 612.01 263.401 612.097C263.316 612.185 263.249 612.289 263.204 612.402C263.159 612.516 263.137 612.638 263.138 612.76C263.14 612.882 263.166 613.003 263.215 613.115C263.263 613.227 263.333 613.329 263.421 613.414C263.509 613.499 263.612 613.566 263.726 613.611C266.213 614.604 272.879 617.455 274.426 618.886C276.509 623.099 279.827 631.79 280.122 637.792C280.132 638.03 280.234 638.255 280.406 638.419C280.578 638.584 280.807 638.675 281.045 638.675H281.091C281.213 638.669 281.332 638.639 281.441 638.587C281.551 638.536 281.65 638.462 281.731 638.372C281.812 638.282 281.875 638.177 281.916 638.063C281.957 637.948 281.975 637.827 281.968 637.706C281.663 631.357 278.148 622.181 276.007 617.899C275.107 616.105 275.811 611.032 276.584 605.665C276.971 602.86 277.375 599.83 277.652 596.783C281.374 594.521 288.559 585.957 288.876 585.576C288.954 585.479 289.011 585.369 289.045 585.25C289.079 585.131 289.089 585.006 289.074 584.884C289.059 584.761 289.019 584.642 288.958 584.535C288.896 584.428 288.813 584.334 288.715 584.26V584.26Z" fill="white"/>
<path d="M584.825 351.173H565.175V638.409H584.825V351.173Z" fill="#0D1272"/>
<path d="M850.855 351.173H831.204V638.409H850.855V351.173Z" fill="#0D1272"/>
<path d="M864.878 323.997H551.146V386.965H864.878V323.997Z" fill="url(#paint1_linear_218_327)"/>
<path d="M584.018 324.003L558.026 386.965H551.146V363.702L567.536 324.003H584.018Z" fill="#14336A"/>
<path d="M618.305 324.003L592.312 386.965H575.824L601.817 324.003H618.305Z" fill="#14336A"/>
<path d="M652.584 324.003L626.591 386.965H610.104L636.102 324.003H652.584Z" fill="#14336A"/>
<path d="M686.869 324.003L660.871 386.965H644.389L670.381 324.003H686.869Z" fill="#14336A"/>
<path d="M721.155 324.003L695.162 386.965H678.68L704.673 324.003H721.155Z" fill="#14336A"/>
<path d="M755.442 324.003L729.449 386.965H712.961L738.954 324.003H755.442Z" fill="#14336A"/>
<path d="M789.721 324.003L763.728 386.965H747.24L773.239 324.003H789.721Z" fill="#14336A"/>
<path d="M824.006 324.003L798.013 386.965H781.525L807.518 324.003H824.006Z" fill="#14336A"/>
<path d="M858.288 324.003L832.295 386.965H815.818L841.811 324.003H858.288Z" fill="#14336A"/>
<path d="M864.877 351.173V386.965H850.098L864.877 351.173Z" fill="#14336A"/>
<path d="M864.878 412.369H551.146V443.856H864.878V412.369Z" fill="url(#paint2_linear_218_327)"/>
<path d="M571.022 412.369L558.026 443.856H551.146V420.587L554.54 412.369H571.022Z" fill="#14336A"/>
<path d="M605.308 412.369L592.312 443.856H575.824L588.821 412.369H605.308Z" fill="#14336A"/>
<path d="M639.588 412.369L626.591 443.856H610.104L623.106 412.369H639.588Z" fill="#14336A"/>
<path d="M673.873 412.369L660.871 443.856H644.389L657.385 412.369H673.873Z" fill="#14336A"/>
<path d="M708.158 412.369L695.162 443.856H678.68L691.676 412.369H708.158Z" fill="#14336A"/>
<path d="M742.445 412.369L729.449 443.856H712.961L725.957 412.369H742.445Z" fill="#14336A"/>
<path d="M776.724 412.369L763.728 443.856H747.24L760.242 412.369H776.724Z" fill="#14336A"/>
<path d="M811.01 412.369L798.013 443.856H781.525L794.522 412.369H811.01Z" fill="#14336A"/>
<path d="M845.291 412.369L832.295 443.856H815.818L828.815 412.369H845.291Z" fill="#14336A"/>
<path d="M864.877 412.369V443.856H850.098L863.094 412.369H864.877Z" fill="#14336A"/>
<path d="M356.917 608.556L353.766 624.617H407.679L411.118 608.556H356.917Z" fill="#FFAA9D"/>
<path d="M353.765 624.617L351.208 637.14C351.17 637.325 351.173 637.516 351.218 637.7C351.262 637.884 351.348 638.055 351.467 638.202C351.587 638.348 351.737 638.466 351.908 638.547C352.079 638.628 352.266 638.67 352.455 638.669H412.889C413.058 638.669 413.225 638.627 413.372 638.545C413.52 638.463 413.645 638.345 413.735 638.202C413.825 638.059 413.877 637.896 413.887 637.727C413.896 637.559 413.863 637.39 413.79 637.238L407.678 624.617H353.765Z" fill="#0B2252"/>
<path d="M438.807 608.556L435.65 624.617H489.569L493.009 608.556H438.807Z" fill="#FFAA9D"/>
<path d="M435.672 624.617L433.115 637.14C433.078 637.325 433.082 637.516 433.127 637.699C433.172 637.882 433.257 638.053 433.377 638.2C433.496 638.346 433.646 638.464 433.817 638.545C433.987 638.626 434.173 638.669 434.362 638.669H494.802C494.969 638.667 495.133 638.623 495.279 638.541C495.425 638.458 495.547 638.341 495.636 638.199C495.724 638.057 495.776 637.895 495.785 637.728C495.795 637.562 495.762 637.395 495.691 637.244L489.585 624.622L435.672 624.617Z" fill="#0B2252"/>
<path d="M351.63 357.7C351.63 357.7 367.581 474.558 362.555 527.045C357.528 579.533 351.947 614.736 351.947 614.736H413.369C413.369 614.736 429.562 548.848 430.682 509.761C430.682 509.761 440.735 561.123 434.589 614.736H494.336C494.336 614.736 510.772 427.443 476.152 356.528L351.63 357.7Z" fill="url(#paint3_linear_218_327)"/>
<path d="M430.059 176.83C430.059 176.83 372.192 186.035 350.741 236.156C329.29 286.278 338.42 303.735 346.298 311.699C354.175 319.663 370.08 327.067 370.08 327.067L430.059 176.83Z" fill="url(#paint4_linear_218_327)"/>
<path d="M488.01 380.167C481.76 388.517 349.332 383.202 346.284 361.872C343.237 340.543 369.398 206.712 397.202 187.962C423.201 170.424 441.328 173.806 458.087 177.799C474.846 181.793 493.406 214.872 486.55 243.52C479.694 272.167 473.421 274.158 474.206 302.8C475.152 337.594 494.439 371.585 488.01 380.167Z" fill="url(#paint5_linear_218_327)"/>
<path d="M481.219 140.547L483.891 159.678L481.005 159.944C481.005 159.944 480.682 176.102 469.175 174.983C465.862 174.665 461.419 172.449 460.305 173.142C458.977 173.961 458.914 178.382 458.752 179.675C458.129 184.626 440.718 181.862 442.83 176.605C444.838 171.613 447.903 164.751 446.87 163.083C443.251 157.26 440.522 142.013 455.347 134.966C467.149 129.351 480.267 134.008 481.219 140.547Z" fill="#FFAA9D"/>
<path d="M442.842 176.605C444.85 171.613 447.914 164.751 446.881 163.083C446.881 163.083 454.609 172.253 460.784 173.015H460.818C460.646 173.014 460.476 173.054 460.322 173.13C458.995 173.95 458.931 178.37 458.77 179.663C458.141 184.626 440.729 181.862 442.842 176.605Z" fill="#FF9F91"/>
<path d="M456.45 153.174C449.08 152.839 455.561 168.364 447.545 168.82C439.529 169.275 431.819 152.574 436.003 138.441C440.187 124.307 451.371 123.673 462.18 124.186C472.99 124.7 486.552 127.868 487.538 135.873C489.916 155.125 465.118 141.805 464.333 147.784C463.727 152.401 463.548 165.576 468.223 165.299C472.897 165.022 477.156 160.607 480.919 161.132C483.1 161.433 492.051 185.948 476.972 188.695C462.054 191.396 456.606 178.613 458.424 167.388C460.178 156.718 460.068 153.336 456.45 153.174Z" fill="#14336A"/>
<path d="M467.206 396.73C467.206 396.73 493.453 402.541 503.494 402.114C513.536 401.687 517.922 401.335 517.743 398.986C517.564 396.637 497.752 389.285 497.412 386.959C497.071 384.634 500.724 383.208 500.343 380.611C499.963 378.014 482.067 378.534 480.624 375.775C479.181 373.017 466.317 392.702 467.206 396.73Z" fill="#FFAA9D"/>
<path d="M486.58 372.353L469.798 399.529C469.798 399.529 401.082 387.536 380.271 326.813C359.461 266.09 375.476 203.249 414.269 192.475C444.924 183.957 438.467 243.78 435.119 265.733C431.772 287.686 428.413 328.729 486.58 372.353Z" fill="url(#paint6_linear_218_327)"/>
<defs>
<linearGradient id="paint0_linear_218_327" x1="526.567" y1="91.9204" x2="526.567" y2="360.032" gradientUnits="userSpaceOnUse">
<stop stop-color="#1E2258"/>
<stop offset="1" stop-color="#1E2258"/>
</linearGradient>
<linearGradient id="paint1_linear_218_327" x1="708.015" y1="380.709" x2="708.015" y2="317.747" gradientUnits="userSpaceOnUse">
<stop stop-color="#F2C43C"/>
<stop offset="0.76" stop-color="#FFAC00"/>
</linearGradient>
<linearGradient id="paint2_linear_218_327" x1="558965" y1="31505" x2="558965" y2="29787.1" gradientUnits="userSpaceOnUse">
<stop stop-color="#F2C43C"/>
<stop offset="0.76" stop-color="#FFAC00"/>
</linearGradient>
<linearGradient id="paint3_linear_218_327" x1="425.938" y1="619.55" x2="423.41" y2="448.426" gradientUnits="userSpaceOnUse">
<stop stop-color="#14336D"/>
<stop offset="0.97" stop-color="#0E2253"/>
</linearGradient>
<linearGradient id="paint4_linear_218_327" x1="384.537" y1="237.968" x2="403.587" y2="307.452" gradientUnits="userSpaceOnUse">
<stop stop-color="#3162DF"/>
<stop offset="0.96" stop-color="#173DB8"/>
</linearGradient>
<linearGradient id="paint5_linear_218_327" x1="207036" y1="151450" x2="224414" y2="176526" gradientUnits="userSpaceOnUse">
<stop stop-color="#4250E8"/>
<stop offset="0.96" stop-color="#212EBC"/>
</linearGradient>
<linearGradient id="paint6_linear_218_327" x1="414175" y1="-114121" x2="403291" y2="-81847.3" gradientUnits="userSpaceOnUse">
<stop stop-color="#3162DF"/>
<stop offset="0.96" stop-color="#173DB8"/>
</linearGradient>
</defs>
</svg>
