<svg width="107" height="89" viewBox="0 0 107 89" fill="none" xmlns="http://www.w3.org/2000/svg">
<path d="M93.6225 41.9529C94.0374 21.4431 77.7474 4.48033 57.2376 4.0654C36.7279 3.65046 19.7651 19.9405 19.3502 40.4502C18.9352 60.96 35.2253 77.9228 55.735 78.3377C76.2448 78.7526 93.2076 62.4626 93.6225 41.9529Z" fill="#DFE2FF"/>
<path fill-rule="evenodd" clip-rule="evenodd" d="M105.973 25.7645H5.91577V62.7213C5.92805 63.0491 6.01762 63.3693 6.17718 63.6559C6.33673 63.9425 6.56176 64.1873 6.83391 64.3704C7.48257 64.8264 8.25893 65.0655 9.05178 65.0534H102.837C103.63 65.0655 104.406 64.8264 105.055 64.3704C105.327 64.1873 105.552 63.9425 105.712 63.6559C105.871 63.3693 105.961 63.0491 105.973 62.7213V25.7645Z" fill="#E1E4FF"/>
<path fill-rule="evenodd" clip-rule="evenodd" d="M98.6833 34.899C98.6833 34.5777 98.62 34.2595 98.497 33.9626C98.3741 33.6658 98.1938 33.396 97.9666 33.1688C97.7394 32.9416 97.4696 32.7613 97.1727 32.6384C96.8759 32.5154 96.5577 32.4521 96.2363 32.4521H26.8325C26.5111 32.4521 26.1929 32.5154 25.896 32.6384C25.5992 32.7613 25.3294 32.9416 25.1022 33.1688C24.875 33.396 24.6947 33.6658 24.5718 33.9626C24.4488 34.2595 24.3855 34.5777 24.3855 34.899V35.0217C24.386 35.6706 24.6439 36.2927 25.1027 36.7515C25.5615 37.2103 26.1836 37.4682 26.8325 37.4687H96.236C96.885 37.4687 97.5073 37.2109 97.9662 36.752C98.4251 36.2931 98.6829 35.6707 98.6829 35.0217L98.6833 34.899Z" fill="#DFE2FF"/>
<path fill-rule="evenodd" clip-rule="evenodd" d="M21.3105 34.899C21.3105 34.5777 21.2472 34.2595 21.1242 33.9626C21.0013 33.6658 20.821 33.396 20.5938 33.1688C20.3666 32.9416 20.0968 32.7613 19.7999 32.6384C19.5031 32.5154 19.1849 32.4521 18.8635 32.4521H14.1327C13.8114 32.4521 13.4932 32.5154 13.1963 32.6384C12.8995 32.7613 12.6297 32.9416 12.4025 33.1688C12.1753 33.396 11.995 33.6658 11.8721 33.9626C11.7491 34.2595 11.6858 34.5777 11.6858 34.899V35.0217C11.6863 35.6706 11.9442 36.2927 12.403 36.7515C12.8618 37.2103 13.4839 37.4682 14.1327 37.4687H18.8635C19.1849 37.4687 19.5031 37.4054 19.7999 37.2824C20.0968 37.1595 20.3666 36.9792 20.5938 36.752C20.821 36.5248 21.0013 36.255 21.1242 35.9582C21.2472 35.6613 21.3105 35.3431 21.3105 35.0217V34.899Z" fill="#BDC3FF"/>
<path fill-rule="evenodd" clip-rule="evenodd" d="M21.3105 43.1194C21.3105 42.4704 21.0527 41.848 20.5938 41.3891C20.1349 40.9302 19.5125 40.6724 18.8635 40.6724H14.1327C13.4838 40.6724 12.8614 40.9302 12.4025 41.3891C11.9436 41.848 11.6858 42.4704 11.6858 43.1194V43.2421C11.6864 43.8909 11.9445 44.5129 12.4032 44.9716C12.862 45.4304 13.484 45.6884 14.1327 45.689H18.8635C19.5124 45.6886 20.1345 45.4306 20.5933 44.9718C21.0521 44.513 21.31 43.8909 21.3105 43.2421V43.1194Z" fill="#BDC3FF"/>
<path fill-rule="evenodd" clip-rule="evenodd" d="M98.5948 42.9921C98.5948 42.3432 98.337 41.7208 97.8781 41.2619C97.4192 40.803 96.7968 40.5452 96.1478 40.5452H26.7436C26.0946 40.5452 25.4722 40.803 25.0133 41.2619C24.5544 41.7208 24.2966 42.3432 24.2966 42.9921V43.1152C24.2975 43.7639 24.5555 44.3858 25.0143 44.8445C25.473 45.3032 26.0949 45.5613 26.7436 45.5621H96.1478C96.7968 45.5621 97.4192 45.3043 97.8781 44.8454C98.337 44.3865 98.5948 43.7642 98.5948 43.1152V42.9921Z" fill="#BDC3FF"/>
<path fill-rule="evenodd" clip-rule="evenodd" d="M98.8354 51.8622C98.8354 51.2132 98.5776 50.5908 98.1187 50.1319C97.6598 49.673 97.0374 49.4152 96.3885 49.4152H64.6511C64.0021 49.4152 63.3797 49.673 62.9208 50.1319C62.4619 50.5908 62.2041 51.2132 62.2041 51.8622V51.9849C62.2041 52.6339 62.4619 53.2562 62.9208 53.7151C63.3797 54.174 64.0021 54.4318 64.6511 54.4318H96.3881C97.0371 54.4318 97.6595 54.174 98.1184 53.7151C98.5772 53.2562 98.835 52.6339 98.835 51.9849L98.8354 51.8622Z" fill="#BDC3FF"/>
<path fill-rule="evenodd" clip-rule="evenodd" d="M5.94971 25.9831H106.006V19.8625C106.006 19.4507 105.925 19.043 105.767 18.6625C105.61 18.2821 105.379 17.9364 105.088 17.6453C104.796 17.3541 104.451 17.1232 104.07 16.9657C103.69 16.8082 103.282 16.7271 102.87 16.7272H9.085C8.67324 16.7271 8.2655 16.8082 7.88507 16.9657C7.50463 17.1232 7.15896 17.3542 6.86781 17.6453C6.57665 17.9365 6.34571 18.2822 6.18818 18.6626C6.03065 19.043 5.94961 19.4508 5.94971 19.8625V25.9831Z" fill="#BDC3FF"/>
<path d="M13.6557 22.8778C14.3477 22.8778 14.9087 22.3169 14.9087 21.6249C14.9087 20.933 14.3477 20.372 13.6557 20.372C12.9638 20.372 12.4028 20.933 12.4028 21.6249C12.4028 22.3169 12.9638 22.8778 13.6557 22.8778Z" fill="white"/>
<path d="M17.7878 22.8778C18.4798 22.8778 19.0407 22.3169 19.0407 21.6249C19.0407 20.933 18.4798 20.372 17.7878 20.372C17.0959 20.372 16.5349 20.933 16.5349 21.6249C16.5349 22.3169 17.0959 22.8778 17.7878 22.8778Z" fill="white"/>
<path d="M21.9267 22.8778C22.6187 22.8778 23.1797 22.3169 23.1797 21.6249C23.1797 20.933 22.6187 20.372 21.9267 20.372C21.2348 20.372 20.6738 20.933 20.6738 21.6249C20.6738 22.3169 21.2348 22.8778 21.9267 22.8778Z" fill="white"/>
<path d="M89.0864 9.69401C91.3082 9.69401 93.1094 7.89288 93.1094 5.67108C93.1094 3.44927 91.3082 1.64813 89.0864 1.64813C86.8646 1.64813 85.0635 3.44927 85.0635 5.67108C85.0635 7.89288 86.8646 9.69401 89.0864 9.69401Z" fill="#BDC3FF"/>
<path d="M21.5655 10.5555C22.486 10.5555 23.2322 9.80923 23.2322 8.8887C23.2322 7.96817 22.486 7.22192 21.5655 7.22192C20.6449 7.22192 19.8987 7.96817 19.8987 8.8887C19.8987 9.80923 20.6449 10.5555 21.5655 10.5555Z" fill="#DFE2FF"/>
<path d="M91.4228 74.0769C92.6794 74.0769 93.6981 73.0582 93.6981 71.8016C93.6981 70.5449 92.6794 69.5262 91.4228 69.5262C90.1662 69.5262 89.1475 70.5449 89.1475 71.8016C89.1475 73.0582 90.1662 74.0769 91.4228 74.0769Z" fill="#BDC3FF"/>
<path d="M27.8103 5.7721C29.4042 5.7721 30.6963 4.48 30.6963 2.88611C30.6963 1.29222 29.4042 0.00012207 27.8103 0.00012207C26.2164 0.00012207 24.9243 1.29222 24.9243 2.88611C24.9243 4.48 26.2164 5.7721 27.8103 5.7721Z" fill="url(#paint0_linear_182_591)"/>
<path fill-rule="evenodd" clip-rule="evenodd" d="M72.2839 46.7987C72.848 46.5053 73.4956 46.4142 74.1188 46.5407C74.7419 46.6672 75.3028 47.0036 75.7078 47.4937C80.8294 53.6817 98.3504 74.8529 106.125 84.2492C106.461 84.6556 106.675 85.1493 106.742 85.6728C106.808 86.1963 106.724 86.7278 106.499 87.2052C106.275 87.6827 105.919 88.0863 105.473 88.369C105.028 88.6517 104.511 88.8017 103.983 88.8016H2.78284C2.15981 88.8021 1.55464 88.5934 1.06442 88.2089C0.57419 87.8244 0.227319 87.2864 0.0794466 86.6812C-0.0684259 86.0759 -0.00872904 85.4386 0.248959 84.8713C0.506648 84.3041 0.947391 83.8398 1.50049 83.553C20.9921 73.4322 62.6985 51.7759 72.2839 46.7987Z" fill="url(#paint1_radial_182_591)"/>
<path fill-rule="evenodd" clip-rule="evenodd" d="M52.7146 35.2419C52.9634 34.8372 53.3117 34.503 53.7263 34.2712C54.1409 34.0393 54.608 33.9176 55.083 33.9176C55.5581 33.9176 56.0252 34.0393 56.4398 34.2712C56.8544 34.503 57.2027 34.8372 57.4515 35.2419C63.1986 44.5833 77.8491 68.3979 83.836 78.1279C84.0953 78.5492 84.2374 79.032 84.2478 79.5265C84.2581 80.0211 84.1363 80.5094 83.8949 80.9412C83.6536 81.3729 83.3013 81.7324 82.8746 81.9826C82.4479 82.2328 81.9621 82.3646 81.4674 82.3643H28.7004C28.2057 82.3647 27.7199 82.233 27.2931 81.9828C26.8663 81.7327 26.514 81.3732 26.2726 80.9414C26.0312 80.5096 25.9094 80.0212 25.9198 79.5266C25.9302 79.032 26.0725 78.5491 26.3318 78.1279C32.3169 68.3979 46.9675 44.5833 52.7146 35.2419Z" fill="url(#paint2_radial_182_591)"/>
<path fill-rule="evenodd" clip-rule="evenodd" d="M54.5293 44.2408C54.572 44.1716 54.6316 44.1145 54.7026 44.0748C54.7736 44.0352 54.8535 44.0143 54.9348 44.0143C55.0162 44.0143 55.0961 44.0352 55.1671 44.0748C55.2381 44.1145 55.2977 44.1716 55.3404 44.2408C57.9384 48.4638 72.2244 71.6865 74.9412 76.1024C74.9858 76.1744 75.0103 76.2571 75.0122 76.3418C75.0141 76.4266 74.9932 76.5102 74.9519 76.5842C74.9106 76.6582 74.8502 76.7198 74.777 76.7626C74.7039 76.8053 74.6206 76.8278 74.5359 76.8276H35.3331C35.2484 76.8278 35.1651 76.8053 35.092 76.7626C35.0188 76.7198 34.9584 76.6582 34.9171 76.5842C34.8757 76.5102 34.8549 76.4266 34.8568 76.3418C34.8587 76.2571 34.8832 76.1744 34.9278 76.1024C37.6446 71.6865 51.9306 48.4638 54.5293 44.2408Z" fill="url(#paint3_linear_182_591)" stroke="#DAF1FF" stroke-width="0.0546343" stroke-linecap="round" stroke-linejoin="round"/>
<path d="M54.058 64.3952L53.7413 59.3069C53.6822 58.3154 53.6527 57.6035 53.6527 57.1713C53.6225 56.6756 53.7755 56.1861 54.0825 55.7957C54.2222 55.6339 54.3964 55.5056 54.5923 55.4201C54.7882 55.3346 55.0008 55.2941 55.2145 55.3017C55.4462 55.2761 55.6801 55.3232 55.8838 55.4365C56.0875 55.5498 56.2509 55.7237 56.3514 55.934C56.57 56.5154 56.6676 57.1353 56.6383 57.7557C56.6383 58.2232 56.6147 58.6977 56.5674 59.1792L56.1418 64.4168C56.1245 64.9081 56.0244 65.393 55.8457 65.8509C55.7886 66.002 55.6857 66.1314 55.5514 66.2211C55.4171 66.3108 55.2581 66.3564 55.0967 66.3513C54.9377 66.3606 54.78 66.3186 54.6466 66.2316C54.5132 66.1446 54.4112 66.0172 54.3555 65.8679C54.1844 65.3943 54.0841 64.8981 54.058 64.3952ZM55.1552 71.3857C54.7628 71.3895 54.3846 71.2388 54.1023 70.9661C53.9482 70.8136 53.8284 70.63 53.7509 70.4275C53.6733 70.2251 53.6398 70.0084 53.6527 69.7919C53.6435 69.3765 53.7979 68.9741 54.0825 68.6713C54.2148 68.5235 54.3773 68.4059 54.559 68.3263C54.7407 68.2468 54.9374 68.2072 55.1357 68.2103C55.3356 68.2076 55.5337 68.2473 55.7171 68.3268C55.9005 68.4063 56.0649 68.5237 56.1996 68.6713C56.3433 68.8199 56.4561 68.9953 56.5316 69.1877C56.6071 69.38 56.6439 69.5854 56.6397 69.7919C56.6516 70.0073 56.6181 70.2228 56.5415 70.4244C56.4648 70.626 56.3467 70.8092 56.1947 70.9622C56.0581 71.0983 55.896 71.2059 55.7175 71.2789C55.5391 71.3518 55.348 71.3886 55.1552 71.3871V71.3857Z" fill="url(#paint4_radial_182_591)"/>
<defs>
<linearGradient id="paint0_linear_182_591" x1="27.9425" y1="8.27098" x2="29.0106" y2="-10.073" gradientUnits="userSpaceOnUse">
<stop stop-color="#AFDCF6"/>
<stop offset="1" stop-color="#1EA0EB"/>
</linearGradient>
<radialGradient id="paint1_radial_182_591" cx="0" cy="0" r="1" gradientUnits="userSpaceOnUse" gradientTransform="translate(57.8195 75.2022) rotate(155.548) scale(24.6223 13.3793)">
<stop stop-color="#1EA0EB" stop-opacity="0.51"/>
<stop offset="1" stop-color="#1EA0EB" stop-opacity="0"/>
</radialGradient>
<radialGradient id="paint2_radial_182_591" cx="0" cy="0" r="1" gradientUnits="userSpaceOnUse" gradientTransform="translate(55.9385 27.5996) rotate(115.915) scale(70.4754 57.2784)">
<stop stop-color="#4250E8"/>
<stop offset="1" stop-color="#9AA3FE"/>
</radialGradient>
<linearGradient id="paint3_linear_182_591" x1="54.3541" y1="128.543" x2="54.5301" y2="57.2087" gradientUnits="userSpaceOnUse">
<stop stop-color="#83D2FF"/>
<stop offset="0.52" stop-color="#A5DEFF"/>
<stop offset="1" stop-color="#DDF3FF"/>
</linearGradient>
<radialGradient id="paint4_radial_182_591" cx="0" cy="0" r="1" gradientUnits="userSpaceOnUse" gradientTransform="translate(649.947 4063.57) scale(483.11 2596.22)">
<stop stop-color="#4250E8"/>
<stop offset="1" stop-color="#4250E8"/>
</radialGradient>
</defs>
</svg>
