<svg width="326" height="326" viewBox="0 0 326 326" fill="none" xmlns="http://www.w3.org/2000/svg">
<circle cx="163" cy="163" r="163" fill="url(#paint0_radial_293_4252)"/>
<mask id="mask0_293_4252" style="mask-type:alpha" maskUnits="userSpaceOnUse" x="0" y="0" width="326" height="326">
<circle cx="163" cy="163" r="163" fill="#C4C4C4"/>
</mask>
<g mask="url(#mask0_293_4252)">
<circle cx="6" cy="19" r="3" fill="white"/>
<circle cx="32" cy="19" r="3" fill="white"/>
<circle cx="58" cy="19" r="3" fill="white"/>
<circle cx="6" cy="45" r="3" fill="white"/>
<circle cx="32" cy="45" r="3" fill="white"/>
<circle cx="58" cy="45" r="3" fill="white"/>
<circle cx="84" cy="19" r="3" fill="white"/>
<circle cx="110" cy="19" r="3" fill="white"/>
<circle cx="136" cy="19" r="3" fill="white"/>
<circle cx="162" cy="19" r="3" fill="white"/>
<circle cx="188" cy="19" r="3" fill="white"/>
<circle cx="214" cy="19" r="3" fill="white"/>
<circle cx="84" cy="45" r="3" fill="white"/>
<circle cx="110" cy="45" r="3" fill="white"/>
<circle cx="136" cy="45" r="3" fill="white"/>
<circle cx="162" cy="45" r="3" fill="white"/>
<circle cx="188" cy="45" r="3" fill="white"/>
<circle cx="214" cy="45" r="3" fill="white"/>
<circle cx="6" cy="71" r="3" fill="white"/>
<circle cx="32" cy="71" r="3" fill="white"/>
<circle cx="58" cy="71" r="3" fill="white"/>
<circle cx="6" cy="97" r="3" fill="white"/>
<circle cx="32" cy="97" r="3" fill="white"/>
<circle cx="58" cy="97" r="3" fill="white"/>
<circle cx="6" cy="123" r="3" fill="white"/>
<circle cx="32" cy="123" r="3" fill="white"/>
<circle cx="58" cy="123" r="3" fill="white"/>
<circle cx="6" cy="149" r="3" fill="white"/>
<circle cx="32" cy="149" r="3" fill="white"/>
<circle cx="58" cy="149" r="3" fill="white"/>
<circle cx="6" cy="175" r="3" fill="white"/>
<circle cx="32" cy="175" r="3" fill="white"/>
<circle cx="58" cy="175" r="3" fill="white"/>
<circle cx="6" cy="201" r="3" fill="white"/>
<circle cx="32" cy="201" r="3" fill="white"/>
<circle cx="58" cy="201" r="3" fill="white"/>
<circle cx="84" cy="71" r="3" fill="white"/>
<circle cx="110" cy="71" r="3" fill="white"/>
<circle cx="136" cy="71" r="3" fill="white"/>
<circle cx="162" cy="71" r="3" fill="white"/>
<circle cx="188" cy="71" r="3" fill="white"/>
<circle cx="214" cy="71" r="3" fill="white"/>
<circle cx="84" cy="97" r="3" fill="white"/>
<circle cx="110" cy="97" r="3" fill="white"/>
<circle cx="136" cy="97" r="3" fill="white"/>
<circle cx="162" cy="97" r="3" fill="white"/>
<circle cx="188" cy="97" r="3" fill="white"/>
<circle cx="214" cy="97" r="3" fill="white"/>
<circle cx="84" cy="123" r="3" fill="white"/>
<circle cx="110" cy="123" r="3" fill="white"/>
<circle cx="136" cy="123" r="3" fill="white"/>
<circle cx="162" cy="123" r="3" fill="white"/>
<circle cx="188" cy="123" r="3" fill="white"/>
<circle cx="214" cy="123" r="3" fill="white"/>
<circle cx="84" cy="149" r="3" fill="white"/>
<circle cx="110" cy="149" r="3" fill="white"/>
<circle cx="136" cy="149" r="3" fill="white"/>
<circle cx="162" cy="149" r="3" fill="white"/>
<circle cx="188" cy="149" r="3" fill="white"/>
<circle cx="214" cy="149" r="3" fill="white"/>
<circle cx="84" cy="175" r="3" fill="white"/>
<circle cx="110" cy="175" r="3" fill="white"/>
<circle cx="136" cy="175" r="3" fill="white"/>
<circle cx="162" cy="175" r="3" fill="white"/>
<circle cx="188" cy="175" r="3" fill="white"/>
<circle cx="214" cy="175" r="3" fill="white"/>
<circle cx="84" cy="201" r="3" fill="white"/>
<circle cx="110" cy="201" r="3" fill="white"/>
<circle cx="136" cy="201" r="3" fill="white"/>
<circle cx="162" cy="201" r="3" fill="white"/>
<circle cx="188" cy="201" r="3" fill="white"/>
<circle cx="214" cy="201" r="3" fill="white"/>
<circle cx="6" cy="227" r="3" fill="white"/>
<circle cx="32" cy="227" r="3" fill="white"/>
<circle cx="58" cy="227" r="3" fill="white"/>
<circle cx="6" cy="253" r="3" fill="white"/>
<circle cx="32" cy="253" r="3" fill="white"/>
<circle cx="58" cy="253" r="3" fill="white"/>
<circle cx="6" cy="279" r="3" fill="white"/>
<circle cx="32" cy="279" r="3" fill="white"/>
<circle cx="58" cy="279" r="3" fill="white"/>
<circle cx="6" cy="305" r="3" fill="white"/>
<circle cx="32" cy="305" r="3" fill="white"/>
<circle cx="58" cy="305" r="3" fill="white"/>
<circle cx="84" cy="227" r="3" fill="white"/>
<circle cx="110" cy="227" r="3" fill="white"/>
<circle cx="136" cy="227" r="3" fill="white"/>
<circle cx="162" cy="227" r="3" fill="white"/>
<circle cx="188" cy="227" r="3" fill="white"/>
<circle cx="214" cy="227" r="3" fill="white"/>
<circle cx="84" cy="253" r="3" fill="white"/>
<circle cx="110" cy="253" r="3" fill="white"/>
<circle cx="136" cy="253" r="3" fill="white"/>
<circle cx="162" cy="253" r="3" fill="white"/>
<circle cx="188" cy="253" r="3" fill="white"/>
<circle cx="214" cy="253" r="3" fill="white"/>
<circle cx="84" cy="279" r="3" fill="white"/>
<circle cx="110" cy="279" r="3" fill="white"/>
<circle cx="136" cy="279" r="3" fill="white"/>
<circle cx="162" cy="279" r="3" fill="white"/>
<circle cx="188" cy="279" r="3" fill="white"/>
<circle cx="214" cy="279" r="3" fill="white"/>
<circle cx="84" cy="305" r="3" fill="white"/>
<circle cx="110" cy="305" r="3" fill="white"/>
<circle cx="136" cy="305" r="3" fill="white"/>
<circle cx="162" cy="305" r="3" fill="white"/>
<circle cx="188" cy="305" r="3" fill="white"/>
<circle cx="214" cy="305" r="3" fill="white"/>
<circle cx="240" cy="19" r="3" fill="white"/>
<circle cx="266" cy="19" r="3" fill="white"/>
<circle cx="292" cy="19" r="3" fill="white"/>
<circle cx="318" cy="19" r="3" fill="white"/>
<circle cx="240" cy="45" r="3" fill="white"/>
<circle cx="266" cy="45" r="3" fill="white"/>
<circle cx="292" cy="45" r="3" fill="white"/>
<circle cx="318" cy="45" r="3" fill="white"/>
<circle cx="240" cy="71" r="3" fill="white"/>
<circle cx="266" cy="71" r="3" fill="white"/>
<circle cx="292" cy="71" r="3" fill="white"/>
<circle cx="318" cy="71" r="3" fill="white"/>
<circle cx="240" cy="97" r="3" fill="white"/>
<circle cx="266" cy="97" r="3" fill="white"/>
<circle cx="292" cy="97" r="3" fill="white"/>
<circle cx="318" cy="97" r="3" fill="white"/>
<circle cx="240" cy="123" r="3" fill="white"/>
<circle cx="266" cy="123" r="3" fill="white"/>
<circle cx="292" cy="123" r="3" fill="white"/>
<circle cx="318" cy="123" r="3" fill="white"/>
<circle cx="240" cy="149" r="3" fill="white"/>
<circle cx="266" cy="149" r="3" fill="white"/>
<circle cx="292" cy="149" r="3" fill="white"/>
<circle cx="318" cy="149" r="3" fill="white"/>
<circle cx="240" cy="175" r="3" fill="white"/>
<circle cx="266" cy="175" r="3" fill="white"/>
<circle cx="292" cy="175" r="3" fill="white"/>
<circle cx="318" cy="175" r="3" fill="white"/>
<circle cx="240" cy="201" r="3" fill="white"/>
<circle cx="266" cy="201" r="3" fill="white"/>
<circle cx="292" cy="201" r="3" fill="white"/>
<circle cx="318" cy="201" r="3" fill="white"/>
<circle cx="240" cy="227" r="3" fill="white"/>
<circle cx="266" cy="227" r="3" fill="white"/>
<circle cx="292" cy="227" r="3" fill="white"/>
<circle cx="318" cy="227" r="3" fill="white"/>
<circle cx="240" cy="253" r="3" fill="white"/>
<circle cx="266" cy="253" r="3" fill="white"/>
<circle cx="292" cy="253" r="3" fill="white"/>
<circle cx="318" cy="253" r="3" fill="white"/>
<circle cx="240" cy="279" r="3" fill="white"/>
<circle cx="266" cy="279" r="3" fill="white"/>
<circle cx="292" cy="279" r="3" fill="white"/>
<circle cx="318" cy="279" r="3" fill="white"/>
<circle cx="240" cy="305" r="3" fill="white"/>
<circle cx="266" cy="305" r="3" fill="white"/>
<circle cx="292" cy="305" r="3" fill="white"/>
<circle cx="318" cy="305" r="3" fill="white"/>
</g>
<defs>
<radialGradient id="paint0_radial_293_4252" cx="0" cy="0" r="1" gradientUnits="userSpaceOnUse" gradientTransform="translate(163 163) rotate(90) scale(163)">
<stop stop-color="white"/>
<stop offset="1" stop-color="white" stop-opacity="0"/>
</radialGradient>
</defs>
</svg>
