<svg width="604" height="604" viewBox="0 0 604 604" fill="none" xmlns="http://www.w3.org/2000/svg">
<circle cx="3" cy="3" r="3" fill="white" fill-opacity="0.1"/>
<circle cx="29" cy="3" r="3" fill="white" fill-opacity="0.1"/>
<circle cx="55" cy="3" r="3" fill="white" fill-opacity="0.1"/>
<circle cx="81" cy="3" r="3" fill="white" fill-opacity="0.1"/>
<circle cx="107" cy="3" r="3" fill="white" fill-opacity="0.1"/>
<circle cx="133" cy="3" r="3" fill="white" fill-opacity="0.1"/>
<circle cx="3" cy="29" r="3" fill="white" fill-opacity="0.1"/>
<circle cx="29" cy="29" r="3" fill="white" fill-opacity="0.1"/>
<circle cx="55" cy="29" r="3" fill="white" fill-opacity="0.1"/>
<circle cx="81" cy="29" r="3" fill="white" fill-opacity="0.1"/>
<circle cx="107" cy="29" r="3" fill="white" fill-opacity="0.1"/>
<circle cx="133" cy="29" r="3" fill="white" fill-opacity="0.1"/>
<circle cx="3" cy="55" r="3" fill="white" fill-opacity="0.1"/>
<circle cx="29" cy="55" r="3" fill="white" fill-opacity="0.1"/>
<circle cx="55" cy="55" r="3" fill="white" fill-opacity="0.1"/>
<circle cx="81" cy="55" r="3" fill="white" fill-opacity="0.1"/>
<circle cx="107" cy="55" r="3" fill="white" fill-opacity="0.1"/>
<circle cx="133" cy="55" r="3" fill="white" fill-opacity="0.1"/>
<circle cx="3" cy="81" r="3" fill="white" fill-opacity="0.1"/>
<circle cx="29" cy="81" r="3" fill="white" fill-opacity="0.1"/>
<circle cx="55" cy="81" r="3" fill="white" fill-opacity="0.1"/>
<circle cx="81" cy="81" r="3" fill="white" fill-opacity="0.1"/>
<circle cx="107" cy="81" r="3" fill="white" fill-opacity="0.1"/>
<circle cx="133" cy="81" r="3" fill="white" fill-opacity="0.1"/>
<circle cx="3" cy="107" r="3" fill="white" fill-opacity="0.1"/>
<circle cx="29" cy="107" r="3" fill="white" fill-opacity="0.1"/>
<circle cx="55" cy="107" r="3" fill="white" fill-opacity="0.1"/>
<circle cx="81" cy="107" r="3" fill="white" fill-opacity="0.1"/>
<circle cx="107" cy="107" r="3" fill="white" fill-opacity="0.1"/>
<circle cx="133" cy="107" r="3" fill="white" fill-opacity="0.1"/>
<circle cx="3" cy="133" r="3" fill="white" fill-opacity="0.1"/>
<circle cx="29" cy="133" r="3" fill="white" fill-opacity="0.1"/>
<circle cx="55" cy="133" r="3" fill="white" fill-opacity="0.1"/>
<circle cx="81" cy="133" r="3" fill="white" fill-opacity="0.1"/>
<circle cx="107" cy="133" r="3" fill="white" fill-opacity="0.1"/>
<circle cx="133" cy="133" r="3" fill="white" fill-opacity="0.1"/>
<circle cx="159" cy="3" r="3" fill="white" fill-opacity="0.1"/>
<circle cx="185" cy="3" r="3" fill="white" fill-opacity="0.1"/>
<circle cx="211" cy="3" r="3" fill="white" fill-opacity="0.1"/>
<circle cx="237" cy="3" r="3" fill="white" fill-opacity="0.1"/>
<circle cx="263" cy="3" r="3" fill="white" fill-opacity="0.1"/>
<circle cx="289" cy="3" r="3" fill="white" fill-opacity="0.1"/>
<circle cx="159" cy="29" r="3" fill="white" fill-opacity="0.1"/>
<circle cx="185" cy="29" r="3" fill="white" fill-opacity="0.1"/>
<circle cx="211" cy="29" r="3" fill="white" fill-opacity="0.1"/>
<circle cx="237" cy="29" r="3" fill="white" fill-opacity="0.1"/>
<circle cx="263" cy="29" r="3" fill="white" fill-opacity="0.1"/>
<circle cx="289" cy="29" r="3" fill="white" fill-opacity="0.1"/>
<circle cx="159" cy="55" r="3" fill="white" fill-opacity="0.1"/>
<circle cx="185" cy="55" r="3" fill="white" fill-opacity="0.1"/>
<circle cx="211" cy="55" r="3" fill="white" fill-opacity="0.1"/>
<circle cx="237" cy="55" r="3" fill="white" fill-opacity="0.1"/>
<circle cx="263" cy="55" r="3" fill="white" fill-opacity="0.1"/>
<circle cx="289" cy="55" r="3" fill="white" fill-opacity="0.1"/>
<circle cx="159" cy="81" r="3" fill="white" fill-opacity="0.1"/>
<circle cx="185" cy="81" r="3" fill="white" fill-opacity="0.1"/>
<circle cx="211" cy="81" r="3" fill="white" fill-opacity="0.1"/>
<circle cx="237" cy="81" r="3" fill="white" fill-opacity="0.1"/>
<circle cx="263" cy="81" r="3" fill="white" fill-opacity="0.1"/>
<circle cx="289" cy="81" r="3" fill="white" fill-opacity="0.1"/>
<circle cx="159" cy="107" r="3" fill="white" fill-opacity="0.1"/>
<circle cx="185" cy="107" r="3" fill="white" fill-opacity="0.1"/>
<circle cx="211" cy="107" r="3" fill="white" fill-opacity="0.1"/>
<circle cx="237" cy="107" r="3" fill="white" fill-opacity="0.1"/>
<circle cx="263" cy="107" r="3" fill="white" fill-opacity="0.1"/>
<circle cx="289" cy="107" r="3" fill="white" fill-opacity="0.1"/>
<circle cx="159" cy="133" r="3" fill="white" fill-opacity="0.1"/>
<circle cx="185" cy="133" r="3" fill="white" fill-opacity="0.1"/>
<circle cx="211" cy="133" r="3" fill="white" fill-opacity="0.1"/>
<circle cx="237" cy="133" r="3" fill="white" fill-opacity="0.1"/>
<circle cx="263" cy="133" r="3" fill="white" fill-opacity="0.1"/>
<circle cx="289" cy="133" r="3" fill="white" fill-opacity="0.1"/>
<circle cx="3" cy="159" r="3" fill="white" fill-opacity="0.1"/>
<circle cx="29" cy="159" r="3" fill="white" fill-opacity="0.1"/>
<circle cx="55" cy="159" r="3" fill="white" fill-opacity="0.1"/>
<circle cx="81" cy="159" r="3" fill="white" fill-opacity="0.1"/>
<circle cx="107" cy="159" r="3" fill="white" fill-opacity="0.1"/>
<circle cx="133" cy="159" r="3" fill="white" fill-opacity="0.1"/>
<circle cx="3" cy="185" r="3" fill="white" fill-opacity="0.1"/>
<circle cx="29" cy="185" r="3" fill="white" fill-opacity="0.1"/>
<circle cx="55" cy="185" r="3" fill="white" fill-opacity="0.1"/>
<circle cx="81" cy="185" r="3" fill="white" fill-opacity="0.1"/>
<circle cx="107" cy="185" r="3" fill="white" fill-opacity="0.1"/>
<circle cx="133" cy="185" r="3" fill="white" fill-opacity="0.1"/>
<circle cx="3" cy="211" r="3" fill="white" fill-opacity="0.1"/>
<circle cx="29" cy="211" r="3" fill="white" fill-opacity="0.1"/>
<circle cx="55" cy="211" r="3" fill="white" fill-opacity="0.1"/>
<circle cx="81" cy="211" r="3" fill="white" fill-opacity="0.1"/>
<circle cx="107" cy="211" r="3" fill="white" fill-opacity="0.1"/>
<circle cx="133" cy="211" r="3" fill="white" fill-opacity="0.1"/>
<circle cx="3" cy="237" r="3" fill="white" fill-opacity="0.1"/>
<circle cx="29" cy="237" r="3" fill="white" fill-opacity="0.1"/>
<circle cx="55" cy="237" r="3" fill="white" fill-opacity="0.1"/>
<circle cx="81" cy="237" r="3" fill="white" fill-opacity="0.1"/>
<circle cx="107" cy="237" r="3" fill="white" fill-opacity="0.1"/>
<circle cx="133" cy="237" r="3" fill="white" fill-opacity="0.1"/>
<circle cx="3" cy="263" r="3" fill="white" fill-opacity="0.1"/>
<circle cx="29" cy="263" r="3" fill="white" fill-opacity="0.1"/>
<circle cx="55" cy="263" r="3" fill="white" fill-opacity="0.1"/>
<circle cx="81" cy="263" r="3" fill="white" fill-opacity="0.1"/>
<circle cx="107" cy="263" r="3" fill="white" fill-opacity="0.1"/>
<circle cx="133" cy="263" r="3" fill="white" fill-opacity="0.1"/>
<circle cx="3" cy="289" r="3" fill="white" fill-opacity="0.1"/>
<circle cx="29" cy="289" r="3" fill="white" fill-opacity="0.1"/>
<circle cx="55" cy="289" r="3" fill="white" fill-opacity="0.1"/>
<circle cx="81" cy="289" r="3" fill="white" fill-opacity="0.1"/>
<circle cx="107" cy="289" r="3" fill="white" fill-opacity="0.1"/>
<circle cx="133" cy="289" r="3" fill="white" fill-opacity="0.1"/>
<circle cx="159" cy="159" r="3" fill="white" fill-opacity="0.1"/>
<circle cx="185" cy="159" r="3" fill="white" fill-opacity="0.1"/>
<circle cx="211" cy="159" r="3" fill="white" fill-opacity="0.1"/>
<circle cx="237" cy="159" r="3" fill="white" fill-opacity="0.1"/>
<circle cx="263" cy="159" r="3" fill="white" fill-opacity="0.1"/>
<circle cx="289" cy="159" r="3" fill="white" fill-opacity="0.1"/>
<circle cx="159" cy="185" r="3" fill="white" fill-opacity="0.1"/>
<circle cx="185" cy="185" r="3" fill="white" fill-opacity="0.1"/>
<circle cx="211" cy="185" r="3" fill="white" fill-opacity="0.1"/>
<circle cx="237" cy="185" r="3" fill="white" fill-opacity="0.1"/>
<circle cx="263" cy="185" r="3" fill="white" fill-opacity="0.1"/>
<circle cx="289" cy="185" r="3" fill="white" fill-opacity="0.1"/>
<circle cx="159" cy="211" r="3" fill="white" fill-opacity="0.1"/>
<circle cx="185" cy="211" r="3" fill="white" fill-opacity="0.1"/>
<circle cx="211" cy="211" r="3" fill="white" fill-opacity="0.1"/>
<circle cx="237" cy="211" r="3" fill="white" fill-opacity="0.1"/>
<circle cx="263" cy="211" r="3" fill="white" fill-opacity="0.1"/>
<circle cx="289" cy="211" r="3" fill="white" fill-opacity="0.1"/>
<circle cx="159" cy="237" r="3" fill="white" fill-opacity="0.1"/>
<circle cx="185" cy="237" r="3" fill="white" fill-opacity="0.1"/>
<circle cx="211" cy="237" r="3" fill="white" fill-opacity="0.1"/>
<circle cx="237" cy="237" r="3" fill="white" fill-opacity="0.1"/>
<circle cx="263" cy="237" r="3" fill="white" fill-opacity="0.1"/>
<circle cx="289" cy="237" r="3" fill="white" fill-opacity="0.1"/>
<circle cx="159" cy="263" r="3" fill="white" fill-opacity="0.1"/>
<circle cx="185" cy="263" r="3" fill="white" fill-opacity="0.1"/>
<circle cx="211" cy="263" r="3" fill="white" fill-opacity="0.1"/>
<circle cx="237" cy="263" r="3" fill="white" fill-opacity="0.1"/>
<circle cx="263" cy="263" r="3" fill="white" fill-opacity="0.1"/>
<circle cx="289" cy="263" r="3" fill="white" fill-opacity="0.1"/>
<circle cx="159" cy="289" r="3" fill="white" fill-opacity="0.1"/>
<circle cx="185" cy="289" r="3" fill="white" fill-opacity="0.1"/>
<circle cx="211" cy="289" r="3" fill="white" fill-opacity="0.1"/>
<circle cx="237" cy="289" r="3" fill="white" fill-opacity="0.1"/>
<circle cx="263" cy="289" r="3" fill="white" fill-opacity="0.1"/>
<circle cx="289" cy="289" r="3" fill="white" fill-opacity="0.1"/>
<circle cx="3" cy="315" r="3" fill="white" fill-opacity="0.1"/>
<circle cx="29" cy="315" r="3" fill="white" fill-opacity="0.1"/>
<circle cx="55" cy="315" r="3" fill="white" fill-opacity="0.1"/>
<circle cx="81" cy="315" r="3" fill="white" fill-opacity="0.1"/>
<circle cx="107" cy="315" r="3" fill="white" fill-opacity="0.1"/>
<circle cx="133" cy="315" r="3" fill="white" fill-opacity="0.1"/>
<circle cx="3" cy="341" r="3" fill="white" fill-opacity="0.1"/>
<circle cx="29" cy="341" r="3" fill="white" fill-opacity="0.1"/>
<circle cx="55" cy="341" r="3" fill="white" fill-opacity="0.1"/>
<circle cx="81" cy="341" r="3" fill="white" fill-opacity="0.1"/>
<circle cx="107" cy="341" r="3" fill="white" fill-opacity="0.1"/>
<circle cx="133" cy="341" r="3" fill="white" fill-opacity="0.1"/>
<circle cx="3" cy="367" r="3" fill="white" fill-opacity="0.1"/>
<circle cx="29" cy="367" r="3" fill="white" fill-opacity="0.1"/>
<circle cx="55" cy="367" r="3" fill="white" fill-opacity="0.1"/>
<circle cx="81" cy="367" r="3" fill="white" fill-opacity="0.1"/>
<circle cx="107" cy="367" r="3" fill="white" fill-opacity="0.1"/>
<circle cx="133" cy="367" r="3" fill="white" fill-opacity="0.1"/>
<circle cx="3" cy="393" r="3" fill="white" fill-opacity="0.1"/>
<circle cx="29" cy="393" r="3" fill="white" fill-opacity="0.1"/>
<circle cx="55" cy="393" r="3" fill="white" fill-opacity="0.1"/>
<circle cx="81" cy="393" r="3" fill="white" fill-opacity="0.1"/>
<circle cx="107" cy="393" r="3" fill="white" fill-opacity="0.1"/>
<circle cx="133" cy="393" r="3" fill="white" fill-opacity="0.1"/>
<circle cx="3" cy="419" r="3" fill="white" fill-opacity="0.1"/>
<circle cx="29" cy="419" r="3" fill="white" fill-opacity="0.1"/>
<circle cx="55" cy="419" r="3" fill="white" fill-opacity="0.1"/>
<circle cx="81" cy="419" r="3" fill="white" fill-opacity="0.1"/>
<circle cx="107" cy="419" r="3" fill="white" fill-opacity="0.1"/>
<circle cx="133" cy="419" r="3" fill="white" fill-opacity="0.1"/>
<circle cx="3" cy="445" r="3" fill="white" fill-opacity="0.1"/>
<circle cx="29" cy="445" r="3" fill="white" fill-opacity="0.1"/>
<circle cx="55" cy="445" r="3" fill="white" fill-opacity="0.1"/>
<circle cx="81" cy="445" r="3" fill="white" fill-opacity="0.1"/>
<circle cx="107" cy="445" r="3" fill="white" fill-opacity="0.1"/>
<circle cx="133" cy="445" r="3" fill="white" fill-opacity="0.1"/>
<circle cx="159" cy="315" r="3" fill="white" fill-opacity="0.1"/>
<circle cx="185" cy="315" r="3" fill="white" fill-opacity="0.1"/>
<circle cx="211" cy="315" r="3" fill="white" fill-opacity="0.1"/>
<circle cx="237" cy="315" r="3" fill="white" fill-opacity="0.1"/>
<circle cx="263" cy="315" r="3" fill="white" fill-opacity="0.1"/>
<circle cx="289" cy="315" r="3" fill="white" fill-opacity="0.1"/>
<circle cx="159" cy="341" r="3" fill="white" fill-opacity="0.1"/>
<circle cx="185" cy="341" r="3" fill="white" fill-opacity="0.1"/>
<circle cx="211" cy="341" r="3" fill="white" fill-opacity="0.1"/>
<circle cx="237" cy="341" r="3" fill="white" fill-opacity="0.1"/>
<circle cx="263" cy="341" r="3" fill="white" fill-opacity="0.1"/>
<circle cx="289" cy="341" r="3" fill="white" fill-opacity="0.1"/>
<circle cx="159" cy="367" r="3" fill="white" fill-opacity="0.1"/>
<circle cx="185" cy="367" r="3" fill="white" fill-opacity="0.1"/>
<circle cx="211" cy="367" r="3" fill="white" fill-opacity="0.1"/>
<circle cx="237" cy="367" r="3" fill="white" fill-opacity="0.1"/>
<circle cx="263" cy="367" r="3" fill="white" fill-opacity="0.1"/>
<circle cx="289" cy="367" r="3" fill="white" fill-opacity="0.1"/>
<circle cx="159" cy="393" r="3" fill="white" fill-opacity="0.1"/>
<circle cx="185" cy="393" r="3" fill="white" fill-opacity="0.1"/>
<circle cx="211" cy="393" r="3" fill="white" fill-opacity="0.1"/>
<circle cx="237" cy="393" r="3" fill="white" fill-opacity="0.1"/>
<circle cx="263" cy="393" r="3" fill="white" fill-opacity="0.1"/>
<circle cx="289" cy="393" r="3" fill="white" fill-opacity="0.1"/>
<circle cx="159" cy="419" r="3" fill="white" fill-opacity="0.1"/>
<circle cx="185" cy="419" r="3" fill="white" fill-opacity="0.1"/>
<circle cx="211" cy="419" r="3" fill="white" fill-opacity="0.1"/>
<circle cx="237" cy="419" r="3" fill="white" fill-opacity="0.1"/>
<circle cx="263" cy="419" r="3" fill="white" fill-opacity="0.1"/>
<circle cx="289" cy="419" r="3" fill="white" fill-opacity="0.1"/>
<circle cx="159" cy="445" r="3" fill="white" fill-opacity="0.1"/>
<circle cx="185" cy="445" r="3" fill="white" fill-opacity="0.1"/>
<circle cx="211" cy="445" r="3" fill="white" fill-opacity="0.1"/>
<circle cx="237" cy="445" r="3" fill="white" fill-opacity="0.1"/>
<circle cx="263" cy="445" r="3" fill="white" fill-opacity="0.1"/>
<circle cx="289" cy="445" r="3" fill="white" fill-opacity="0.1"/>
<circle cx="3" cy="471" r="3" fill="white" fill-opacity="0.1"/>
<circle cx="29" cy="471" r="3" fill="white" fill-opacity="0.1"/>
<circle cx="55" cy="471" r="3" fill="white" fill-opacity="0.1"/>
<circle cx="81" cy="471" r="3" fill="white" fill-opacity="0.1"/>
<circle cx="107" cy="471" r="3" fill="white" fill-opacity="0.1"/>
<circle cx="133" cy="471" r="3" fill="white" fill-opacity="0.1"/>
<circle cx="3" cy="497" r="3" fill="white" fill-opacity="0.1"/>
<circle cx="29" cy="497" r="3" fill="white" fill-opacity="0.1"/>
<circle cx="55" cy="497" r="3" fill="white" fill-opacity="0.1"/>
<circle cx="81" cy="497" r="3" fill="white" fill-opacity="0.1"/>
<circle cx="107" cy="497" r="3" fill="white" fill-opacity="0.1"/>
<circle cx="133" cy="497" r="3" fill="white" fill-opacity="0.1"/>
<circle cx="3" cy="523" r="3" fill="white" fill-opacity="0.1"/>
<circle cx="29" cy="523" r="3" fill="white" fill-opacity="0.1"/>
<circle cx="55" cy="523" r="3" fill="white" fill-opacity="0.1"/>
<circle cx="81" cy="523" r="3" fill="white" fill-opacity="0.1"/>
<circle cx="107" cy="523" r="3" fill="white" fill-opacity="0.1"/>
<circle cx="133" cy="523" r="3" fill="white" fill-opacity="0.1"/>
<circle cx="3" cy="549" r="3" fill="white" fill-opacity="0.1"/>
<circle cx="29" cy="549" r="3" fill="white" fill-opacity="0.1"/>
<circle cx="55" cy="549" r="3" fill="white" fill-opacity="0.1"/>
<circle cx="81" cy="549" r="3" fill="white" fill-opacity="0.1"/>
<circle cx="107" cy="549" r="3" fill="white" fill-opacity="0.1"/>
<circle cx="133" cy="549" r="3" fill="white" fill-opacity="0.1"/>
<circle cx="3" cy="575" r="3" fill="white" fill-opacity="0.1"/>
<circle cx="29" cy="575" r="3" fill="white" fill-opacity="0.1"/>
<circle cx="55" cy="575" r="3" fill="white" fill-opacity="0.1"/>
<circle cx="81" cy="575" r="3" fill="white" fill-opacity="0.1"/>
<circle cx="107" cy="575" r="3" fill="white" fill-opacity="0.1"/>
<circle cx="133" cy="575" r="3" fill="white" fill-opacity="0.1"/>
<circle cx="3" cy="601" r="3" fill="white" fill-opacity="0.1"/>
<circle cx="29" cy="601" r="3" fill="white" fill-opacity="0.1"/>
<circle cx="55" cy="601" r="3" fill="white" fill-opacity="0.1"/>
<circle cx="81" cy="601" r="3" fill="white" fill-opacity="0.1"/>
<circle cx="107" cy="601" r="3" fill="white" fill-opacity="0.1"/>
<circle cx="133" cy="601" r="3" fill="white" fill-opacity="0.1"/>
<circle cx="159" cy="471" r="3" fill="white" fill-opacity="0.1"/>
<circle cx="185" cy="471" r="3" fill="white" fill-opacity="0.1"/>
<circle cx="211" cy="471" r="3" fill="white" fill-opacity="0.1"/>
<circle cx="237" cy="471" r="3" fill="white" fill-opacity="0.1"/>
<circle cx="263" cy="471" r="3" fill="white" fill-opacity="0.1"/>
<circle cx="289" cy="471" r="3" fill="white" fill-opacity="0.1"/>
<circle cx="159" cy="497" r="3" fill="white" fill-opacity="0.1"/>
<circle cx="185" cy="497" r="3" fill="white" fill-opacity="0.1"/>
<circle cx="211" cy="497" r="3" fill="white" fill-opacity="0.1"/>
<circle cx="237" cy="497" r="3" fill="white" fill-opacity="0.1"/>
<circle cx="263" cy="497" r="3" fill="white" fill-opacity="0.1"/>
<circle cx="289" cy="497" r="3" fill="white" fill-opacity="0.1"/>
<circle cx="159" cy="523" r="3" fill="white" fill-opacity="0.1"/>
<circle cx="185" cy="523" r="3" fill="white" fill-opacity="0.1"/>
<circle cx="211" cy="523" r="3" fill="white" fill-opacity="0.1"/>
<circle cx="237" cy="523" r="3" fill="white" fill-opacity="0.1"/>
<circle cx="263" cy="523" r="3" fill="white" fill-opacity="0.1"/>
<circle cx="289" cy="523" r="3" fill="white" fill-opacity="0.1"/>
<circle cx="159" cy="549" r="3" fill="white" fill-opacity="0.1"/>
<circle cx="185" cy="549" r="3" fill="white" fill-opacity="0.1"/>
<circle cx="211" cy="549" r="3" fill="white" fill-opacity="0.1"/>
<circle cx="237" cy="549" r="3" fill="white" fill-opacity="0.1"/>
<circle cx="263" cy="549" r="3" fill="white" fill-opacity="0.1"/>
<circle cx="289" cy="549" r="3" fill="white" fill-opacity="0.1"/>
<circle cx="159" cy="575" r="3" fill="white" fill-opacity="0.1"/>
<circle cx="185" cy="575" r="3" fill="white" fill-opacity="0.1"/>
<circle cx="211" cy="575" r="3" fill="white" fill-opacity="0.1"/>
<circle cx="237" cy="575" r="3" fill="white" fill-opacity="0.1"/>
<circle cx="263" cy="575" r="3" fill="white" fill-opacity="0.1"/>
<circle cx="289" cy="575" r="3" fill="white" fill-opacity="0.1"/>
<circle cx="159" cy="601" r="3" fill="white" fill-opacity="0.1"/>
<circle cx="185" cy="601" r="3" fill="white" fill-opacity="0.1"/>
<circle cx="211" cy="601" r="3" fill="white" fill-opacity="0.1"/>
<circle cx="237" cy="601" r="3" fill="white" fill-opacity="0.1"/>
<circle cx="263" cy="601" r="3" fill="white" fill-opacity="0.1"/>
<circle cx="289" cy="601" r="3" fill="white" fill-opacity="0.1"/>
<circle cx="315" cy="3" r="3" fill="white" fill-opacity="0.1"/>
<circle cx="341" cy="3" r="3" fill="white" fill-opacity="0.1"/>
<circle cx="367" cy="3" r="3" fill="white" fill-opacity="0.1"/>
<circle cx="393" cy="3" r="3" fill="white" fill-opacity="0.1"/>
<circle cx="419" cy="3" r="3" fill="white" fill-opacity="0.1"/>
<circle cx="445" cy="3" r="3" fill="white" fill-opacity="0.1"/>
<circle cx="315" cy="29" r="3" fill="white" fill-opacity="0.1"/>
<circle cx="341" cy="29" r="3" fill="white" fill-opacity="0.1"/>
<circle cx="367" cy="29" r="3" fill="white" fill-opacity="0.1"/>
<circle cx="393" cy="29" r="3" fill="white" fill-opacity="0.1"/>
<circle cx="419" cy="29" r="3" fill="white" fill-opacity="0.1"/>
<circle cx="445" cy="29" r="3" fill="white" fill-opacity="0.1"/>
<circle cx="315" cy="55" r="3" fill="white" fill-opacity="0.1"/>
<circle cx="341" cy="55" r="3" fill="white" fill-opacity="0.1"/>
<circle cx="367" cy="55" r="3" fill="white" fill-opacity="0.1"/>
<circle cx="393" cy="55" r="3" fill="white" fill-opacity="0.1"/>
<circle cx="419" cy="55" r="3" fill="white" fill-opacity="0.1"/>
<circle cx="445" cy="55" r="3" fill="white" fill-opacity="0.1"/>
<circle cx="315" cy="81" r="3" fill="white" fill-opacity="0.1"/>
<circle cx="341" cy="81" r="3" fill="white" fill-opacity="0.1"/>
<circle cx="367" cy="81" r="3" fill="white" fill-opacity="0.1"/>
<circle cx="393" cy="81" r="3" fill="white" fill-opacity="0.1"/>
<circle cx="419" cy="81" r="3" fill="white" fill-opacity="0.1"/>
<circle cx="445" cy="81" r="3" fill="white" fill-opacity="0.1"/>
<circle cx="315" cy="107" r="3" fill="white" fill-opacity="0.1"/>
<circle cx="341" cy="107" r="3" fill="white" fill-opacity="0.1"/>
<circle cx="367" cy="107" r="3" fill="white" fill-opacity="0.1"/>
<circle cx="393" cy="107" r="3" fill="white" fill-opacity="0.1"/>
<circle cx="419" cy="107" r="3" fill="white" fill-opacity="0.1"/>
<circle cx="445" cy="107" r="3" fill="white" fill-opacity="0.1"/>
<circle cx="315" cy="133" r="3" fill="white" fill-opacity="0.1"/>
<circle cx="341" cy="133" r="3" fill="white" fill-opacity="0.1"/>
<circle cx="367" cy="133" r="3" fill="white" fill-opacity="0.1"/>
<circle cx="393" cy="133" r="3" fill="white" fill-opacity="0.1"/>
<circle cx="419" cy="133" r="3" fill="white" fill-opacity="0.1"/>
<circle cx="445" cy="133" r="3" fill="white" fill-opacity="0.1"/>
<circle cx="471" cy="3" r="3" fill="white" fill-opacity="0.1"/>
<circle cx="497" cy="3" r="3" fill="white" fill-opacity="0.1"/>
<circle cx="523" cy="3" r="3" fill="white" fill-opacity="0.1"/>
<circle cx="549" cy="3" r="3" fill="white" fill-opacity="0.1"/>
<circle cx="575" cy="3" r="3" fill="white" fill-opacity="0.1"/>
<circle cx="601" cy="3" r="3" fill="white" fill-opacity="0.1"/>
<circle cx="471" cy="29" r="3" fill="white" fill-opacity="0.1"/>
<circle cx="497" cy="29" r="3" fill="white" fill-opacity="0.1"/>
<circle cx="523" cy="29" r="3" fill="white" fill-opacity="0.1"/>
<circle cx="549" cy="29" r="3" fill="white" fill-opacity="0.1"/>
<circle cx="575" cy="29" r="3" fill="white" fill-opacity="0.1"/>
<circle cx="601" cy="29" r="3" fill="white" fill-opacity="0.1"/>
<circle cx="471" cy="55" r="3" fill="white" fill-opacity="0.1"/>
<circle cx="497" cy="55" r="3" fill="white" fill-opacity="0.1"/>
<circle cx="523" cy="55" r="3" fill="white" fill-opacity="0.1"/>
<circle cx="549" cy="55" r="3" fill="white" fill-opacity="0.1"/>
<circle cx="575" cy="55" r="3" fill="white" fill-opacity="0.1"/>
<circle cx="601" cy="55" r="3" fill="white" fill-opacity="0.1"/>
<circle cx="471" cy="81" r="3" fill="white" fill-opacity="0.1"/>
<circle cx="497" cy="81" r="3" fill="white" fill-opacity="0.1"/>
<circle cx="523" cy="81" r="3" fill="white" fill-opacity="0.1"/>
<circle cx="549" cy="81" r="3" fill="white" fill-opacity="0.1"/>
<circle cx="575" cy="81" r="3" fill="white" fill-opacity="0.1"/>
<circle cx="601" cy="81" r="3" fill="white" fill-opacity="0.1"/>
<circle cx="471" cy="107" r="3" fill="white" fill-opacity="0.1"/>
<circle cx="497" cy="107" r="3" fill="white" fill-opacity="0.1"/>
<circle cx="523" cy="107" r="3" fill="white" fill-opacity="0.1"/>
<circle cx="549" cy="107" r="3" fill="white" fill-opacity="0.1"/>
<circle cx="575" cy="107" r="3" fill="white" fill-opacity="0.1"/>
<circle cx="601" cy="107" r="3" fill="white" fill-opacity="0.1"/>
<circle cx="471" cy="133" r="3" fill="white" fill-opacity="0.1"/>
<circle cx="497" cy="133" r="3" fill="white" fill-opacity="0.1"/>
<circle cx="523" cy="133" r="3" fill="white" fill-opacity="0.1"/>
<circle cx="549" cy="133" r="3" fill="white" fill-opacity="0.1"/>
<circle cx="575" cy="133" r="3" fill="white" fill-opacity="0.1"/>
<circle cx="601" cy="133" r="3" fill="white" fill-opacity="0.1"/>
<circle cx="315" cy="159" r="3" fill="white" fill-opacity="0.1"/>
<circle cx="341" cy="159" r="3" fill="white" fill-opacity="0.1"/>
<circle cx="367" cy="159" r="3" fill="white" fill-opacity="0.1"/>
<circle cx="393" cy="159" r="3" fill="white" fill-opacity="0.1"/>
<circle cx="419" cy="159" r="3" fill="white" fill-opacity="0.1"/>
<circle cx="445" cy="159" r="3" fill="white" fill-opacity="0.1"/>
<circle cx="315" cy="185" r="3" fill="white" fill-opacity="0.1"/>
<circle cx="341" cy="185" r="3" fill="white" fill-opacity="0.1"/>
<circle cx="367" cy="185" r="3" fill="white" fill-opacity="0.1"/>
<circle cx="393" cy="185" r="3" fill="white" fill-opacity="0.1"/>
<circle cx="419" cy="185" r="3" fill="white" fill-opacity="0.1"/>
<circle cx="445" cy="185" r="3" fill="white" fill-opacity="0.1"/>
<circle cx="315" cy="211" r="3" fill="white" fill-opacity="0.1"/>
<circle cx="341" cy="211" r="3" fill="white" fill-opacity="0.1"/>
<circle cx="367" cy="211" r="3" fill="white" fill-opacity="0.1"/>
<circle cx="393" cy="211" r="3" fill="white" fill-opacity="0.1"/>
<circle cx="419" cy="211" r="3" fill="white" fill-opacity="0.1"/>
<circle cx="445" cy="211" r="3" fill="white" fill-opacity="0.1"/>
<circle cx="315" cy="237" r="3" fill="white" fill-opacity="0.1"/>
<circle cx="341" cy="237" r="3" fill="white" fill-opacity="0.1"/>
<circle cx="367" cy="237" r="3" fill="white" fill-opacity="0.1"/>
<circle cx="393" cy="237" r="3" fill="white" fill-opacity="0.1"/>
<circle cx="419" cy="237" r="3" fill="white" fill-opacity="0.1"/>
<circle cx="445" cy="237" r="3" fill="white" fill-opacity="0.1"/>
<circle cx="315" cy="263" r="3" fill="white" fill-opacity="0.1"/>
<circle cx="341" cy="263" r="3" fill="white" fill-opacity="0.1"/>
<circle cx="367" cy="263" r="3" fill="white" fill-opacity="0.1"/>
<circle cx="393" cy="263" r="3" fill="white" fill-opacity="0.1"/>
<circle cx="419" cy="263" r="3" fill="white" fill-opacity="0.1"/>
<circle cx="445" cy="263" r="3" fill="white" fill-opacity="0.1"/>
<circle cx="315" cy="289" r="3" fill="white" fill-opacity="0.1"/>
<circle cx="341" cy="289" r="3" fill="white" fill-opacity="0.1"/>
<circle cx="367" cy="289" r="3" fill="white" fill-opacity="0.1"/>
<circle cx="393" cy="289" r="3" fill="white" fill-opacity="0.1"/>
<circle cx="419" cy="289" r="3" fill="white" fill-opacity="0.1"/>
<circle cx="445" cy="289" r="3" fill="white" fill-opacity="0.1"/>
<circle cx="471" cy="159" r="3" fill="white" fill-opacity="0.1"/>
<circle cx="497" cy="159" r="3" fill="white" fill-opacity="0.1"/>
<circle cx="523" cy="159" r="3" fill="white" fill-opacity="0.1"/>
<circle cx="549" cy="159" r="3" fill="white" fill-opacity="0.1"/>
<circle cx="575" cy="159" r="3" fill="white" fill-opacity="0.1"/>
<circle cx="601" cy="159" r="3" fill="white" fill-opacity="0.1"/>
<circle cx="471" cy="185" r="3" fill="white" fill-opacity="0.1"/>
<circle cx="497" cy="185" r="3" fill="white" fill-opacity="0.1"/>
<circle cx="523" cy="185" r="3" fill="white" fill-opacity="0.1"/>
<circle cx="549" cy="185" r="3" fill="white" fill-opacity="0.1"/>
<circle cx="575" cy="185" r="3" fill="white" fill-opacity="0.1"/>
<circle cx="601" cy="185" r="3" fill="white" fill-opacity="0.1"/>
<circle cx="471" cy="211" r="3" fill="white" fill-opacity="0.1"/>
<circle cx="497" cy="211" r="3" fill="white" fill-opacity="0.1"/>
<circle cx="523" cy="211" r="3" fill="white" fill-opacity="0.1"/>
<circle cx="549" cy="211" r="3" fill="white" fill-opacity="0.1"/>
<circle cx="575" cy="211" r="3" fill="white" fill-opacity="0.1"/>
<circle cx="601" cy="211" r="3" fill="white" fill-opacity="0.1"/>
<circle cx="471" cy="237" r="3" fill="white" fill-opacity="0.1"/>
<circle cx="497" cy="237" r="3" fill="white" fill-opacity="0.1"/>
<circle cx="523" cy="237" r="3" fill="white" fill-opacity="0.1"/>
<circle cx="549" cy="237" r="3" fill="white" fill-opacity="0.1"/>
<circle cx="575" cy="237" r="3" fill="white" fill-opacity="0.1"/>
<circle cx="601" cy="237" r="3" fill="white" fill-opacity="0.1"/>
<circle cx="471" cy="263" r="3" fill="white" fill-opacity="0.1"/>
<circle cx="497" cy="263" r="3" fill="white" fill-opacity="0.1"/>
<circle cx="523" cy="263" r="3" fill="white" fill-opacity="0.1"/>
<circle cx="549" cy="263" r="3" fill="white" fill-opacity="0.1"/>
<circle cx="575" cy="263" r="3" fill="white" fill-opacity="0.1"/>
<circle cx="601" cy="263" r="3" fill="white" fill-opacity="0.1"/>
<circle cx="471" cy="289" r="3" fill="white" fill-opacity="0.1"/>
<circle cx="497" cy="289" r="3" fill="white" fill-opacity="0.1"/>
<circle cx="523" cy="289" r="3" fill="white" fill-opacity="0.1"/>
<circle cx="549" cy="289" r="3" fill="white" fill-opacity="0.1"/>
<circle cx="575" cy="289" r="3" fill="white" fill-opacity="0.1"/>
<circle cx="601" cy="289" r="3" fill="white" fill-opacity="0.1"/>
<circle cx="315" cy="315" r="3" fill="white" fill-opacity="0.1"/>
<circle cx="341" cy="315" r="3" fill="white" fill-opacity="0.1"/>
<circle cx="367" cy="315" r="3" fill="white" fill-opacity="0.1"/>
<circle cx="393" cy="315" r="3" fill="white" fill-opacity="0.1"/>
<circle cx="419" cy="315" r="3" fill="white" fill-opacity="0.1"/>
<circle cx="445" cy="315" r="3" fill="white" fill-opacity="0.1"/>
<circle cx="315" cy="341" r="3" fill="white" fill-opacity="0.1"/>
<circle cx="341" cy="341" r="3" fill="white" fill-opacity="0.1"/>
<circle cx="367" cy="341" r="3" fill="white" fill-opacity="0.1"/>
<circle cx="393" cy="341" r="3" fill="white" fill-opacity="0.1"/>
<circle cx="419" cy="341" r="3" fill="white" fill-opacity="0.1"/>
<circle cx="445" cy="341" r="3" fill="white" fill-opacity="0.1"/>
<circle cx="315" cy="367" r="3" fill="white" fill-opacity="0.1"/>
<circle cx="341" cy="367" r="3" fill="white" fill-opacity="0.1"/>
<circle cx="367" cy="367" r="3" fill="white" fill-opacity="0.1"/>
<circle cx="393" cy="367" r="3" fill="white" fill-opacity="0.1"/>
<circle cx="419" cy="367" r="3" fill="white" fill-opacity="0.1"/>
<circle cx="445" cy="367" r="3" fill="white" fill-opacity="0.1"/>
<circle cx="315" cy="393" r="3" fill="white" fill-opacity="0.1"/>
<circle cx="341" cy="393" r="3" fill="white" fill-opacity="0.1"/>
<circle cx="367" cy="393" r="3" fill="white" fill-opacity="0.1"/>
<circle cx="393" cy="393" r="3" fill="white" fill-opacity="0.1"/>
<circle cx="419" cy="393" r="3" fill="white" fill-opacity="0.1"/>
<circle cx="445" cy="393" r="3" fill="white" fill-opacity="0.1"/>
<circle cx="315" cy="419" r="3" fill="white" fill-opacity="0.1"/>
<circle cx="341" cy="419" r="3" fill="white" fill-opacity="0.1"/>
<circle cx="367" cy="419" r="3" fill="white" fill-opacity="0.1"/>
<circle cx="393" cy="419" r="3" fill="white" fill-opacity="0.1"/>
<circle cx="419" cy="419" r="3" fill="white" fill-opacity="0.1"/>
<circle cx="445" cy="419" r="3" fill="white" fill-opacity="0.1"/>
<circle cx="315" cy="445" r="3" fill="white" fill-opacity="0.1"/>
<circle cx="341" cy="445" r="3" fill="white" fill-opacity="0.1"/>
<circle cx="367" cy="445" r="3" fill="white" fill-opacity="0.1"/>
<circle cx="393" cy="445" r="3" fill="white" fill-opacity="0.1"/>
<circle cx="419" cy="445" r="3" fill="white" fill-opacity="0.1"/>
<circle cx="445" cy="445" r="3" fill="white" fill-opacity="0.1"/>
<circle cx="471" cy="315" r="3" fill="white" fill-opacity="0.1"/>
<circle cx="497" cy="315" r="3" fill="white" fill-opacity="0.1"/>
<circle cx="523" cy="315" r="3" fill="white" fill-opacity="0.1"/>
<circle cx="549" cy="315" r="3" fill="white" fill-opacity="0.1"/>
<circle cx="575" cy="315" r="3" fill="white" fill-opacity="0.1"/>
<circle cx="601" cy="315" r="3" fill="white" fill-opacity="0.1"/>
<circle cx="471" cy="341" r="3" fill="white" fill-opacity="0.1"/>
<circle cx="497" cy="341" r="3" fill="white" fill-opacity="0.1"/>
<circle cx="523" cy="341" r="3" fill="white" fill-opacity="0.1"/>
<circle cx="549" cy="341" r="3" fill="white" fill-opacity="0.1"/>
<circle cx="575" cy="341" r="3" fill="white" fill-opacity="0.1"/>
<circle cx="601" cy="341" r="3" fill="white" fill-opacity="0.1"/>
<circle cx="471" cy="367" r="3" fill="white" fill-opacity="0.1"/>
<circle cx="497" cy="367" r="3" fill="white" fill-opacity="0.1"/>
<circle cx="523" cy="367" r="3" fill="white" fill-opacity="0.1"/>
<circle cx="549" cy="367" r="3" fill="white" fill-opacity="0.1"/>
<circle cx="575" cy="367" r="3" fill="white" fill-opacity="0.1"/>
<circle cx="601" cy="367" r="3" fill="white" fill-opacity="0.1"/>
<circle cx="471" cy="393" r="3" fill="white" fill-opacity="0.1"/>
<circle cx="497" cy="393" r="3" fill="white" fill-opacity="0.1"/>
<circle cx="523" cy="393" r="3" fill="white" fill-opacity="0.1"/>
<circle cx="549" cy="393" r="3" fill="white" fill-opacity="0.1"/>
<circle cx="575" cy="393" r="3" fill="white" fill-opacity="0.1"/>
<circle cx="601" cy="393" r="3" fill="white" fill-opacity="0.1"/>
<circle cx="471" cy="419" r="3" fill="white" fill-opacity="0.1"/>
<circle cx="497" cy="419" r="3" fill="white" fill-opacity="0.1"/>
<circle cx="523" cy="419" r="3" fill="white" fill-opacity="0.1"/>
<circle cx="549" cy="419" r="3" fill="white" fill-opacity="0.1"/>
<circle cx="575" cy="419" r="3" fill="white" fill-opacity="0.1"/>
<circle cx="601" cy="419" r="3" fill="white" fill-opacity="0.1"/>
<circle cx="471" cy="445" r="3" fill="white" fill-opacity="0.1"/>
<circle cx="497" cy="445" r="3" fill="white" fill-opacity="0.1"/>
<circle cx="523" cy="445" r="3" fill="white" fill-opacity="0.1"/>
<circle cx="549" cy="445" r="3" fill="white" fill-opacity="0.1"/>
<circle cx="575" cy="445" r="3" fill="white" fill-opacity="0.1"/>
<circle cx="601" cy="445" r="3" fill="white" fill-opacity="0.1"/>
<circle cx="315" cy="471" r="3" fill="white" fill-opacity="0.1"/>
<circle cx="341" cy="471" r="3" fill="white" fill-opacity="0.1"/>
<circle cx="367" cy="471" r="3" fill="white" fill-opacity="0.1"/>
<circle cx="393" cy="471" r="3" fill="white" fill-opacity="0.1"/>
<circle cx="419" cy="471" r="3" fill="white" fill-opacity="0.1"/>
<circle cx="445" cy="471" r="3" fill="white" fill-opacity="0.1"/>
<circle cx="315" cy="497" r="3" fill="white" fill-opacity="0.1"/>
<circle cx="341" cy="497" r="3" fill="white" fill-opacity="0.1"/>
<circle cx="367" cy="497" r="3" fill="white" fill-opacity="0.1"/>
<circle cx="393" cy="497" r="3" fill="white" fill-opacity="0.1"/>
<circle cx="419" cy="497" r="3" fill="white" fill-opacity="0.1"/>
<circle cx="445" cy="497" r="3" fill="white" fill-opacity="0.1"/>
<circle cx="315" cy="523" r="3" fill="white" fill-opacity="0.1"/>
<circle cx="341" cy="523" r="3" fill="white" fill-opacity="0.1"/>
<circle cx="367" cy="523" r="3" fill="white" fill-opacity="0.1"/>
<circle cx="393" cy="523" r="3" fill="white" fill-opacity="0.1"/>
<circle cx="419" cy="523" r="3" fill="white" fill-opacity="0.1"/>
<circle cx="445" cy="523" r="3" fill="white" fill-opacity="0.1"/>
<circle cx="315" cy="549" r="3" fill="white" fill-opacity="0.1"/>
<circle cx="341" cy="549" r="3" fill="white" fill-opacity="0.1"/>
<circle cx="367" cy="549" r="3" fill="white" fill-opacity="0.1"/>
<circle cx="393" cy="549" r="3" fill="white" fill-opacity="0.1"/>
<circle cx="419" cy="549" r="3" fill="white" fill-opacity="0.1"/>
<circle cx="445" cy="549" r="3" fill="white" fill-opacity="0.1"/>
<circle cx="315" cy="575" r="3" fill="white" fill-opacity="0.1"/>
<circle cx="341" cy="575" r="3" fill="white" fill-opacity="0.1"/>
<circle cx="367" cy="575" r="3" fill="white" fill-opacity="0.1"/>
<circle cx="393" cy="575" r="3" fill="white" fill-opacity="0.1"/>
<circle cx="419" cy="575" r="3" fill="white" fill-opacity="0.1"/>
<circle cx="445" cy="575" r="3" fill="white" fill-opacity="0.1"/>
<circle cx="315" cy="601" r="3" fill="white" fill-opacity="0.1"/>
<circle cx="341" cy="601" r="3" fill="white" fill-opacity="0.1"/>
<circle cx="367" cy="601" r="3" fill="white" fill-opacity="0.1"/>
<circle cx="393" cy="601" r="3" fill="white" fill-opacity="0.1"/>
<circle cx="419" cy="601" r="3" fill="white" fill-opacity="0.1"/>
<circle cx="445" cy="601" r="3" fill="white" fill-opacity="0.1"/>
<circle cx="471" cy="471" r="3" fill="white" fill-opacity="0.1"/>
<circle cx="497" cy="471" r="3" fill="white" fill-opacity="0.1"/>
<circle cx="523" cy="471" r="3" fill="white" fill-opacity="0.1"/>
<circle cx="549" cy="471" r="3" fill="white" fill-opacity="0.1"/>
<circle cx="575" cy="471" r="3" fill="white" fill-opacity="0.1"/>
<circle cx="601" cy="471" r="3" fill="white" fill-opacity="0.1"/>
<circle cx="471" cy="497" r="3" fill="white" fill-opacity="0.1"/>
<circle cx="497" cy="497" r="3" fill="white" fill-opacity="0.1"/>
<circle cx="523" cy="497" r="3" fill="white" fill-opacity="0.1"/>
<circle cx="549" cy="497" r="3" fill="white" fill-opacity="0.1"/>
<circle cx="575" cy="497" r="3" fill="white" fill-opacity="0.1"/>
<circle cx="601" cy="497" r="3" fill="white" fill-opacity="0.1"/>
<circle cx="471" cy="523" r="3" fill="white" fill-opacity="0.1"/>
<circle cx="497" cy="523" r="3" fill="white" fill-opacity="0.1"/>
<circle cx="523" cy="523" r="3" fill="white" fill-opacity="0.1"/>
<circle cx="549" cy="523" r="3" fill="white" fill-opacity="0.1"/>
<circle cx="575" cy="523" r="3" fill="white" fill-opacity="0.1"/>
<circle cx="601" cy="523" r="3" fill="white" fill-opacity="0.1"/>
<circle cx="471" cy="549" r="3" fill="white" fill-opacity="0.1"/>
<circle cx="497" cy="549" r="3" fill="white" fill-opacity="0.1"/>
<circle cx="523" cy="549" r="3" fill="white" fill-opacity="0.1"/>
<circle cx="549" cy="549" r="3" fill="white" fill-opacity="0.1"/>
<circle cx="575" cy="549" r="3" fill="white" fill-opacity="0.1"/>
<circle cx="601" cy="549" r="3" fill="white" fill-opacity="0.1"/>
<circle cx="471" cy="575" r="3" fill="white" fill-opacity="0.1"/>
<circle cx="497" cy="575" r="3" fill="white" fill-opacity="0.1"/>
<circle cx="523" cy="575" r="3" fill="white" fill-opacity="0.1"/>
<circle cx="549" cy="575" r="3" fill="white" fill-opacity="0.1"/>
<circle cx="575" cy="575" r="3" fill="white" fill-opacity="0.1"/>
<circle cx="601" cy="575" r="3" fill="white" fill-opacity="0.1"/>
<circle cx="471" cy="601" r="3" fill="white" fill-opacity="0.1"/>
<circle cx="497" cy="601" r="3" fill="white" fill-opacity="0.1"/>
<circle cx="523" cy="601" r="3" fill="white" fill-opacity="0.1"/>
<circle cx="549" cy="601" r="3" fill="white" fill-opacity="0.1"/>
<circle cx="575" cy="601" r="3" fill="white" fill-opacity="0.1"/>
<circle cx="601" cy="601" r="3" fill="white" fill-opacity="0.1"/>
</svg>
