<svg width="50" height="50" viewBox="0 0 50 50" fill="none" xmlns="http://www.w3.org/2000/svg">
<rect width="50" height="50" rx="25" fill="#8034B0"/>
<path d="M24.999 20.377C22.445 20.377 20.376 22.447 20.376 25C20.376 27.554 22.445 29.624 24.999 29.624C27.551 29.624 29.622 27.554 29.622 25C29.622 22.447 27.551 20.377 24.999 20.377ZM24.999 28.004C23.34 28.004 21.995 26.659 21.995 25.001C21.995 23.342 23.34 21.998 24.999 21.998C26.658 21.998 28.001 23.342 28.001 25.001C28.001 26.659 26.658 28.004 24.999 28.004Z" fill="white"/>
<path d="M29.8058 21.2849C30.4011 21.2849 30.8838 20.8023 30.8838 20.2069C30.8838 19.6115 30.4011 19.1289 29.8058 19.1289C29.2104 19.1289 28.7278 19.6115 28.7278 20.2069C28.7278 20.8023 29.2104 21.2849 29.8058 21.2849Z" fill="white"/>
<path d="M33.533 19.111C33.064 17.902 32.109 16.946 30.9 16.479C30.201 16.216 29.462 16.075 28.714 16.059C27.751 16.017 27.446 16.005 25.004 16.005C22.562 16.005 22.249 16.005 21.294 16.059C20.548 16.074 19.809 16.215 19.11 16.479C17.9 16.946 16.945 17.902 16.477 19.111C16.214 19.811 16.073 20.549 16.058 21.297C16.015 22.259 16.002 22.564 16.002 25.007C16.002 27.449 16.002 27.76 16.058 28.717C16.073 29.465 16.214 30.203 16.477 30.904C16.946 32.112 17.901 33.068 19.111 33.536C19.807 33.808 20.546 33.962 21.296 33.986C22.259 34.028 22.564 34.041 25.006 34.041C27.448 34.041 27.761 34.041 28.716 33.986C29.463 33.971 30.202 33.829 30.902 33.567C32.111 33.098 33.066 32.143 33.535 30.934C33.798 30.234 33.939 29.496 33.954 28.748C33.997 27.786 34.01 27.481 34.01 25.038C34.01 22.595 34.01 22.285 33.954 21.328C33.941 20.57 33.801 19.819 33.533 19.111ZM32.315 28.643C32.308 29.219 32.204 29.79 32.004 30.331C31.699 31.118 31.078 31.74 30.292 32.042C29.757 32.241 29.193 32.345 28.622 32.353C27.672 32.397 27.404 32.408 24.968 32.408C22.53 32.408 22.281 32.408 21.313 32.353C20.744 32.346 20.178 32.241 19.644 32.042C18.855 31.741 18.23 31.119 17.925 30.331C17.729 29.797 17.623 29.232 17.614 28.662C17.571 27.712 17.561 27.444 17.561 25.008C17.561 22.571 17.561 22.322 17.614 21.353C17.621 20.777 17.725 20.207 17.925 19.666C18.23 18.877 18.855 18.256 19.644 17.954C20.178 17.756 20.744 17.651 21.313 17.643C22.264 17.6 22.531 17.588 24.968 17.588C27.405 17.588 27.655 17.588 28.622 17.643C29.193 17.65 29.757 17.755 30.292 17.954C31.078 18.257 31.699 18.879 32.004 19.666C32.2 20.2 32.306 20.765 32.315 21.335C32.358 22.286 32.369 22.553 32.369 24.99C32.369 27.426 32.369 27.688 32.326 28.644H32.315V28.643Z" fill="white"/>
</svg>
