<svg width="157" height="49" viewBox="0 0 157 49" fill="none" xmlns="http://www.w3.org/2000/svg">
<g clip-path="url(#clip0_416_3718)">
<path d="M24.0215 46.9628C36.6914 46.9628 46.9624 36.6918 46.9624 24.0218C46.9624 11.3519 36.6914 1.08093 24.0215 1.08093C11.3516 1.08093 1.08057 11.3519 1.08057 24.0218C1.08057 36.6918 11.3516 46.9628 24.0215 46.9628Z" stroke="white" stroke-width="2.16189" stroke-miterlimit="10"/>
<path d="M31.1747 15.1365V18.8117C31.1754 18.9683 31.1451 19.1235 31.0857 19.2684C31.0263 19.4133 30.9388 19.545 30.8283 19.656C30.7178 19.767 30.5865 19.8551 30.4419 19.9151C30.2973 19.9752 30.1422 20.0062 29.9856 20.0062H27.6075C27.4505 20.0069 27.2948 19.9765 27.1496 19.9167C27.0044 19.8569 26.8724 19.769 26.7613 19.6579C26.6503 19.5469 26.5623 19.4149 26.5026 19.2697C26.4428 19.1244 26.4124 18.9688 26.4131 18.8117V15.1365C26.4131 14.8212 26.2878 14.5187 26.0648 14.2957C25.8418 14.0727 25.5394 13.9475 25.224 13.9475H22.846C22.6894 13.9468 22.5342 13.977 22.3893 14.0364C22.2444 14.0959 22.1127 14.1833 22.0017 14.2938C21.8907 14.4043 21.8026 14.5356 21.7425 14.6802C21.6824 14.8248 21.6515 14.9799 21.6515 15.1365V18.8117C21.6522 18.9683 21.622 19.1235 21.5626 19.2684C21.5031 19.4133 21.4157 19.545 21.3052 19.656C21.1947 19.767 21.0634 19.8551 20.9188 19.9151C20.7741 19.9752 20.6191 20.0062 20.4625 20.0062H18.0844C17.9273 20.0069 17.7717 19.9765 17.6265 19.9167C17.4812 19.8569 17.3493 19.769 17.2382 19.6579C17.1271 19.5469 17.0392 19.4149 16.9794 19.2697C16.9196 19.1244 16.8892 18.9688 16.89 18.8117V15.1365C16.89 14.8212 16.7647 14.5187 16.5417 14.2957C16.3187 14.0727 16.0163 13.9475 15.7009 13.9475H13.3228C13.0075 13.9475 12.705 14.0727 12.4821 14.2957C12.2591 14.5187 12.1338 14.8212 12.1338 15.1365V42.572C13.6324 43.4968 15.2332 44.2447 16.904 44.8009V38.6709C16.9039 37.7312 17.0888 36.8008 17.4483 35.9327C17.8079 35.0646 18.3349 34.2758 18.9993 33.6113C19.6637 32.9469 20.4525 32.4199 21.3206 32.0604C22.1887 31.7009 23.1192 31.5159 24.0588 31.5161V31.5161C25.9497 31.5261 27.7597 32.2843 29.0932 33.6251C30.4266 34.9658 31.175 36.7799 31.1747 38.6709V44.8009C32.8455 44.2447 34.4463 43.4968 35.9449 42.572V15.1365C35.9449 14.8212 35.8196 14.5187 35.5966 14.2957C35.3736 14.0727 35.0712 13.9475 34.7558 13.9475H32.3777C32.2204 13.9456 32.0643 13.975 31.9184 14.0339C31.7725 14.0928 31.6398 14.1801 31.5279 14.2907C31.416 14.4013 31.3271 14.533 31.2665 14.6782C31.2059 14.8234 31.1746 14.9792 31.1747 15.1365Z" fill="white"/>
</g>
<path d="M73.0849 21.0308H67.0005V35.0219H63.2634V21.0308H57.1481V17.757H73.0849V21.0308ZM83.2502 35.1454C81.8913 35.1454 80.6559 34.9086 79.544 34.435C78.4321 33.9409 77.4747 33.282 76.6717 32.4584C75.8687 31.6142 75.251 30.667 74.8186 29.6169C74.3862 28.5668 74.17 27.4859 74.17 26.374C74.17 25.2209 74.3965 24.1297 74.8494 23.1001C75.3024 22.05 75.9407 21.1235 76.7643 20.3205C77.5879 19.4969 78.5557 18.8483 79.6675 18.3747C80.7794 17.9011 81.9942 17.6643 83.312 17.6643C84.671 17.6643 85.9064 17.9217 87.0182 18.4365C88.1301 18.9306 89.0772 19.5998 89.8597 20.444C90.6627 21.2676 91.2804 22.2045 91.7128 23.2546C92.1452 24.3047 92.3614 25.3754 92.3614 26.4666C92.3614 27.5991 92.1349 28.6904 91.6819 29.7405C91.2289 30.77 90.5906 31.6965 89.767 32.5201C88.964 33.3438 88.0066 33.9923 86.8947 34.4659C85.8034 34.9189 84.5886 35.1454 83.2502 35.1454ZM77.938 26.4049C77.938 27.1049 78.0615 27.7844 78.3086 28.4433C78.5557 29.0816 78.9057 29.6581 79.3587 30.1729C79.8117 30.6876 80.3676 31.0994 81.0265 31.4083C81.706 31.6965 82.4575 31.8407 83.2811 31.8407C84.1253 31.8407 84.8769 31.6862 85.5357 31.3774C86.1946 31.0479 86.7403 30.6259 87.1727 30.1111C87.6256 29.5758 87.9654 28.9889 88.1919 28.3506C88.439 27.6918 88.5625 27.0329 88.5625 26.374C88.5625 25.6739 88.439 25.0047 88.1919 24.3664C87.9448 23.7281 87.5948 23.1619 87.1418 22.6678C86.6888 22.153 86.1329 21.7515 85.474 21.4632C84.8151 21.1544 84.0738 20.9999 83.2502 20.9999C82.406 20.9999 81.6545 21.1544 80.9956 21.4632C80.3367 21.7721 79.7808 22.1839 79.3278 22.6986C78.8748 23.2134 78.5248 23.8002 78.2777 24.4591C78.0512 25.0974 77.938 25.746 77.938 26.4049ZM101.345 17.8188H104.804L106.935 23.409L109.128 17.8188H112.587L109.313 25.7563L111.568 30.5435L117.127 17.757H121.204L113.421 35.0219H110.27L106.966 28.0727L103.661 35.0219H100.511L92.7277 17.757H96.7736L102.395 30.5435L104.557 25.7563L101.345 17.8188ZM136.671 31.748V35.0219H123.359V17.757H136.424V21.0308H127.096V24.7062H135.157V27.7638H127.096V31.748H136.671ZM139.887 35.0219V17.757H148.381C149.575 17.757 150.625 18.0453 151.531 18.6218C152.458 19.1983 153.178 19.9293 153.693 20.8146C154.208 21.7 154.465 22.6163 154.465 23.5634C154.465 24.2841 154.321 24.9738 154.033 25.6327C153.765 26.271 153.374 26.8476 152.859 27.3623C152.365 27.8771 151.758 28.2786 151.037 28.5668L155.546 35.0219H151.284L147.269 29.3699H143.625V35.0219H139.887ZM143.625 26.096H148.288C148.741 26.096 149.153 25.9931 149.524 25.7872C149.894 25.5607 150.183 25.2518 150.388 24.8606C150.594 24.4694 150.697 24.037 150.697 23.5634C150.697 23.0487 150.574 22.606 150.327 22.2354C150.1 21.8647 149.791 21.5765 149.4 21.3706C149.009 21.1441 148.587 21.0308 148.134 21.0308H143.625V26.096Z" fill="white"/>
<defs>
<clipPath id="clip0_416_3718">
<rect width="48.0437" height="48.0437" fill="white"/>
</clipPath>
</defs>
</svg>
