<svg width="157" height="49" viewBox="0 0 157 49" fill="none" xmlns="http://www.w3.org/2000/svg">
<g clip-path="url(#clip0_402_3438)">
<path d="M24.022 46.9624C36.6919 46.9624 46.9629 36.6914 46.9629 24.0215C46.9629 11.3516 36.6919 1.08057 24.022 1.08057C11.3521 1.08057 1.08105 11.3516 1.08105 24.0215C1.08105 36.6914 11.3521 46.9624 24.022 46.9624Z" stroke="#242D37" stroke-width="2.16189" stroke-miterlimit="10"/>
<path d="M31.1747 15.1369V18.8121C31.1754 18.9687 31.1451 19.1239 31.0857 19.2688C31.0263 19.4137 30.9388 19.5454 30.8283 19.6564C30.7178 19.7673 30.5865 19.8554 30.4419 19.9155C30.2973 19.9756 30.1422 20.0065 29.9856 20.0065H27.6075C27.4505 20.0073 27.2948 19.9768 27.1496 19.9171C27.0044 19.8573 26.8724 19.7693 26.7613 19.6583C26.6503 19.5472 26.5623 19.4153 26.5026 19.27C26.4428 19.1248 26.4124 18.9691 26.4131 18.8121V15.1369C26.4131 14.8215 26.2878 14.5191 26.0648 14.2961C25.8418 14.0731 25.5394 13.9478 25.224 13.9478H22.846C22.6894 13.9471 22.5342 13.9774 22.3893 14.0368C22.2444 14.0962 22.1127 14.1837 22.0017 14.2942C21.8907 14.4047 21.8026 14.536 21.7425 14.6806C21.6824 14.8252 21.6515 14.9803 21.6515 15.1369V18.8121C21.6522 18.9687 21.622 19.1239 21.5626 19.2688C21.5031 19.4137 21.4157 19.5454 21.3052 19.6564C21.1947 19.7673 21.0634 19.8554 20.9188 19.9155C20.7741 19.9756 20.6191 20.0065 20.4625 20.0065H18.0844C17.9273 20.0073 17.7717 19.9768 17.6265 19.9171C17.4812 19.8573 17.3493 19.7693 17.2382 19.6583C17.1271 19.5472 17.0392 19.4153 16.9794 19.27C16.9196 19.1248 16.8892 18.9691 16.89 18.8121V15.1369C16.89 14.8215 16.7647 14.5191 16.5417 14.2961C16.3187 14.0731 16.0163 13.9478 15.7009 13.9478H13.3228C13.0075 13.9478 12.705 14.0731 12.4821 14.2961C12.2591 14.5191 12.1338 14.8215 12.1338 15.1369V42.5724C13.6324 43.4971 15.2332 44.2451 16.904 44.8013V38.6712C16.9039 37.7316 17.0888 36.8012 17.4483 35.933C17.8079 35.0649 18.3349 34.2761 18.9993 33.6117C19.6637 32.9473 20.4525 32.4203 21.3206 32.0608C22.1887 31.7013 23.1192 31.5163 24.0588 31.5164V31.5164C25.9497 31.5264 27.7597 32.2847 29.0932 33.6254C30.4266 34.9662 31.175 36.7803 31.1747 38.6712V44.8013C32.8455 44.2451 34.4463 43.4971 35.9449 42.5724V15.1369C35.9449 14.8215 35.8196 14.5191 35.5966 14.2961C35.3736 14.0731 35.0712 13.9478 34.7558 13.9478H32.3777C32.2204 13.946 32.0643 13.9754 31.9184 14.0343C31.7725 14.0932 31.6398 14.1805 31.5279 14.2911C31.416 14.4017 31.3271 14.5334 31.2665 14.6786C31.2059 14.8238 31.1746 14.9795 31.1747 15.1369Z" fill="#242D37"/>
</g>
<path d="M73.0849 21.031H67.0005V35.022H63.2634V21.031H57.1481V17.7571H73.0849V21.031ZM83.2502 35.1455C81.8913 35.1455 80.6559 34.9087 79.544 34.4352C78.4321 33.941 77.4747 33.2821 76.6717 32.4585C75.8687 31.6143 75.251 30.6672 74.8186 29.6171C74.3862 28.567 74.17 27.486 74.17 26.3741C74.17 25.2211 74.3965 24.1298 74.8494 23.1003C75.3024 22.0502 75.9407 21.1236 76.7643 20.3206C77.5879 19.497 78.5557 18.8484 79.6675 18.3748C80.7794 17.9013 81.9942 17.6645 83.312 17.6645C84.671 17.6645 85.9064 17.9218 87.0182 18.4366C88.1301 18.9308 89.0772 19.5999 89.8597 20.4441C90.6627 21.2677 91.2804 22.2046 91.7128 23.2547C92.1452 24.3048 92.3614 25.3755 92.3614 26.4668C92.3614 27.5992 92.1349 28.6905 91.6819 29.7406C91.2289 30.7701 90.5906 31.6967 89.767 32.5203C88.964 33.3439 88.0066 33.9925 86.8947 34.466C85.8034 34.919 84.5886 35.1455 83.2502 35.1455ZM77.938 26.405C77.938 27.1051 78.0615 27.7845 78.3086 28.4434C78.5557 29.0817 78.9057 29.6582 79.3587 30.173C79.8117 30.6877 80.3676 31.0995 81.0265 31.4084C81.706 31.6967 82.4575 31.8408 83.2811 31.8408C84.1253 31.8408 84.8769 31.6864 85.5357 31.3775C86.1946 31.0481 86.7403 30.626 87.1727 30.1112C87.6256 29.5759 87.9654 28.9891 88.1919 28.3508C88.439 27.6919 88.5625 27.033 88.5625 26.3741C88.5625 25.674 88.439 25.0049 88.1919 24.3666C87.9448 23.7283 87.5948 23.162 87.1418 22.6679C86.6888 22.1531 86.1329 21.7516 85.474 21.4633C84.8151 21.1545 84.0738 21.0001 83.2502 21.0001C82.406 21.0001 81.6545 21.1545 80.9956 21.4633C80.3367 21.7722 79.7808 22.184 79.3278 22.6988C78.8748 23.2135 78.5248 23.8003 78.2777 24.4592C78.0512 25.0975 77.938 25.7461 77.938 26.405ZM101.345 17.8189H104.804L106.935 23.4091L109.128 17.8189H112.587L109.313 25.7564L111.568 30.5436L117.127 17.7571H121.204L113.421 35.022H110.27L106.966 28.0728L103.661 35.022H100.511L92.7277 17.7571H96.7736L102.395 30.5436L104.557 25.7564L101.345 17.8189ZM136.671 31.7481V35.022H123.359V17.7571H136.424V21.031H127.096V24.7063H135.157V27.7639H127.096V31.7481H136.671ZM139.887 35.022V17.7571H148.381C149.575 17.7571 150.625 18.0454 151.531 18.6219C152.458 19.1984 153.178 19.9294 153.693 20.8148C154.208 21.7001 154.465 22.6164 154.465 23.5635C154.465 24.2842 154.321 24.974 154.033 25.6329C153.765 26.2712 153.374 26.8477 152.859 27.3624C152.365 27.8772 151.758 28.2787 151.037 28.567L155.546 35.022H151.284L147.269 29.37H143.625V35.022H139.887ZM143.625 26.0961H148.288C148.741 26.0961 149.153 25.9932 149.524 25.7873C149.894 25.5608 150.183 25.2519 150.388 24.8607C150.594 24.4695 150.697 24.0371 150.697 23.5635C150.697 23.0488 150.574 22.6061 150.327 22.2355C150.1 21.8649 149.791 21.5766 149.4 21.3707C149.009 21.1442 148.587 21.031 148.134 21.031H143.625V26.0961Z" fill="#242D37"/>
<defs>
<clipPath id="clip0_402_3438">
<rect width="48.0437" height="48.0437" fill="white"/>
</clipPath>
</defs>
</svg>
