<svg width="166" height="41" viewBox="0 0 166 41" fill="none" xmlns="http://www.w3.org/2000/svg">
<rect y="14.25" width="23.75" height="23.75" fill="#4250E8"/>
<rect x="14.25" width="23.75" height="23.75" fill="#34C4FF"/>
<g filter="url(#filter0_d_198_3315)">
<rect x="14" y="14" width="10" height="10" fill="#A6EBFF"/>
</g>
<path d="M51.1378 19V5.90909H56.3026C57.2955 5.90909 58.1413 6.09872 58.8402 6.47798C59.5391 6.85298 60.0717 7.375 60.4382 8.04403C60.8089 8.70881 60.9943 9.47585 60.9943 10.3452C60.9943 11.2145 60.8068 11.9815 60.4318 12.6463C60.0568 13.3111 59.5135 13.8288 58.8018 14.1996C58.0945 14.5703 57.2379 14.7557 56.2322 14.7557H52.9403V12.5376H55.7848C56.3175 12.5376 56.7564 12.446 57.1016 12.2628C57.451 12.0753 57.7109 11.8175 57.8814 11.4893C58.0561 11.157 58.1435 10.7756 58.1435 10.3452C58.1435 9.91051 58.0561 9.53125 57.8814 9.20739C57.7109 8.87926 57.451 8.62571 57.1016 8.44673C56.7521 8.26349 56.3089 8.17188 55.772 8.17188H53.9055V19H51.1378ZM62.7409 19V9.18182H65.464V19H62.7409ZM64.1088 7.91619C63.704 7.91619 63.3567 7.78196 63.0669 7.51349C62.7814 7.24077 62.6387 6.91477 62.6387 6.53551C62.6387 6.16051 62.7814 5.83878 63.0669 5.57031C63.3567 5.29758 63.704 5.16122 64.1088 5.16122C64.5137 5.16122 64.8588 5.29758 65.1444 5.57031C65.4341 5.83878 65.579 6.16051 65.579 6.53551C65.579 6.91477 65.4341 7.24077 65.1444 7.51349C64.8588 7.78196 64.5137 7.91619 64.1088 7.91619ZM69.9208 9.18182L71.7234 12.6143L73.5707 9.18182H76.364L73.5195 14.0909L76.4407 19H73.6602L71.7234 15.6058L69.8185 19H67.006L69.9208 14.0909L67.1083 9.18182H69.9208ZM82.104 19.1918C81.0941 19.1918 80.2248 18.9872 79.4961 18.5781C78.7717 18.1648 78.2134 17.581 77.8214 16.8267C77.4293 16.0682 77.2333 15.1712 77.2333 14.1357C77.2333 13.1257 77.4293 12.2393 77.8214 11.4766C78.2134 10.7138 78.7653 10.1193 79.4769 9.69318C80.1928 9.26705 81.0323 9.05398 81.9954 9.05398C82.6431 9.05398 83.2461 9.15838 83.8043 9.36719C84.3668 9.57173 84.8569 9.88068 85.2745 10.294C85.6964 10.7074 86.0245 11.2273 86.2589 11.8537C86.4933 12.4759 86.6104 13.2045 86.6104 14.0398V14.7876H78.32V13.1001H84.0472C84.0472 12.7081 83.962 12.3608 83.7915 12.0582C83.6211 11.7557 83.3846 11.5192 83.082 11.3487C82.7837 11.174 82.4364 11.0866 82.0401 11.0866C81.6268 11.0866 81.2603 11.1825 80.9407 11.3743C80.6254 11.5618 80.3782 11.8153 80.1992 12.1349C80.0202 12.4503 79.9286 12.8018 79.9244 13.1896V14.794C79.9244 15.2798 80.0138 15.6996 80.1928 16.0533C80.3761 16.407 80.6339 16.6797 80.9663 16.8714C81.2987 17.0632 81.6928 17.1591 82.1488 17.1591C82.4513 17.1591 82.7283 17.1165 82.9798 17.0312C83.2312 16.946 83.4464 16.8182 83.6254 16.6477C83.8043 16.4773 83.9407 16.2685 84.0344 16.0213L86.5529 16.1875C86.4251 16.7926 86.163 17.321 85.7667 17.7727C85.3746 18.2202 84.8675 18.5696 84.2454 18.821C83.6275 19.0682 82.9137 19.1918 82.104 19.1918ZM91.1104 5.90909V19H88.3874V5.90909H91.1104ZM96.0914 19.1854C95.465 19.1854 94.9068 19.0767 94.4167 18.8594C93.9267 18.6378 93.5389 18.3118 93.2534 17.8814C92.9721 17.4467 92.8315 16.9055 92.8315 16.2578C92.8315 15.7124 92.9316 15.2543 93.1319 14.8835C93.3322 14.5128 93.6049 14.2145 93.9501 13.9886C94.2953 13.7628 94.6873 13.5923 95.1262 13.4773C95.5694 13.3622 96.0339 13.2812 96.5197 13.2344C97.0907 13.1747 97.551 13.1193 97.9004 13.0682C98.2498 13.0128 98.5034 12.9318 98.661 12.8253C98.8187 12.7187 98.8976 12.5611 98.8976 12.3523V12.3139C98.8976 11.9091 98.7697 11.5959 98.514 11.3743C98.2626 11.1527 97.9047 11.0419 97.4402 11.0419C96.9501 11.0419 96.5602 11.1506 96.2704 11.3679C95.9806 11.581 95.7889 11.8494 95.6951 12.1733L93.1767 11.9688C93.3045 11.3722 93.5559 10.8565 93.9309 10.4219C94.3059 9.98295 94.7896 9.64631 95.3819 9.41193C95.9785 9.1733 96.6689 9.05398 97.4529 9.05398C97.9984 9.05398 98.5204 9.1179 99.019 9.24574C99.5218 9.37358 99.9672 9.57173 100.355 9.8402C100.747 10.1087 101.056 10.4538 101.282 10.8757C101.508 11.2933 101.621 11.794 101.621 12.3778V19H99.0382V17.6385H98.9615C98.8038 17.9453 98.5929 18.2159 98.3287 18.4503C98.0645 18.6804 97.747 18.8615 97.3762 18.9936C97.0055 19.1214 96.5772 19.1854 96.0914 19.1854ZM96.8713 17.3061C97.2718 17.3061 97.6255 17.2273 97.9324 17.0696C98.2392 16.9077 98.4799 16.6903 98.6547 16.4176C98.8294 16.1449 98.9167 15.8359 98.9167 15.4908V14.4489C98.8315 14.5043 98.7143 14.5554 98.5652 14.6023C98.4203 14.6449 98.2562 14.6854 98.073 14.7237C97.8897 14.7578 97.7065 14.7898 97.5233 14.8196C97.34 14.8452 97.1738 14.8686 97.0247 14.8899C96.7051 14.9368 96.426 15.0114 96.1873 15.1136C95.9487 15.2159 95.7633 15.3544 95.6312 15.5291C95.4991 15.6996 95.4331 15.9126 95.4331 16.1683C95.4331 16.5391 95.5673 16.8224 95.8358 17.0185C96.1085 17.2102 96.4537 17.3061 96.8713 17.3061ZM107.351 19.1598C106.605 19.1598 105.93 18.968 105.325 18.5845C104.724 18.1967 104.247 17.6278 103.893 16.8778C103.544 16.1236 103.369 15.1989 103.369 14.1037C103.369 12.9787 103.55 12.0433 103.912 11.2976C104.274 10.5476 104.756 9.98722 105.357 9.61648C105.962 9.24148 106.624 9.05398 107.345 9.05398C107.894 9.05398 108.352 9.14773 108.719 9.33523C109.09 9.51847 109.388 9.74858 109.614 10.0256C109.844 10.2983 110.019 10.5668 110.138 10.831H110.221V5.90909H112.938V19H110.253V17.4276H110.138C110.01 17.7003 109.829 17.9709 109.595 18.2393C109.365 18.5036 109.064 18.723 108.693 18.8977C108.327 19.0724 107.879 19.1598 107.351 19.1598ZM108.214 16.9929C108.653 16.9929 109.024 16.8736 109.326 16.6349C109.633 16.392 109.867 16.0533 110.029 15.6186C110.195 15.1839 110.279 14.6747 110.279 14.0909C110.279 13.5071 110.198 13 110.036 12.5696C109.874 12.1392 109.639 11.8068 109.333 11.5724C109.026 11.3381 108.653 11.2209 108.214 11.2209C107.767 11.2209 107.389 11.3423 107.083 11.5852C106.776 11.8281 106.544 12.1648 106.386 12.5952C106.228 13.0256 106.149 13.5241 106.149 14.0909C106.149 14.6619 106.228 15.1669 106.386 15.6058C106.548 16.0405 106.78 16.3814 107.083 16.6286C107.389 16.8714 107.767 16.9929 108.214 16.9929ZM123.346 11.9815L120.853 12.1349C120.81 11.9219 120.718 11.7301 120.578 11.5597C120.437 11.3849 120.252 11.2464 120.022 11.1442C119.796 11.0376 119.525 10.9844 119.21 10.9844C118.788 10.9844 118.432 11.0739 118.142 11.2528C117.853 11.4276 117.708 11.6619 117.708 11.956C117.708 12.1903 117.801 12.3885 117.989 12.5504C118.176 12.7124 118.498 12.8423 118.954 12.9403L120.731 13.2983C121.686 13.4943 122.397 13.8097 122.866 14.2443C123.335 14.679 123.569 15.25 123.569 15.9574C123.569 16.6009 123.38 17.1655 123 17.6513C122.625 18.1371 122.11 18.5163 121.453 18.7891C120.801 19.0575 120.049 19.1918 119.197 19.1918C117.897 19.1918 116.862 18.9212 116.091 18.38C115.324 17.8345 114.874 17.093 114.742 16.1555L117.42 16.0149C117.501 16.4112 117.697 16.7138 118.008 16.9226C118.319 17.1271 118.718 17.2294 119.203 17.2294C119.681 17.2294 120.064 17.1378 120.354 16.9545C120.648 16.767 120.797 16.5263 120.801 16.2322C120.797 15.9851 120.693 15.7827 120.488 15.625C120.284 15.4631 119.968 15.3395 119.542 15.2543L117.842 14.9155C116.883 14.7237 116.169 14.3913 115.701 13.9183C115.236 13.4453 115.004 12.8423 115.004 12.1094C115.004 11.4787 115.174 10.9354 115.515 10.4794C115.86 10.0234 116.344 9.67188 116.966 9.42472C117.593 9.17756 118.326 9.05398 119.165 9.05398C120.405 9.05398 121.381 9.31605 122.093 9.8402C122.809 10.3643 123.226 11.0781 123.346 11.9815ZM126.876 19.1662C126.454 19.1662 126.091 19.017 125.789 18.7188C125.491 18.4162 125.341 18.054 125.341 17.6321C125.341 17.2145 125.491 16.8565 125.789 16.5582C126.091 16.2599 126.454 16.1108 126.876 16.1108C127.285 16.1108 127.643 16.2599 127.949 16.5582C128.256 16.8565 128.41 17.2145 128.41 17.6321C128.41 17.9134 128.337 18.1712 128.192 18.4055C128.052 18.6357 127.866 18.821 127.636 18.9616C127.406 19.098 127.153 19.1662 126.876 19.1662ZM135.925 9.18182V11.2273H129.865V9.18182H135.925ZM131.252 19V8.4723C131.252 7.76065 131.391 7.17045 131.668 6.7017C131.949 6.23295 132.333 5.88139 132.819 5.64702C133.304 5.41264 133.856 5.29545 134.474 5.29545C134.892 5.29545 135.273 5.32741 135.618 5.39134C135.968 5.45526 136.228 5.51278 136.398 5.56392L135.912 7.60938C135.806 7.57528 135.674 7.54332 135.516 7.51349C135.363 7.48366 135.205 7.46875 135.043 7.46875C134.642 7.46875 134.363 7.5625 134.206 7.75C134.048 7.93324 133.969 8.19105 133.969 8.52344V19H131.252ZM137.589 19V9.18182H140.229V10.8949H140.331C140.51 10.2855 140.81 9.82528 141.232 9.5142C141.654 9.19886 142.14 9.04119 142.689 9.04119C142.826 9.04119 142.973 9.04972 143.131 9.06676C143.288 9.08381 143.427 9.10724 143.546 9.13707V11.5533C143.418 11.5149 143.241 11.4808 143.015 11.451C142.79 11.4212 142.583 11.4062 142.395 11.4062C141.995 11.4062 141.637 11.4936 141.322 11.6683C141.01 11.8388 140.763 12.0774 140.58 12.3842C140.401 12.6911 140.312 13.0447 140.312 13.4453V19H137.589Z" fill="white"/>
<path d="M50.6761 28.9119V27.8182H58.3125V28.9119H55.1108V38H53.8778V28.9119H50.6761ZM59.2633 38V30.3636H60.3968V31.517H60.4764C60.6156 31.1392 60.8675 30.8326 61.2321 30.5973C61.5967 30.362 62.0076 30.2443 62.465 30.2443C62.5512 30.2443 62.6589 30.246 62.7882 30.2493C62.9174 30.2526 63.0152 30.2576 63.0815 30.2642V31.4574C63.0417 31.4474 62.9506 31.4325 62.8081 31.4126C62.6689 31.3894 62.5214 31.3778 62.3656 31.3778C61.9944 31.3778 61.6629 31.4557 61.3713 31.6115C61.0829 31.764 60.8542 31.9761 60.6852 32.2479C60.5195 32.5163 60.4366 32.8229 60.4366 33.1676V38H59.2633ZM67.3422 38.1591C66.6528 38.1591 66.0479 37.995 65.5275 37.6669C65.0105 37.3388 64.6061 36.8797 64.3145 36.2898C64.0261 35.6998 63.8819 35.0104 63.8819 34.2216C63.8819 33.4261 64.0261 32.7318 64.3145 32.1385C64.6061 31.5452 65.0105 31.0845 65.5275 30.7564C66.0479 30.4283 66.6528 30.2642 67.3422 30.2642C68.0315 30.2642 68.6348 30.4283 69.1518 30.7564C69.6722 31.0845 70.0765 31.5452 70.3649 32.1385C70.6565 32.7318 70.8024 33.4261 70.8024 34.2216C70.8024 35.0104 70.6565 35.6998 70.3649 36.2898C70.0765 36.8797 69.6722 37.3388 69.1518 37.6669C68.6348 37.995 68.0315 38.1591 67.3422 38.1591ZM67.3422 37.1051C67.8658 37.1051 68.2967 36.9709 68.6348 36.7024C68.9728 36.4339 69.2231 36.081 69.3855 35.6435C69.5479 35.206 69.6291 34.732 69.6291 34.2216C69.6291 33.7112 69.5479 33.2356 69.3855 32.7947C69.2231 32.3539 68.9728 31.9976 68.6348 31.7259C68.2967 31.4541 67.8658 31.3182 67.3422 31.3182C66.8185 31.3182 66.3876 31.4541 66.0495 31.7259C65.7115 31.9976 65.4612 32.3539 65.2988 32.7947C65.1364 33.2356 65.0552 33.7112 65.0552 34.2216C65.0552 34.732 65.1364 35.206 65.2988 35.6435C65.4612 36.081 65.7115 36.4339 66.0495 36.7024C66.3876 36.9709 66.8185 37.1051 67.3422 37.1051ZM77.4059 34.8778V30.3636H78.5792V38H77.4059V36.7074H77.3263C77.1474 37.0952 76.869 37.425 76.4911 37.6967C76.1133 37.9652 75.636 38.0994 75.0593 38.0994C74.582 38.0994 74.1578 37.995 73.7866 37.7862C73.4154 37.5741 73.1237 37.2559 72.9116 36.8317C72.6995 36.4041 72.5934 35.8655 72.5934 35.2159V30.3636H73.7667V35.1364C73.7667 35.6932 73.9225 36.1373 74.234 36.4688C74.5489 36.8002 74.9499 36.9659 75.4371 36.9659C75.7288 36.9659 76.0255 36.8913 76.3271 36.7422C76.632 36.593 76.8872 36.3643 77.0927 36.0561C77.3015 35.7479 77.4059 35.3551 77.4059 34.8778ZM86.9725 30.3636L84.1486 38H82.9554L80.1316 30.3636H81.4043L83.5123 36.4489H83.5918L85.6998 30.3636H86.9725ZM91.4494 38.1591C90.7136 38.1591 90.0789 37.9967 89.5453 37.6719C89.015 37.3438 88.6056 36.8864 88.3173 36.2997C88.0323 35.7098 87.8897 35.0237 87.8897 34.2415C87.8897 33.4593 88.0323 32.7699 88.3173 32.1733C88.6056 31.5734 89.0067 31.1061 89.5204 30.7713C90.0375 30.4332 90.6407 30.2642 91.3301 30.2642C91.7278 30.2642 92.1206 30.3305 92.5083 30.4631C92.8961 30.5956 93.2491 30.8111 93.5673 31.1094C93.8855 31.4044 94.139 31.7955 94.3279 32.2827C94.5169 32.7699 94.6113 33.3698 94.6113 34.0824V34.5795H88.725V33.5653H93.4181C93.4181 33.1345 93.332 32.75 93.1596 32.4119C92.9906 32.0739 92.7486 31.8071 92.4338 31.6115C92.1222 31.416 91.7543 31.3182 91.3301 31.3182C90.8627 31.3182 90.4584 31.4342 90.117 31.6662C89.7789 31.8949 89.5188 32.1932 89.3365 32.5611C89.1542 32.929 89.063 33.3234 89.063 33.7443V34.4205C89.063 34.9972 89.1625 35.486 89.3613 35.8871C89.5635 36.2848 89.8436 36.5881 90.2015 36.7969C90.5595 37.0024 90.9754 37.1051 91.4494 37.1051C91.7576 37.1051 92.036 37.062 92.2846 36.9759C92.5365 36.8864 92.7536 36.7538 92.9359 36.5781C93.1182 36.3991 93.2591 36.1771 93.3585 35.9119L94.492 36.2301C94.3727 36.6146 94.1722 36.9527 93.8904 37.2443C93.6087 37.5327 93.2607 37.758 92.8464 37.9205C92.4321 38.0795 91.9664 38.1591 91.4494 38.1591ZM96.1774 38V37.1051L100.513 31.5369V31.4574H96.3166V30.3636H102.024V31.2983L97.8081 36.8267V36.9062H102.163V38H96.1774ZM112.72 34.8778V30.3636H113.894V38H112.72V36.7074H112.641C112.462 37.0952 112.183 37.425 111.806 37.6967C111.428 37.9652 110.95 38.0994 110.374 38.0994C109.896 38.0994 109.472 37.995 109.101 37.7862C108.73 37.5741 108.438 37.2559 108.226 36.8317C108.014 36.4041 107.908 35.8655 107.908 35.2159V30.3636H109.081V35.1364C109.081 35.6932 109.237 36.1373 109.548 36.4688C109.863 36.8002 110.264 36.9659 110.752 36.9659C111.043 36.9659 111.34 36.8913 111.642 36.7422C111.946 36.593 112.202 36.3643 112.407 36.0561C112.616 35.7479 112.72 35.3551 112.72 34.8778ZM117.216 33.4062V38H116.043V30.3636H117.176V31.5568H117.276C117.455 31.169 117.726 30.8575 118.091 30.6222C118.455 30.3835 118.926 30.2642 119.503 30.2642C120.02 30.2642 120.472 30.3703 120.86 30.5824C121.248 30.7912 121.549 31.1094 121.765 31.5369C121.98 31.9612 122.088 32.4981 122.088 33.1477V38H120.915V33.2273C120.915 32.6274 120.759 32.16 120.447 31.8253C120.136 31.4872 119.708 31.3182 119.165 31.3182C118.79 31.3182 118.455 31.3994 118.161 31.5618C117.869 31.7242 117.638 31.9612 117.469 32.2727C117.3 32.5843 117.216 32.9621 117.216 33.4062ZM128.17 40.8636V30.3636H129.303V31.5767H129.442C129.528 31.4441 129.648 31.2751 129.8 31.0696C129.956 30.8608 130.178 30.6752 130.466 30.5128C130.758 30.3471 131.153 30.2642 131.65 30.2642C132.293 30.2642 132.859 30.425 133.35 30.7464C133.84 31.0679 134.223 31.5237 134.498 32.1136C134.773 32.7036 134.911 33.3996 134.911 34.2017C134.911 35.0104 134.773 35.7114 134.498 36.3047C134.223 36.8946 133.842 37.352 133.355 37.6768C132.868 37.9983 132.306 38.1591 131.67 38.1591C131.179 38.1591 130.786 38.0779 130.491 37.9155C130.196 37.7498 129.969 37.5625 129.81 37.3537C129.651 37.1416 129.528 36.9659 129.442 36.8267H129.343V40.8636H128.17ZM129.323 34.1818C129.323 34.7585 129.407 35.2673 129.577 35.7081C129.746 36.1456 129.992 36.4886 130.317 36.7372C130.642 36.9825 131.04 37.1051 131.51 37.1051C132.001 37.1051 132.41 36.9759 132.738 36.7173C133.07 36.4555 133.318 36.1042 133.484 35.6634C133.653 35.2192 133.738 34.7254 133.738 34.1818C133.738 33.6449 133.655 33.161 133.489 32.7301C133.327 32.2959 133.08 31.9529 132.748 31.701C132.42 31.4458 132.008 31.3182 131.51 31.3182C131.033 31.3182 130.632 31.4392 130.307 31.6811C129.983 31.9197 129.737 32.2545 129.572 32.6854C129.406 33.1129 129.323 33.6117 129.323 34.1818ZM136.701 38V30.3636H137.834V31.517H137.914C138.053 31.1392 138.305 30.8326 138.67 30.5973C139.034 30.362 139.445 30.2443 139.903 30.2443C139.989 30.2443 140.096 30.246 140.226 30.2493C140.355 30.2526 140.453 30.2576 140.519 30.2642V31.4574C140.479 31.4474 140.388 31.4325 140.246 31.4126C140.106 31.3894 139.959 31.3778 139.803 31.3778C139.432 31.3778 139.1 31.4557 138.809 31.6115C138.52 31.764 138.292 31.9761 138.123 32.2479C137.957 32.5163 137.874 32.8229 137.874 33.1676V38H136.701ZM144.78 38.1591C144.09 38.1591 143.485 37.995 142.965 37.6669C142.448 37.3388 142.044 36.8797 141.752 36.2898C141.464 35.6998 141.319 35.0104 141.319 34.2216C141.319 33.4261 141.464 32.7318 141.752 32.1385C142.044 31.5452 142.448 31.0845 142.965 30.7564C143.485 30.4283 144.09 30.2642 144.78 30.2642C145.469 30.2642 146.072 30.4283 146.589 30.7564C147.11 31.0845 147.514 31.5452 147.802 32.1385C148.094 32.7318 148.24 33.4261 148.24 34.2216C148.24 35.0104 148.094 35.6998 147.802 36.2898C147.514 36.8797 147.11 37.3388 146.589 37.6669C146.072 37.995 145.469 38.1591 144.78 38.1591ZM144.78 37.1051C145.303 37.1051 145.734 36.9709 146.072 36.7024C146.41 36.4339 146.661 36.081 146.823 35.6435C146.985 35.206 147.067 34.732 147.067 34.2216C147.067 33.7112 146.985 33.2356 146.823 32.7947C146.661 32.3539 146.41 31.9976 146.072 31.7259C145.734 31.4541 145.303 31.3182 144.78 31.3182C144.256 31.3182 143.825 31.4541 143.487 31.7259C143.149 31.9976 142.899 32.3539 142.736 32.7947C142.574 33.2356 142.493 33.7112 142.493 34.2216C142.493 34.732 142.574 35.206 142.736 35.6435C142.899 36.081 143.149 36.4339 143.487 36.7024C143.825 36.9709 144.256 37.1051 144.78 37.1051ZM150.031 30.3636H151.204V38.5568C151.204 39.0275 151.123 39.4351 150.961 39.7798C150.801 40.1245 150.56 40.3913 150.235 40.5803C149.913 40.7692 149.507 40.8636 149.017 40.8636C148.977 40.8636 148.937 40.8636 148.897 40.8636C148.858 40.8636 148.818 40.8636 148.778 40.8636V39.7699C148.818 39.7699 148.854 39.7699 148.887 39.7699C148.921 39.7699 148.957 39.7699 148.997 39.7699C149.355 39.7699 149.617 39.6638 149.782 39.4517C149.948 39.2429 150.031 38.9446 150.031 38.5568V30.3636ZM150.608 29.0909C150.379 29.0909 150.182 29.013 150.016 28.8572C149.854 28.7015 149.772 28.5142 149.772 28.2955C149.772 28.0767 149.854 27.8894 150.016 27.7337C150.182 27.5779 150.379 27.5 150.608 27.5C150.836 27.5 151.032 27.5779 151.194 27.7337C151.36 27.8894 151.443 28.0767 151.443 28.2955C151.443 28.5142 151.36 28.7015 151.194 28.8572C151.032 29.013 150.836 29.0909 150.608 29.0909ZM156.555 38.1591C155.819 38.1591 155.184 37.9967 154.651 37.6719C154.12 37.3438 153.711 36.8864 153.423 36.2997C153.138 35.7098 152.995 35.0237 152.995 34.2415C152.995 33.4593 153.138 32.7699 153.423 32.1733C153.711 31.5734 154.112 31.1061 154.626 30.7713C155.143 30.4332 155.746 30.2642 156.436 30.2642C156.833 30.2642 157.226 30.3305 157.614 30.4631C158.002 30.5956 158.355 30.8111 158.673 31.1094C158.991 31.4044 159.244 31.7955 159.433 32.2827C159.622 32.7699 159.717 33.3698 159.717 34.0824V34.5795H153.83V33.5653H158.524C158.524 33.1345 158.437 32.75 158.265 32.4119C158.096 32.0739 157.854 31.8071 157.539 31.6115C157.228 31.416 156.86 31.3182 156.436 31.3182C155.968 31.3182 155.564 31.4342 155.222 31.6662C154.884 31.8949 154.624 32.1932 154.442 32.5611C154.26 32.929 154.169 33.3234 154.169 33.7443V34.4205C154.169 34.9972 154.268 35.486 154.467 35.8871C154.669 36.2848 154.949 36.5881 155.307 36.7969C155.665 37.0024 156.081 37.1051 156.555 37.1051C156.863 37.1051 157.142 37.062 157.39 36.9759C157.642 36.8864 157.859 36.7538 158.041 36.5781C158.224 36.3991 158.365 36.1771 158.464 35.9119L159.597 36.2301C159.478 36.6146 159.278 36.9527 158.996 37.2443C158.714 37.5327 158.366 37.758 157.952 37.9205C157.538 38.0795 157.072 38.1591 156.555 38.1591ZM164.823 30.3636V31.358H160.865V30.3636H164.823ZM162.019 28.5341H163.192V35.8125C163.192 36.1439 163.24 36.3925 163.336 36.5582C163.436 36.7206 163.561 36.83 163.714 36.8864C163.87 36.9394 164.034 36.9659 164.206 36.9659C164.335 36.9659 164.441 36.9593 164.524 36.946C164.607 36.9295 164.673 36.9162 164.723 36.9062L164.962 37.9602C164.882 37.9901 164.771 38.0199 164.629 38.0497C164.486 38.0829 164.306 38.0994 164.087 38.0994C163.755 38.0994 163.431 38.0282 163.112 37.8857C162.798 37.7431 162.536 37.526 162.327 37.2344C162.121 36.9427 162.019 36.5748 162.019 36.1307V28.5341Z" fill="white" fill-opacity="0.7"/>
<defs>
<filter id="filter0_d_198_3315" x="8" y="12" width="18" height="18" filterUnits="userSpaceOnUse" color-interpolation-filters="sRGB">
<feFlood flood-opacity="0" result="BackgroundImageFix"/>
<feColorMatrix in="SourceAlpha" type="matrix" values="0 0 0 0 0 0 0 0 0 0 0 0 0 0 0 0 0 0 127 0" result="hardAlpha"/>
<feOffset dx="-2" dy="2"/>
<feGaussianBlur stdDeviation="2"/>
<feComposite in2="hardAlpha" operator="out"/>
<feColorMatrix type="matrix" values="0 0 0 0 0.1525 0 0 0 0 0.190241 0 0 0 0 0.6 0 0 0 1 0"/>
<feBlend mode="normal" in2="BackgroundImageFix" result="effect1_dropShadow_198_3315"/>
<feBlend mode="normal" in="SourceGraphic" in2="effect1_dropShadow_198_3315" result="shape"/>
</filter>
</defs>
</svg>
