<svg width="166" height="41" viewBox="0 0 166 41" fill="none" xmlns="http://www.w3.org/2000/svg">
<rect y="14.25" width="23.75" height="23.75" fill="#4250E8"/>
<rect x="14.25" width="23.75" height="23.75" fill="#34C4FF"/>
<g filter="url(#filter0_d_198_3295)">
<rect x="14" y="14" width="10" height="10" fill="#A6EBFF"/>
</g>
<path d="M51.1378 19H53.9055V14.7557H56.2322C59.2429 14.7557 60.9943 12.9595 60.9943 10.3452C60.9943 7.74361 59.2749 5.90909 56.3026 5.90909H51.1378V19ZM53.9055 12.5376V8.17188H55.772C57.37 8.17188 58.1435 9.04119 58.1435 10.3452C58.1435 11.6428 57.37 12.5376 55.7848 12.5376H53.9055ZM62.7409 19H65.464V9.18182H62.7409V19ZM64.1088 7.91619C64.9206 7.91619 65.5854 7.29616 65.5854 6.53551C65.5854 5.78125 64.9206 5.16122 64.1088 5.16122C63.3034 5.16122 62.6387 5.78125 62.6387 6.53551C62.6387 7.29616 63.3034 7.91619 64.1088 7.91619ZM69.9208 9.18182H67.1083L69.9208 14.0909L67.006 19H69.8185L71.7234 15.6058L73.6602 19H76.4407L73.5195 14.0909L76.364 9.18182H73.5707L71.7234 12.6143L69.9208 9.18182ZM82.0865 19.1918C84.5154 19.1918 86.1518 18.0092 86.5353 16.1875L84.0169 16.0213C83.742 16.7692 83.0389 17.1591 82.1312 17.1591C80.7697 17.1591 79.9068 16.2578 79.9068 14.794V14.7876H86.5929V14.0398C86.5929 10.7031 84.573 9.05398 81.9778 9.05398C79.0886 9.05398 77.2157 11.1058 77.2157 14.1357C77.2157 17.2486 79.063 19.1918 82.0865 19.1918ZM79.9068 13.1001C79.9643 11.9815 80.8145 11.0866 82.0226 11.0866C83.2051 11.0866 84.0233 11.9304 84.0297 13.1001H79.9068ZM91.0929 5.90909H88.3699V19H91.0929V5.90909ZM96.0739 19.1854C97.5249 19.1854 98.4645 18.5526 98.9439 17.6385H99.0206V19H101.603V12.3778C101.603 10.0384 99.6214 9.05398 97.4354 9.05398C95.0831 9.05398 93.5362 10.179 93.1591 11.9688L95.6776 12.1733C95.8629 11.5213 96.4446 11.0419 97.4226 11.0419C98.3494 11.0419 98.88 11.5085 98.88 12.3139V12.3523C98.88 12.9851 98.2088 13.0682 96.5021 13.2344C94.5589 13.4134 92.8139 14.0653 92.8139 16.2578C92.8139 18.201 94.201 19.1854 96.0739 19.1854ZM96.8537 17.3061C96.0163 17.3061 95.4155 16.9162 95.4155 16.1683C95.4155 15.4013 96.0483 15.0241 97.0071 14.8899C97.6016 14.8068 98.5732 14.6662 98.8991 14.4489V15.4908C98.8991 16.5199 98.049 17.3061 96.8537 17.3061ZM107.333 19.1598C108.919 19.1598 109.743 18.2457 110.12 17.4276H110.235V19H112.92V5.90909H110.203V10.831H110.12C109.756 10.032 108.97 9.05398 107.327 9.05398C105.173 9.05398 103.351 10.7287 103.351 14.1037C103.351 17.3892 105.096 19.1598 107.333 19.1598ZM108.196 16.9929C106.86 16.9929 106.132 15.804 106.132 14.0909C106.132 12.3906 106.848 11.2209 108.196 11.2209C109.52 11.2209 110.261 12.3395 110.261 14.0909C110.261 15.8423 109.507 16.9929 108.196 16.9929ZM123.328 11.9815C123.085 10.1726 121.628 9.05398 119.148 9.05398C116.635 9.05398 114.98 10.2173 114.986 12.1094C114.98 13.5795 115.907 14.532 117.824 14.9155L119.525 15.2543C120.381 15.4268 120.771 15.7401 120.784 16.2322C120.771 16.8139 120.138 17.2294 119.186 17.2294C118.214 17.2294 117.569 16.8139 117.403 16.0149L114.724 16.1555C114.98 18.0348 116.578 19.1918 119.18 19.1918C121.724 19.1918 123.545 17.8942 123.552 15.9574C123.545 14.5384 122.618 13.6882 120.714 13.2983L118.937 12.9403C118.023 12.7422 117.684 12.429 117.69 11.956C117.684 11.3679 118.349 10.9844 119.192 10.9844C120.138 10.9844 120.701 11.5021 120.835 12.1349L123.328 11.9815ZM126.858 19.1662C127.676 19.1662 128.386 18.4822 128.392 17.6321C128.386 16.7947 127.676 16.1108 126.858 16.1108C126.014 16.1108 125.317 16.7947 125.324 17.6321C125.317 18.4822 126.014 19.1662 126.858 19.1662ZM135.907 9.18182H133.958V8.52344C133.958 7.85866 134.226 7.46875 135.025 7.46875C135.351 7.46875 135.684 7.53906 135.901 7.60938L136.381 5.56392C136.042 5.46165 135.294 5.29545 134.456 5.29545C132.609 5.29545 131.235 6.33736 131.235 8.4723V9.18182H129.848V11.2273H131.235V19H133.958V11.2273H135.907V9.18182ZM137.571 19H140.294V13.4453C140.294 12.2372 141.176 11.4062 142.378 11.4062C142.755 11.4062 143.273 11.4702 143.528 11.5533V9.13707C143.286 9.07955 142.947 9.04119 142.672 9.04119C141.572 9.04119 140.671 9.6804 140.313 10.8949H140.211V9.18182H137.571V19Z" fill="#1B1D2D"/>
<path d="M50.6761 28.9119H53.8778V38H55.1108V28.9119H58.3125V27.8182H50.6761V28.9119ZM59.2633 38H60.4366V33.1676C60.4366 32.1335 61.252 31.3778 62.3656 31.3778C62.6788 31.3778 63.002 31.4375 63.0815 31.4574V30.2642C62.9473 30.2543 62.639 30.2443 62.465 30.2443C61.5502 30.2443 60.7548 30.7614 60.4764 31.517H60.3968V30.3636H59.2633V38ZM67.3422 38.1591C69.4103 38.1591 70.8024 36.5881 70.8024 34.2216C70.8024 31.8352 69.4103 30.2642 67.3422 30.2642C65.274 30.2642 63.8819 31.8352 63.8819 34.2216C63.8819 36.5881 65.274 38.1591 67.3422 38.1591ZM67.3422 37.1051C65.7711 37.1051 65.0552 35.7528 65.0552 34.2216C65.0552 32.6903 65.7711 31.3182 67.3422 31.3182C68.9132 31.3182 69.6291 32.6903 69.6291 34.2216C69.6291 35.7528 68.9132 37.1051 67.3422 37.1051ZM77.4059 34.8778C77.4059 36.3097 76.3121 36.9659 75.4371 36.9659C74.4627 36.9659 73.7667 36.25 73.7667 35.1364V30.3636H72.5934V35.2159C72.5934 37.1648 73.6275 38.0994 75.0593 38.0994C76.2127 38.0994 76.9684 37.483 77.3263 36.7074H77.4059V38H78.5792V30.3636H77.4059V34.8778ZM86.9725 30.3636H85.6998L83.5918 36.4489H83.5123L81.4043 30.3636H80.1316L82.9554 38H84.1486L86.9725 30.3636ZM91.4494 38.1591C93.0005 38.1591 94.1341 37.3835 94.492 36.2301L93.3585 35.9119C93.0602 36.7074 92.3691 37.1051 91.4494 37.1051C90.0723 37.1051 89.1227 36.2152 89.068 34.5795H94.6113V34.0824C94.6113 31.2386 92.921 30.2642 91.3301 30.2642C89.2619 30.2642 87.8897 31.8949 87.8897 34.2415C87.8897 36.5881 89.242 38.1591 91.4494 38.1591ZM89.068 33.5653C89.1475 32.3771 89.9877 31.3182 91.3301 31.3182C92.6028 31.3182 93.4181 32.2727 93.4181 33.5653H89.068ZM96.1774 38H102.163V36.9062H97.8081V36.8267L102.024 31.2983V30.3636H96.3166V31.4574H100.513V31.5369L96.1774 37.1051V38ZM112.72 34.8778C112.72 36.3097 111.627 36.9659 110.752 36.9659C109.777 36.9659 109.081 36.25 109.081 35.1364V30.3636H107.908V35.2159C107.908 37.1648 108.942 38.0994 110.374 38.0994C111.527 38.0994 112.283 37.483 112.641 36.7074H112.72V38H113.894V30.3636H112.72V34.8778ZM117.216 33.4062C117.216 32.0739 118.041 31.3182 119.165 31.3182C120.254 31.3182 120.915 32.0291 120.915 33.2273V38H122.088V33.1477C122.088 31.1989 121.049 30.2642 119.503 30.2642C118.349 30.2642 117.634 30.7812 117.276 31.5568H117.176V30.3636H116.043V38H117.216V33.4062ZM128.17 40.8636H129.343V36.8267H129.442C129.701 37.2443 130.198 38.1591 131.67 38.1591C133.579 38.1591 134.911 36.6278 134.911 34.2017C134.911 31.7955 133.579 30.2642 131.65 30.2642C130.158 30.2642 129.701 31.179 129.442 31.5767H129.303V30.3636H128.17V40.8636ZM129.323 34.1818C129.323 32.4716 130.079 31.3182 131.51 31.3182C133.002 31.3182 133.738 32.571 133.738 34.1818C133.738 35.8125 132.982 37.1051 131.51 37.1051C130.099 37.1051 129.323 35.9119 129.323 34.1818ZM136.701 38H137.874V33.1676C137.874 32.1335 138.689 31.3778 139.803 31.3778C140.116 31.3778 140.439 31.4375 140.519 31.4574V30.2642C140.385 30.2543 140.077 30.2443 139.903 30.2443C138.988 30.2443 138.192 30.7614 137.914 31.517H137.834V30.3636H136.701V38ZM144.78 38.1591C146.848 38.1591 148.24 36.5881 148.24 34.2216C148.24 31.8352 146.848 30.2642 144.78 30.2642C142.711 30.2642 141.319 31.8352 141.319 34.2216C141.319 36.5881 142.711 38.1591 144.78 38.1591ZM144.78 37.1051C143.209 37.1051 142.493 35.7528 142.493 34.2216C142.493 32.6903 143.209 31.3182 144.78 31.3182C146.351 31.3182 147.067 32.6903 147.067 34.2216C147.067 35.7528 146.351 37.1051 144.78 37.1051ZM150.031 30.3636V38.5568C150.031 39.3324 149.713 39.7699 148.997 39.7699H148.778V40.8636H149.017C150.488 40.8636 151.204 39.9688 151.204 38.5568V30.3636H150.031ZM150.608 29.0909C151.065 29.0909 151.443 28.733 151.443 28.2955C151.443 27.858 151.065 27.5 150.608 27.5C150.15 27.5 149.772 27.858 149.772 28.2955C149.772 28.733 150.15 29.0909 150.608 29.0909ZM156.555 38.1591C158.106 38.1591 159.24 37.3835 159.597 36.2301L158.464 35.9119C158.166 36.7074 157.475 37.1051 156.555 37.1051C155.178 37.1051 154.228 36.2152 154.173 34.5795H159.717V34.0824C159.717 31.2386 158.026 30.2642 156.436 30.2642C154.367 30.2642 152.995 31.8949 152.995 34.2415C152.995 36.5881 154.347 38.1591 156.555 38.1591ZM154.173 33.5653C154.253 32.3771 155.093 31.3182 156.436 31.3182C157.708 31.3182 158.524 32.2727 158.524 33.5653H154.173ZM164.823 30.3636H163.192V28.5341H162.019V30.3636H160.865V31.358H162.019V36.1307C162.019 37.4631 163.093 38.0994 164.087 38.0994C164.524 38.0994 164.803 38.0199 164.962 37.9602L164.723 36.9062C164.624 36.9261 164.465 36.9659 164.206 36.9659C163.689 36.9659 163.192 36.8068 163.192 35.8125V31.358H164.823V30.3636Z" fill="#545669"/>
<defs>
<filter id="filter0_d_198_3295" x="8" y="12" width="18" height="18" filterUnits="userSpaceOnUse" color-interpolation-filters="sRGB">
<feFlood flood-opacity="0" result="BackgroundImageFix"/>
<feColorMatrix in="SourceAlpha" type="matrix" values="0 0 0 0 0 0 0 0 0 0 0 0 0 0 0 0 0 0 127 0" result="hardAlpha"/>
<feOffset dx="-2" dy="2"/>
<feGaussianBlur stdDeviation="2"/>
<feComposite in2="hardAlpha" operator="out"/>
<feColorMatrix type="matrix" values="0 0 0 0 0.1525 0 0 0 0 0.190241 0 0 0 0 0.6 0 0 0 1 0"/>
<feBlend mode="normal" in2="BackgroundImageFix" result="effect1_dropShadow_198_3295"/>
<feBlend mode="normal" in="SourceGraphic" in2="effect1_dropShadow_198_3295" result="shape"/>
</filter>
</defs>
</svg>
