<svg width="188" height="188" viewBox="0 0 188 188" fill="none" xmlns="http://www.w3.org/2000/svg">
<path fill-rule="evenodd" clip-rule="evenodd" d="M49.5136 8.48308C54.1057 3.23829 61.0728 0.39031 67.9654 0.503234C71.101 0.555822 74.2304 1.21737 77.1164 2.55239C85.4878 6.2952 91.3726 15.1107 91.2189 24.3476C91.4177 35.2533 83.1105 45.5525 72.4008 47.6749C62.7471 49.8344 52.0422 45.3272 46.9715 36.7977C41.572 28.1252 42.5759 16.0424 49.5136 8.48308ZM67.9472 1.50307C61.325 1.39508 54.646 4.13646 50.2622 9.14613L50.2543 9.15514C46.5874 13.1483 44.6514 18.4777 44.5271 23.848H55.4281C55.4865 22.4515 55.7901 21.0748 56.3262 19.781C56.9262 18.3331 57.8058 17.0175 58.9147 15.9093C60.0235 14.8011 61.34 13.922 62.7888 13.3223C64.2376 12.7225 65.7905 12.4139 67.3587 12.4139C68.9269 12.4139 70.4797 12.7225 71.9286 13.3223C73.3774 13.922 74.6938 14.8011 75.8027 15.9093C76.9116 17.0175 77.7911 18.3331 78.3912 19.781C78.9273 21.0748 79.2308 22.4515 79.2893 23.848H90.2213C90.159 15.2042 84.5831 6.98476 76.7054 3.46403L76.6994 3.46135C73.9481 2.18812 70.9558 1.55335 67.9472 1.50307ZM90.2221 24.848H79.2892C79.1641 27.831 77.9233 30.666 75.8021 32.7856C73.5627 35.0233 70.5255 36.2804 67.3587 36.2804C64.1919 36.2804 61.1547 35.0233 58.9153 32.7856C56.7941 30.666 55.5532 27.831 55.4282 24.848H44.5249C44.6001 28.8583 45.6884 32.8466 47.8231 36.2735L47.8287 36.2824C52.6745 44.4381 62.9461 48.768 72.1884 46.6977L72.2006 46.695C82.2807 44.7004 90.1625 35.0919 90.2221 24.848ZM145.791 8.48313C150.383 3.23831 157.35 0.39031 164.243 0.503234C167.379 0.555823 170.508 1.21741 173.394 2.55249C181.766 6.29537 187.65 15.1109 187.497 24.3476C187.695 35.2533 179.388 45.5525 168.679 47.6749C159.025 49.8344 148.32 45.3271 143.249 36.7977C137.848 28.1235 138.854 16.0424 145.791 8.48313ZM164.225 1.50307C157.603 1.39508 150.924 4.13646 146.54 9.14613L146.532 9.15514C142.865 13.1485 140.928 18.4776 140.804 23.848H151.706C151.764 22.4515 152.068 21.0748 152.604 19.781C153.204 18.3331 154.083 17.0175 155.192 15.9093C156.301 14.8011 157.618 13.922 159.066 13.3223C160.515 12.7225 162.068 12.4139 163.636 12.4139C165.205 12.4139 166.757 12.7225 168.206 13.3223C169.655 13.922 170.972 14.8011 172.08 15.9093C173.189 17.0175 174.069 18.3331 174.669 19.781C175.205 21.0748 175.509 22.4515 175.567 23.848H186.499C186.437 15.2042 180.861 6.98476 172.983 3.46403L172.977 3.46131C170.226 2.18808 167.233 1.55335 164.225 1.50307ZM186.5 24.848H175.567C175.442 27.8309 174.201 30.666 172.08 32.7856C169.84 35.0234 166.803 36.2804 163.636 36.2804C160.47 36.2804 157.432 35.0233 155.193 32.7856C153.072 30.666 151.831 27.8309 151.706 24.848H140.802C140.877 28.858 141.966 32.8461 144.101 36.2735L144.106 36.2824C148.952 44.4381 159.224 48.768 168.466 46.6977L168.478 46.695C178.558 44.7004 186.44 35.0919 186.5 24.848ZM66.8587 13.4253C65.5925 13.4832 64.3446 13.7605 63.1713 14.2463C61.8437 14.7958 60.6375 15.6012 59.6216 16.6166C58.6056 17.6319 57.7997 18.8373 57.25 20.1639C56.7003 21.4904 56.4175 22.9121 56.4177 24.3479C56.4177 27.2472 57.5703 30.028 59.6221 32.0782C61.5558 34.0105 64.1387 35.1448 66.8587 35.269V13.4253ZM67.8587 13.4253V35.269C70.5786 35.1448 73.1616 34.0105 75.0953 32.0782C77.1471 30.028 78.2997 27.2473 78.2997 24.348C78.2999 22.9122 78.017 21.4904 77.4673 20.1639C76.9176 18.8373 76.1118 17.6319 75.0958 16.6166C74.0798 15.6012 72.8736 14.7958 71.5461 14.2463C70.3727 13.7605 69.1249 13.4832 67.8587 13.4253ZM163.136 13.4253C161.87 13.4832 160.622 13.7605 159.449 14.2463C158.121 14.7958 156.915 15.6012 155.899 16.6166C154.883 17.6319 154.077 18.8373 153.528 20.1639C152.978 21.4904 152.695 22.9121 152.695 24.348C152.695 27.2473 153.848 30.028 155.9 32.0782C157.833 34.0105 160.416 35.1448 163.136 35.269V13.4253ZM164.136 13.4253V35.269C166.856 35.1448 169.439 34.0105 171.373 32.0782C173.425 30.028 174.577 27.2473 174.577 24.3479C174.578 22.9121 174.295 21.4904 173.745 20.1639C173.195 18.8373 172.389 17.6319 171.373 16.6166C170.358 15.6012 169.151 14.7958 167.824 14.2463C166.65 13.7605 165.403 13.4832 164.136 13.4253ZM106.922 64.8688C109.134 62.3444 112.483 60.9793 115.79 61.0324C117.31 61.0508 118.81 61.3868 120.193 62.0188C124.215 63.8163 127.045 68.049 126.973 72.4959C127.066 77.7447 123.077 82.6887 117.924 83.7119C113.283 84.7497 108.14 82.5855 105.701 78.4821C103.105 74.3109 103.586 68.5076 106.922 64.8688ZM125.969 71.9963C125.83 68.1434 123.31 64.5065 119.783 62.9309L119.779 62.9291C118.522 62.3544 117.159 62.049 115.777 62.0324L115.775 62.0323C112.737 61.9832 109.675 63.2418 107.671 65.5319L107.663 65.5408C106.048 67.2995 105.167 69.6289 105.054 71.9963H109.65C109.767 70.6226 110.366 69.328 111.349 68.3457C112.451 67.245 113.945 66.6267 115.502 66.6267C117.06 66.6271 118.553 67.2456 119.655 68.3463C120.637 69.3285 121.236 70.6229 121.353 71.9963H125.969ZM121.353 72.9963C121.236 74.3696 120.637 75.664 119.655 76.6462C118.553 77.7469 117.06 78.3654 115.502 78.3659C113.945 78.3659 112.451 77.7476 111.349 76.6468C110.366 75.6646 109.767 74.3699 109.65 72.9963H105.051C105.127 74.7414 105.623 76.4663 106.552 77.9577L106.558 77.9668C108.772 81.6963 113.482 83.6832 117.712 82.7348L117.724 82.732C122.247 81.8367 125.809 77.5819 125.969 72.9963H121.353ZM115.002 67.6523C113.893 67.7666 112.851 68.2583 112.056 69.0531C111.142 69.9663 110.628 71.2049 110.628 72.4963C110.628 73.7876 111.142 75.0262 112.056 75.9395C112.851 76.7342 113.893 77.226 115.002 77.3402V67.6523ZM116.002 67.6525C117.111 67.7671 118.153 68.2589 118.948 69.0536C119.861 69.9668 120.375 71.2051 120.375 72.4963C120.375 73.7874 119.861 75.0257 118.948 75.9389C118.153 76.7336 117.111 77.2254 116.002 77.34V67.6525ZM49.5136 104.77C54.1057 99.5253 61.0728 96.6773 67.9654 96.7902L67.9572 97.7902H67.9556V97.3882L67.949 97.7901C67.9484 97.7901 67.9478 97.7901 67.9472 97.7901L67.9556 96.7902H67.9572V97.1941L67.964 96.7902C67.9644 96.7902 67.9649 96.7902 67.9654 96.7902C71.101 96.8428 74.2304 97.5044 77.1165 98.8394C77.1155 98.839 77.1145 98.8385 77.1134 98.8381L76.9094 99.2945L77.1194 98.8408C77.1184 98.8403 77.1175 98.8399 77.1165 98.8394C85.4878 102.582 91.3726 111.398 91.2189 120.635C91.2189 120.632 91.2188 120.629 91.2188 120.626L90.7189 120.635L91.2188 120.643C91.2188 120.641 91.2189 120.638 91.2189 120.635C91.4177 131.54 83.1106 141.839 72.4009 143.962C72.4029 143.961 72.405 143.961 72.407 143.961L72.2977 143.473L72.3948 143.963C72.3968 143.963 72.3989 143.962 72.4009 143.962C62.7473 146.121 52.0425 141.614 46.9717 133.085C46.9726 133.086 46.9734 133.088 46.9743 133.089L47.3987 132.825L46.9689 133.08C46.9698 133.082 46.9708 133.083 46.9717 133.085C41.572 124.412 42.5759 112.329 49.5136 104.77ZM49.5136 104.77C49.5123 104.772 49.5109 104.773 49.5096 104.775L49.8859 105.104L49.5176 104.766C49.5163 104.767 49.5149 104.769 49.5136 104.77ZM90.2214 120.137C90.1597 111.492 84.5836 103.272 76.7054 99.751L76.6994 99.7483C73.9481 98.4751 70.9558 97.8404 67.9472 97.7901C61.325 97.6821 54.646 100.423 50.2622 105.433L50.2543 105.442C46.587 109.436 44.651 114.766 44.527 120.137H44.0001V121.137H44.5249C44.6004 125.146 45.6887 129.134 47.8231 132.561L47.8287 132.569C52.6745 140.725 62.9461 145.055 72.1884 142.985L72.2006 142.982C82.2802 140.987 90.1617 131.38 90.2221 121.137H90.7173V120.137H90.2214ZM79.2893 120.137H90.2214C90.2225 120.3 90.2217 120.463 90.2189 120.626L90.2188 120.635L90.2189 120.644C90.222 120.809 90.223 120.973 90.2221 121.137H79.2892C79.2962 120.97 79.2997 120.804 79.2997 120.637C79.2997 120.47 79.2962 120.303 79.2893 120.137ZM55.4281 120.137H44.527C44.5193 120.47 44.5186 120.803 44.5249 121.137H55.4282C55.5532 124.12 56.7941 126.955 58.9153 129.074C61.1547 131.312 64.1919 132.569 67.3587 132.569C70.5255 132.569 73.5627 131.312 75.8021 129.074C77.9233 126.955 79.1641 124.12 79.2892 121.137H78.7997V120.137H79.2893C79.2308 118.74 78.9273 117.363 78.3912 116.07C77.7911 114.622 76.9116 113.306 75.8027 112.198C74.6938 111.09 73.3774 110.211 71.9286 109.611C70.4797 109.011 68.9269 108.702 67.3587 108.702C65.7905 108.702 64.2376 109.011 62.7888 109.611C61.34 110.211 60.0235 111.09 58.9147 112.198C57.8058 113.306 56.9262 114.622 56.3262 116.07C55.7901 117.363 55.4865 118.74 55.4281 120.137ZM55.4281 120.137H55.9193V121.137H55.4282C55.4212 120.97 55.4177 120.804 55.4177 120.637C55.4177 120.47 55.4211 120.303 55.4281 120.137ZM145.791 104.772C150.383 99.5269 157.35 96.6789 164.243 96.7918L164.235 97.7918H164.233V97.3895L164.227 97.7917C164.226 97.7917 164.226 97.7917 164.225 97.7917L164.233 96.7918H164.235V97.1959L164.242 96.7918C164.242 96.7918 164.243 96.7918 164.243 96.7918C167.379 96.8444 170.508 97.506 173.394 98.8411C173.393 98.8406 173.392 98.8402 173.391 98.8397L173.187 99.2962L173.397 98.8424C173.396 98.842 173.395 98.8416 173.394 98.8411C181.766 102.584 187.65 111.399 187.497 120.636C187.497 120.633 187.497 120.63 187.496 120.627L186.997 120.637L187.496 120.645C187.497 120.642 187.497 120.639 187.497 120.636C187.695 131.542 179.388 141.841 168.679 143.964C168.681 143.963 168.683 143.963 168.685 143.962L168.575 143.474L168.672 143.965C168.675 143.964 168.677 143.964 168.679 143.964C159.025 146.123 148.32 141.616 143.249 133.087C143.25 133.088 143.251 133.089 143.252 133.091L143.676 132.827L143.247 133.082C143.247 133.083 143.248 133.085 143.249 133.087C137.85 124.414 138.854 112.331 145.791 104.772ZM145.791 104.772C145.79 104.773 145.789 104.775 145.787 104.776L146.164 105.105L145.795 104.767C145.794 104.769 145.793 104.77 145.791 104.772ZM186.499 120.137C186.437 111.493 180.861 103.273 172.983 99.7526L172.977 99.7499C170.226 98.4767 167.233 97.842 164.225 97.7917C157.603 97.6837 150.924 100.425 146.54 105.435L146.532 105.444C142.865 109.437 140.929 114.766 140.805 120.137H140.278V121.137H140.803C140.878 125.147 141.966 129.135 144.101 132.562L144.106 132.571C148.952 140.727 159.224 145.057 168.466 142.986L168.478 142.984C178.558 140.989 186.44 131.38 186.5 121.137H186.995V120.137H186.499ZM175.567 120.137H186.499C186.5 120.3 186.499 120.464 186.497 120.628L186.496 120.637L186.497 120.646C186.5 120.81 186.501 120.973 186.5 121.137H175.567C175.574 120.97 175.577 120.804 175.577 120.637C175.577 120.47 175.574 120.303 175.567 120.137ZM151.706 120.137H140.805C140.797 120.47 140.796 120.803 140.803 121.137H151.706C151.831 124.12 153.072 126.955 155.193 129.074C157.432 131.312 160.47 132.569 163.636 132.569C166.803 132.569 169.84 131.312 172.08 129.074C174.201 126.955 175.442 124.12 175.567 121.137H175.077V120.137H175.567C175.509 118.74 175.205 117.363 174.669 116.07C174.069 114.622 173.189 113.306 172.08 112.198C170.972 111.09 169.655 110.211 168.206 109.611C166.757 109.011 165.205 108.702 163.636 108.702C162.068 108.702 160.515 109.011 159.066 109.611C157.618 110.211 156.301 111.09 155.192 112.198C154.083 113.306 153.204 114.622 152.604 116.07C152.068 117.363 151.764 118.74 151.706 120.137ZM151.706 120.137H152.197V121.137H151.706C151.699 120.97 151.695 120.804 151.695 120.637C151.695 120.47 151.699 120.303 151.706 120.137ZM66.8587 109.714C65.5925 109.772 64.3446 110.049 63.1713 110.535C61.8437 111.084 60.6375 111.89 59.6216 112.905C58.6056 113.921 57.7997 115.126 57.25 116.452C56.7003 117.779 56.4175 119.201 56.4177 120.637C56.4177 123.536 57.5703 126.317 59.6221 128.367C61.5558 130.299 64.1388 131.433 66.8587 131.558V109.714ZM67.8587 109.714V131.558C70.5786 131.433 73.1616 130.299 75.0953 128.367C77.1471 126.317 78.2997 123.536 78.2997 120.636C78.2999 119.201 78.017 117.779 77.4673 116.452C76.9176 115.126 76.1118 113.921 75.0958 112.905C74.0798 111.89 72.8736 111.084 71.5461 110.535C70.3727 110.049 69.1249 109.772 67.8587 109.714ZM163.136 109.714C161.87 109.772 160.622 110.049 159.449 110.535C158.121 111.084 156.915 111.89 155.899 112.905C154.883 113.921 154.077 115.126 153.528 116.452C152.978 117.779 152.695 119.201 152.695 120.637C152.695 123.536 153.848 126.317 155.9 128.367C157.833 130.299 160.416 131.433 163.136 131.558V109.714ZM164.136 109.714V131.558C166.856 131.433 169.439 130.299 171.373 128.367C173.425 126.317 174.577 123.536 174.577 120.636C174.578 119.201 174.295 117.779 173.745 116.452C173.195 115.126 172.389 113.921 171.373 112.905C170.358 111.89 169.151 111.084 167.824 110.535C166.65 110.049 165.403 109.772 164.136 109.714Z" fill="white" fill-opacity="0.1"/>
</svg>
