<svg width="36" height="36" viewBox="0 0 36 36" fill="none" xmlns="http://www.w3.org/2000/svg">
<path fill-rule="evenodd" clip-rule="evenodd" d="M18 2.3335C9.34758 2.3335 2.33337 9.3477 2.33337 18.0002C2.33337 26.6526 9.34758 33.6668 18 33.6668C26.6525 33.6668 33.6667 26.6526 33.6667 18.0002C33.6667 9.3477 26.6525 2.3335 18 2.3335ZM0.333374 18.0002C0.333374 8.24313 8.24301 0.333496 18 0.333496C27.7571 0.333496 35.6667 8.24313 35.6667 18.0002C35.6667 27.7572 27.7571 35.6668 18 35.6668C8.24301 35.6668 0.333374 27.7572 0.333374 18.0002ZM18.543 10.7168C17.6119 10.5571 16.6544 10.732 15.84 11.2107C15.0256 11.6893 14.4069 12.4407 14.0934 13.3318C13.9101 13.8528 13.3392 14.1266 12.8182 13.9433C12.2972 13.76 12.0234 13.1891 12.2067 12.6681C12.6769 11.3315 13.605 10.2043 14.8266 9.4864C16.0482 8.76845 17.4845 8.50601 18.8811 8.74555C20.2776 8.9851 21.5444 9.71118 22.4569 10.7952C23.3692 11.879 23.8687 13.2507 23.8667 14.6674C23.8664 16.8645 22.2317 18.3752 20.9214 19.2487C20.2358 19.7058 19.5573 20.0443 19.0541 20.268C18.8011 20.3804 18.5889 20.4654 18.4376 20.523C18.3618 20.5519 18.3011 20.574 18.2579 20.5893C18.2363 20.597 18.219 20.603 18.2064 20.6073L18.1911 20.6126L18.1861 20.6143L18.1843 20.6149C18.184 20.615 18.183 20.6153 17.8849 19.721L18.1829 20.6153C17.659 20.79 17.0927 20.5068 16.918 19.9829C16.7435 19.4593 17.0261 18.8934 17.5494 18.7183L17.5505 18.718L17.5557 18.7162L17.5879 18.7049C17.6179 18.6942 17.6646 18.6773 17.7256 18.654C17.8477 18.6075 18.0261 18.5362 18.2418 18.4403C18.6762 18.2473 19.2477 17.9608 19.812 17.5846C21.0016 16.7915 21.8667 15.8024 21.8667 14.6666L21.8667 14.6652C21.8681 13.7205 21.5352 12.8059 20.9268 12.0832C20.3185 11.3605 19.474 10.8765 18.543 10.7168ZM18 25.3335C17.4477 25.3335 17 25.7812 17 26.3335C17 26.8858 17.4477 27.3335 18 27.3335H18.0167C18.569 27.3335 19.0167 26.8858 19.0167 26.3335C19.0167 25.7812 18.569 25.3335 18.0167 25.3335H18Z" fill="#DADEFE"/>
</svg>
