<svg width="105" height="115" viewBox="0 0 105 115" fill="none" xmlns="http://www.w3.org/2000/svg">
<path d="M103.072 49.8953C103.608 23.4105 82.5719 1.50591 56.0871 0.970094C29.6022 0.434276 7.69765 21.4701 7.16184 47.955C6.62602 74.4398 27.6619 96.3444 54.1467 96.8802C80.6316 97.416 102.536 76.3802 103.072 49.8953Z" fill="#D9DCFB"/>
<path fill-rule="evenodd" clip-rule="evenodd" d="M66.834 3.25524L66.6511 3.02386L30.4642 3.15839C30.1201 3.15962 29.7796 3.22863 29.4621 3.36147C29.1447 3.49431 28.8565 3.68838 28.6141 3.9326C28.3717 4.17682 28.1797 4.4664 28.0492 4.78481C27.9187 5.10322 27.8522 5.44421 27.8535 5.78832L28.2392 111.329C28.2418 112.024 28.5203 112.689 29.0135 113.179C29.5067 113.668 30.1742 113.942 30.8691 113.94L84.9723 113.742C85.3164 113.741 85.657 113.672 85.9745 113.539C86.2919 113.406 86.5801 113.212 86.8226 112.968C87.0651 112.724 87.2571 112.434 87.3876 112.116C87.5182 111.797 87.5847 111.456 87.5834 111.112L87.2861 29.1784L69.529 29.243C68.8394 29.2454 68.177 28.9738 67.6876 28.4879C67.1982 28.002 66.9218 27.3417 66.9192 26.6521L66.834 3.25524Z" fill="url(#paint0_radial_183_611)"/>
<path fill-rule="evenodd" clip-rule="evenodd" d="M27.0691 11.6535L26.8974 11.5665L1.80828 19.7433C1.14755 19.9587 0.599439 20.4278 0.284513 21.0473C-0.0304123 21.6668 -0.0863627 22.386 0.128976 23.0468L18.6484 79.8718C18.755 80.199 18.925 80.5019 19.1487 80.7634C19.3724 81.0248 19.6454 81.2396 19.9521 81.3956C20.2588 81.5515 20.5932 81.6455 20.9363 81.6722C21.2793 81.6989 21.6243 81.6577 21.9514 81.5511L59.1472 69.4283C59.8079 69.213 60.3561 68.7441 60.6711 68.1246C60.9861 67.5052 61.0421 66.7861 60.827 66.1253L46.2643 21.4428L34.2689 25.3534C33.613 25.567 32.8992 25.5114 32.2844 25.1987C31.6696 24.8861 31.2042 24.342 30.9905 23.6862L27.0691 11.6535Z" fill="url(#paint1_linear_183_611)"/>
<path fill-rule="evenodd" clip-rule="evenodd" d="M25.1915 18.3188C25.0569 17.9063 24.7641 17.564 24.3773 17.3673C23.9905 17.1707 23.5414 17.1356 23.1288 17.27L6.37429 22.7307C6.16996 22.7972 5.98073 22.9034 5.81744 23.0431C5.65415 23.1827 5.51998 23.3532 5.42262 23.5448C5.32525 23.7364 5.26659 23.9452 5.25 24.1595C5.23341 24.3737 5.2592 24.5892 5.32591 24.7934C5.46045 25.206 5.75331 25.5482 6.14011 25.7449C6.52691 25.9416 6.97598 25.9766 7.3886 25.8423L24.1431 20.3815C24.3474 20.3149 24.5366 20.2088 24.6998 20.0691C24.8631 19.9294 24.9972 19.7589 25.0946 19.5673C25.1919 19.3758 25.2506 19.1669 25.2672 18.9527C25.2839 18.7385 25.2581 18.5231 25.1915 18.3188V18.3188Z" fill="#DFE2EE"/>
<path fill-rule="evenodd" clip-rule="evenodd" d="M19.7816 25.6328C19.715 25.4285 19.6088 25.2393 19.4691 25.076C19.3294 24.9128 19.1589 24.7786 18.9674 24.6813C18.7758 24.5839 18.567 24.5252 18.3528 24.5086C18.1385 24.492 17.9231 24.5178 17.7189 24.5844L8.00894 27.7488C7.80464 27.8154 7.61545 27.9216 7.45219 28.0613C7.28893 28.201 7.15479 28.3715 7.05743 28.563C6.96007 28.7546 6.90141 28.9634 6.88479 29.1776C6.86816 29.3919 6.89391 29.6073 6.96055 29.8115V29.8115C7.09508 30.2241 7.38797 30.5663 7.7748 30.7629C8.16162 30.9595 8.61069 30.9944 9.02325 30.8599L18.7332 27.6955C18.9375 27.6289 19.1267 27.5228 19.2899 27.3831C19.4532 27.2434 19.5873 27.0729 19.6847 26.8813C19.782 26.6898 19.8407 26.4809 19.8573 26.2667C19.8739 26.0525 19.8482 25.8371 19.7816 25.6328V25.6328Z" fill="#C5C4DD"/>
<path opacity="0.53" fill-rule="evenodd" clip-rule="evenodd" d="M53.035 57.1651C52.9684 56.9608 52.8622 56.7716 52.7225 56.6083C52.5829 56.445 52.4124 56.3109 52.2208 56.2135C52.0293 56.1161 51.8205 56.0574 51.6062 56.0407C51.392 56.024 51.1766 56.0497 50.9723 56.1162L20.721 65.9755C20.3085 66.11 19.9662 66.4029 19.7696 66.7897C19.5729 67.1765 19.5379 67.6256 19.6722 68.0382V68.0382C19.7388 68.2425 19.8449 68.4317 19.9846 68.5949C20.1243 68.7582 20.2948 68.8923 20.4863 68.9897C20.6779 69.0871 20.8868 69.1457 21.101 69.1623C21.3152 69.179 21.5306 69.1532 21.7349 69.0866L51.9861 59.2273C52.1904 59.1608 52.3796 59.0546 52.5429 58.9149C52.7062 58.7752 52.8404 58.6047 52.9378 58.4132C53.0351 58.2217 53.0939 58.0128 53.1105 57.7986C53.1272 57.5844 53.1015 57.3689 53.035 57.1646V57.1651ZM38.9113 67.7409C38.8448 67.5366 38.7387 67.3473 38.599 67.184C38.4593 67.0207 38.2888 66.8866 38.0972 66.7892C37.9057 66.6918 37.6968 66.6332 37.4826 66.6166C37.2683 66.6 37.0529 66.6258 36.8486 66.6925L22.4801 71.3753C22.2758 71.4418 22.0866 71.5479 21.9233 71.6876C21.76 71.8273 21.6258 71.9978 21.5285 72.1893C21.4311 72.3809 21.3725 72.5898 21.3559 72.804C21.3393 73.0183 21.3651 73.2337 21.4318 73.438C21.5663 73.8505 21.8592 74.1927 22.246 74.3894C22.6328 74.5861 23.0818 74.6211 23.4945 74.4868L37.8625 69.804C38.275 69.6695 38.6173 69.3766 38.8139 68.9898C39.0106 68.603 39.0456 68.1539 38.9113 67.7413V67.7409ZM43.3479 66.2934C43.2813 66.0891 43.2555 65.8737 43.2721 65.6595C43.2888 65.4453 43.3474 65.2364 43.4448 65.0449C43.5421 64.8533 43.6763 64.6828 43.8396 64.5431C44.0028 64.4034 44.192 64.2973 44.3963 64.2307L52.704 61.5232C53.1166 61.3889 53.5656 61.4238 53.9524 61.6204C54.3392 61.817 54.6321 62.1591 54.7667 62.5716V62.5716C54.8333 62.7759 54.859 62.9913 54.8423 63.2055C54.8256 63.4198 54.7669 63.6286 54.6695 63.8202C54.5721 64.0117 54.438 64.1822 54.2747 64.3219C54.1114 64.4616 53.9222 64.5677 53.7179 64.6343L45.4102 67.3418C45.2059 67.4084 44.9905 67.4342 44.7763 67.4176C44.562 67.4009 44.3532 67.3423 44.1616 67.2449C43.9701 67.1476 43.7996 67.0134 43.6599 66.8502C43.5202 66.6869 43.414 66.4977 43.3475 66.2934H43.3479Z" fill="#E8E9EB"/>
<path fill-rule="evenodd" clip-rule="evenodd" d="M44.1868 29.9531C44.0886 29.6515 43.9318 29.3723 43.7256 29.1313C43.5194 28.8903 43.2678 28.6922 42.9851 28.5485C42.7023 28.4048 42.3941 28.3181 42.0778 28.2935C41.7616 28.2689 41.4437 28.3069 41.1421 28.4051L12.4352 37.7608C11.8263 37.9594 11.3211 38.3917 11.0309 38.9627C10.7407 39.5337 10.6892 40.1966 10.8877 40.8055L16.7844 58.8981C16.9827 59.5071 17.4149 60.0123 17.9858 60.3027C18.5567 60.5931 19.2196 60.6448 19.8286 60.4464L48.5355 51.0921C48.8371 50.9938 49.1163 50.8371 49.3573 50.6309C49.5983 50.4247 49.7964 50.1731 49.9401 49.8904C50.0838 49.6076 50.1705 49.2994 50.1951 48.9831C50.2197 48.6669 50.1817 48.349 50.0834 48.0474L44.1868 29.9531Z" fill="#C5C4DD"/>
<path fill-rule="evenodd" clip-rule="evenodd" d="M46.2521 21.4074L46.2642 21.4442L33.9244 25.4647C33.3598 25.6479 32.7455 25.5997 32.2164 25.3307C31.6872 25.0617 31.2863 24.5939 31.1016 24.0297L27.0659 11.6536L46.2521 21.4074Z" fill="#D9D9D9"/>
<path fill-rule="evenodd" clip-rule="evenodd" d="M92.3391 15.7317L92.2418 15.5653L66.7213 8.85485C66.0491 8.67824 65.3343 8.77582 64.7341 9.12613C64.1339 9.47645 63.6974 10.0508 63.5205 10.7229L48.3225 68.5233C48.1458 69.1954 48.2432 69.9102 48.5935 70.5104C48.9437 71.1107 49.518 71.5472 50.1901 71.724L88.0254 81.6739C88.6975 81.8505 89.4122 81.753 90.0124 81.4027C90.6127 81.0525 91.0492 80.4783 91.2261 79.8062L103.177 34.3552L90.9746 31.1468C90.3076 30.9713 89.7377 30.5382 89.3901 29.9425C89.0424 29.3469 88.9456 28.6377 89.1208 27.9707L92.3391 15.7317Z" fill="url(#paint2_linear_183_611)"/>
<path fill-rule="evenodd" clip-rule="evenodd" d="M92.3391 15.7317L92.2418 15.5653L66.7213 8.85485C66.0491 8.67824 65.3343 8.77582 64.7341 9.12613C64.1339 9.47645 63.6974 10.0508 63.5205 10.7229L48.3225 68.5233C48.1458 69.1954 48.2432 69.9102 48.5935 70.5104C48.9437 71.1107 49.518 71.5472 50.1901 71.724L88.0254 81.6739C88.6975 81.8505 89.4122 81.753 90.0124 81.4027C90.6127 81.0525 91.0492 80.4783 91.2261 79.8062L103.177 34.3552L90.9746 31.1468C90.3076 30.9713 89.7377 30.5382 89.3901 29.9425C89.0424 29.3469 88.9456 28.6377 89.1208 27.9707L92.3391 15.7317Z" fill="url(#paint3_linear_183_611)"/>
<path fill-rule="evenodd" clip-rule="evenodd" d="M87.1514 20.3176C87.2061 20.1099 87.2194 19.8934 87.1904 19.6805C87.1614 19.4676 87.0908 19.2626 86.9825 19.077C86.8742 18.8915 86.7304 18.7291 86.5594 18.5991C86.3883 18.4691 86.1933 18.3741 85.9856 18.3195L68.9432 13.8385C68.7355 13.7838 68.519 13.7706 68.3061 13.7996C68.0932 13.8286 67.8881 13.8992 67.7026 14.0075C67.517 14.1157 67.3546 14.2595 67.2246 14.4306C67.0947 14.6016 66.9997 14.7966 66.9451 15.0044C66.8348 15.424 66.8957 15.8702 67.1143 16.245C67.3329 16.6198 67.6914 16.8924 68.1109 17.003L85.1533 21.484C85.5729 21.5942 86.0192 21.5333 86.3939 21.3147C86.7687 21.0961 87.0413 20.7376 87.1519 20.3181L87.1514 20.3176Z" fill="#C5C4DD"/>
<path fill-rule="evenodd" clip-rule="evenodd" d="M78.6423 23.5381C78.7527 23.1184 78.6918 22.6721 78.4732 22.2974C78.2546 21.9226 77.896 21.6499 77.4764 21.5395L67.6006 18.9409C67.181 18.8307 66.7347 18.8916 66.36 19.1102C65.9852 19.3288 65.7126 19.6873 65.602 20.1068V20.1068C65.5473 20.3146 65.5341 20.5311 65.5631 20.7439C65.592 20.9568 65.6627 21.1619 65.7709 21.3474C65.8792 21.533 66.023 21.6954 66.194 21.8254C66.3651 21.9553 66.5601 22.0503 66.7679 22.1049L76.6446 24.7021C77.0642 24.8124 77.5105 24.7515 77.8852 24.5329C78.26 24.3143 78.5326 23.9558 78.6432 23.5363L78.6423 23.5381Z" fill="#E8E9EB"/>
<path fill-rule="evenodd" clip-rule="evenodd" d="M89.5279 68.0534C89.6381 67.6339 89.5772 67.1877 89.3586 66.813C89.14 66.4383 88.7815 66.1658 88.362 66.0553L57.5902 57.9642C57.1706 57.8539 56.7244 57.9148 56.3497 58.1334C55.9751 58.352 55.7025 58.7105 55.592 59.13V59.13C55.4818 59.5496 55.5427 59.9958 55.7613 60.3705C55.9799 60.7451 56.3384 61.0177 56.7579 61.1281L87.5298 69.2193C87.7375 69.274 87.954 69.2872 88.1669 69.2582C88.3798 69.2293 88.5848 69.1586 88.7704 69.0504C88.9559 68.9421 89.1183 68.7983 89.2483 68.6273C89.3783 68.4562 89.4733 68.2612 89.5279 68.0534V68.0534Z" fill="#C5C4DD"/>
<path opacity="0.53" fill-rule="evenodd" clip-rule="evenodd" d="M71.9254 69.2979C71.9801 69.0901 71.9933 68.8736 71.9643 68.6608C71.9353 68.4479 71.8647 68.2428 71.7564 68.0573C71.6482 67.8717 71.5044 67.7093 71.3333 67.5793C71.1623 67.4494 70.9673 67.3544 70.7595 67.2998L56.1444 63.4569C55.9366 63.4022 55.7201 63.3889 55.5072 63.4179C55.2943 63.4469 55.0892 63.5175 54.9036 63.6258C54.718 63.7341 54.5556 63.8778 54.4255 64.0489C54.2955 64.22 54.2005 64.415 54.1458 64.6228V64.6228C54.091 64.8305 54.0778 65.0471 54.1067 65.26C54.1357 65.4729 54.2063 65.678 54.3146 65.8636C54.4229 66.0493 54.5666 66.2117 54.7377 66.3417C54.9088 66.4717 55.1039 66.5667 55.3117 66.6213L69.9268 70.4642C70.1346 70.5189 70.3511 70.5322 70.564 70.5032C70.7769 70.4742 70.982 70.4036 71.1676 70.2953C71.3532 70.187 71.5156 70.0433 71.6457 69.8722C71.7757 69.7011 71.8707 69.5061 71.9254 69.2983V69.2979ZM76.4386 70.4848C76.4933 70.277 76.5883 70.082 76.7184 69.911C76.8484 69.7399 77.0108 69.5962 77.1964 69.4879C77.382 69.3796 77.5871 69.309 77.8 69.28C78.0129 69.251 78.2294 69.2643 78.4372 69.319L86.8876 71.5409C87.0953 71.5955 87.2903 71.6904 87.4614 71.8204C87.6324 71.9504 87.7762 72.1128 87.8845 72.2984C87.9927 72.4839 88.0634 72.689 88.0924 72.9019C88.1214 73.1147 88.1081 73.3312 88.0534 73.539V73.539C87.9988 73.7468 87.9037 73.9418 87.7737 74.1128C87.6437 74.2839 87.4812 74.4277 87.2957 74.5359C87.1101 74.6442 86.905 74.7149 86.6921 74.7438C86.4792 74.7728 86.2626 74.7596 86.0548 74.7049L77.6045 72.483C77.3967 72.4284 77.2016 72.3334 77.0306 72.2034C76.8595 72.0733 76.7157 71.9109 76.6074 71.7253C76.4991 71.5397 76.4285 71.3346 76.3995 71.1216C76.3706 70.9087 76.3839 70.6922 76.4386 70.4844V70.4848Z" fill="#E8E9EB"/>
<path fill-rule="evenodd" clip-rule="evenodd" d="M96.8206 40.385C96.9013 40.0783 96.9207 39.7587 96.8779 39.4444C96.8351 39.1301 96.7307 38.8274 96.5709 38.5534C96.411 38.2795 96.1988 38.0397 95.9463 37.8478C95.6937 37.6559 95.4059 37.5156 95.0991 37.4349L65.899 29.7572C65.2795 29.5944 64.6207 29.6843 64.0675 30.0071C63.5143 30.3299 63.1119 30.8592 62.9489 31.4787L58.11 49.8815C58.0293 50.1882 58.0098 50.5078 58.0526 50.8221C58.0955 51.1363 58.1998 51.4391 58.3596 51.713C58.5195 51.9869 58.7318 52.2267 58.9843 52.4185C59.2369 52.6104 59.5248 52.7506 59.8315 52.8312L89.0317 60.5089C89.3384 60.5896 89.658 60.609 89.9723 60.5662C90.2866 60.5233 90.5893 60.419 90.8633 60.2592C91.1372 60.0993 91.377 59.8871 91.5689 59.6345C91.7608 59.382 91.9011 59.0942 91.9818 58.7874L96.8206 40.385Z" fill="#DFE2EE"/>
<path fill-rule="evenodd" clip-rule="evenodd" d="M103.185 34.3181L103.176 34.3553L90.6245 31.0554C90.3401 30.9807 90.0732 30.8506 89.839 30.6726C89.6049 30.4947 89.4081 30.2724 89.2599 30.0184C89.1117 29.7644 89.015 29.4836 88.9753 29.1922C88.9356 28.9009 88.9537 28.6045 89.0286 28.3201L92.3383 15.7314L103.185 34.3181Z" fill="#DFE9EE"/>
<path fill-rule="evenodd" clip-rule="evenodd" d="M63.2555 3.39247L63.0703 3.20728H26.2018C25.5068 3.20739 24.8404 3.48352 24.349 3.97494C23.8575 4.46636 23.5814 5.13283 23.5813 5.8278V89.0809C23.5812 89.4251 23.649 89.7659 23.7807 90.0838C23.9123 90.4018 24.1053 90.6907 24.3487 90.934C24.592 91.1774 24.881 91.3704 25.1989 91.5021C25.5169 91.6338 25.8577 91.7015 26.2018 91.7014H81.3503C82.0453 91.7013 82.7118 91.4252 83.2033 90.9338C83.6948 90.4424 83.971 89.7759 83.9712 89.0809V24.1598H65.8554C65.1656 24.1598 64.5041 23.8858 64.0163 23.398C63.5286 22.9103 63.2546 22.2488 63.2546 21.559L63.2555 3.39247Z" fill="url(#paint4_linear_183_611)"/>
<path fill-rule="evenodd" clip-rule="evenodd" d="M58.0134 11.2284C58.0135 10.9358 57.9559 10.6461 57.8439 10.3758C57.732 10.1055 57.5678 9.8599 57.3609 9.65306C57.154 9.44622 56.9083 9.28218 56.638 9.17032C56.3676 9.05846 56.0778 9.00098 55.7853 9.00116H31.7983C31.5058 9.00104 31.2161 9.05857 30.9458 9.17045C30.6755 9.28233 30.4299 9.44638 30.223 9.65322C30.0161 9.86006 29.852 10.1056 29.7401 10.3759C29.6282 10.6462 29.5706 10.9359 29.5706 11.2284V11.2284C29.5706 11.8192 29.8053 12.3859 30.2231 12.8037C30.6409 13.2214 31.2075 13.4561 31.7983 13.4561H55.7853C56.0779 13.4562 56.3676 13.3986 56.6379 13.2867C56.9082 13.1748 57.1539 13.0107 57.3608 12.8038C57.5677 12.5969 57.7318 12.3513 57.8438 12.081C57.9558 11.8107 58.0134 11.521 58.0134 11.2284ZM47.9273 18.4115C47.9273 18.119 47.8697 17.8294 47.7577 17.5591C47.6458 17.2888 47.4816 17.0433 47.2748 16.8365C47.0679 16.6296 46.8223 16.4656 46.5521 16.3537C46.2818 16.2418 45.9921 16.1842 45.6996 16.1843H31.7988C31.5063 16.1842 31.2166 16.2418 30.9463 16.3537C30.676 16.4656 30.4305 16.6296 30.2236 16.8365C30.0167 17.0433 29.8526 17.2888 29.7407 17.5591C29.6287 17.8294 29.5711 18.119 29.5711 18.4115V18.4115C29.5711 19.0024 29.8058 19.569 30.2236 19.9868C30.6413 20.4045 31.208 20.6393 31.7988 20.6393H45.6996C46.2904 20.6393 46.857 20.4045 47.2748 19.9868C47.6926 19.569 47.9273 19.0024 47.9273 18.4115ZM47.3085 30.5021C47.3085 30.3055 47.2699 30.1108 47.1947 29.9292C47.1195 29.7476 47.0092 29.5826 46.8702 29.4436C46.7312 29.3045 46.5662 29.1943 46.3846 29.1191C46.2029 29.0439 46.0083 29.0052 45.8117 29.0053H30.8239C30.6274 29.0052 30.4327 29.0439 30.2511 29.1191C30.0695 29.1943 29.9044 29.3045 29.7654 29.4436C29.6264 29.5826 29.5162 29.7476 29.441 29.9292C29.3658 30.1108 29.3271 30.3055 29.3271 30.5021C29.3271 30.6987 29.3658 30.8933 29.441 31.075C29.5162 31.2566 29.6264 31.4216 29.7654 31.5606C29.9044 31.6996 30.0695 31.8099 30.2511 31.8851C30.4327 31.9603 30.6274 31.9989 30.8239 31.9989H45.8117C46.0083 31.9989 46.2029 31.9603 46.3846 31.8851C46.5662 31.8099 46.7312 31.6996 46.8702 31.5606C47.0092 31.4216 47.1195 31.2566 47.1947 31.075C47.2699 30.8933 47.3085 30.6987 47.3085 30.5021V30.5021ZM47.3085 35.4795C47.3085 35.2829 47.2699 35.0882 47.1947 34.9065C47.1195 34.7249 47.0092 34.5598 46.8702 34.4208C46.7312 34.2817 46.5662 34.1714 46.3846 34.0962C46.203 34.0209 46.0083 33.9822 45.8117 33.9822H30.8239C30.6273 33.9822 30.4327 34.0209 30.251 34.0962C30.0694 34.1714 29.9044 34.2817 29.7654 34.4208C29.6264 34.5598 29.5162 34.7249 29.441 34.9065C29.3658 35.0882 29.3271 35.2829 29.3271 35.4795C29.3271 35.676 29.3658 35.8707 29.441 36.0523C29.5162 36.234 29.6264 36.399 29.7654 36.538C29.9044 36.677 30.0695 36.7872 30.2511 36.8624C30.4327 36.9376 30.6274 36.9763 30.8239 36.9763H45.8117C46.0083 36.9763 46.2029 36.9376 46.3846 36.8624C46.5662 36.7872 46.7312 36.677 46.8702 36.538C47.0092 36.399 47.1195 36.234 47.1947 36.0523C47.2699 35.8707 47.3085 35.676 47.3085 35.4795V35.4795ZM47.3085 40.6766C47.3085 40.48 47.2699 40.2853 47.1947 40.1037C47.1195 39.9221 47.0092 39.757 46.8702 39.618C46.7312 39.479 46.5662 39.3688 46.3846 39.2936C46.2029 39.2184 46.0083 39.1797 45.8117 39.1798H30.8239C30.6274 39.1797 30.4327 39.2184 30.2511 39.2936C30.0695 39.3688 29.9044 39.479 29.7654 39.618C29.6264 39.757 29.5162 39.9221 29.441 40.1037C29.3658 40.2853 29.3271 40.48 29.3271 40.6766V40.6766C29.3271 41.0735 29.4848 41.4542 29.7656 41.735C30.0463 42.0157 30.427 42.1734 30.8239 42.1734H45.8117C46.2087 42.1734 46.5894 42.0157 46.8701 41.735C47.1508 41.4542 47.3085 41.0735 47.3085 40.6766ZM55.7687 49.382C55.7687 48.9851 55.611 48.6043 55.3303 48.3236C55.0496 48.0429 54.6689 47.8852 54.2719 47.8852H30.8239C30.427 47.8852 30.0463 48.0429 29.7656 48.3236C29.4848 48.6043 29.3271 48.9851 29.3271 49.382C29.3271 49.779 29.4848 50.1597 29.7656 50.4404C30.0463 50.7211 30.427 50.8788 30.8239 50.8788H54.2719C54.6689 50.8788 55.0496 50.7211 55.3303 50.4404C55.611 50.1597 55.7687 49.779 55.7687 49.382V49.382ZM55.7687 54.0518C55.7686 53.6549 55.6108 53.2742 55.3301 52.9935C55.0495 52.7129 54.6688 52.5551 54.2719 52.555H30.8239C30.427 52.5551 30.0464 52.7129 29.7657 52.9935C29.485 53.2742 29.3273 53.6549 29.3271 54.0518V54.0518C29.3271 54.4488 29.4848 54.8295 29.7656 55.1102C30.0463 55.3909 30.427 55.5486 30.8239 55.5486H54.2719C54.6689 55.5486 55.0496 55.3909 55.3303 55.1102C55.611 54.8295 55.7687 54.4488 55.7687 54.0518V54.0518ZM78.5251 49.382C78.5251 48.9851 78.3675 48.6043 78.0868 48.3236C77.806 48.0429 77.4253 47.8852 77.0284 47.8852H61.2622C61.0656 47.8852 60.8709 47.9238 60.6893 47.999C60.5077 48.0742 60.3426 48.1845 60.2036 48.3235C60.0646 48.4625 59.9544 48.6275 59.8792 48.8092C59.804 48.9908 59.7653 49.1855 59.7654 49.382V49.382C59.7653 49.5786 59.804 49.7733 59.8792 49.9549C59.9544 50.1365 60.0646 50.3016 60.2036 50.4406C60.3426 50.5796 60.5077 50.6898 60.6893 50.765C60.8709 50.8402 61.0656 50.8789 61.2622 50.8788H77.0284C77.4253 50.8788 77.806 50.7211 78.0868 50.4404C78.3675 50.1597 78.5251 49.779 78.5251 49.382ZM78.5251 54.0518C78.525 53.6549 78.3673 53.2742 78.0866 52.9935C77.8059 52.7129 77.4253 52.5551 77.0284 52.555H61.2622C60.8652 52.555 60.4845 52.7127 60.2038 52.9934C59.9231 53.2741 59.7654 53.6548 59.7654 54.0518V54.0518C59.7653 54.2484 59.804 54.443 59.8792 54.6247C59.9544 54.8063 60.0646 54.9713 60.2036 55.1103C60.3426 55.2493 60.5077 55.3596 60.6893 55.4348C60.8709 55.51 61.0656 55.5487 61.2622 55.5486H77.0284C77.4253 55.5486 77.806 55.3909 78.0868 55.1102C78.3675 54.8295 78.5251 54.4488 78.5251 54.0518V54.0518ZM55.7687 58.7879C55.7687 58.391 55.611 58.0102 55.3303 57.7295C55.0496 57.4488 54.6689 57.2911 54.2719 57.2911H30.8239C30.427 57.2911 30.0463 57.4488 29.7656 57.7295C29.4848 58.0102 29.3271 58.391 29.3271 58.7879C29.3271 59.1849 29.4848 59.5656 29.7656 59.8463C30.0463 60.127 30.427 60.2847 30.8239 60.2847H54.2719C54.6689 60.2847 55.0496 60.127 55.3303 59.8463C55.611 59.5656 55.7687 59.1849 55.7687 58.7879V58.7879ZM55.7687 63.4586C55.7686 63.0617 55.6108 62.681 55.3301 62.4003C55.0495 62.1196 54.6688 61.9619 54.2719 61.9618H30.8239C30.427 61.9619 30.0464 62.1196 29.7657 62.4003C29.485 62.681 29.3273 63.0617 29.3271 63.4586V63.4586C29.3271 63.8556 29.4848 64.2363 29.7656 64.517C30.0463 64.7977 30.427 64.9554 30.8239 64.9554H54.2719C54.6689 64.9554 55.0496 64.7977 55.3303 64.517C55.611 64.2363 55.7687 63.8556 55.7687 63.4586V63.4586Z" fill="#DFE2EE"/>
<path opacity="0.53" fill-rule="evenodd" clip-rule="evenodd" d="M76.6827 71.4332C76.6826 70.8424 76.4479 70.2758 76.0301 69.8581C75.6124 69.4403 75.0458 69.2056 74.455 69.2055H31.1442C30.5534 69.2055 29.9868 69.4402 29.569 69.8579C29.1512 70.2757 28.9165 70.8424 28.9165 71.4332V71.4332C28.9164 71.7258 28.974 72.0155 29.086 72.2858C29.1979 72.5562 29.362 72.8018 29.5688 73.0087C29.7757 73.2156 30.0213 73.3798 30.2916 73.4917C30.5619 73.6037 30.8516 73.6613 31.1442 73.6613H74.4564C75.0471 73.6612 75.6137 73.4265 76.0315 73.0087C76.4492 72.591 76.684 72.0244 76.6841 71.4336L76.6827 71.4332ZM53.9415 79.1629C53.9414 78.5722 53.7066 78.0057 53.2889 77.588C52.8711 77.1703 52.3045 76.9356 51.7138 76.9356H31.1442C30.8517 76.9355 30.562 76.9931 30.2917 77.1049C30.0214 77.2168 29.7758 77.3809 29.5689 77.5877C29.362 77.7945 29.1979 78.0401 29.086 78.3104C28.974 78.5807 28.9164 78.8704 28.9165 79.1629V79.1629C28.9163 79.4556 28.9737 79.7455 29.0856 80.016C29.1974 80.2865 29.3615 80.5323 29.5684 80.7393C29.7752 80.9464 30.0209 81.1106 30.2913 81.2227C30.5617 81.3347 30.8515 81.3924 31.1442 81.3924H51.7151C52.3059 81.3923 52.8725 81.1576 53.2902 80.7398C53.708 80.3221 53.9427 79.7555 53.9428 79.1647L53.9415 79.1629ZM61.2744 80.9812C61.2744 80.3904 61.5091 79.8238 61.9269 79.406C62.3446 78.9882 62.9113 78.7535 63.5021 78.7535H75.3958C75.9866 78.7535 76.5532 78.9882 76.971 79.406C77.3888 79.8238 77.6235 80.3904 77.6235 80.9812C77.6235 81.5721 77.3888 82.1387 76.971 82.5565C76.5532 82.9742 75.9866 83.2089 75.3958 83.2089H63.5021C62.9113 83.2089 62.3446 82.9742 61.9269 82.5565C61.5091 82.1387 61.2744 81.5721 61.2744 80.9812Z" fill="#E8E9EB"/>
<path fill-rule="evenodd" clip-rule="evenodd" d="M78.7299 31.3433C78.7299 31.0261 78.6674 30.7121 78.546 30.4191C78.4247 30.1261 78.2468 29.8598 78.0225 29.6355C77.7982 29.4113 77.532 29.2334 77.239 29.112C76.9459 28.9906 76.6319 28.9282 76.3147 28.9282H57.6061C56.9655 28.9282 56.3512 29.1826 55.8983 29.6355C55.4454 30.0885 55.1909 30.7028 55.1909 31.3433V42.5487C55.1909 43.1892 55.4454 43.8035 55.8983 44.2565C56.3512 44.7094 56.9655 44.9638 57.6061 44.9638H76.3147C76.6319 44.9638 76.9459 44.9014 77.239 44.78C77.532 44.6586 77.7982 44.4807 78.0225 44.2565C78.2468 44.0322 78.4247 43.7659 78.546 43.4729C78.6674 43.1799 78.7299 42.8658 78.7299 42.5487V31.3433Z" fill="#DFE2EE"/>
<path fill-rule="evenodd" clip-rule="evenodd" d="M83.9701 24.1071V24.1596H65.4955C65.2015 24.1596 64.9103 24.1018 64.6386 23.9893C64.367 23.8768 64.1201 23.7119 63.9122 23.504C63.7043 23.296 63.5394 23.0492 63.4269 22.7775C63.3144 22.5059 63.2565 22.2147 63.2566 21.9207V3.39227L83.9701 24.1071Z" fill="#DFE9EE"/>
<path d="M52.4925 114.82C73.7417 114.82 90.9676 100.652 90.9676 83.1756C90.9676 65.6991 73.7417 51.5316 52.4925 51.5316C31.2432 51.5316 14.0173 65.6991 14.0173 83.1756C14.0173 100.652 31.2432 114.82 52.4925 114.82Z" fill="url(#paint5_radial_183_611)"/>
<path d="M93.658 14.4777C95.4698 14.4777 96.9386 13.0089 96.9386 11.1971C96.9386 9.38527 95.4698 7.9165 93.658 7.9165C91.8462 7.9165 90.3774 9.38527 90.3774 11.1971C90.3774 13.0089 91.8462 14.4777 93.658 14.4777Z" fill="url(#paint6_linear_183_611)"/>
<path d="M6.6842 80.3453C7.42963 80.3453 8.03392 79.741 8.03392 78.9956C8.03392 78.2502 7.42963 77.6459 6.6842 77.6459C5.93877 77.6459 5.33447 78.2502 5.33447 78.9956C5.33447 79.741 5.93877 80.3453 6.6842 80.3453Z" fill="url(#paint7_linear_183_611)"/>
<path fill-rule="evenodd" clip-rule="evenodd" d="M68.3888 64.3701C68.3888 62.6779 68.0555 61.0022 67.408 59.4387C66.7604 57.8753 65.8113 56.4547 64.6147 55.258C63.4181 54.0614 61.9975 53.1122 60.4341 52.4646C58.8707 51.817 57.195 51.4836 55.5027 51.4836V51.4836C53.8105 51.4836 52.1348 51.817 50.5714 52.4646C49.0079 53.1122 47.5874 54.0614 46.3908 55.258C45.1942 56.4547 44.245 57.8753 43.5975 59.4387C42.9499 61.0022 42.6166 62.6779 42.6167 64.3701V80.5869C42.6167 81.0114 42.7003 81.4317 42.8628 81.8239C43.0253 82.216 43.2634 82.5723 43.5636 82.8724C43.8637 83.1725 44.2201 83.4106 44.6123 83.5729C45.0045 83.7353 45.4248 83.8188 45.8493 83.8187H65.1566C65.5811 83.8188 66.0014 83.7353 66.3936 83.5729C66.7858 83.4106 67.1422 83.1725 67.4423 82.8724C67.7425 82.5723 67.9807 82.216 68.1431 81.8239C68.3056 81.4317 68.3892 81.0114 68.3892 80.5869L68.3888 64.3701ZM61.9235 64.3701V77.3548H49.081V64.3701C49.081 63.5269 49.247 62.6919 49.5696 61.9128C49.8923 61.1338 50.3652 60.4259 50.9615 59.8296C51.5577 59.2333 52.2655 58.7604 53.0446 58.4377C53.8236 58.1149 54.6586 57.9489 55.5018 57.9489V57.9489C56.3451 57.9487 57.1801 58.1147 57.9592 58.4374C58.7384 58.76 59.4463 59.2329 60.0426 59.8291C60.6389 60.4254 61.112 61.1333 61.4347 61.9123C61.7574 62.6914 61.9235 63.5264 61.9235 64.3697V64.3701Z" fill="url(#paint8_radial_183_611)"/>
<path fill-rule="evenodd" clip-rule="evenodd" d="M72.0576 72.7721C72.0577 72.2173 71.9485 71.668 71.7362 71.1554C71.5239 70.6428 71.2127 70.1771 70.8204 69.7848C70.4282 69.3925 69.9624 69.0813 69.4498 68.8691C68.9373 68.6568 68.3879 68.5475 67.8331 68.5476H42.8566C42.3018 68.5475 41.7524 68.6568 41.2399 68.8691C40.7273 69.0813 40.2616 69.3925 39.8693 69.7848C39.477 70.1771 39.1658 70.6428 38.9535 71.1554C38.7412 71.668 38.632 72.2173 38.6321 72.7721V90.8736C38.6321 91.4283 38.7414 91.9776 38.9537 92.4901C39.166 93.0026 39.4772 93.4683 39.8695 93.8605C40.2618 94.2527 40.7275 94.5638 41.24 94.776C41.7525 94.9882 42.3018 95.0973 42.8566 95.0972H67.8331C68.3879 95.0973 68.9372 94.9882 69.4497 94.776C69.9622 94.5638 70.428 94.2527 70.8203 93.8605C71.2125 93.4683 71.5237 93.0026 71.736 92.4901C71.9484 91.9776 72.0576 91.4283 72.0576 90.8736V72.7721Z" fill="url(#paint9_radial_183_611)"/>
<path fill-rule="evenodd" clip-rule="evenodd" d="M58.1029 82.687V85.8487C58.1029 86.1853 58.0367 86.5186 57.9078 86.8296C57.779 87.1406 57.5902 87.4231 57.3522 87.6611C57.1142 87.8991 56.8317 88.0879 56.5207 88.2167C56.2097 88.3455 55.8764 88.4118 55.5398 88.4118V88.4118C54.86 88.4118 54.2081 88.1418 53.7274 87.6611C53.2467 87.1804 52.9767 86.5285 52.9767 85.8487V82.6323C52.2505 82.0846 51.7156 81.3217 51.4484 80.4523C51.1812 79.5828 51.1953 78.6512 51.4886 77.7902C51.782 76.9293 52.3396 76.1829 53.0821 75.6574C53.8245 75.132 54.7139 74.8543 55.6235 74.864C56.533 74.8737 57.4162 75.1703 58.1473 75.7115C58.8784 76.2526 59.42 77.0108 59.6949 77.8778C59.9698 78.7448 59.964 79.6765 59.6783 80.5401C59.3926 81.4036 58.8416 82.155 58.1039 82.687H58.1029Z" fill="url(#paint10_linear_183_611)"/>
<defs>
<radialGradient id="paint0_radial_183_611" cx="0" cy="0" r="1" gradientUnits="userSpaceOnUse" gradientTransform="translate(52.1671 89.0959) rotate(91.9976) scale(9.31814 30.7265)">
<stop stop-color="#51BFFF" stop-opacity="0.49"/>
<stop offset="0.0416667" stop-color="#55BFFD" stop-opacity="0.469583"/>
<stop offset="1" stop-color="#B4C5CF" stop-opacity="0"/>
</radialGradient>
<linearGradient id="paint1_linear_183_611" x1="33.8468" y1="-10.651" x2="28.3664" y2="70.2448" gradientUnits="userSpaceOnUse">
<stop stop-color="#D3EFFF"/>
<stop offset="1" stop-color="#F2FAFF"/>
</linearGradient>
<linearGradient id="paint2_linear_183_611" x1="3.68997e+06" y1="-804143" x2="3.68403e+06" y2="-796173" gradientUnits="userSpaceOnUse">
<stop stop-color="#4250E8"/>
<stop offset="1" stop-color="#4250E8"/>
</linearGradient>
<linearGradient id="paint3_linear_183_611" x1="78.743" y1="-14.3606" x2="72.1633" y2="69.727" gradientUnits="userSpaceOnUse">
<stop stop-color="#D3EFFF"/>
<stop offset="1" stop-color="#F2FAFF"/>
</linearGradient>
<linearGradient id="paint4_linear_183_611" x1="5.35203e+06" y1="-2.37059e+06" x2="5.34648e+06" y2="-2.3568e+06" gradientUnits="userSpaceOnUse">
<stop stop-color="#EBEDFF"/>
<stop offset="1" stop-color="#F9FDFF"/>
</linearGradient>
<radialGradient id="paint5_radial_183_611" cx="0" cy="0" r="1" gradientUnits="userSpaceOnUse" gradientTransform="translate(55.7833 83.5534) rotate(42.0896) scale(19.9711 19.9583)">
<stop stop-color="#B0B5EE"/>
<stop offset="1" stop-color="#4250E8" stop-opacity="0"/>
</radialGradient>
<linearGradient id="paint6_linear_183_611" x1="92.896" y1="3.53715" x2="93.639" y2="16.3846" gradientUnits="userSpaceOnUse">
<stop stop-color="#CBCFFF"/>
<stop offset="1" stop-color="#4250E8"/>
</linearGradient>
<linearGradient id="paint7_linear_183_611" x1="9542.97" y1="-8564.41" x2="9544.8" y2="-8532.59" gradientUnits="userSpaceOnUse">
<stop stop-color="#CBCFFF"/>
<stop offset="1" stop-color="#4250E8"/>
</linearGradient>
<radialGradient id="paint8_radial_183_611" cx="0" cy="0" r="1" gradientUnits="userSpaceOnUse" gradientTransform="translate(58.1568 51.2442) rotate(131.372) scale(62.7105 78.6809)">
<stop stop-color="#7480FF"/>
<stop offset="1" stop-color="#B3B9FF"/>
</radialGradient>
<radialGradient id="paint9_radial_183_611" cx="0" cy="0" r="1" gradientUnits="userSpaceOnUse" gradientTransform="translate(56.4751 104.216) rotate(-66.2212) scale(122.902 97.6257)">
<stop stop-color="#B3B9FF"/>
<stop offset="1" stop-color="#4250E8"/>
</radialGradient>
<linearGradient id="paint10_linear_183_611" x1="55.2736" y1="90.2158" x2="55.6952" y2="53.2942" gradientUnits="userSpaceOnUse">
<stop stop-color="#EFF0FF"/>
<stop offset="1" stop-color="#4250E8"/>
</linearGradient>
</defs>
</svg>
