<svg width="587" height="503" viewBox="0 0 587 503" fill="none" xmlns="http://www.w3.org/2000/svg">
<path d="M450.996 448.639C478.2 408.119 492.69 360.401 492.611 311.597C492.611 175.563 382.332 65.3013 246.296 65.3013C110.259 65.3013 0.0003544 175.58 0.0003544 311.613C-0.0830748 360.692 14.5653 408.666 42.0498 449.326L450.996 448.639Z" fill="#FAFAFF"/>
<path d="M342.975 175.749C341.043 174.09 338.255 173.98 335.706 173.99C322.428 174.056 309.068 175.016 296.272 178.534C284.601 181.747 273.368 187.198 264.439 195.32C264.122 195.433 263.815 195.574 263.523 195.742C262.129 196.562 261.166 198.361 261.837 199.834C261.924 200.024 262.036 200.201 262.169 200.362L252.742 202.789C246.624 204.365 240.162 205.544 234.486 208.431C240.676 199.267 250.023 192.641 259.006 186.159C269.169 185.302 278.427 180.337 286.931 174.783C300.354 166.012 312.603 155.563 323.381 143.691C323.952 143.063 324.517 142.432 325.077 141.799C326.405 140.309 327.779 138.546 327.029 136.445C326.637 135.419 325.862 134.586 324.868 134.121C322.79 133.109 320.5 133.457 318.329 133.929C299.925 137.865 283.472 148.1 271.805 162.867C270.049 165.104 268.406 167.438 266.76 169.771C264.471 172.965 261.812 175.878 258.84 178.448C257.804 179.358 256.872 180.379 256.058 181.492C255.394 182.391 254.793 183.45 255.547 184.678C255.732 184.974 255.965 185.237 256.237 185.455C246.485 192.509 236.547 199.878 230.638 210.443C230.57 210.569 230.523 210.706 230.502 210.848C224.026 215.442 219.326 222.2 215.137 228.962C217.228 214.732 220.591 200.704 224.677 186.909C224.826 186.969 224.988 186.989 225.147 186.968C225.307 186.947 225.458 186.886 225.586 186.789C233.974 181.123 242.399 174.913 249.582 167.746C255.132 162.203 257.27 155.431 258.664 148.059C258.983 147.83 259.29 147.584 259.583 147.322C261.604 145.523 263.531 143.621 265.356 141.623C268.874 137.848 272.286 133.975 275.592 130.005C280.04 124.671 284.326 119.115 287.27 112.824C290.214 106.534 291.758 99.4109 290.49 92.5764C290.284 91.471 289.942 90.286 289.026 89.6388C288.342 89.2181 287.543 89.023 286.742 89.0811C280.478 89.1674 276.12 95.1522 273.036 100.606C266.79 111.657 261.411 123.177 256.948 135.061C255.756 138.234 254.624 141.533 254.322 144.879C253.989 145.495 253.908 146.216 254.096 146.891C254.14 147.04 254.199 147.185 254.272 147.322C254.286 147.632 254.309 147.941 254.342 148.248L254.485 147.661C254.92 148.245 255.563 148.639 256.28 148.763C254.777 155.863 252.384 162.117 246.654 167.457C240.075 173.598 232.912 179.098 225.484 184.17C226.176 181.889 226.885 179.616 227.611 177.352C232.441 162.293 237.928 147.419 243.64 132.661C243.828 132.621 244 132.528 244.136 132.392C244.273 132.257 244.366 132.085 244.407 131.897L244.45 131.645C244.499 131.374 244.462 131.094 244.344 130.845C245.718 127.304 247.104 123.773 248.5 120.25C254.229 105.757 260.908 91.0395 272.087 80.1222C272.087 80.1222 272.087 80.1222 272.107 80.1421C272.308 80.3194 272.531 80.47 272.771 80.5902C273.604 81.0118 274.587 81.0184 275.513 80.9056C281.517 80.1853 286.035 75.2627 289.836 70.5592C302.302 55.1407 313.312 38.6005 322.727 21.1507C325.263 16.4538 327.736 11.3387 328.008 6.12071C328.083 4.79896 328.001 3.47296 327.763 2.1707C327.616 1.37405 327.328 0.487785 326.591 0.149211C326.09 -0.0831428 325.509 0.0031608 324.968 0.0927831C320.825 0.756652 316.606 1.47695 312.885 3.41213C307.647 6.15059 303.9 11.0798 300.092 15.4945C296.657 19.4778 293.328 23.5539 290.184 27.7761C287.373 31.5436 284.667 35.4372 282.629 39.6826C280.412 44.3065 279.018 49.2755 277.65 54.2147C275.513 61.8116 273.388 69.4018 271.277 76.9854C271.189 77.3097 271.15 77.6453 271.161 77.9812C268.376 80.6546 265.814 83.551 263.5 86.6414C263.387 83.8111 263.221 80.983 263.002 78.1571C264.097 76.8593 264.24 74.788 264.207 72.9922C263.805 50.4672 259.666 27.6765 249.27 7.69409C248.161 5.56971 246.561 3.20633 244.168 3.14326C242.558 3.10011 241.101 4.18554 240.185 5.51327C238.565 7.88993 238.366 10.9338 238.343 13.8116C238.22 28.2608 241.131 42.587 245.081 56.4851C246.299 60.7704 247.63 65.0623 249.781 68.9592C251.942 72.8692 254.878 76.2963 258.411 79.0301L257.668 78.3497C258.697 79.0301 259.809 79.445 260.884 79.3189C261.128 82.7024 261.298 86.0882 261.396 89.4761C261.394 89.506 261.394 89.5359 261.396 89.5657C256.533 96.6393 252.679 104.48 249.29 112.492C247.077 117.733 244.922 123.013 242.824 128.332C241.911 125.73 241.47 122.275 240.66 120.193C239.408 117.019 237.994 113.912 236.424 110.883C233.822 105.807 230.864 100.925 227.814 96.1082C228.478 95.4011 228.81 94.0834 229.185 92.1581C229.712 89.0203 229.526 85.8039 228.64 82.7478C227.336 78.0177 224.777 73.7391 222.151 69.5932C214.539 57.658 206.022 46.3246 196.675 35.6928C192.692 31.1519 187.676 26.372 181.642 26.7737C181.138 26.7789 180.643 26.904 180.198 27.1388C179.679 27.5028 179.287 28.019 179.076 28.6159C177.582 32.1577 178.9 36.2006 180.327 39.7722C184.891 51.1971 190.528 62.1635 197.163 72.5242C196.522 82.3428 196.346 92.2544 198.474 101.837C199.53 106.594 201.129 111.208 202.746 115.808C204.14 119.805 205.535 123.8 206.932 127.795C207.43 129.222 208.133 130.852 209.587 131.227C209.689 131.252 209.792 131.271 209.896 131.283C211.761 140.392 211.3 149.019 210.125 158.25C208.293 153.603 206.431 149.025 204.708 144.474C207.645 132.717 200.303 117.89 195.287 107.882C190.481 98.289 185.239 88.9295 179.56 79.8035C177.406 76.3448 174.429 72.501 170.356 72.6902C166.827 72.8528 164.135 76.2552 163.548 79.7372C162.96 83.2191 163.966 86.7576 164.975 90.1433C168.361 101.539 171.903 113.027 177.98 123.247C182.767 131.303 192.622 144.03 202.875 145.819C209.252 162.495 217.481 179.859 218.954 197.69C218.969 197.932 219.057 198.163 219.207 198.354C219.187 198.42 219.17 198.487 219.154 198.553C215.25 192.037 211.041 185.482 205.999 179.819C202.71 176.128 198.823 173.21 194.713 170.617C194.713 168.035 192.028 164.331 191.115 162.545C187.291 155.056 183.095 147.697 177.668 141.235C164.491 125.544 145.308 116.409 126.74 107.736C124.569 106.74 121.585 105.877 120.101 107.769C119.026 109.153 119.537 111.151 120.144 112.798C130.7 141.48 155.608 164.463 185.044 172.682C187.119 173.263 191.782 174.514 193.82 172.659C197.701 175.115 201.359 177.884 204.442 181.379C209.786 187.44 214.198 194.497 218.307 201.434C218.333 201.477 218.363 201.517 218.397 201.554C215.617 212.527 213.523 223.663 212.126 234.897C211.439 240.622 211.008 246.358 210.769 252.101C208.6 246.192 206.434 240.283 204.27 234.372C205.929 225.108 198.627 213.819 193.618 206.792C186.75 197.166 178.017 189.076 169.34 181.047C163.365 175.507 157.108 169.808 149.351 167.285C148.451 166.989 147.472 166.744 146.566 167.026C145.262 167.438 144.525 168.815 144.156 170.133C142.898 174.627 144.379 179.427 146.244 183.699C154.672 203.018 170.635 217.556 186.807 230.445C191.059 233.834 199.632 243.577 203.148 237.695C205.458 244.002 207.769 250.308 210.082 256.615C210.174 256.876 210.361 257.093 210.606 257.223C210.251 273.122 211.244 289.052 212.266 304.931C212.359 306.339 214.563 306.349 214.47 304.931C214.038 298.273 213.604 291.604 213.275 284.932C217.131 276.021 222.524 267.858 229.208 260.814C233.682 266.537 240.809 263.536 246.183 260.386C261.575 251.364 274.368 238.083 286.875 225.563C289.633 222.801 292.428 219.989 294.284 216.557C296.139 213.125 296.939 208.923 295.518 205.291C295.342 204.73 295.001 204.235 294.539 203.871C293.925 203.452 293.122 203.479 292.385 203.539C277.242 204.803 264.307 214.493 252.297 223.803C245.044 229.43 237.652 235.182 232.009 242.501C228.395 247.191 225.142 253.186 227.993 258.886C221.938 265.166 216.899 272.351 213.056 280.182C212.495 266.62 212.458 253.05 213.806 239.524C213.989 237.688 214.204 235.856 214.43 234.024C214.603 233.933 214.747 233.795 214.845 233.625C220.744 223.866 227.097 213.679 238.117 209.228C246.568 205.819 255.839 203.801 264.914 201.736C265.415 201.822 265.92 201.881 266.428 201.912C278.779 202.772 291.193 203.618 303.475 202.367C315.756 201.116 328.081 197.63 338.192 190.514C340.642 188.791 343.025 186.763 344.25 184.031C345.475 181.299 345.229 177.704 342.975 175.749ZM211.768 162.442C213.318 151.508 214.208 141.231 211.994 130.56C212.459 130.165 212.821 129.664 213.049 129.099C213.13 128.895 213.197 128.685 213.248 128.472C213.722 127.353 214.073 126.185 214.294 124.99C216.548 114.477 217.666 103.527 216.521 92.8884C218.849 94.2162 221.293 95.3273 223.824 96.2077C224.385 96.4099 224.962 96.5621 225.55 96.6625C228.926 101.973 232.189 107.361 235.023 112.99C236.986 116.843 238.656 120.837 240.019 124.94C240.64 126.842 240.836 129.235 241.735 131.104C236.424 144.713 231.508 158.512 226.937 172.33C224.674 179.178 222.549 186.102 220.624 193.073C219.13 182.647 215.632 172.446 211.768 162.442Z" fill="#DCEFFD"/>
<path d="M274.464 78.1604C274.435 78.1606 274.406 78.1537 274.381 78.1405C274.342 78.1189 274.314 78.083 274.303 78.0407C274.291 77.9984 274.296 77.9531 274.318 77.9148C279.011 69.5633 323.846 3.40214 324.297 2.73495C324.309 2.71685 324.325 2.70134 324.343 2.68933C324.361 2.67732 324.381 2.66907 324.402 2.66504C324.424 2.66102 324.446 2.66132 324.467 2.66591C324.488 2.67051 324.508 2.67931 324.526 2.6918C324.562 2.71613 324.588 2.75385 324.596 2.79675C324.605 2.83964 324.597 2.88424 324.573 2.92083C324.118 3.5847 279.293 69.7392 274.606 78.0774C274.592 78.1025 274.571 78.1234 274.546 78.1379C274.521 78.1525 274.493 78.1603 274.464 78.1604Z" fill="#F5FAFF"/>
<path d="M261.319 78.1605C261.282 78.1608 261.245 78.1486 261.216 78.1257C261.186 78.1028 261.166 78.0706 261.157 78.0343L243.647 8.56045C243.637 8.51735 243.644 8.47201 243.667 8.43417C243.69 8.39632 243.727 8.36897 243.77 8.35797C243.791 8.35252 243.813 8.3513 243.834 8.35438C243.855 8.35746 243.876 8.36477 243.895 8.3759C243.913 8.38703 243.929 8.40174 243.942 8.41918C243.955 8.43662 243.964 8.45644 243.969 8.47747L261.479 77.9547C261.484 77.9758 261.485 77.9978 261.482 78.0195C261.479 78.0411 261.472 78.0619 261.461 78.0807C261.45 78.0995 261.435 78.116 261.418 78.1291C261.4 78.1422 261.38 78.1517 261.359 78.1572L261.319 78.1605Z" fill="#F5FAFF"/>
<path d="M225.756 94.6477C225.728 94.648 225.701 94.6415 225.677 94.6287C225.653 94.616 225.632 94.5974 225.616 94.5746L182.272 30.3818C182.257 30.3641 182.245 30.3434 182.239 30.321C182.232 30.2985 182.23 30.2749 182.233 30.2516C182.236 30.2284 182.244 30.206 182.256 30.186C182.268 30.166 182.284 30.1488 182.304 30.1356C182.323 30.1224 182.345 30.1134 182.368 30.1093C182.391 30.1052 182.415 30.106 182.438 30.1117C182.46 30.1174 182.482 30.1278 182.5 30.1423C182.519 30.1569 182.534 30.1751 182.545 30.1959L225.892 94.3887C225.904 94.4068 225.913 94.4271 225.918 94.4486C225.923 94.4701 225.923 94.4923 225.919 94.5139C225.915 94.5356 225.907 94.5562 225.895 94.5746C225.883 94.593 225.867 94.6088 225.849 94.6211C225.821 94.6394 225.789 94.6486 225.756 94.6477V94.6477Z" fill="#F5FAFF"/>
<path d="M210.308 129.448C210.264 129.448 210.221 129.43 210.19 129.399C210.159 129.368 210.142 129.326 210.142 129.282C210.142 128.707 206.427 83.2556 206.391 82.8108C206.389 82.789 206.391 82.767 206.398 82.7462C206.405 82.7254 206.416 82.7061 206.43 82.6894C206.444 82.6727 206.461 82.6591 206.481 82.6491C206.5 82.6392 206.522 82.6332 206.543 82.6316C206.565 82.6297 206.587 82.6323 206.608 82.639C206.629 82.6457 206.648 82.6564 206.665 82.6706C206.681 82.6848 206.695 82.7021 206.705 82.7216C206.715 82.7412 206.721 82.7624 206.723 82.7842C206.875 84.663 210.473 128.843 210.473 129.295C210.469 129.336 210.45 129.375 210.42 129.403C210.389 129.431 210.349 129.447 210.308 129.448V129.448Z" fill="#F5FAFF"/>
<path d="M203.108 144.146C203.077 144.146 203.046 144.137 203.02 144.121C202.993 144.104 202.972 144.081 202.958 144.053L169.061 77.3106C169.041 77.2709 169.038 77.2251 169.052 77.1828C169.065 77.1406 169.095 77.1055 169.134 77.0849C169.174 77.0652 169.219 77.0619 169.261 77.0755C169.302 77.0892 169.337 77.1189 169.357 77.1579L203.254 143.903C203.264 143.923 203.27 143.944 203.272 143.966C203.274 143.987 203.271 144.009 203.265 144.03C203.258 144.051 203.247 144.07 203.232 144.086C203.218 144.103 203.201 144.116 203.181 144.126C203.159 144.138 203.133 144.145 203.108 144.146V144.146Z" fill="#F5FAFF"/>
<path d="M192.277 171.467C192.237 171.467 192.198 171.453 192.167 171.427L123.483 110.73C123.467 110.715 123.454 110.698 123.444 110.678C123.435 110.658 123.429 110.637 123.428 110.615C123.427 110.593 123.43 110.571 123.437 110.55C123.444 110.53 123.456 110.511 123.47 110.494C123.485 110.478 123.502 110.465 123.522 110.455C123.542 110.445 123.563 110.44 123.585 110.439C123.607 110.438 123.629 110.441 123.65 110.448C123.67 110.455 123.689 110.466 123.706 110.481L192.386 171.165C192.417 171.196 192.434 171.238 192.434 171.281C192.434 171.325 192.417 171.367 192.386 171.398C192.374 171.416 192.358 171.432 192.339 171.444C192.32 171.456 192.299 171.464 192.277 171.467V171.467Z" fill="#F5FAFF"/>
<path d="M201.717 234.867C201.693 234.867 201.669 234.861 201.647 234.851C201.625 234.841 201.606 234.826 201.591 234.807L147.303 171.408C147.275 171.373 147.261 171.33 147.265 171.286C147.268 171.242 147.289 171.201 147.323 171.172C147.339 171.158 147.358 171.147 147.379 171.14C147.4 171.133 147.421 171.131 147.443 171.133C147.465 171.135 147.486 171.141 147.505 171.151C147.524 171.161 147.541 171.175 147.555 171.192L201.843 234.591C201.871 234.625 201.886 234.668 201.883 234.712C201.879 234.756 201.859 234.798 201.826 234.827C201.796 234.853 201.757 234.867 201.717 234.867V234.867Z" fill="#F5FAFF"/>
<path d="M257.797 145.566C257.77 145.566 257.742 145.559 257.718 145.546C257.679 145.525 257.651 145.489 257.639 145.447C257.628 145.404 257.633 145.359 257.655 145.321L286.792 92.8087C286.813 92.7705 286.849 92.7422 286.891 92.7298C286.933 92.7175 286.979 92.7219 287.017 92.7423C287.056 92.7639 287.084 92.7998 287.096 92.8421C287.107 92.8844 287.102 92.9297 287.081 92.968L257.943 145.48C257.929 145.506 257.908 145.528 257.882 145.544C257.857 145.559 257.827 145.567 257.797 145.566Z" fill="#F5FAFF"/>
<path d="M259.135 183.397C259.109 183.397 259.083 183.391 259.059 183.378C259.035 183.366 259.015 183.349 258.999 183.327C258.986 183.309 258.977 183.289 258.972 183.268C258.968 183.247 258.967 183.224 258.971 183.203C258.974 183.181 258.982 183.161 258.994 183.142C259.006 183.124 259.021 183.108 259.039 183.095L324.337 135.96C324.373 135.935 324.417 135.925 324.461 135.932C324.504 135.938 324.543 135.962 324.57 135.997C324.582 136.015 324.591 136.035 324.596 136.056C324.601 136.078 324.602 136.1 324.598 136.121C324.594 136.143 324.586 136.163 324.575 136.182C324.563 136.201 324.548 136.217 324.53 136.229L259.232 183.364C259.203 183.384 259.17 183.396 259.135 183.397V183.397Z" fill="#F5FAFF"/>
<path d="M264.884 198.855C264.847 198.855 264.812 198.843 264.783 198.82C264.754 198.797 264.733 198.765 264.725 198.729C264.72 198.708 264.718 198.686 264.721 198.664C264.724 198.643 264.732 198.622 264.743 198.603C264.754 198.584 264.769 198.568 264.786 198.555C264.803 198.542 264.823 198.532 264.845 198.527L340.771 179.274C340.792 179.269 340.814 179.268 340.835 179.271C340.857 179.274 340.877 179.281 340.896 179.292C340.914 179.303 340.931 179.318 340.943 179.336C340.956 179.353 340.965 179.373 340.97 179.394C340.976 179.415 340.977 179.437 340.974 179.459C340.971 179.48 340.964 179.501 340.953 179.52C340.942 179.539 340.927 179.555 340.909 179.568C340.892 179.581 340.872 179.591 340.851 179.596L264.924 198.849L264.884 198.855Z" fill="#F5FAFF"/>
<path d="M232.228 257.289C232.195 257.289 232.162 257.278 232.134 257.258C232.106 257.239 232.085 257.211 232.074 257.18C232.062 257.148 232.061 257.113 232.069 257.081C232.078 257.048 232.096 257.019 232.122 256.997L291.678 207.127C291.712 207.099 291.755 207.086 291.799 207.091C291.842 207.095 291.882 207.116 291.91 207.15C291.924 207.167 291.935 207.186 291.942 207.206C291.949 207.227 291.951 207.249 291.949 207.271C291.947 207.292 291.941 207.313 291.931 207.333C291.921 207.352 291.907 207.369 291.89 207.383L232.335 257.249C232.305 257.274 232.267 257.288 232.228 257.289V257.289Z" fill="#F5FAFF"/>
<path d="M141.491 448.782C64.6381 448.782 6.25409 448.623 5.25497 448.118C4.99816 447.998 4.79603 447.785 4.68879 447.523C4.58156 447.26 4.57707 446.967 4.67622 446.701C4.77538 446.436 4.9709 446.217 5.22391 446.089C5.47691 445.961 5.76886 445.933 6.04165 446.01C14.6354 447.142 476.436 445.984 481.106 445.974C481.395 445.989 481.668 446.115 481.867 446.326C482.066 446.536 482.177 446.814 482.177 447.104C482.177 447.394 482.066 447.672 481.867 447.882C481.668 448.093 481.395 448.219 481.106 448.234C414.451 448.417 257.09 448.782 141.491 448.782Z" fill="#161D8A"/>
<path d="M408.297 242.707H78.586C58.1566 242.707 41.5952 259.268 41.5952 279.698V357.48C41.5952 377.909 58.1566 394.471 78.586 394.471H408.297C428.726 394.471 445.287 377.909 445.287 357.48V279.698C445.287 259.268 428.726 242.707 408.297 242.707Z" fill="#BBE0F8"/>
<path d="M51.729 418.144H35.2783V446.01H51.729V418.144Z" fill="#4250E8"/>
<path d="M451.601 418.144H435.15V446.01H451.601V418.144Z" fill="#4250E8"/>
<path d="M451.604 411.403H35.2783V424.381H451.604V411.403Z" fill="#BBE0F8"/>
<path d="M35.2417 297.177C44.5734 297.177 53.5228 300.884 60.1213 307.483C66.7198 314.081 70.4268 323.031 70.4268 332.363V380.576H35.2417V297.177V297.177Z" fill="#4250E8"/>
<path d="M451.498 380.579H416.313V332.366C416.313 323.034 420.019 314.085 426.618 307.486C433.216 300.888 442.166 297.181 451.498 297.181V380.579Z" fill="#4250E8"/>
<path d="M448.971 296.749C436.086 297.207 426.068 308.188 426.068 321.08V368.46H60.8305V321.08C60.8305 308.188 50.8061 297.207 37.927 296.749C34.7339 296.633 31.5501 297.161 28.5657 298.303C25.5814 299.444 22.8578 301.176 20.5576 303.394C18.2574 305.611 16.4278 308.27 15.1781 311.211C13.9284 314.151 13.2843 317.314 13.2842 320.509V397.04C13.2842 402.591 15.4895 407.915 19.415 411.841C23.3404 415.766 28.6645 417.972 34.216 417.972H34.2757C36.1074 418.202 37.9608 418.202 39.7925 417.972H447.076C448.908 418.202 450.761 418.202 452.593 417.972H452.679C458.231 417.972 463.555 415.766 467.48 411.841C471.406 407.915 473.611 402.591 473.611 397.04V320.509C473.611 317.314 472.967 314.152 471.717 311.212C470.468 308.271 468.639 305.613 466.339 303.395C464.039 301.177 461.316 299.446 458.332 298.304C455.348 297.162 452.164 296.633 448.971 296.749Z" fill="#4250E8"/>
<path d="M43.5039 383.318C43.2703 383.321 43.0416 383.251 42.8504 383.117C42.6592 382.983 42.5152 382.792 42.439 382.571C42.3629 382.35 42.3584 382.111 42.4262 381.887C42.494 381.664 42.6307 381.467 42.8168 381.326L60.1305 367.578C60.2456 367.488 60.3771 367.422 60.5177 367.383C60.6583 367.344 60.8052 367.334 60.9499 367.352C61.0946 367.37 61.2344 367.416 61.3612 367.488C61.488 367.56 61.5993 367.657 61.6889 367.772C61.7785 367.887 61.8445 368.018 61.8832 368.159C61.922 368.3 61.9326 368.446 61.9146 368.591C61.8965 368.736 61.8502 368.876 61.7782 369.002C61.7061 369.129 61.6098 369.241 61.4947 369.33L44.181 383.079C43.9887 383.233 43.7501 383.317 43.5039 383.318V383.318Z" fill="#4250E8"/>
<path d="M441.344 385.09C441.197 385.09 441.052 385.061 440.917 385.004C440.782 384.947 440.66 384.863 440.557 384.758L425.288 369.234C425.186 369.13 425.105 369.008 425.051 368.873C424.996 368.738 424.969 368.594 424.97 368.449C424.971 368.304 425.001 368.16 425.057 368.026C425.114 367.892 425.196 367.771 425.3 367.669C425.403 367.567 425.526 367.486 425.661 367.431C425.795 367.377 425.939 367.349 426.085 367.35C426.23 367.351 426.374 367.381 426.508 367.438C426.641 367.494 426.763 367.577 426.865 367.68L442.134 383.205C442.286 383.361 442.388 383.558 442.429 383.772C442.469 383.986 442.446 384.207 442.362 384.407C442.277 384.608 442.136 384.78 441.955 384.9C441.774 385.021 441.561 385.086 441.344 385.087V385.09Z" fill="#4250E8"/>
<path d="M367.744 481.813C414.935 481.813 453.191 476.983 453.191 471.025C453.191 465.067 414.935 460.237 367.744 460.237C320.553 460.237 282.297 465.067 282.297 471.025C282.297 476.983 320.553 481.813 367.744 481.813Z" fill="#BBE0F8"/>
<path d="M377.51 220.398H352.243L355.247 195.27H374.506L377.51 220.398Z" fill="url(#paint0_linear_181_391)"/>
<path d="M386.246 149.872H364.882C340.512 149.872 348.04 162.18 348.04 162.18C343.675 170.478 349.876 182.395 349.876 182.395H379.587C379.587 182.395 385.788 170.488 381.423 162.18C381.346 162.037 381.253 161.914 381.17 161.778C388.739 158.983 386.246 149.872 386.246 149.872Z" fill="black"/>
<path d="M378.641 178.468V172.277C378.641 170.178 377.808 168.166 376.324 166.682C374.84 165.198 372.827 164.364 370.728 164.364H359.177C357.08 164.366 355.069 165.201 353.588 166.685C352.106 168.169 351.273 170.18 351.273 172.277V178.504C351.164 178.504 351.058 178.471 350.941 178.471C350.417 178.456 349.894 178.546 349.405 178.736C348.916 178.926 348.47 179.213 348.094 179.578C347.717 179.944 347.418 180.382 347.213 180.865C347.009 181.349 346.904 181.868 346.904 182.393C346.904 182.918 347.009 183.437 347.213 183.921C347.418 184.404 347.717 184.842 348.094 185.207C348.47 185.573 348.916 185.859 349.405 186.05C349.894 186.24 350.417 186.33 350.941 186.315C351.054 186.315 351.16 186.291 351.273 186.281V186.736C351.274 190.366 352.717 193.848 355.284 196.415C357.851 198.982 361.332 200.424 364.962 200.425V200.425C368.593 200.425 372.075 198.983 374.642 196.416C377.209 193.849 378.651 190.367 378.651 186.736V186.315C379.176 186.33 379.698 186.24 380.187 186.05C380.677 185.859 381.123 185.573 381.499 185.207C381.876 184.842 382.175 184.404 382.379 183.921C382.584 183.437 382.689 182.918 382.689 182.393C382.689 181.868 382.584 181.349 382.379 180.865C382.175 180.382 381.876 179.944 381.499 179.578C381.123 179.213 380.677 178.926 380.187 178.736C379.698 178.546 379.176 178.456 378.651 178.471L378.641 178.468Z" fill="url(#paint1_linear_181_391)"/>
<path d="M444.474 256.472L432.266 232.742C428.306 225.049 422.263 218.624 414.827 214.201C407.39 209.777 398.86 207.534 390.21 207.728C388.633 207.471 387.04 207.336 385.443 207.326H341.518C339.925 207.337 338.334 207.47 336.761 207.724C328.218 207.65 319.821 209.95 312.507 214.367C305.194 218.785 299.25 225.146 295.339 232.742L283.127 256.472L313.798 272.262L316.493 337.481C316.534 338.422 316.936 339.311 317.617 339.963C318.297 340.614 319.203 340.977 320.145 340.976H406.833C407.775 340.977 408.681 340.614 409.361 339.963C410.041 339.311 410.444 338.422 410.484 337.481L413.166 272.601L444.474 256.472Z" fill="#007CF4"/>
<path d="M413.083 272.594H413.06C413.007 272.592 412.955 272.58 412.907 272.557C412.859 272.535 412.816 272.503 412.781 272.464C412.746 272.424 412.719 272.378 412.702 272.328C412.685 272.278 412.677 272.226 412.681 272.173L414.108 245.532C414.107 245.477 414.118 245.422 414.139 245.371C414.16 245.32 414.191 245.274 414.231 245.235C414.271 245.197 414.318 245.167 414.37 245.148C414.421 245.128 414.476 245.12 414.532 245.123C414.587 245.126 414.641 245.14 414.69 245.165C414.739 245.19 414.783 245.224 414.818 245.267C414.854 245.309 414.88 245.359 414.896 245.412C414.911 245.465 414.915 245.52 414.908 245.575L413.481 272.216C413.476 272.318 413.432 272.414 413.358 272.485C413.283 272.555 413.185 272.595 413.083 272.594V272.594Z" fill="#1F191A"/>
<path d="M313.685 272.594C313.583 272.595 313.484 272.556 313.41 272.486C313.335 272.415 313.291 272.318 313.287 272.216L311.86 245.575C311.853 245.52 311.857 245.465 311.872 245.412C311.888 245.359 311.914 245.309 311.95 245.267C311.985 245.224 312.029 245.19 312.078 245.165C312.127 245.14 312.181 245.126 312.236 245.123C312.292 245.12 312.347 245.128 312.398 245.148C312.45 245.167 312.497 245.197 312.537 245.235C312.577 245.274 312.608 245.32 312.629 245.371C312.65 245.422 312.661 245.477 312.66 245.532L314.087 272.173C314.092 272.279 314.056 272.383 313.985 272.462C313.914 272.541 313.815 272.588 313.709 272.594H313.685Z" fill="#1F191A"/>
<path d="M380.311 298.781L343.725 294.402C341.647 294.154 339.752 293.09 338.458 291.445C337.164 289.8 336.576 287.708 336.824 285.629L343.904 226.442C344.154 224.364 345.218 222.469 346.864 221.176C348.51 219.882 350.602 219.296 352.681 219.545L389.27 223.919C391.348 224.169 393.243 225.233 394.536 226.879C395.83 228.525 396.417 230.617 396.167 232.696L389.087 291.88C388.964 292.909 388.64 293.904 388.132 294.808C387.624 295.712 386.944 296.507 386.129 297.148C385.314 297.789 384.38 298.263 383.382 298.543C382.384 298.823 381.34 298.904 380.311 298.781V298.781Z" fill="#BBE0F8"/>
<path d="M370.576 264.331C373.442 262.077 373.939 257.927 371.685 255.06C369.431 252.194 365.28 251.698 362.414 253.952C359.548 256.206 359.051 260.356 361.305 263.223C363.559 266.089 367.71 266.585 370.576 264.331Z" fill="#4250E8"/>
<path d="M352.156 226.329C352.116 226.664 351.977 226.98 351.757 227.236C351.538 227.492 351.247 227.677 350.922 227.768C350.597 227.859 350.252 227.851 349.932 227.746C349.611 227.641 349.329 227.443 349.12 227.178C348.912 226.913 348.787 226.591 348.761 226.255C348.736 225.919 348.81 225.582 348.975 225.288C349.141 224.994 349.39 224.756 349.691 224.603C349.992 224.45 350.331 224.39 350.666 224.431C350.889 224.457 351.104 224.528 351.299 224.638C351.494 224.747 351.666 224.895 351.805 225.071C351.943 225.247 352.045 225.449 352.106 225.665C352.166 225.881 352.183 226.107 352.156 226.329Z" fill="#4250E8"/>
<path d="M351.675 230.369C351.635 230.705 351.497 231.021 351.277 231.278C351.057 231.535 350.766 231.722 350.44 231.813C350.115 231.905 349.769 231.898 349.448 231.793C349.126 231.688 348.843 231.49 348.634 231.225C348.425 230.959 348.299 230.637 348.273 230.3C348.247 229.963 348.322 229.625 348.487 229.33C348.653 229.035 348.902 228.796 349.204 228.643C349.505 228.49 349.846 228.43 350.181 228.47C350.631 228.525 351.04 228.756 351.32 229.111C351.6 229.467 351.728 229.919 351.675 230.369V230.369Z" fill="#4250E8"/>
<path d="M284.332 318.368L282.772 317.857C281.076 317.303 279.506 316.42 278.151 315.26C276.796 314.099 275.683 312.682 274.876 311.091C274.068 309.5 273.582 307.765 273.446 305.986C273.309 304.207 273.524 302.418 274.079 300.723L287.542 258.736L313.685 272.196L301.483 309.675C300.929 311.372 300.045 312.944 298.883 314.3C297.721 315.655 296.302 316.769 294.71 317.576C293.117 318.384 291.38 318.869 289.6 319.005C287.819 319.141 286.029 318.924 284.332 318.368V318.368Z" fill="#FA6964"/>
<path d="M355.778 289.062L345.358 294.761L329.107 265.059H355.778V289.062Z" fill="#FFABAB"/>
<path d="M345.358 294.761L344.571 295.192L328.157 265.196L328.406 265.059H329.107L345.358 294.761Z" fill="#FFABAB"/>
<path d="M328.163 265.165L327.374 265.596L343.789 295.591L344.578 295.159L328.163 265.165Z" fill="#FFABAB"/>
<path d="M327.374 265.607L326.584 266.038L342.999 296.033L343.788 295.601L327.374 265.607Z" fill="#FFABAB"/>
<path d="M326.585 266.029L325.796 266.461L342.211 296.456L343 296.024L326.585 266.029Z" fill="#FFAAAA"/>
<path d="M325.794 266.462L325.005 266.894L341.42 296.888L342.209 296.456L325.794 266.462Z" fill="#FFAAAA"/>
<path d="M325.006 266.884L324.217 267.316L340.632 297.311L341.421 296.879L325.006 266.884Z" fill="#FFAAAA"/>
<path d="M324.215 267.327L323.426 267.759L339.841 297.753L340.63 297.321L324.215 267.327Z" fill="#FFA9A9"/>
<path d="M323.429 267.752L322.64 268.184L339.054 298.179L339.844 297.747L323.429 267.752Z" fill="#FFA9A9"/>
<path d="M322.634 268.191L321.845 268.623L338.26 298.618L339.049 298.186L322.634 268.191Z" fill="#FFA8A8"/>
<path d="M321.843 268.63L321.054 269.062L337.469 299.057L338.258 298.625L321.843 268.63Z" fill="#FFA8A8"/>
<path d="M321.055 269.056L320.266 269.488L336.681 299.483L337.47 299.051L321.055 269.056Z" fill="#FFA7A7"/>
<path d="M320.264 269.485L319.475 269.917L335.889 299.912L336.679 299.48L320.264 269.485Z" fill="#FFA7A5"/>
<path d="M319.478 269.911L318.688 270.343L335.103 300.338L335.892 299.906L319.478 269.911Z" fill="#FFA6A6"/>
<path d="M318.686 270.353L317.897 270.785L334.312 300.78L335.101 300.348L318.686 270.353Z" fill="#FFA6A4"/>
<path d="M317.899 270.776L317.109 271.208L333.524 301.203L334.313 300.771L317.899 270.776Z" fill="#FFA4A3"/>
<path d="M317.104 271.215L316.315 271.647L332.73 301.642L333.519 301.21L317.104 271.215Z" fill="#FFA4A4"/>
<path d="M316.313 271.654L315.523 272.086L331.938 302.081L332.727 301.649L316.313 271.654Z" fill="#FFA4A2"/>
<path d="M315.526 272.083L314.737 272.515L331.152 302.51L331.941 302.078L315.526 272.083Z" fill="#FFA2A1"/>
<path d="M314.735 272.515L313.946 272.947L330.361 302.942L331.15 302.51L314.735 272.515Z" fill="#FFA1A0"/>
<path d="M313.947 272.938L313.158 273.37L329.573 303.365L330.362 302.933L313.947 272.938Z" fill="#FFA0A0"/>
<path d="M313.156 273.377L312.367 273.809L328.782 303.804L329.571 303.372L313.156 273.377Z" fill="#FFA09F"/>
<path d="M312.368 273.8L311.579 274.231L327.994 304.226L328.783 303.794L312.368 273.8Z" fill="#FF9F9E"/>
<path d="M311.578 274.243L310.789 274.675L327.204 304.67L327.993 304.238L311.578 274.243Z" fill="#FF9E9D"/>
<path d="M310.787 274.683L309.998 275.114L326.412 305.109L327.202 304.677L310.787 274.683Z" fill="#FF9D9C"/>
<path d="M309.999 275.105L309.209 275.537L325.624 305.532L326.413 305.1L309.999 275.105Z" fill="#FF9C9B"/>
<path d="M309.211 275.528L308.422 275.959L324.837 305.954L325.626 305.522L309.211 275.528Z" fill="#FF9C9A"/>
<path d="M308.419 275.97L307.63 276.402L324.045 306.397L324.834 305.965L308.419 275.97Z" fill="#FF9B9A"/>
<path d="M307.63 276.402L306.841 276.834L323.256 306.829L324.045 306.397L307.63 276.402Z" fill="#FF9A99"/>
<path d="M306.842 276.828L306.053 277.26L322.468 307.255L323.257 306.823L306.842 276.828Z" fill="#FF9998"/>
<path d="M306.051 277.267L305.262 277.699L321.677 307.694L322.466 307.262L306.051 277.267Z" fill="#FF9897"/>
<path d="M305.256 277.706L304.467 278.138L320.882 308.133L321.671 307.701L305.256 277.706Z" fill="#FF9796"/>
<path d="M304.468 278.132L303.679 278.564L320.094 308.559L320.883 308.127L304.468 278.132Z" fill="#FF9695"/>
<path d="M303.682 278.558L302.893 278.99L319.308 308.984L320.097 308.552L303.682 278.558Z" fill="#FF9594"/>
<path d="M302.891 278.997L302.102 279.429L318.516 309.423L319.306 308.992L302.891 278.997Z" fill="#FF9493"/>
<path d="M302.1 279.429L301.311 279.861L317.725 309.856L318.514 309.424L302.1 279.429Z" fill="#FF9392"/>
<path d="M301.312 279.852L300.522 280.284L316.937 310.278L317.726 309.847L301.312 279.852Z" fill="#FF9290"/>
<path d="M300.521 280.291L299.731 280.723L316.146 310.718L316.935 310.286L300.521 280.291Z" fill="#FF918F"/>
<path d="M299.728 280.733L298.938 281.165L315.353 311.16L316.142 310.728L299.728 280.733Z" fill="#FF908E"/>
<path d="M298.939 281.159L298.15 281.591L314.565 311.585L315.354 311.154L298.939 281.159Z" fill="#FF8F8D"/>
<path d="M298.151 281.581L297.362 282.013L313.777 312.008L314.566 311.576L298.151 281.581Z" fill="#FF8E8C"/>
<path d="M297.36 282.02L296.571 282.452L312.986 312.447L313.775 312.015L297.36 282.02Z" fill="#FF8D8B"/>
<path d="M296.572 282.446L295.783 282.878L312.198 312.873L312.987 312.441L296.572 282.446Z" fill="#FF8C8A"/>
<path d="M295.779 282.888L294.99 283.32L311.405 313.315L312.194 312.883L295.779 282.888Z" fill="#FF8B89"/>
<path d="M294.985 283.334L294.196 283.766L310.611 313.761L311.4 313.329L294.985 283.334Z" fill="#FF8A87"/>
<path d="M294.207 283.742L293.417 284.174L309.832 314.169L310.621 313.737L294.207 283.742Z" fill="#FF8986"/>
<path d="M293.412 284.181L292.623 284.613L309.038 314.608L309.827 314.176L293.412 284.181Z" fill="#FF8885"/>
<path d="M292.624 284.604L291.835 285.035L308.25 315.03L309.039 314.598L292.624 284.604Z" fill="#FF8684"/>
<path d="M291.835 285.049L291.045 285.481L307.46 315.476L308.249 315.044L291.835 285.049Z" fill="#FF8582"/>
<path d="M291.046 285.471L290.257 285.903L306.672 315.898L307.461 315.466L291.046 285.471Z" fill="#FF8481"/>
<path d="M290.252 285.911L289.463 286.343L305.878 316.337L306.667 315.905L290.252 285.911Z" fill="#FF8380"/>
<path d="M289.458 286.36L288.668 286.792L305.083 316.786L305.872 316.355L289.458 286.36Z" fill="#FF8280"/>
<path d="M288.676 286.766L287.887 287.198L304.302 317.192L305.091 316.76L288.676 286.766Z" fill="#FD817E"/>
<path d="M287.883 287.208L287.094 287.64L303.509 317.634L304.298 317.203L287.883 287.208Z" fill="#FF807D"/>
<path d="M287.095 287.634L286.306 288.065L302.721 318.06L303.51 317.628L287.095 287.634Z" fill="#FD7F7C"/>
<path d="M286.304 288.073L285.515 288.505L301.929 318.499L302.719 318.067L286.304 288.073Z" fill="#FD7E7A"/>
<path d="M285.516 288.495L284.727 288.927L301.142 318.922L301.931 318.49L285.516 288.495Z" fill="#FD7D79"/>
<path d="M284.723 288.937L283.934 289.369L300.349 319.364L301.138 318.932L284.723 288.937Z" fill="#FC7B78"/>
<path d="M283.932 289.377L283.143 289.808L299.557 319.803L300.347 319.371L283.932 289.377Z" fill="#FC7A76"/>
<path d="M283.144 289.802L282.355 290.234L298.77 320.229L299.559 319.797L283.144 289.802Z" fill="#FC7975"/>
<path d="M282.353 290.235L281.563 290.667L297.978 320.661L298.767 320.23L282.353 290.235Z" fill="#FC7774"/>
<path d="M281.568 290.657L280.779 291.089L297.194 321.084L297.983 320.652L281.568 290.657Z" fill="#FC7671"/>
<path d="M280.775 291.099L279.986 291.531L296.401 321.526L297.19 321.094L280.775 291.099Z" fill="#FB7570"/>
<path d="M279.987 291.525L279.198 291.957L295.613 321.952L296.402 321.52L279.987 291.525Z" fill="#FB746E"/>
<path d="M279.196 291.964L278.407 292.396L294.822 322.391L295.611 321.959L279.196 291.964Z" fill="#FB726D"/>
<path d="M278.401 292.404L277.612 292.835L294.027 322.83L294.816 322.398L278.401 292.404Z" fill="#FA716B"/>
<path d="M294.018 322.853L293.447 323.165H293.165L276.817 293.291L277.607 292.856L294.018 322.853Z" fill="#FA706A"/>
<path d="M292.139 323.165L276.027 293.722L276.817 293.29L293.165 323.165H292.139Z" fill="#F96D68"/>
<path d="M291.11 323.165L275.237 294.154L276.027 293.722L292.139 323.165H291.11Z" fill="#FA6C67"/>
<path d="M290.084 323.165L274.447 294.585L275.237 294.154L291.11 323.165H290.084Z" fill="#F96A66"/>
<path d="M289.059 323.165L273.657 295.016L274.447 294.585L290.085 323.165H289.059Z" fill="#F96964"/>
<path d="M270.069 296.982L273.657 295.016L289.059 323.165H270.069V296.982Z" fill="#F96964"/>
<path d="M339.934 270.118C339.828 270.118 339.726 270.076 339.65 270.001C339.575 269.925 339.533 269.823 339.533 269.717C339.533 269.61 339.575 269.508 339.65 269.433C339.726 269.357 339.828 269.315 339.934 269.315L351.267 268.784C351.32 268.778 351.374 268.783 351.425 268.799C351.476 268.816 351.523 268.843 351.563 268.879C351.602 268.915 351.634 268.96 351.655 269.009C351.676 269.058 351.686 269.112 351.685 269.165C351.689 269.272 351.652 269.376 351.58 269.455C351.509 269.533 351.409 269.581 351.303 269.587L339.971 270.118H339.934Z" fill="#1F191A"/>
<path d="M341.239 275.273C341.138 275.269 341.042 275.227 340.971 275.156C340.9 275.085 340.858 274.989 340.853 274.888C340.849 274.788 340.883 274.689 340.948 274.612C341.014 274.535 341.106 274.485 341.206 274.473L352.13 273.51C352.182 273.502 352.236 273.506 352.288 273.52C352.339 273.534 352.387 273.56 352.428 273.594C352.469 273.628 352.503 273.67 352.526 273.718C352.55 273.766 352.563 273.819 352.564 273.872C352.569 273.925 352.564 273.978 352.549 274.028C352.533 274.078 352.508 274.125 352.474 274.165C352.44 274.206 352.399 274.239 352.353 274.263C352.306 274.288 352.255 274.303 352.203 274.307L341.275 275.273H341.239Z" fill="#1F191A"/>
<path d="M342.729 280.428C342.628 280.425 342.532 280.383 342.46 280.312C342.388 280.241 342.346 280.146 342.341 280.045C342.337 279.944 342.37 279.845 342.435 279.768C342.501 279.69 342.592 279.641 342.693 279.628L353.477 278.579C353.582 278.575 353.684 278.61 353.765 278.677C353.846 278.744 353.899 278.837 353.915 278.941C353.925 279.047 353.892 279.152 353.824 279.234C353.757 279.316 353.659 279.368 353.554 279.379L342.769 280.428H342.729Z" fill="#1F191A"/>
<path d="M439.691 308.311L441.254 307.799C444.679 306.679 447.518 304.244 449.148 301.03C450.777 297.816 451.064 294.087 449.944 290.662L441.065 258.258L413.514 272.442L422.556 299.617C423.681 303.038 426.116 305.875 429.327 307.504C432.539 309.133 436.266 309.424 439.691 308.311Z" fill="#FA6964"/>
<path d="M443.8 307.192C443.8 307.192 453.449 295.607 441.476 278.901C429.504 262.195 410.129 239.308 410.129 239.308C410.129 239.308 403.779 225.519 399.839 225.184C396.745 224.925 391.949 225.005 390.027 225.051C389.363 225.064 388.731 225.337 388.267 225.812C387.471 226.631 386.687 228.072 388.37 229.825C388.37 229.825 385.356 231.415 388.39 235.381C388.39 235.381 385.97 238.405 388.789 241.22C388.789 241.22 387.61 242.84 387.975 244.619C388.264 246.02 389.778 246.806 391.152 246.411L393.774 245.661L397.2 247.016C397.2 247.016 399.483 255.762 409.989 258.71C409.989 258.71 418.619 292.079 427.871 305.964C431.309 311.122 438.708 312.141 443.173 307.843C443.392 307.633 443.601 307.418 443.8 307.192Z" fill="url(#paint2_linear_181_391)"/>
<path d="M388.56 230.482C388.473 230.481 388.39 230.449 388.325 230.392C388.261 230.334 388.219 230.256 388.208 230.17C388.201 230.123 388.204 230.076 388.216 230.031C388.228 229.985 388.249 229.943 388.278 229.906C388.307 229.869 388.343 229.838 388.384 229.815C388.425 229.792 388.47 229.777 388.516 229.772L397.339 228.65C397.386 228.644 397.433 228.647 397.478 228.659C397.523 228.672 397.565 228.693 397.602 228.722C397.639 228.75 397.67 228.786 397.694 228.827C397.717 228.867 397.732 228.912 397.738 228.958C397.743 229.005 397.74 229.052 397.728 229.097C397.715 229.142 397.694 229.184 397.666 229.221C397.637 229.258 397.601 229.289 397.561 229.313C397.52 229.336 397.475 229.351 397.429 229.357L388.606 230.479L388.56 230.482Z" fill="#1F191A"/>
<path d="M388.55 236.062C388.503 236.064 388.456 236.057 388.412 236.042C388.368 236.026 388.328 236.002 388.293 235.971C388.259 235.939 388.23 235.901 388.21 235.859C388.19 235.817 388.179 235.771 388.176 235.725C388.174 235.678 388.181 235.631 388.196 235.587C388.212 235.543 388.236 235.503 388.267 235.468C388.299 235.434 388.336 235.405 388.379 235.385C388.421 235.365 388.466 235.354 388.513 235.351L397.356 234.409C397.404 234.404 397.452 234.409 397.497 234.423C397.543 234.438 397.585 234.461 397.622 234.492C397.658 234.523 397.688 234.561 397.71 234.604C397.731 234.646 397.744 234.693 397.748 234.741C397.753 234.788 397.749 234.837 397.735 234.883C397.721 234.929 397.698 234.972 397.666 235.008C397.635 235.045 397.597 235.075 397.554 235.096C397.511 235.118 397.464 235.13 397.416 235.132L388.57 236.072L388.55 236.062Z" fill="#1F191A"/>
<path d="M389.024 241.505C388.93 241.512 388.837 241.48 388.766 241.418C388.695 241.356 388.652 241.268 388.646 241.174C388.64 241.079 388.671 240.987 388.733 240.916C388.796 240.845 388.884 240.801 388.978 240.795L396.071 239.856C396.165 239.843 396.26 239.868 396.335 239.925C396.411 239.983 396.46 240.067 396.473 240.161C396.486 240.255 396.461 240.35 396.403 240.425C396.346 240.501 396.261 240.55 396.167 240.563L389.071 241.502L389.024 241.505Z" fill="#1F191A"/>
<path d="M393.781 246.016C393.72 246.016 393.66 246.001 393.606 245.971C393.553 245.942 393.508 245.899 393.475 245.847L392.669 244.519C392.644 244.48 392.628 244.435 392.621 244.389C392.614 244.343 392.615 244.296 392.626 244.25C392.637 244.205 392.657 244.162 392.685 244.124C392.712 244.086 392.747 244.054 392.787 244.03C392.827 244.005 392.871 243.989 392.917 243.982C392.963 243.975 393.01 243.976 393.056 243.987C393.101 243.998 393.144 244.018 393.182 244.046C393.22 244.073 393.252 244.108 393.276 244.148L394.086 245.475C394.111 245.515 394.127 245.56 394.135 245.606C394.142 245.653 394.14 245.7 394.129 245.746C394.118 245.792 394.098 245.835 394.07 245.873C394.042 245.911 394.007 245.942 393.967 245.967C393.91 245.999 393.846 246.016 393.781 246.016V246.016Z" fill="#1F191A"/>
<path d="M342.002 467.35L323.056 464.658L321.031 403.287L349.6 413.886L342.002 467.35Z" fill="url(#paint3_linear_181_391)"/>
<path d="M344.1 469.216C344.1 464.195 342.106 459.379 338.555 455.829C335.005 452.279 330.189 450.284 325.168 450.284C320.147 450.284 315.332 452.279 311.781 455.829C308.231 459.379 306.236 464.195 306.236 469.216H344.1Z" fill="black"/>
<path d="M389.25 466.557L408.197 463.865L410.222 402.494L381.652 413.096L389.25 466.557Z" fill="url(#paint4_linear_181_391)"/>
<path d="M385.652 468.422C385.652 463.401 387.646 458.586 391.197 455.036C394.747 451.485 399.563 449.491 404.584 449.491C409.605 449.491 414.42 451.485 417.971 455.036C421.521 458.586 423.516 463.401 423.516 468.422H385.652Z" fill="black"/>
<path d="M376.457 302.561C371.277 304.417 367.04 308.243 364.667 313.207C362.236 308.62 358.181 305.107 353.295 303.355C294.874 282.443 313.864 433.224 313.864 433.224L350.121 434.008L361.198 362.901H368.677L379.63 433.214L415.888 432.431C415.888 432.431 434.868 281.66 376.457 302.561Z" fill="#050542"/>
<path d="M361.198 362.901L364.667 313.207L368.677 362.901H361.198Z" fill="black"/>
<path d="M193.455 502.954C234.375 502.954 267.546 498.405 267.546 492.793C267.546 487.182 234.375 482.633 193.455 482.633C152.536 482.633 119.364 487.182 119.364 492.793C119.364 498.405 152.536 502.954 193.455 502.954Z" fill="#BBE0F8"/>
<path d="M118.398 169.605C118.398 169.605 99.8099 157.523 85.9317 183.175C72.0535 208.826 55.5962 206.768 48.5758 217.244C39.2982 231.093 48.5526 248.476 103.607 249.893C151.416 251.122 159.206 169.605 118.398 169.605Z" fill="black"/>
<path d="M126.06 276.216L195.069 301.745V311.062L141.348 304.443C137.13 303.923 133.247 301.879 130.431 298.695C127.615 295.511 126.06 291.407 126.06 287.156V276.216Z" fill="url(#paint5_linear_181_391)"/>
<path d="M73.574 300.928L71.8911 330.753H129.326L132.522 300.928H73.574Z" fill="url(#paint6_linear_181_391)"/>
<path d="M151.532 362.047L139.078 453.917H176.254C176.254 453.917 204.967 387.218 201.183 347.386C199.855 333.425 187.905 322.882 173.874 322.882H155.402L151.532 362.047Z" fill="#050542"/>
<path d="M96.8294 222.253C96.8294 222.253 55.3177 220.467 46.0435 257.72L69.2424 267.164V303.677C69.2432 304.392 69.5277 305.079 70.0335 305.585C70.5393 306.091 71.2252 306.377 71.941 306.379L133.478 306.418C134.107 306.418 134.717 306.198 135.201 305.797C135.686 305.396 136.016 304.839 136.134 304.221L142.268 256.173C143.928 243.175 136.293 230.664 123.856 226.525C117.167 224.311 108.371 222.615 96.8294 222.253Z" fill="#F54552"/>
<path d="M68.937 268.09C68.8995 268.095 68.8615 268.095 68.8241 268.09C68.7717 268.076 68.7227 268.051 68.6799 268.018C68.6371 267.985 68.6014 267.943 68.5748 267.896C68.5483 267.849 68.5314 267.797 68.5252 267.743C68.5189 267.689 68.5235 267.634 68.5386 267.582L74.5732 246.006C74.5841 245.95 74.6065 245.897 74.6391 245.85C74.6716 245.802 74.7136 245.762 74.7624 245.732C74.8111 245.702 74.8656 245.682 74.9223 245.674C74.9791 245.666 75.0369 245.67 75.0921 245.686C75.1473 245.701 75.1988 245.728 75.2431 245.764C75.2875 245.8 75.3239 245.845 75.35 245.896C75.3761 245.947 75.3913 246.003 75.3947 246.06C75.3982 246.118 75.3897 246.175 75.3698 246.229L69.3353 267.805C69.3073 267.888 69.2538 267.96 69.1823 268.012C69.1108 268.063 69.0249 268.09 68.937 268.09V268.09Z" fill="#1F191A"/>
<path d="M49.6514 259.191L40.7788 287.737L43.6235 288.501C48.0073 289.675 52.6739 289.134 56.6727 286.988C60.6715 284.842 63.7018 281.252 65.1461 276.949L68.5352 266.875L49.6514 259.191Z" fill="url(#paint7_linear_181_391)"/>
<path d="M118.823 270.218C115.295 269.431 107.156 274.045 107.156 274.045L98.3396 275.535L47.6731 282.459C37.6818 283.824 37.4794 298.276 47.444 299.836C63.669 302.379 95.2161 287 100.105 284.567C105.234 289.457 112.204 283.953 112.204 283.953L114.415 284.451L115.125 285.483C115.354 285.822 115.662 286.098 116.023 286.29C116.383 286.481 116.785 286.581 117.193 286.581C117.602 286.581 118.004 286.481 118.364 286.29C118.725 286.098 119.033 285.822 119.261 285.483C119.413 285.255 119.55 285.018 119.673 284.773C122.694 284.531 122.109 281.51 122.109 281.51C125.263 281.079 124.327 278.357 124.327 278.357C129.296 276.684 122.355 271.001 118.823 270.218Z" fill="url(#paint8_linear_181_391)"/>
<path d="M124.323 278.758C124.236 278.759 124.152 278.732 124.081 278.682L118.796 274.928C118.705 274.863 118.643 274.765 118.624 274.654C118.605 274.544 118.63 274.43 118.695 274.339C118.76 274.247 118.858 274.185 118.969 274.166C119.079 274.147 119.193 274.173 119.284 274.237L124.562 277.992C124.608 278.024 124.646 278.064 124.676 278.112C124.706 278.159 124.726 278.211 124.735 278.266C124.744 278.321 124.743 278.377 124.73 278.432C124.717 278.486 124.694 278.537 124.662 278.582C124.623 278.637 124.573 278.681 124.514 278.712C124.455 278.742 124.39 278.758 124.323 278.758Z" fill="#1F191A"/>
<path d="M122.106 281.912C122.002 281.913 121.901 281.875 121.824 281.806L116.586 277.158C116.544 277.122 116.511 277.077 116.487 277.027C116.462 276.977 116.448 276.923 116.445 276.868C116.442 276.812 116.45 276.757 116.468 276.705C116.486 276.652 116.514 276.604 116.551 276.563C116.588 276.521 116.632 276.487 116.682 276.463C116.732 276.439 116.786 276.425 116.842 276.422C116.897 276.419 116.952 276.426 117.005 276.444C117.057 276.463 117.105 276.491 117.147 276.528L122.385 281.175C122.427 281.212 122.461 281.256 122.485 281.306C122.51 281.356 122.524 281.41 122.527 281.466C122.531 281.522 122.523 281.577 122.505 281.63C122.487 281.682 122.458 281.731 122.421 281.772C122.381 281.816 122.333 281.851 122.278 281.875C122.224 281.899 122.165 281.912 122.106 281.912Z" fill="#1F191A"/>
<path d="M119.67 285.175C119.559 285.175 119.453 285.132 119.374 285.055L114.538 280.372C114.467 280.291 114.429 280.187 114.431 280.08C114.434 279.973 114.477 279.871 114.551 279.794C114.626 279.717 114.727 279.671 114.834 279.666C114.941 279.66 115.047 279.695 115.129 279.764L119.965 284.464C120.025 284.523 120.066 284.599 120.082 284.681C120.099 284.763 120.092 284.849 120.06 284.926C120.028 285.004 119.974 285.071 119.905 285.118C119.835 285.165 119.754 285.191 119.67 285.191V285.175Z" fill="#1F191A"/>
<path d="M105.31 233.446C99.7236 232.45 96.381 226.197 98.1635 220.106L105.118 205.998L117.525 208.425L116.665 223.442C116.194 229.771 110.88 234.452 105.31 233.446Z" fill="url(#paint9_linear_181_391)"/>
<path d="M113.37 197.212C115.843 196.1 117.798 193.919 119.228 191.792C115.604 193.63 110.196 195.26 102.884 194.835L102.582 196.097C102.455 196.07 102.326 196.05 102.197 196.037C101.16 195.973 100.136 196.288 99.3151 196.925C98.4944 197.561 97.9336 198.474 97.7375 199.494C97.5414 200.514 97.7235 201.57 98.2498 202.466C98.7761 203.361 99.6104 204.034 100.597 204.359L100.232 205.885C99.8658 207.379 99.7986 208.93 100.034 210.449C100.269 211.968 100.802 213.426 101.603 214.739C102.403 216.051 103.455 217.193 104.698 218.098C105.941 219.003 107.35 219.653 108.845 220.012C110.34 220.37 111.892 220.43 113.41 220.187C114.928 219.944 116.383 219.404 117.692 218.597C119.001 217.791 120.137 216.733 121.036 215.486C121.935 214.239 122.578 212.826 122.929 211.329L125.648 200.014C126.323 197.206 125.927 194.247 124.539 191.715C120.782 196.103 113.37 197.212 113.37 197.212Z" fill="url(#paint10_linear_181_391)"/>
<path d="M216.379 452.47L224.345 467.579L251.959 467.125C251.959 467.125 259.925 468.12 254.873 472.645L218.556 491.814C218.556 491.814 210.59 497.125 206.169 483.117L195.341 463.573L216.379 452.47Z" fill="url(#paint11_linear_181_391)"/>
<path d="M172.45 453.867L168.238 469.936L188.908 488.255C188.908 488.255 194.099 494.37 187.328 494.293L147.605 483.887C147.605 483.887 138.138 482.423 144.345 469.109L147.997 453.917L172.45 453.867Z" fill="url(#paint12_linear_181_391)"/>
<path d="M75.29 322.882H160.381C160.381 322.882 183.179 328.369 224.558 458.083L195.016 470.364L132.794 368.829C132.794 368.829 49.9867 392.101 65.7735 330.275C66.3148 328.161 67.5437 326.288 69.2665 324.95C70.9894 323.611 73.1085 322.884 75.29 322.882V322.882Z" fill="#050542"/>
<path d="M180.178 446.797C180.063 446.795 179.951 446.763 179.852 446.705C179.753 446.647 179.671 446.564 179.613 446.465L150.012 398.168C149.957 398.094 149.919 398.01 149.899 397.92C149.879 397.83 149.878 397.738 149.895 397.647C149.913 397.557 149.949 397.472 150.002 397.396C150.054 397.321 150.122 397.257 150.2 397.209C150.279 397.161 150.366 397.13 150.457 397.118C150.548 397.105 150.641 397.112 150.729 397.137C150.818 397.162 150.9 397.206 150.97 397.264C151.041 397.323 151.099 397.396 151.14 397.478L180.742 445.771C180.834 445.921 180.863 446.102 180.822 446.273C180.78 446.444 180.673 446.592 180.523 446.684C180.421 446.753 180.301 446.792 180.178 446.797V446.797Z" fill="#BBE0F8"/>
<path d="M197.432 383.623C197.298 383.623 197.168 383.583 197.058 383.507C196.948 383.432 196.863 383.326 196.814 383.201C191.013 369.181 184.229 355.588 176.513 342.523C175.644 341.052 175.006 339.907 174.442 338.812C173.878 337.717 168.909 328.422 160.056 323.46C159.903 323.372 159.791 323.227 159.745 323.056C159.699 322.885 159.722 322.704 159.81 322.55C159.898 322.397 160.044 322.285 160.214 322.239C160.385 322.193 160.567 322.217 160.72 322.305C169.911 327.456 175.076 337.119 175.637 338.204C176.198 339.29 176.815 340.399 177.672 341.856C190.438 363.458 197.989 382.534 198.062 382.723C198.127 382.887 198.124 383.069 198.054 383.23C197.984 383.391 197.854 383.518 197.691 383.583C197.608 383.613 197.52 383.626 197.432 383.623Z" fill="#BBE0F8"/>
<path d="M148.664 327.954L88.2519 318.66C85.8785 318.292 85.9814 314.84 88.3714 314.617L130.252 310.72C132.387 310.515 134.542 310.627 136.645 311.052L195.002 323.025L148.664 327.954Z" fill="#007CF4"/>
<path d="M148.664 327.954L171.348 254.381L220.91 260.485L195.009 323.035L148.664 327.954Z" fill="#4250E8"/>
<path d="M192.451 291.132C193.928 286.57 193.127 282.224 190.66 281.425C188.194 280.627 184.998 283.678 183.52 288.241C182.043 292.803 182.845 297.149 185.311 297.948C187.777 298.746 190.974 295.695 192.451 291.132Z" fill="#F5FAFF"/>
<path d="M146.706 325.717H146.629L90.914 316.31C90.8492 316.304 90.7863 316.285 90.7294 316.254C90.6724 316.222 90.6225 316.179 90.5829 316.128C90.5432 316.076 90.5147 316.017 90.4991 315.954C90.4835 315.891 90.4811 315.825 90.4922 315.761C90.5032 315.697 90.5274 315.636 90.5632 315.581C90.599 315.527 90.6457 315.481 90.7003 315.445C90.7549 315.41 90.8162 315.386 90.8804 315.376C90.9446 315.365 91.0103 315.368 91.0733 315.384L146.802 324.784C146.926 324.795 147.04 324.854 147.12 324.949C147.2 325.044 147.239 325.167 147.228 325.291C147.218 325.414 147.159 325.529 147.064 325.609C146.969 325.689 146.846 325.728 146.722 325.717H146.706Z" fill="#4250E8"/>
<path d="M546.68 233.084H538.574V436.935H546.68V233.084Z" fill="#BBE0F8"/>
<path d="M586.389 278.782H498.868L512.786 201.311H567.821L586.389 278.782Z" fill="#4250E8"/>
<path d="M564.186 448.782H521.556C521.556 445.64 522.804 442.627 525.025 440.405C527.247 438.183 530.26 436.935 533.402 436.935H552.356C553.911 436.935 555.452 437.242 556.889 437.837C558.326 438.432 559.632 439.305 560.732 440.405C561.831 441.505 562.704 442.811 563.299 444.249C563.894 445.686 564.2 447.226 564.199 448.782H564.186Z" fill="#4250E8"/>
<path d="M498.868 278.782H510.087C510.087 278.782 505.407 288.876 498.868 278.782Z" fill="#4250E8"/>
<path d="M511.598 278.782H522.817C522.817 278.782 518.123 288.876 511.598 278.782Z" fill="#4250E8"/>
<path d="M524.304 278.782H535.52C535.52 278.782 530.85 288.876 524.304 278.782Z" fill="#4250E8"/>
<path d="M537.021 278.782H548.237C548.237 278.782 543.56 288.876 537.021 278.782Z" fill="#4250E8"/>
<path d="M549.737 278.782H560.953C560.953 278.782 556.276 288.876 549.737 278.782Z" fill="#4250E8"/>
<path d="M562.453 278.782H573.669C573.669 278.782 568.992 288.876 562.453 278.782Z" fill="#4250E8"/>
<path d="M575.17 278.782H586.386C586.386 278.782 581.709 288.876 575.17 278.782Z" fill="#4250E8"/>
<path d="M521.068 201.252L509.917 278.731L510.245 278.778L521.396 201.299L521.068 201.252Z" fill="#4250E8"/>
<path d="M561.12 201.272L560.793 201.332L575.011 278.799L575.338 278.739L561.12 201.272Z" fill="#4250E8"/>
<path d="M529.194 198.992L523.757 276.664L524.089 276.687L529.526 199.015L529.194 198.992Z" fill="#4250E8"/>
<path d="M553.883 201.245L553.553 201.282L562.311 278.75L562.641 278.713L553.883 201.245Z" fill="#4250E8"/>
<path d="M538.397 201.318L536.125 278.788L536.457 278.798L538.729 201.328L538.397 201.318Z" fill="#4250E8"/>
<path d="M547.934 201.288L547.602 201.294L548.913 278.763L549.245 278.757L547.934 201.288Z" fill="#4250E8"/>
<path d="M565.892 445.984H519.295V449.489H565.892V445.984Z" fill="#4250E8"/>
<path d="M535.497 30.1229H419.752C418.14 30.1203 416.543 30.4355 415.053 31.0506C413.563 31.6656 412.209 32.5684 411.068 33.7073C409.928 34.8461 409.023 36.1987 408.405 37.6877C407.788 39.1766 407.47 40.7727 407.47 42.3846V158.13C407.474 161.385 408.77 164.504 411.073 166.804C413.376 169.103 416.497 170.395 419.752 170.395H438.818L423.831 194.626C421.537 198.341 425.514 202.752 429.444 200.853L492.458 170.392H535.497C538.751 170.392 541.873 169.1 544.176 166.801C546.478 164.501 547.774 161.381 547.779 158.127V42.3746C547.777 40.7636 547.459 39.1686 546.841 37.6808C546.222 36.193 545.317 34.8415 544.177 33.7037C543.036 32.5659 541.683 31.664 540.193 31.0496C538.704 30.4352 537.108 30.1203 535.497 30.1229Z" fill="#BBE0F8"/>
<path d="M510.087 82.9469V135.668H451.05V68.0364H495.021L510.087 82.9469Z" fill="#F5FAFF"/>
<path d="M502.738 88.7592H458.236C458.008 88.7453 457.794 88.645 457.638 88.4788C457.481 88.3125 457.394 88.0929 457.394 87.8646C457.394 87.6364 457.481 87.4167 457.638 87.2505C457.794 87.0842 458.008 86.9839 458.236 86.97H502.738C502.861 86.9626 502.983 86.9802 503.098 87.0218C503.213 87.0634 503.318 87.1281 503.407 87.2119C503.496 87.2957 503.567 87.3968 503.616 87.5091C503.664 87.6213 503.689 87.7423 503.689 87.8646C503.689 87.9869 503.664 88.1079 503.616 88.2201C503.567 88.3324 503.496 88.4335 503.407 88.5173C503.318 88.6011 503.213 88.6658 503.098 88.7074C502.983 88.749 502.861 88.7666 502.738 88.7592Z" fill="#4250E8"/>
<path d="M502.738 96.7057H458.236C458.008 96.6918 457.794 96.5915 457.638 96.4253C457.481 96.259 457.394 96.0394 457.394 95.8111C457.394 95.5829 457.481 95.3632 457.638 95.197C457.794 95.0308 458.008 94.9305 458.236 94.9166H502.738C502.861 94.9091 502.983 94.9268 503.098 94.9684C503.213 95.0099 503.318 95.0746 503.407 95.1584C503.496 95.2422 503.567 95.3434 503.616 95.4556C503.664 95.5679 503.689 95.6888 503.689 95.8111C503.689 95.9334 503.664 96.0544 503.616 96.1667C503.567 96.2789 503.496 96.3801 503.407 96.4639C503.318 96.5477 503.213 96.6123 503.098 96.6539C502.983 96.6955 502.861 96.7131 502.738 96.7057Z" fill="#4250E8"/>
<path d="M502.738 104.652H458.236C458.008 104.638 457.794 104.538 457.638 104.372C457.481 104.206 457.394 103.986 457.394 103.758C457.394 103.529 457.481 103.31 457.638 103.143C457.794 102.977 458.008 102.877 458.236 102.863H502.738C502.861 102.856 502.983 102.873 503.098 102.915C503.213 102.956 503.318 103.021 503.407 103.105C503.496 103.189 503.567 103.29 503.616 103.402C503.664 103.514 503.689 103.635 503.689 103.758C503.689 103.88 503.664 104.001 503.616 104.113C503.567 104.225 503.496 104.327 503.407 104.41C503.318 104.494 503.213 104.559 503.098 104.6C502.983 104.642 502.861 104.66 502.738 104.652V104.652Z" fill="#4250E8"/>
<path d="M502.738 112.599H458.236C458.008 112.585 457.794 112.484 457.638 112.318C457.481 112.152 457.394 111.932 457.394 111.704C457.394 111.476 457.481 111.256 457.638 111.09C457.794 110.924 458.008 110.823 458.236 110.81H502.738C502.861 110.802 502.983 110.82 503.098 110.861C503.213 110.903 503.318 110.968 503.407 111.051C503.496 111.135 503.567 111.236 503.616 111.349C503.664 111.461 503.689 111.582 503.689 111.704C503.689 111.826 503.664 111.947 503.616 112.06C503.567 112.172 503.496 112.273 503.407 112.357C503.318 112.441 503.213 112.505 503.098 112.547C502.983 112.588 502.861 112.606 502.738 112.599V112.599Z" fill="#4250E8"/>
<path d="M502.738 120.545H458.236C458.008 120.531 457.794 120.431 457.638 120.265C457.481 120.099 457.394 119.879 457.394 119.651C457.394 119.422 457.481 119.203 457.638 119.037C457.794 118.87 458.008 118.77 458.236 118.756H502.738C502.861 118.749 502.983 118.766 503.098 118.808C503.213 118.849 503.318 118.914 503.407 118.998C503.496 119.082 503.567 119.183 503.616 119.295C503.664 119.407 503.689 119.528 503.689 119.651C503.689 119.773 503.664 119.894 503.616 120.006C503.567 120.118 503.496 120.22 503.407 120.303C503.318 120.387 503.213 120.452 503.098 120.493C502.983 120.535 502.861 120.553 502.738 120.545V120.545Z" fill="#4250E8"/>
<path d="M502.738 128.492H458.236C458.008 128.478 457.794 128.378 457.638 128.211C457.481 128.045 457.394 127.825 457.394 127.597C457.394 127.369 457.481 127.149 457.638 126.983C457.794 126.817 458.008 126.716 458.236 126.703H502.738C502.861 126.695 502.983 126.713 503.098 126.754C503.213 126.796 503.318 126.861 503.407 126.944C503.496 127.028 503.567 127.129 503.616 127.242C503.664 127.354 503.689 127.475 503.689 127.597C503.689 127.719 503.664 127.84 503.616 127.953C503.567 128.065 503.496 128.166 503.407 128.25C503.318 128.334 503.213 128.398 503.098 128.44C502.983 128.482 502.861 128.499 502.738 128.492Z" fill="#4250E8"/>
<path d="M510.088 84.3677H495.021C494.904 84.3682 494.787 84.3454 494.679 84.3006C494.57 84.2559 494.472 84.1902 494.389 84.1072C494.306 84.0242 494.24 83.9256 494.195 83.817C494.15 83.7085 494.128 83.5922 494.128 83.4748V68.0399C494.121 67.9178 494.138 67.7955 494.18 67.6805C494.221 67.5655 494.286 67.4602 494.37 67.3712C494.454 67.2821 494.555 67.2112 494.667 67.1627C494.779 67.1141 494.9 67.0891 495.023 67.0891C495.145 67.0891 495.266 67.1141 495.378 67.1627C495.49 67.2112 495.592 67.2821 495.675 67.3712C495.759 67.4602 495.824 67.5655 495.865 67.6805C495.907 67.7955 495.925 67.9178 495.917 68.0399V82.5786H510.088C510.315 82.5925 510.529 82.6928 510.686 82.859C510.842 83.0252 510.929 83.2449 510.929 83.4731C510.929 83.7014 510.842 83.9211 510.686 84.0873C510.529 84.2535 510.315 84.3538 510.088 84.3677V84.3677Z" fill="#4250E8"/>
<path d="M454.357 81.4254C463.532 77.6251 467.889 67.1069 464.088 57.9322C460.288 48.7576 449.77 44.4008 440.595 48.2011C431.42 52.0013 427.064 62.5196 430.864 71.6942C434.664 80.8689 445.182 85.2257 454.357 81.4254Z" fill="#4250E8"/>
<path d="M443.594 74.8545H443.551C443.335 74.8496 443.123 74.7985 442.928 74.7046C442.733 74.6107 442.561 74.4762 442.423 74.3101L435.844 66.4599C435.716 66.3073 435.619 66.131 435.559 65.941C435.499 65.751 435.477 65.551 435.494 65.3525C435.511 65.154 435.567 64.9609 435.659 64.7841C435.751 64.6073 435.877 64.4503 436.03 64.3222C436.182 64.194 436.359 64.0972 436.549 64.0372C436.739 63.9772 436.939 63.9551 437.137 63.9724C437.336 63.9897 437.529 64.0459 437.705 64.1378C437.882 64.2297 438.039 64.3555 438.167 64.5081L443.638 71.0339L458.541 54.872C458.818 54.5869 459.194 54.4211 459.591 54.4099C459.988 54.3987 460.373 54.5432 460.665 54.8123C460.956 55.0814 461.131 55.4539 461.152 55.8502C461.173 56.2466 461.037 56.6353 460.775 56.9333L444.7 74.3632C444.559 74.5168 444.389 74.6398 444.198 74.7243C444.008 74.8089 443.803 74.8532 443.594 74.8545V74.8545Z" fill="#F5FAFF"/>
<defs>
<linearGradient id="paint0_linear_181_391" x1="364.876" y1="226.24" x2="364.876" y2="195.108" gradientUnits="userSpaceOnUse">
<stop offset="0.51" stop-color="#FFACAA"/>
<stop offset="0.86" stop-color="#FB6B67"/>
</linearGradient>
<linearGradient id="paint1_linear_181_391" x1="364.581" y1="208.77" x2="364.886" y2="169.977" gradientUnits="userSpaceOnUse">
<stop stop-color="#FFACAA"/>
<stop offset="0.23" stop-color="#FFA7A5"/>
<stop offset="0.49" stop-color="#FE9A97"/>
<stop offset="0.77" stop-color="#FC8380"/>
<stop offset="1" stop-color="#FB6B67"/>
</linearGradient>
<linearGradient id="paint2_linear_181_391" x1="387.934" y1="213.557" x2="452.304" y2="322.181" gradientUnits="userSpaceOnUse">
<stop offset="0.16" stop-color="#FFACAC"/>
<stop offset="0.3" stop-color="#FFA6A5"/>
<stop offset="0.49" stop-color="#FD9492"/>
<stop offset="0.72" stop-color="#FB7672"/>
<stop offset="0.81" stop-color="#FA6964"/>
</linearGradient>
<linearGradient id="paint3_linear_181_391" x1="316.06" y1="533.451" x2="335.787" y2="410.971" gradientUnits="userSpaceOnUse">
<stop offset="0.3" stop-color="#FFACAA"/>
<stop offset="0.54" stop-color="#FFAAA7"/>
<stop offset="0.69" stop-color="#FEA19F"/>
<stop offset="0.81" stop-color="#FD9491"/>
<stop offset="0.92" stop-color="#FC807D"/>
<stop offset="1" stop-color="#FB6B67"/>
</linearGradient>
<linearGradient id="paint4_linear_181_391" x1="-10782.7" y1="117671" x2="-15150.6" y2="94147.8" gradientUnits="userSpaceOnUse">
<stop offset="0.3" stop-color="#FFACAA"/>
<stop offset="0.54" stop-color="#FFAAA7"/>
<stop offset="0.69" stop-color="#FEA19F"/>
<stop offset="0.81" stop-color="#FD9491"/>
<stop offset="0.92" stop-color="#FC807D"/>
<stop offset="1" stop-color="#FB6B67"/>
</linearGradient>
<linearGradient id="paint5_linear_181_391" x1="54388" y1="40219.7" x2="36427.6" y2="33302.9" gradientUnits="userSpaceOnUse">
<stop offset="0.16" stop-color="#FFACAC"/>
<stop offset="0.3" stop-color="#FFA6A5"/>
<stop offset="0.49" stop-color="#FD9492"/>
<stop offset="0.72" stop-color="#FB7672"/>
<stop offset="0.81" stop-color="#FA6964"/>
</linearGradient>
<linearGradient id="paint6_linear_181_391" x1="102.366" y1="340.263" x2="102.051" y2="292.089" gradientUnits="userSpaceOnUse">
<stop offset="0.34" stop-color="#FFACAA"/>
<stop offset="0.45" stop-color="#FFA7A4"/>
<stop offset="0.6" stop-color="#FE9795"/>
<stop offset="0.75" stop-color="#FC7E7B"/>
<stop offset="0.85" stop-color="#FB6B67"/>
</linearGradient>
<linearGradient id="paint7_linear_181_391" x1="49.7244" y1="292.972" x2="58.846" y2="263.818" gradientUnits="userSpaceOnUse">
<stop offset="0.26" stop-color="#FFACAC"/>
<stop offset="0.71" stop-color="#FC807D"/>
<stop offset="1" stop-color="#FA6964"/>
</linearGradient>
<linearGradient id="paint8_linear_181_391" x1="115.534" y1="293.337" x2="27.7935" y2="270.888" gradientUnits="userSpaceOnUse">
<stop offset="0.3" stop-color="#FFACAC"/>
<stop offset="0.39" stop-color="#FFA6A5"/>
<stop offset="0.52" stop-color="#FD9492"/>
<stop offset="0.68" stop-color="#FB7672"/>
<stop offset="0.74" stop-color="#FA6964"/>
</linearGradient>
<linearGradient id="paint9_linear_181_391" x1="104.079" y1="240.179" x2="110.01" y2="207.281" gradientUnits="userSpaceOnUse">
<stop offset="0.04" stop-color="#FFACAC"/>
<stop offset="0.2" stop-color="#FFA6A5"/>
<stop offset="0.42" stop-color="#FD9492"/>
<stop offset="0.69" stop-color="#FB7672"/>
<stop offset="0.8" stop-color="#FA6964"/>
</linearGradient>
<linearGradient id="paint10_linear_181_391" x1="109.066" y1="235.721" x2="112.462" y2="190.579" gradientUnits="userSpaceOnUse">
<stop offset="0.04" stop-color="#FFACAC"/>
<stop offset="0.22" stop-color="#FFA6A5"/>
<stop offset="0.48" stop-color="#FD9492"/>
<stop offset="0.78" stop-color="#FB7672"/>
<stop offset="0.9" stop-color="#FA6964"/>
</linearGradient>
<linearGradient id="paint11_linear_181_391" x1="-43475.3" y1="95664.1" x2="-45137.8" y2="88772.4" gradientUnits="userSpaceOnUse">
<stop offset="0.3" stop-color="#FFACAC"/>
<stop offset="0.39" stop-color="#FFA6A5"/>
<stop offset="0.52" stop-color="#FD9492"/>
<stop offset="0.68" stop-color="#FB7672"/>
<stop offset="0.74" stop-color="#FA6964"/>
</linearGradient>
<linearGradient id="paint12_linear_181_391" x1="-91405.9" y1="48549.1" x2="-87673.8" y2="42712.6" gradientUnits="userSpaceOnUse">
<stop offset="0.3" stop-color="#FFACAC"/>
<stop offset="0.39" stop-color="#FFA6A5"/>
<stop offset="0.52" stop-color="#FD9492"/>
<stop offset="0.68" stop-color="#FB7672"/>
<stop offset="0.74" stop-color="#FA6964"/>
</linearGradient>
</defs>
</svg>
