<svg width="50" height="50" viewBox="0 0 50 50" fill="none" xmlns="http://www.w3.org/2000/svg">
<rect width="50" height="50" rx="25" fill="#00ACEE"/>
<path d="M32.633 20.997C32.646 21.172 32.646 21.346 32.646 21.52C32.646 26.845 28.593 32.981 21.186 32.981C18.904 32.981 16.784 32.32 15 31.172C15.324 31.209 15.636 31.222 15.973 31.222C17.856 31.222 19.589 30.586 20.974 29.501C19.203 29.464 17.719 28.304 17.207 26.708C17.456 26.745 17.706 26.77 17.968 26.77C18.329 26.77 18.692 26.72 19.029 26.633C17.182 26.259 15.799 24.638 15.799 22.68V22.63C16.336 22.929 16.959 23.116 17.619 23.141C16.534 22.419 15.823 21.184 15.823 19.787C15.823 19.039 16.022 18.353 16.371 17.755C18.354 20.198 21.335 21.795 24.677 21.97C24.615 21.67 24.577 21.359 24.577 21.047C24.577 18.827 26.373 17.019 28.605 17.019C29.765 17.019 30.812 17.505 31.548 18.291C32.458 18.116 33.33 17.779 34.104 17.318C33.805 18.253 33.168 19.039 32.333 19.538C33.144 19.45 33.93 19.226 34.652 18.914C34.104 19.712 33.419 20.423 32.633 20.997Z" fill="white"/>
</svg>
