<svg id="Layer_1" data-name="Layer 1" xmlns="http://www.w3.org/2000/svg" viewBox="0 0 31.9 42.4"><defs><style>.cls-1{fill:#dadefe;}</style></defs><title>user</title><path class="cls-1" d="M17.33,28.28a3.5,3.5,0,0,0-3.79.76,3.41,3.41,0,0,0-.95,1.78,3.44,3.44,0,0,0,1.48,3.57A3.4,3.4,0,0,0,16,35h0a3.48,3.48,0,0,0,3.48-3.48h0a3.4,3.4,0,0,0-.59-1.93A3.45,3.45,0,0,0,17.33,28.28Zm.14,4.2a1.76,1.76,0,0,1-1.82.75,1.77,1.77,0,0,1-1.28-2.41A1.77,1.77,0,0,1,16,29.73a1.78,1.78,0,0,1,1.77,1.77A1.79,1.79,0,0,1,17.47,32.48Z" transform="translate(-0.05 0.2)"/><path class="cls-1" d="M31.31,21.44a2.13,2.13,0,0,0-1.53-.64H26a10.81,10.81,0,0,0,.68-3.74h0V13.8h0v0h0v-2.6h0A11.36,11.36,0,0,0,4,11.16H4v1.31H4a.78.78,0,0,0,.07.33.8.8,0,0,0,.18.27.77.77,0,0,0,.28.19.65.65,0,0,0,.2.05h0l.58.09v3.65A10.81,10.81,0,0,0,6,20.8H2.22a2.17,2.17,0,0,0-.84.17,2.2,2.2,0,0,0-.71.49,2.3,2.3,0,0,0-.47.72A2.4,2.4,0,0,0,.05,23h0l1.31,17h0A2.19,2.19,0,0,0,2,41.56a2.15,2.15,0,0,0,1.53.64H28.47V42h0v.2A2.16,2.16,0,0,0,30,41.57a2.2,2.2,0,0,0,.65-1.5h0L32,23h0A2.13,2.13,0,0,0,31.31,21.44ZM4.76,13.12ZM.25,23h0Zm24.94-9Zm-3.61-2.6c1,.19,2,.91,3.41,2.67v3h0a9,9,0,0,1-.82,3.73H7.83A9.09,9.09,0,0,1,7,17.06H7V13.62a24.53,24.53,0,0,0,10.92-1.51h0A7.55,7.55,0,0,1,21.58,11.41ZM25,11.16h0v.36A7.26,7.26,0,0,0,22.84,10L24.5,8.16A9.48,9.48,0,0,1,25,11.16ZM5.7,11.74v-.58h0A9.64,9.64,0,0,1,22.16,4.34a9.76,9.76,0,0,1,1.59,2.1L20.87,9.65a12.1,12.1,0,0,0-3.49.84h0A23,23,0,0,1,6.45,11.84h0a.77.77,0,0,0-.29-.07H6.05ZM28.47,40.69v0Zm.46-.73h0s0,0,0,.06a.42.42,0,0,1-.13.32.43.43,0,0,1-.32.14H3.54a.58.58,0,0,1-.19,0,.58.58,0,0,1-.15-.11.54.54,0,0,1-.1-.16.63.63,0,0,1,0-.19h0v0L1.76,23a.43.43,0,0,1,.14-.32.43.43,0,0,1,.32-.14H29.78a.44.44,0,0,1,.46.42Zm1.51.1Z" transform="translate(-0.05 0.2)"/></svg>