<svg width="18" height="18" viewBox="0 0 18 18" fill="none" xmlns="http://www.w3.org/2000/svg">
<path d="M3.18749 16.3123C3.11082 16.6448 3.24416 16.9907 3.52582 17.1848C3.66916 17.2832 3.83416 17.3332 3.99999 17.3332C4.16082 17.3332 4.32249 17.2865 4.46249 17.1932L8.99999 14.1682L13.5375 17.1932C13.8275 17.3865 14.2075 17.379 14.4917 17.1732C14.7733 16.9673 14.8975 16.6065 14.8017 16.2715L13.2775 10.9382L17.0575 7.5365C17.305 7.314 17.3958 6.96484 17.2892 6.64984C17.1817 6.33484 16.8975 6.11234 16.5658 6.0865L11.815 5.70817L9.75916 1.15734C9.62499 0.858171 9.32749 0.666504 8.99999 0.666504C8.67249 0.666504 8.37499 0.858171 8.24082 1.1565L6.18499 5.70817L1.43416 6.08567C1.10749 6.1115 0.826655 6.32567 0.716655 6.63317C0.604988 6.94067 0.684989 7.28484 0.918322 7.51317L4.42999 10.9357L3.18749 16.3123ZM8.99999 3.524L10.7017 7.2915L11.1917 7.33067C11.1925 7.33067 11.1925 7.33067 11.1925 7.33067L14.5025 7.59317L11.7767 10.0465C11.7758 10.0473 11.7758 10.0473 11.7758 10.0482L11.39 10.3948L11.5325 10.8923C11.5325 10.8923 11.5325 10.894 11.5325 10.8948L12.5767 14.549L8.99999 12.1648V3.524Z" fill="#FFBC11"/>
</svg>
